<svg width="124" height="122" viewBox="0 0 124 122" fill="none" xmlns="http://www.w3.org/2000/svg">
<path d="M38.1624 32.8906L38.1043 19.0649C38.1055 15.4989 37.5314 10.0268 40.2378 7.38457C43.1812 4.51088 48.5508 4.17218 52.4572 3.99829C54.2321 4.00231 56.0192 4.22879 57.7894 4.32549C61.886 4.54809 66.0037 4.83093 70.0835 5.259C73.6297 5.63109 78.1336 5.28837 80.874 7.97698C83.579 10.6308 83.1409 14.5442 83.2606 18.0007C83.4077 21.7667 83.4901 25.535 83.5079 29.3037C83.5273 31.9354 83.4636 34.7423 83.5997 37.3547C88.7692 37.9838 94.0569 38.3321 99.1958 39.0135C103.043 39.5236 111.041 39.4189 113.489 42.5786C114.229 43.536 114.717 44.6644 114.907 45.8598C115.189 47.7114 115.097 50.9631 115.107 52.9554C115.138 57.1704 115.144 61.3856 115.124 65.6005L115.111 71.7996C115.118 74.6042 115.269 77.8895 113.51 80.3494C111.528 83.1196 107.389 85.3615 104.076 86.0754C99.8624 86.7946 94.8697 85.7167 90.6069 85.2007C89.0808 85.0159 83.5621 84.602 82.4386 84.1669C82.1403 84.6245 82.299 85.1781 82.237 85.8137C82.0427 92.7621 82.3461 100.01 82.2187 106.985C82.1782 109.206 81.9283 111.491 80.2405 113.084C77.7149 115.468 71.4836 118.117 68.0365 117.924C63.5101 117.67 58.3555 116.706 53.7966 116.074C49.7329 115.38 45.4827 115.151 41.4984 114.075C38.351 113.224 37.1473 111.055 36.757 108.02C36.3358 104.744 36.4508 101.55 36.4253 98.2766C36.3825 92.7721 36.0656 87.168 36.2388 81.6786C36.2861 80.3442 34.9566 79.3441 33.937 78.6664C33.3136 78.6493 33.002 78.6365 32.388 78.5309C29.2049 78.4523 25.6796 77.7782 22.503 77.3589C19.1395 76.9148 15.2064 76.7082 11.9806 75.7172C9.72924 75.0255 7.5412 72.5696 6.95004 70.2987C6.14424 67.2033 6.51857 63.6444 6.38705 60.4485C6.13888 54.5141 6.17069 48.5931 6.19178 42.6567C6.2113 39.7051 6.83564 37.3078 9.04337 35.2505C11.7226 32.7539 15.9249 31.3566 19.5609 31.4416C25.6141 31.5829 32.2189 32.9269 38.1624 32.8906Z" fill="#EEADAF"/>
<path d="M69.6602 37.7048C70.2913 37.8972 71.7889 38.392 72.3704 38.4576C72.9993 38.6283 74.9375 39.4973 75.3265 39.9217C75.3338 40.3604 78.0972 43.7979 78.533 44.5264C79.1223 45.6945 80.451 48.5 80.717 49.693L80.9076 50.13C81.0643 50.9273 81.2714 51.8587 81.3387 52.655L80.9599 52.9744C81.0208 53.828 81.0991 54.7243 81.1389 55.5753C81.2323 56.2392 81.2883 56.9317 81.2499 57.6029L81.3792 57.6614L81.3706 57.7495C81.4821 57.4325 81.5481 57.1777 81.7476 56.9067L81.9072 57.9362C82.2041 60.2639 82.0066 63.2952 82.1381 65.7424C82.4162 70.9134 79.788 75.447 77.2053 79.6774C76.1297 81.4336 78.1201 82.3251 78.2095 83.0917C77.8869 83.3884 77.6779 83.2823 77.1239 83.2843C78.3486 83.6441 81.7048 83.8127 82.4387 84.1669C82.1404 84.6246 82.2991 85.1781 82.2371 85.8137C82.0428 92.7621 82.3463 100.01 82.2188 106.985C82.1783 109.206 81.9284 111.491 80.2406 113.084C77.715 115.468 71.4837 118.117 68.0366 117.924C63.5102 117.67 58.3556 116.706 53.7967 116.074C49.7331 115.38 45.4828 115.151 41.4985 114.075C38.3511 113.224 37.1474 111.055 36.7571 108.02C36.3359 104.744 36.4509 101.55 36.4254 98.2766C36.3826 92.7721 36.0657 87.168 36.239 81.6786C36.2863 80.3442 34.9568 79.3441 33.9372 78.6665C33.3137 78.6493 33.0021 78.6365 32.3881 78.5309C32.8309 78.5084 32.9869 78.5197 33.4012 78.3517C33.4384 78.2928 33.4759 78.234 33.5133 78.175C32.9963 77.3876 30.6243 75.0639 30.1807 74.475C27.8276 71.3522 24.9277 66.6293 24.3294 62.8342C24.4091 62.3694 24.1501 61.3103 24.0845 60.7369L24.3721 61.3923L24.7166 61.1433C25.4268 61.0852 27.321 60.5286 27.747 60.594C29.5425 60.8872 31.3961 61.2599 33.1425 61.7457C40.7534 63.863 49.0933 64.8025 55.8254 59.7684C59.6029 57.0738 63.5307 54.2183 66.9508 51.0991C69.2476 49.0044 70.1309 46.7869 69.8764 43.7268C69.804 42.8558 69.3966 38.0462 69.6602 37.7048Z" fill="#D86571"/>
<path d="M36.2389 81.6786L36.4293 81.3949C36.6297 81.4449 38.8459 84.1549 39.499 84.6441C42.3117 86.7505 45.0287 89.3792 48.5242 90.2767C49.0796 90.4208 50.1111 90.2399 50.5527 90.4722C50.5475 90.6829 50.4832 90.9938 50.6175 91.1308C52.8769 93.4332 56.3746 93.8072 59.3357 93.9197C64.1679 94.1033 67.0528 90.8804 70.3229 87.9093C70.5221 87.7283 71.5765 87.8638 71.81 87.8062C72.074 86.6565 71.5102 85.1233 71.8103 83.7894C71.7913 83.5631 71.7906 83.5641 71.71 83.3513C70.9859 83.1242 70.882 83.4525 70.2415 83.3348L70.199 83.2102C71.0348 82.7268 76.1903 82.8789 77.1238 83.2843C78.3485 83.6442 81.7047 83.8127 82.4386 84.1669C82.1403 84.6246 82.299 85.1781 82.237 85.8137C82.0427 92.7621 82.3462 100.01 82.2187 106.985C82.1782 109.206 81.9283 111.491 80.2405 113.084C77.7149 115.468 71.4836 118.117 68.0365 117.924C63.5102 117.67 58.3555 116.706 53.7966 116.074C49.733 115.38 45.4828 115.151 41.4985 114.075C38.351 113.224 37.1473 111.055 36.757 108.02C36.3359 104.744 36.4508 101.55 36.4253 98.2767C36.3826 92.7721 36.0656 87.168 36.2389 81.6786Z" fill="#DE989C"/>
<path d="M71.8101 83.7893C71.791 83.5631 71.7903 83.564 71.7098 83.3512C70.9857 83.1241 70.8818 83.4524 70.2413 83.3347L70.1987 83.2102C71.0346 82.7267 76.1901 82.8788 77.1235 83.2843C78.3483 83.6441 81.7045 83.8127 82.4384 84.1669C82.1401 84.6245 82.2988 85.178 82.2368 85.8136L82.0301 85.1015C81.7452 85.1275 81.6698 85.6086 81.4441 85.7003C80.1662 86.2131 78.2725 87.895 76.9681 86.7016C76.1504 85.9535 73.3861 83.5928 72.2045 84.1594C71.9528 84.7653 72.2463 85.4529 72.0489 86.2124C71.9072 85.6064 72.0192 84.7024 71.8341 83.8896L71.8101 83.7893Z" fill="#B6666E"/>
<path d="M81.1386 55.5753C81.232 56.2392 81.288 56.9317 81.2497 57.6029L81.379 57.6614L81.3704 57.7495C81.4819 57.4325 81.5479 57.1776 81.7473 56.9067L81.907 57.9362C81.8295 58.2927 81.4415 58.8264 81.3062 59.284C80.4506 62.1782 79.7941 65.2043 78.6745 68.0069C77.9769 69.7341 77.1492 71.4058 76.1987 73.0077C75.619 73.9812 74.6416 75.3437 73.8995 76.1944C72.8979 77.3427 70.6494 81.5237 69.4003 82.0615L69.3477 81.9601C69.9086 81.2659 70.894 79.1705 71.6105 78.1141C72.7793 76.2442 74.5605 74.4212 75.6281 72.5274C78.4291 67.5592 81.0313 61.2909 81.1386 55.5753Z" fill="#A7454F"/>
<path d="M80.96 52.9744C80.7939 52.6247 80.4921 50.0726 80.717 49.693L80.9077 50.13C81.0643 50.9273 81.2714 51.8587 81.3387 52.6549L80.96 52.9744Z" fill="#A7454F"/>
<path d="M34.6021 36.5914C38.9585 35.4909 43.2459 35.6566 47.5404 37.5125C47.5589 37.5236 47.5773 37.5346 47.5957 37.5457C49.315 38.214 51.0686 39.1199 52.7173 39.9601C52.8766 39.9252 53.0147 39.7933 53.076 39.7839C55.2931 39.4443 57.4543 38.2166 59.6002 37.7378C61.7882 37.2494 67.604 36.9466 69.6601 37.7048C69.3965 38.0461 69.8039 42.8557 69.8763 43.7267C70.1308 46.7869 69.2475 49.0043 66.9507 51.099C63.5306 54.2183 59.6028 57.0737 55.8253 59.7683C49.0932 64.8025 40.7533 63.8629 33.1424 61.7457C31.396 61.2598 29.5424 60.8872 27.7469 60.594C27.3209 60.5285 25.4267 61.0852 24.7165 61.1432L24.372 61.3922L24.0844 60.7368C23.3699 58.6923 23.5809 53.4485 23.4694 51.1179C23.4435 50.5773 24.2553 48.3393 24.0081 47.6086C23.9911 45.076 27.4335 41.0637 29.0212 39.2573C29.1164 39.2206 30.0941 38.5895 30.286 38.4772C31.7047 37.6463 32.9945 36.983 34.6021 36.5914Z" fill="#FC8F96"/>
<path d="M47.5957 37.5458C49.315 38.214 51.0687 39.12 52.7173 39.9602C52.8637 40.1507 53.05 40.2258 53.2633 40.3432C53.6625 40.2627 53.5845 40.2347 53.919 39.89L53.9781 39.9847L53.8729 39.9666L53.9832 40.0894L53.8182 40.0587L53.7768 40.1326L53.9865 40.3471L53.9118 41.1449C53.5346 41.6869 53.4187 42.05 52.9132 42.5747C52.4346 43.0714 51.1277 43.8526 50.7695 44.3343C50.1856 45.1193 49.6058 46.7312 48.8388 47.4589L48.7335 47.3503C50.164 45.639 50.5699 44.0061 51.2629 41.9577C51.4146 41.5091 52.5399 40.8062 52.6829 40.3434C52.0551 39.3828 48.2363 38.4383 47.5957 37.5458Z" fill="#FD8488"/>
<path d="M29.0211 39.2573C28.9555 38.795 29.832 38.7652 30.0974 38.1023C29.9207 37.8669 29.7159 37.8954 29.4084 37.8898C23.1118 37.7747 16.7096 37.4219 10.4668 36.5003C11.2752 36.1663 11.4765 36.0985 11.47 35.1795C12.4672 34.4824 26.0793 35.5882 28.4231 35.8719C30.0787 36.0724 31.8673 35.773 33.4745 35.7681C33.8854 36.0329 34.2154 36.2913 34.602 36.5914C32.9944 36.983 31.7046 37.6463 30.2859 38.4772C30.094 38.5895 29.1163 39.2206 29.0211 39.2573Z" fill="#FCD9D9"/>
<path d="M72.3702 38.4575C71.6796 37.526 71.8576 33.6694 71.8338 32.4259L71.6434 24.7073C71.6203 23.2194 71.6706 21.5474 71.5928 20.088L71.6882 20.0897C71.924 20.9224 71.7586 23.5834 71.7785 24.6176C71.8487 28.2812 72.0217 31.9055 72.0057 35.5681C71.9902 39.1371 72.8387 37.9573 75.3088 39.6345C75.4428 39.7251 75.7962 39.6628 75.9251 39.6332C76.0265 39.4733 76.2125 38.516 76.201 38.3152C78.7622 35.2193 79.3816 37.8494 80.5631 39.0998C80.7319 39.2784 81.7088 38.4914 82.4557 38.977L82.4733 39.117C80.7338 39.3969 78.2258 39.3108 76.3708 39.7362C76.1043 39.7974 75.5577 39.936 75.3263 39.9216C74.9373 39.4972 72.9991 38.6282 72.3702 38.4575Z" fill="#B6666E"/>
<path d="M24.008 47.6086C24.2552 48.3393 23.4434 50.5774 23.4692 51.1179C23.5808 53.4486 23.3698 58.6924 24.0842 60.7369C24.1499 61.3103 24.4089 62.3695 24.3292 62.8342C24.0823 62.1583 23.7691 60.6239 23.6333 59.859C22.8714 55.5696 22.7177 51.7823 24.008 47.6086Z" fill="#FD8488"/>
<path d="M78.5332 44.5264C80.64 44.9397 81.102 48.3399 80.9078 50.13L80.7172 49.693C80.4511 48.5001 79.1225 45.6945 78.5332 44.5264Z" fill="#FC8F96"/>
<path d="M80.96 52.9743L81.3387 52.6549C81.5336 53.8927 81.7208 55.636 81.7476 56.9067C81.5482 57.1776 81.4822 57.4324 81.3706 57.7495L81.3792 57.6613L81.25 57.6028C81.2883 56.9317 81.2323 56.2391 81.1389 55.5753C81.0991 54.7243 81.0208 53.828 80.96 52.9743Z" fill="#864045"/>
<path d="M77.0259 40.7794C79.4944 40.8018 82.9723 41.6265 85.4988 41.9116C86.5469 42.0299 88.1676 42.0819 89.1055 42.2407C92.6134 42.835 95.9883 42.9783 99.4803 43.6629C100.886 43.9384 102.002 43.5804 103.519 44.2482L103.464 44.3557C102.555 43.9364 100.385 44.4005 99.3452 43.9326C99.8009 44.5085 100.04 43.9851 100.66 45.0713C100.568 45.142 100.474 45.2054 100.373 45.2641C98.3873 46.4264 91.278 45.3053 88.7347 45.0673C87.0323 44.908 85.1495 44.9039 83.4847 44.5128C82.5925 44.3032 81.6146 43.9974 80.7737 43.6291C80.0915 43.3303 79.417 42.9257 78.6972 42.7396C78.7767 42.9184 78.8045 42.9724 78.8475 43.1709C78.5981 42.9331 78.4439 42.8752 78.1418 42.7284C78.0679 41.8181 80.4861 41.6714 81.1728 41.608C79.7359 41.1292 78.5191 41.092 77.0259 40.7794Z" fill="#FCD9D9"/>
<path d="M45.6346 6.73415C47.1822 6.58347 52.2251 7.17325 54.0599 7.31779C59.3555 7.73502 64.9452 7.82566 70.1763 8.48172L70.2168 8.55211L69.2923 8.58385C69.2776 8.76466 69.3515 8.98603 69.3983 9.16657C69.2303 9.44949 68.7218 9.88121 68.4569 10.1256C67.8628 10.1158 67.489 10.1296 66.8975 10.1852C64.7254 10.1923 62.5951 10.1889 60.4225 10.1051C59.7028 10.0773 58.5973 10.3647 57.9523 10.2491L57.8847 10.2366C57.2275 10.1209 55.9472 9.35974 55.7063 9.35631C52.1873 9.30621 48.6927 9.07211 45.183 8.82751C44.5917 8.78628 43.9623 8.78071 43.3906 8.6306L43.4445 8.55042L44.3255 8.55949L44.3583 8.43752L43.9299 8.08563C43.701 6.95882 44.0988 7.3177 44.2619 6.80307C44.6763 6.70627 45.2003 6.73174 45.6346 6.73415Z" fill="#FCD9D9"/>
</svg>
