<svg width="186" height="194" viewBox="0 0 186 194" fill="none" xmlns="http://www.w3.org/2000/svg">
<g clip-path="url(#clip0_91_2082)">
<path d="M137.011 116.972C136.514 117.763 135.396 121.193 135.066 122.259C130.011 138.586 120.42 154.558 104.265 161.791C99.5946 163.882 96.7747 164.124 91.8501 164.508C89.4442 164.695 86.665 165.899 83.5753 166.017C75.5445 166.327 67.3221 163.933 60.3456 159.999C53.6996 156.067 47.966 150.351 45.1603 143.109C44.6886 141.89 43.1987 138.649 43.272 137.469C40.7223 127.623 43.9824 117.219 48.7241 108.609C49.0493 107.773 50.2748 105.812 50.757 104.714C51.5322 102.948 51.8369 101.607 52.4819 99.9146C52.7782 100.027 52.8047 100.046 53.1035 100.101C53.7842 100.226 54.8835 101.435 55.2601 101.925C55.5852 102.348 56.069 104.271 55.9261 104.733C55.3767 106.512 53.5595 108.219 52.5513 109.67C51.6265 111.002 50.3445 112.718 49.5953 114.064C48.1593 116.644 47.3998 119.557 46.6453 122.369C46.2006 125.211 45.8367 128.015 45.9982 130.905C46.8299 132.669 46.1159 136.436 47.5136 138.141C48.1952 138.972 49.1892 140.103 50.0608 140.708C49.7209 139.763 48.6125 136.353 48.7262 135.481L48.863 135.403C49.4949 138.917 50.7335 142.296 52.5252 145.385C53.2757 146.607 53.9538 147.534 54.7898 148.692C56.0902 149.872 57.871 151.37 59.0869 152.54C61.2053 154.021 63.598 155.457 65.5808 156.884C65.8869 156.915 67.645 157.688 68.0289 157.86C70.8809 159.139 73.7539 159.662 76.8195 160.155C77.3311 160.218 77.6504 160.29 78.152 160.145C72.1961 156.251 66.7766 150.842 64.9988 143.717C64.6977 142.874 64.4008 140.931 64.2921 140.017C63.6295 134.64 64.2359 129.183 66.0643 124.083C68.045 118.806 72.0089 114.511 77.1105 112.114C77.2317 112.024 77.7762 111.792 77.9262 111.758C78.8305 111.575 79.1567 110.303 79.4891 109.553C81.1443 105.814 83.1064 103.111 86.759 101.246C94.4895 97.2987 101.669 102.046 104.444 109.549C104.999 111.052 105.404 112.659 105.981 114.154C110.653 113.105 120.191 115.437 122.055 120.459C126.417 127.703 121.622 135.662 115.385 139.725C114.573 140.254 113.637 140.671 112.84 141.226C112.497 142.711 112.15 143.928 111.563 145.357C111.215 146.205 110.756 147.015 110.44 147.84C108.599 151.044 108.506 151.313 106.002 154.167C107.651 153.408 109.311 151.888 110.813 150.954C111.187 150.53 112.093 149.816 112.569 149.416C118.941 144.055 122.725 137.56 126.327 130.134C127.133 128.424 127.901 126.616 128.664 124.879C129.708 124.041 129.66 123.294 130.951 122.511C131.193 122.571 131.587 122.76 131.829 122.867C131.847 122.688 131.916 122.68 132.013 122.545C132.265 122.192 132.327 121.505 132.489 120.979C132.66 120.242 133.207 118.94 133.501 118.214C133.529 118.041 133.814 117.306 133.892 117.097L133.986 116.694C134.015 116.444 133.845 116.209 133.706 116.01L134.226 116.04C134.677 116.233 135.257 116.46 135.742 116.37L137.011 116.972ZM69.9889 141.243C70.5111 142.715 71.342 144.85 72.0627 146.201C72.2392 146.454 72.4444 146.729 72.6033 146.988C75.5892 151.848 80.6062 155.773 86.0935 157.363C87.7287 157.836 89.5193 158.04 91.2461 158.25C91.9684 158.081 92.7846 157.662 93.4462 157.322C98.4069 154.775 102.175 151.149 105.057 146.42C105.472 145.739 106.484 143.926 106.719 143.185C103.868 144.113 93.0214 145.274 90.4473 144.502C89.1943 144.656 84.4812 144.249 83.3009 143.879C81.856 141.586 81.1917 138.621 80.2959 136.055C78.711 131.509 77.874 126.651 77.5516 121.857C77.4505 120.354 77.3539 118.816 77.517 117.315C76.9319 117.826 76.2924 118.335 75.6892 118.83C70.285 123.787 68.9471 130.868 69.2684 137.927C69.3 138.623 70.0372 140.774 69.9889 141.243Z" fill="#F66588"/>
<path d="M137.011 116.972C136.514 117.763 135.396 121.193 135.066 122.259C130.011 138.586 120.42 154.558 104.265 161.791C99.5946 163.882 96.7747 164.124 91.8501 164.508C89.4442 164.695 86.665 165.899 83.5753 166.017C75.5445 166.327 67.3221 163.933 60.3456 159.999C53.6996 156.067 47.966 150.351 45.1603 143.109C44.6886 141.89 43.1987 138.649 43.272 137.469C40.7223 127.623 43.9824 117.219 48.7241 108.609C49.0493 107.773 50.2748 105.812 50.757 104.714C51.5322 102.948 51.8369 101.607 52.4819 99.9146C52.7782 100.027 52.8047 100.046 53.1035 100.101C53.7842 100.226 54.8835 101.435 55.2601 101.925C55.5852 102.348 56.069 104.271 55.9261 104.733C55.3767 106.512 53.5595 108.219 52.5513 109.67C51.6265 111.002 50.3445 112.718 49.5953 114.064C48.1593 116.644 47.3998 119.557 46.6453 122.369C46.2006 125.211 45.8367 128.015 45.9982 130.905C46.8299 132.669 46.1159 136.436 47.5136 138.141C48.1952 138.972 49.1892 140.103 50.0608 140.708C49.7209 139.763 48.6125 136.353 48.7262 135.481L48.863 135.403C49.4949 138.917 50.7335 142.296 52.5252 145.385C53.2757 146.607 53.9538 147.534 54.7898 148.692C56.0902 149.872 57.871 151.37 59.0869 152.54C61.2053 154.021 63.598 155.457 65.5808 156.884C65.8869 156.915 67.645 157.688 68.0289 157.86C70.8809 159.139 73.7539 159.662 76.8195 160.155C77.3311 160.218 77.6504 160.29 78.152 160.145C72.1961 156.251 66.7766 150.842 64.9988 143.717C64.6977 142.874 64.4008 140.931 64.2921 140.017C63.6295 134.64 64.2359 129.183 66.0643 124.083C68.045 118.806 72.0089 114.511 77.1105 112.114C76.9527 112.769 75.7223 112.907 75.2652 113.426C75.4137 113.873 75.3102 113.727 75.6335 114.02L75.8102 113.976C76.3081 113.385 77.3726 112.88 78.1046 112.637C78.2425 112.592 78.1828 112.689 78.4296 112.532L78.5109 112.592C78.4977 112.704 78.4814 112.816 78.4619 112.927C78.4078 113.227 78.214 114.181 77.9973 114.329C77.8313 114.926 77.5053 116.375 77.2404 116.77C76.5037 117.867 76.1308 117.414 75.6892 118.83C70.285 123.787 68.9471 130.868 69.2684 137.927C69.3 138.623 70.0372 140.774 69.9889 141.243C70.5111 142.715 71.342 144.85 72.0627 146.201C72.2392 146.454 72.4444 146.729 72.6033 146.988C75.5892 151.848 80.6062 155.773 86.0935 157.363C87.7287 157.836 89.5193 158.04 91.2461 158.25C91.9684 158.081 92.7846 157.662 93.4462 157.322C98.4069 154.775 102.175 151.149 105.057 146.42C105.472 145.739 106.484 143.926 106.719 143.185C106.988 143.265 107.391 143.034 107.781 142.963C109.351 142.467 111.351 141.852 112.84 141.226C112.497 142.711 112.15 143.928 111.563 145.357C111.215 146.205 110.756 147.015 110.44 147.84C108.599 151.044 108.506 151.313 106.002 154.167C107.651 153.408 109.311 151.888 110.813 150.954C111.187 150.53 112.093 149.816 112.569 149.416C118.941 144.055 122.725 137.56 126.327 130.134C127.133 128.424 127.901 126.616 128.664 124.879C129.708 124.041 129.66 123.294 130.951 122.511C131.193 122.571 131.587 122.76 131.829 122.867C131.847 122.688 131.916 122.68 132.013 122.545C132.265 122.192 132.327 121.505 132.489 120.979C132.66 120.242 133.207 118.94 133.501 118.214C133.529 118.041 133.814 117.306 133.892 117.097L133.986 116.694C134.015 116.444 133.845 116.209 133.706 116.01L134.226 116.04C134.677 116.233 135.257 116.46 135.742 116.37L137.011 116.972Z" fill="#F0648A"/>
<path d="M130.951 122.511C131.192 122.571 131.587 122.76 131.829 122.867C131.653 123.84 130.752 125.856 130.33 126.824C129.221 129.363 128.185 131.939 127.061 134.47C126.718 135.242 125.256 138.276 125.064 138.902C123.481 141.396 121.076 145.065 119.187 147.252C114.227 154.504 105.864 159.671 97.4182 161.864C95.0138 162.305 92.4991 162.436 90.0726 162.106C89.7062 162.057 89.1955 161.715 89.008 161.713C84.8135 161.67 81.9824 160.262 78.5423 157.884C75.8553 156.041 73.4744 153.787 71.4873 151.205C69.6142 149.328 69.8496 148.673 67.2015 148.441C66.7288 148.399 65.7767 144.646 64.9987 143.717C64.6976 142.874 64.4007 140.931 64.292 140.017C63.6294 134.64 64.2358 129.183 66.0642 124.083C68.0449 118.806 72.0088 114.511 77.1104 112.114C76.9526 112.769 75.7222 112.907 75.2651 113.426C75.4136 113.873 75.3101 113.727 75.6334 114.02L75.8101 113.976C76.308 113.385 77.3725 112.88 78.1045 112.638C78.2424 112.592 78.1827 112.689 78.4295 112.532L78.5108 112.592C78.4976 112.704 78.4813 112.816 78.4618 112.927C78.4077 113.227 78.2139 114.181 77.9972 114.329C77.8312 114.926 77.5052 116.375 77.2403 116.77C76.5036 117.867 76.1307 117.414 75.6891 118.83C70.2849 123.787 68.947 130.868 69.2683 137.927C69.2999 138.623 70.0371 140.775 69.9888 141.243C70.511 142.715 71.3419 144.85 72.0626 146.202C72.2391 146.454 72.4443 146.729 72.6032 146.988C75.5891 151.848 80.6061 155.773 86.0934 157.363C87.7286 157.836 89.5191 158.04 91.246 158.25C91.9683 158.081 92.7845 157.662 93.4461 157.322C98.4068 154.775 102.174 151.149 105.057 146.42C105.472 145.74 106.484 143.926 106.719 143.185C106.988 143.265 107.391 143.034 107.781 142.963C109.351 142.467 111.351 141.852 112.84 141.226C112.497 142.711 112.15 143.928 111.563 145.357C111.215 146.206 110.756 147.015 110.44 147.841C108.599 151.045 108.506 151.313 106.002 154.167C107.651 153.408 109.311 151.888 110.813 150.954C111.187 150.53 112.093 149.816 112.569 149.416C118.941 144.055 122.725 137.56 126.326 130.135C127.133 128.424 127.9 126.616 128.664 124.879C129.708 124.041 129.66 123.295 130.951 122.511Z" fill="#FDAAC2"/>
<path d="M107.781 142.963C109.351 142.467 111.351 141.852 112.84 141.226C112.497 142.711 112.15 143.928 111.563 145.357C111.215 146.205 110.756 147.015 110.44 147.84C108.599 151.044 108.506 151.313 106.002 154.167C107.651 153.408 109.311 151.888 110.813 150.954L111.01 150.999C111.539 150.536 112.431 150.539 113.369 149.861C110.251 152.954 109.028 153.602 105.318 155.578C101.005 157.875 98.6928 158.653 93.5969 158.795C92.5182 158.824 92.19 158.729 91.2461 158.25C91.9684 158.081 92.7846 157.662 93.4462 157.322C98.4069 154.775 102.175 151.149 105.057 146.42C105.472 145.739 106.484 143.926 106.719 143.185C106.988 143.265 107.391 143.034 107.781 142.963Z" fill="#F989AA"/>
<path d="M107.781 142.963C109.351 142.467 111.351 141.852 112.84 141.226C112.497 142.711 112.15 143.928 111.563 145.357C111.215 146.205 110.756 147.015 110.44 147.84C110.32 147.681 110.132 147.602 109.95 147.535C109.319 147.304 108.987 146.384 108.521 145.911C108.158 145.543 107.828 145.203 107.48 144.794C107.933 144.006 108.188 143.847 107.781 142.963Z" fill="#F66588"/>
<path d="M106.479 146.367C106.616 146.479 106.813 146.642 106.913 146.786C107.118 147.084 107.197 147.451 107.133 147.808C106.732 150.101 101.365 154.49 99.4395 155.89L99.3843 155.769C100.177 155.248 101.047 154.562 101.611 153.798C101.231 154.071 101.018 154.102 100.596 153.94L100.504 153.702C100.69 152.924 105.537 147.071 106.479 146.367Z" fill="#F8B6CE"/>
<path d="M75.8101 113.976C76.308 113.385 77.3725 112.88 78.1045 112.637C78.2424 112.592 78.1827 112.689 78.4295 112.532L78.5108 112.592C78.4976 112.704 78.4813 112.816 78.4619 112.927C78.4078 113.227 78.2139 114.181 77.9973 114.329C77.8312 114.926 77.5053 116.375 77.2403 116.77C76.5036 117.867 76.1308 117.414 75.6892 118.83C70.2849 123.787 68.947 130.868 69.2684 137.927C69.3 138.623 70.0372 140.775 69.9889 141.243C70.5111 142.715 71.3419 144.85 72.0626 146.201C70.4038 144.774 71.295 143.179 69.1859 142.025C68.3666 141.577 67.8986 139.529 67.5167 138.567C67.4483 138.699 67.3805 138.791 67.2971 138.911C66.8643 138.694 66.7407 138.368 66.4392 137.933C66.3641 137.131 66.0436 133.121 66.1406 132.565C66.5405 130.272 67.5805 125.067 68.8203 123.275C71.0799 120.01 73.5946 117.294 75.8101 113.976Z" fill="#ED5F87"/>
<path d="M75.8101 113.976C76.308 113.385 77.3725 112.88 78.1045 112.637C78.2424 112.592 78.1827 112.689 78.4295 112.532L78.5108 112.592C78.4976 112.704 78.4813 112.816 78.4619 112.927C78.4078 113.227 78.2139 114.181 77.9973 114.329C78.0691 113.958 78.21 113.444 78.1227 113.099C76.8885 112.643 74.1939 118.493 73.6172 119.222C71.1109 122.389 69.3703 124.142 68.0509 128.055C66.6986 130.547 66.2412 135.974 67.5167 138.567C67.4483 138.699 67.3805 138.791 67.2971 138.911C66.8643 138.694 66.7407 138.368 66.4392 137.933C66.3641 137.131 66.0436 133.121 66.1406 132.565C66.5405 130.272 67.5805 125.067 68.8203 123.275C71.0799 120.01 73.5946 117.294 75.8101 113.976Z" fill="#F989AA"/>
<path d="M68.0509 128.055C67.3262 130.851 66.8474 133.916 67.3027 136.791C67.4023 137.422 67.9466 138.348 68.1295 138.98C68.3222 139.644 68.925 141.61 69.7692 141.57C69.8639 141.342 69.8232 141.325 69.9888 141.243C70.511 142.715 71.3418 144.85 72.0626 146.201C70.4037 144.774 71.2949 143.179 69.1858 142.025C68.3666 141.577 67.8986 139.529 67.5166 138.567C66.2411 135.974 66.6986 130.547 68.0509 128.055Z" fill="#EC7292"/>
<path d="M71.4872 151.205C71.2872 150.857 71.1646 150.081 71.4497 149.777C71.9976 149.852 72.9953 151.648 73.4435 152.161C81.1174 160.943 91.6128 163.868 102.432 159.108C108.08 156.623 112.468 153.432 117.013 149.282C117.623 148.726 118.505 147.808 119.112 147.312L119.187 147.252C114.227 154.504 105.863 159.671 97.4182 161.864C95.0137 162.305 92.499 162.436 90.0725 162.106C89.7061 162.057 89.1954 161.715 89.0079 161.713C84.8134 161.67 81.9823 160.262 78.5422 157.884C75.8552 156.041 73.4744 153.787 71.4872 151.205Z" fill="#F989AA"/>
<path d="M126.326 130.135C126.56 131.455 127.148 131.541 126.375 132.749C126.268 132.916 126.314 133.842 126.175 134.075C124.738 137.665 122.358 140.521 120.042 143.541C118.646 145.137 115.177 148.999 113.369 149.861C112.431 150.539 111.539 150.536 111.01 150.999L110.813 150.954C111.187 150.53 112.093 149.816 112.569 149.416C118.941 144.055 122.725 137.56 126.326 130.135Z" fill="#EB739A"/>
<path d="M128.664 124.879C129.708 124.041 129.66 123.294 130.951 122.511C128.629 126.181 127.669 127.995 127.224 132.205C127.041 133.933 121.566 143.191 120.042 143.541C122.358 140.521 124.738 137.665 126.175 134.075C126.314 133.842 126.268 132.916 126.375 132.749C127.147 131.541 126.56 131.455 126.326 130.134C127.133 128.424 127.9 126.615 128.664 124.879Z" fill="#FCAAC2"/>
<path d="M52.4819 99.9145C52.7782 100.026 52.8047 100.046 53.1035 100.101C53.7842 100.226 54.8835 101.435 55.2601 101.925C55.5852 102.348 56.069 104.271 55.9261 104.733C55.3767 106.512 53.5595 108.219 52.5513 109.67C51.6265 111.002 50.3445 112.718 49.5953 114.064C48.1593 116.644 47.3998 119.557 46.6453 122.369C46.2006 125.211 45.8367 128.015 45.9982 130.905C46.8299 132.669 46.1159 136.436 47.5136 138.141C48.1952 138.972 49.1892 140.103 50.0608 140.708C49.7209 139.763 48.6125 136.353 48.7262 135.481L48.863 135.403C49.4949 138.917 50.7335 142.296 52.5252 145.385C53.2757 146.607 53.9537 147.534 54.7898 148.692C56.0902 149.872 57.871 151.37 59.0869 152.54C61.2053 154.021 63.598 155.457 65.5808 156.884C65.8869 156.915 67.645 157.688 68.0289 157.86C70.8809 159.139 73.7539 159.662 76.8195 160.155C77.9953 161.174 79.1462 160.769 80.5247 161.672C79.9455 161.56 79.6274 161.439 79.0792 161.242C79.8373 162.253 79.1334 162.429 80.0995 162.926C78.5382 162.882 76.7576 162.596 75.2334 162.35C71.5973 161.76 66.8343 160.742 63.545 159.17C56.1978 155.658 50.4067 150.037 46.7463 142.757C46.2785 141.827 45.8221 140.587 45.4756 139.574C45.1157 137.765 44.8053 135.981 43.1004 134.778C43.2358 135.487 43.3892 136.748 43.4654 137.473L43.272 137.469C40.7223 127.623 43.9824 117.219 48.7241 108.609C49.0493 107.773 50.2748 105.812 50.757 104.714C51.5322 102.948 51.8369 101.607 52.4819 99.9145Z" fill="#FEB7CD"/>
<path d="M52.4819 99.9145C52.7782 100.026 52.8047 100.046 53.1035 100.101C53.7842 100.226 54.8835 101.435 55.2601 101.925C55.5852 102.348 56.069 104.271 55.9261 104.733C55.3767 106.512 53.5595 108.219 52.5513 109.67C51.6265 111.002 50.3445 112.718 49.5953 114.064C48.1593 116.644 47.3998 119.557 46.6453 122.369C46.106 120.196 48.8942 113.534 49.9927 111.477C50.5641 110.407 52.14 108.291 52.794 107.079C53.1531 106.651 53.7271 104.837 53.9814 104.52C55.7652 102.292 54.0836 99.4024 52.4719 102.461C51.2188 104.839 50.61 106.507 48.7241 108.609C49.0493 107.773 50.2748 105.812 50.757 104.714C51.5322 102.948 51.8369 101.607 52.4819 99.9145Z" fill="#F989AA"/>
<path d="M76.8194 160.155C77.9953 161.174 79.1462 160.769 80.5246 161.672C79.9455 161.56 79.6274 161.439 79.0792 161.242C75.6322 161.096 72.8369 160.517 69.5538 159.422C68.6917 159.135 67.763 158.465 66.881 158.172C65.6459 157.796 63.1487 156.915 62.137 156.166C60.5289 154.975 58.4396 153.197 56.9121 151.844L56.9182 151.757C57.0746 151.828 57.231 151.896 57.3819 151.977C56.5689 150.963 55.1947 150.435 54.7897 148.692C56.0902 149.872 57.8709 151.37 59.0869 152.54C61.2053 154.021 63.5979 155.457 65.5808 156.884C65.8869 156.915 67.6449 157.688 68.0288 157.86C70.8809 159.139 73.7539 159.662 76.8194 160.155Z" fill="#F8B6CE"/>
<path d="M54.7896 148.692C56.0901 149.872 57.8708 151.37 59.0868 152.54C61.2052 154.021 63.5978 155.457 65.5807 156.884C64.1834 156.707 60.9891 154.924 59.8792 153.958C59.059 153.332 58.143 152.661 57.3818 151.977C56.5688 150.963 55.1946 150.435 54.7896 148.692Z" fill="#FCAAC2"/>
<path d="M45.9981 130.905C46.8298 132.669 46.1157 136.436 47.5134 138.141C48.1951 138.972 49.1891 140.103 50.0607 140.708C49.7208 139.763 48.6124 136.353 48.7261 135.481L48.8629 135.403C49.4948 138.917 50.7334 142.296 52.5251 145.385C51.1195 144.261 51.2941 142.758 50.2396 141.945C49.3652 141.269 48.5288 140.51 47.6933 139.817L47.6248 140.134C46.777 139.339 45.936 132.217 45.9981 130.905Z" fill="#F989AA"/>
<path d="M133.501 118.214C133.592 118.728 132.834 120.801 132.753 121.975C132.357 122.718 132.37 123.959 132.02 124.851C130.452 128.843 129.014 132.88 126.588 136.452C126.067 137.219 125.715 138.227 125.064 138.901C125.256 138.276 126.718 135.242 127.061 134.47C128.185 131.938 129.221 129.363 130.33 126.824C130.752 125.856 131.653 123.84 131.829 122.867C131.847 122.688 131.916 122.68 132.013 122.545C132.265 122.191 132.327 121.505 132.489 120.979C132.66 120.242 133.207 118.94 133.501 118.214Z" fill="#F989AA"/>
<path d="M78.1519 160.145L78.2685 160.052C79.5597 160.171 80.1249 160.898 81.1791 161.49C81.7461 161.808 83.9853 162.271 84.1961 162.763C83.2404 162.478 81.4248 161.693 80.5246 161.672C79.1461 160.769 77.9952 161.174 76.8194 160.155C77.331 160.218 77.6503 160.29 78.1519 160.145Z" fill="#F66588"/>
<path d="M133.891 117.097C134.274 118.251 133.524 120.503 133.008 121.529C132.932 121.682 132.846 121.831 132.753 121.975C132.834 120.801 133.592 118.728 133.501 118.214C133.528 118.041 133.814 117.306 133.891 117.097Z" fill="#EC7292"/>
<path d="M90.4471 144.502L90.446 144.327C93.8337 144.561 97.2364 144.478 100.609 144.08C102.03 143.91 103.851 143.51 105.321 143.354C105.858 143.297 107.181 142.061 107.826 141.989C108.063 141.962 108.72 142.516 109.037 142.347C111.207 141.826 112.835 141.038 114.682 139.831C115.268 139.448 115.513 139.442 116.16 138.877C116.693 138.412 117.986 136.701 118.408 136.519C118.528 136.528 118.9 136.507 118.932 136.466C119.687 135.503 120.394 134.445 120.996 133.38C121.163 133.301 121.302 133.235 121.414 133.183C121.8 132.697 122.035 131.965 122.315 131.411C123.857 128.369 123.64 125.764 122.827 122.526C122.639 121.775 121.923 120.99 121.865 120.482L122.055 120.459C126.417 127.703 121.622 135.662 115.384 139.725C114.572 140.254 113.637 140.671 112.84 141.226C111.351 141.852 109.351 142.467 107.781 142.963C107.391 143.034 106.988 143.265 106.719 143.185C103.868 144.113 93.0211 145.274 90.4471 144.502Z" fill="#FCAAC2"/>
<path d="M113.855 136.65C113.631 137.218 112.732 137.239 112.251 137.53C112.75 137.73 113.637 137.984 113.482 138.607C112.93 138.951 111.9 139.298 111.258 139.59C109.893 140.204 108.573 140.892 107.154 141.381C106.436 141.628 105.656 141.737 104.944 141.383C104.596 140.777 105.203 140.846 105.33 140.368C102.849 140.82 100.841 141.192 98.3108 141.534C97.527 141.653 96.699 141.805 95.9115 141.805C96.9718 141.51 98.474 141.395 99.5312 141.222C103.73 140.538 107.667 140.07 111.215 137.538C112.105 136.903 112.721 136.592 113.855 136.65Z" fill="#FCAAC2"/>
<path d="M79.4163 116.868C80.7601 117.846 79.6582 121.902 80.5291 122.623C80.9257 121.797 80.3642 119.901 80.4339 119.677L80.5841 119.709C81.1998 120.812 80.6071 123.072 80.6174 124.279C80.6223 124.85 80.8333 125.751 80.9575 126.331C81.049 126.781 81.3691 128.061 81.1976 128.392C80.8796 127.794 81.3663 127.178 80.7884 126.715C80.5041 127.013 80.3006 127.279 79.9133 127.414C79.8246 127.395 79.677 127.387 79.6125 127.325C78.834 126.572 78.7764 122.192 78.7607 120.973C78.7474 119.936 78.7104 117.591 79.4163 116.868Z" fill="#F8B6CE"/>
<path d="M114.919 119.636L116.018 120.602L116.052 120.698C116.457 121.844 116.107 122.323 115.595 123.397C114.566 122.454 113.958 122.028 112.785 121.243L111.823 120.69C111.45 120.473 110.934 120.244 110.831 119.851C111.102 119.274 111.304 118.739 112.005 118.64C113.117 118.483 114.056 119.048 114.919 119.636Z" fill="#F9AAC7"/>
<path d="M96.006 106.073C96.6243 106.473 98.4862 107.93 98.7772 108.562C98.3293 108.797 95.8745 107.658 95.1388 107.537C94.5365 107.438 93.941 107.334 93.3103 107.259C92.3092 107.148 91.4014 107.15 90.709 106.36C90.6628 106.185 90.5717 105.984 90.6935 105.831C91.8227 104.406 94.7825 105.472 96.006 106.073Z" fill="#F1EEF0"/>
<path d="M86.1704 106.483C86.561 106.779 86.6466 107.524 86.7534 108.012C85.9444 108.272 85.2125 108.61 84.4461 108.97C84.1262 108.801 84.1995 108.795 84.0027 108.414C84.0303 107.129 85.1331 106.756 86.1704 106.483Z" fill="#F8B6CE"/>
<path d="M104.347 133.953L104.504 134.164L104.394 134.357C102.937 134.961 100.028 134.542 98.525 134.253L98.3297 134.024L98.4179 133.834C99.1047 133.458 101.664 134.075 102.603 134.052C103.229 134.036 103.699 134.016 104.347 133.953Z" fill="#F989AA"/>
<path d="M86.249 139.697C86.6837 140.009 87.2182 140.307 87.0082 140.881C86.6984 141.104 86.2206 141.086 85.824 141.112C85.4347 140.704 84.9545 140.101 85.0719 139.507L85.2684 139.375C85.6429 139.36 85.9114 139.531 86.249 139.697Z" fill="#E42E58"/>
<path d="M84.975 125.636C85.1669 125.758 85.4064 125.905 85.4862 126.119C85.7078 126.713 85.8694 128.391 85.6663 128.933C85.0345 128.281 84.3764 126.452 84.975 125.636Z" fill="#EC7292"/>
<path d="M95.3362 130.857L95.449 131.061C95.3562 131.772 94.6211 131.881 94.0172 131.929C93.8573 131.463 93.7895 131.324 94.0932 130.966C94.4988 130.855 94.9151 130.866 95.3362 130.857Z" fill="#F989AA"/>
<path d="M95.7186 82.5126L95.6839 83.1158C94.8016 83.6472 94.0635 84.2239 93.2226 84.7657C93.3951 85.192 93.9753 85.9978 94.3657 86.2324C94.5088 86.2333 94.8422 86.1877 95.0006 86.171L95.5679 86.1718C94.766 86.8396 94.8903 86.6566 94.9362 87.6544C94.9573 88.1116 94.4348 88.7022 94.1195 89.0232C91.8207 91.362 89.3911 93.5791 86.9522 95.7708C81.3992 100.818 75.0352 106.329 67.1473 106.675C64.9652 106.771 63.1706 106.109 61.5253 106.067C56.4228 108.468 52.0986 113.823 50.3277 119.107C48.9227 123.298 48.3397 128.03 48.5049 132.457C48.5351 133.257 48.761 134.567 48.8629 135.403L48.7262 135.481C48.6125 136.353 49.7208 139.763 50.0607 140.708C49.1892 140.103 48.1951 138.972 47.5135 138.141C46.1158 136.436 46.8298 132.669 45.9982 130.905C45.8366 128.015 46.2005 125.211 46.6452 122.369C47.3998 119.557 48.1592 116.644 49.5953 114.064C50.3445 112.718 51.6264 111.002 52.5513 109.67C53.5594 108.219 55.3767 106.512 55.9261 104.733C56.0689 104.271 55.5851 102.348 55.26 101.925C54.8834 101.435 53.7841 100.226 53.1034 100.101C52.8046 100.046 52.7781 100.027 52.4818 99.9146C52.5164 99.6424 52.5639 99.2069 52.4773 98.9494C51.7591 96.8117 50.9696 95.241 50.7135 92.983C50.2829 90.7863 50.6086 87.0831 51.043 84.891C50.8875 81.6867 57.6697 64.8607 59.7645 61.9907C60.2003 61.808 60.5016 61.7679 60.9669 61.6821L61.3799 61.3217C61.7251 61.631 62.1182 62.0024 62.4712 62.2919C62.8262 62.6901 63.3113 62.8179 63.8031 62.9558C64.8042 63.6311 64.5729 64.2612 64.1209 65.2853C61.6409 70.9036 59.3561 76.5664 57.3517 82.3751C56.6487 84.3879 56.7287 85.5625 56.3647 87.4982C56.6885 91.4564 56.3819 93.1564 58.835 96.5695C59.4942 97.2027 59.9516 97.6299 60.6716 98.1869C70.3779 105.152 77.4887 95.6732 84.6315 89.9113C85.7474 89.0112 87.1792 87.8659 88.0512 86.7613L88.2073 85.9893C88.1753 85.7318 88.763 85.0861 88.9869 84.7751C91.035 83.0895 91.7524 81.5168 94.9196 82.0597C95.1365 82.4768 95.2232 82.4417 95.7186 82.5126Z" fill="#F66588"/>
<path d="M63.8031 62.9558C64.8042 63.6311 64.5729 64.2612 64.1209 65.2853C61.6409 70.9036 59.3561 76.5664 57.3517 82.3751C56.6487 84.3879 56.7287 85.5624 56.3647 87.4982L56.1408 87.5221C56.4403 86.5006 56.143 84.6282 56.7157 83.88C54.3234 85.8242 54.028 92.025 54.6268 94.7745C54.7196 95.2005 54.658 95.5404 54.702 95.8961C54.7023 95.7979 54.1567 92.9009 54.0913 92.651C53.0467 93.2379 51.5726 94.7344 50.7135 92.983C50.2829 90.7863 50.6087 87.0831 51.043 84.891C50.8875 81.6867 57.6697 64.8607 59.7645 61.9907C60.2003 61.808 60.5017 61.7679 60.9669 61.6821L61.3799 61.3216C61.7251 61.631 62.1183 62.0024 62.4712 62.2919C62.8262 62.6901 63.3113 62.8179 63.8031 62.9558Z" fill="#FB9EB7"/>
<path d="M60.9669 61.682C61.2704 61.904 61.6646 62.2117 61.9868 62.3818C61.9832 62.9553 62.3203 63.2277 62.214 63.4694C61.6989 64.64 60.6428 65.7393 60.2259 66.9447C59.0366 70.3824 58.0362 73.7436 56.7188 77.1499C55.6896 78.8525 55.3354 80.9553 54.4099 82.5629C54.0499 82.1896 54.6739 81.173 54.7917 80.5594C54.2355 81.1436 52.6253 85.9327 51.2866 86.5411C50.9393 86.2092 51.3329 85.5249 51.043 84.8909C50.8875 81.6867 57.6697 64.8606 59.7645 61.9907C60.2004 61.8079 60.5017 61.7679 60.9669 61.682Z" fill="#FED7E2"/>
<path d="M61.9866 62.3818C62.2884 62.6911 62.5056 62.8529 62.5684 63.2768C62.493 64.004 61.9079 64.818 61.523 65.4323C60.3278 67.3397 58.5049 76.2953 56.7186 77.15C58.036 73.7436 59.0364 70.3825 60.2257 66.9448C60.6426 65.7394 61.6987 64.64 62.2138 63.4694C62.3201 63.2277 61.983 62.9554 61.9866 62.3818Z" fill="#FCAAC2"/>
<path d="M95.7184 82.5126L95.6837 83.1158C94.8015 83.6472 94.0634 84.2239 93.2225 84.7656C93.395 85.192 93.9751 85.9978 94.3655 86.2324C94.5086 86.2333 94.8421 86.1877 95.0005 86.171L94.6234 86.6112C94.2899 86.6191 94.4185 86.6517 94.1316 86.4941C93.9426 86.1615 93.8415 86.007 93.6089 85.7037C93.3582 85.819 92.48 87.9008 91.5001 88.6031C90.4259 89.3728 89.2789 89.8114 88.2736 90.6208C87.7539 91.0392 87.3709 91.9318 86.8742 92.3498C85.064 93.873 82.9168 95.4546 81.1191 96.923C75.5485 101.473 71.2131 103.874 63.8834 103.029C62.7372 102.896 61.1377 102.736 60.0395 102.379C58.8731 102.001 58.6094 101.328 57.9883 100.423C58.0234 99.632 57.9323 98.8041 58.4637 98.2565C58.685 98.5264 58.4135 98.6042 58.6559 98.7192C60.2353 96.8384 58.8219 97.4979 58.8348 96.5695C59.494 97.2026 59.9515 97.6299 60.6714 98.1869C70.3777 105.152 77.4886 95.6732 84.6313 89.9113C85.7472 89.0112 87.179 87.8659 88.051 86.7613L88.2072 85.9893C88.1752 85.7317 88.7629 85.0861 88.9867 84.7751C91.0348 83.0895 91.7522 81.5168 94.9194 82.0597C95.1363 82.4768 95.223 82.4417 95.7184 82.5126Z" fill="#FDC9D8"/>
<path d="M93.2225 84.7656C93.395 85.1919 93.9752 85.9977 94.3656 86.2323C94.5086 86.2332 94.8421 86.1876 95.0005 86.1709L94.6234 86.6111C94.29 86.619 94.4185 86.6517 94.1316 86.4941C93.9427 86.1615 93.8415 86.0069 93.609 85.7036C93.3583 85.8189 92.48 87.9007 91.5002 88.603C90.4259 89.3728 89.279 89.8113 88.2736 90.6207C87.7539 91.0391 87.371 91.9317 86.8743 92.3497C85.064 93.873 82.9169 95.4546 81.1191 96.923C75.5486 101.473 71.2132 103.874 63.8835 103.029C62.7372 102.896 61.1377 102.735 60.0395 102.379C58.8731 102.001 58.6095 101.328 57.9883 100.423C58.0234 99.6319 57.9324 98.804 58.4638 98.2564C58.6851 98.5263 58.4136 98.6041 58.656 98.7191C60.2353 96.8383 58.8219 97.4978 58.8349 96.5694C59.4941 97.2026 59.9515 97.6298 60.6715 98.1868C60.4885 98.1359 60.3041 98.09 60.1185 98.0494C59.2097 97.8575 59.0114 98.9739 58.917 99.6122L59.0038 99.6455L59.294 99.3965C59.3267 99.6282 59.1272 99.7844 58.9444 100.029C59.1707 100.032 59.236 99.8926 59.4463 99.6978C59.4413 102.808 63.5978 102.074 65.4336 102.251C71.1613 102.803 73.6358 99.7022 77.6402 97.692C79.996 96.5095 89.6967 88.0218 90.3856 87.8322C90.3311 88.1867 89.6333 89.0335 89.3677 89.3976C90.873 88.5592 91.8445 87.6471 92.8517 86.287C92.8142 85.8767 92.6099 84.7902 92.3508 84.4734L92.5689 84.3204L93.2225 84.7656Z" fill="#F989AA"/>
<path d="M95.7186 82.5126L95.6839 83.1158C94.8017 83.6471 94.0636 84.2238 93.2227 84.7656L92.5691 84.3205C92.2456 84.1718 92.1487 84.0591 91.8186 84.154C90.8674 84.4271 88.6268 87.1705 87.9311 87.1826L88.0512 86.7612L88.2074 85.9893C88.1754 85.7317 88.7631 85.086 88.987 84.775C91.035 83.0894 91.7525 81.5167 94.9196 82.0597C95.1365 82.4768 95.2233 82.4417 95.7186 82.5126Z" fill="#F1EEF0"/>
<path d="M128.53 90.2336C130.684 78.8654 144.202 75.3606 151.762 83.9207C154.485 87.0045 155.292 91.3222 154.543 95.3113C153.92 100.97 146.328 106.414 140.735 105.641C140.651 105.63 140.567 105.615 140.484 105.595C140.217 105.571 139.507 105.485 139.269 105.493C138.993 107.339 138.452 109.137 137.9 110.917C137.802 111.233 137.712 111.545 137.666 111.873L137.671 111.975C137.702 112.626 137.835 112.707 137.916 113.229C138.089 114.344 137.563 115.975 137.011 116.972L135.742 116.37C135.257 116.46 134.677 116.233 134.226 116.04L133.705 116.01C133.853 115.77 134.052 115.347 134.186 115.081C133.247 116.386 133.13 115.507 131.903 115.634C131.531 114.363 132.333 112.616 132.919 111.497L133.675 111.056C134.526 109.562 135.727 106.362 136.436 104.655C134.768 104.051 132.272 101.99 131.226 100.559C128.805 97.2449 128.049 94.2094 128.53 90.2336Z" fill="#F66588"/>
<path d="M141.836 80.9091C142.945 80.6874 145.231 81.3147 146.26 81.8305L146.275 81.9315C146.475 83.3416 145.643 84.2601 145.589 84.5985C145.443 85.5171 148.652 87.337 149.232 88.0445C149.948 89.9412 151.014 92.7148 149.974 94.6602C149.236 96.401 148.75 97.4467 147.323 98.7197L145.928 99.8512L145.731 99.4741C145.503 99.4575 145.363 99.4602 145.134 99.4682C143.974 100.037 142.69 100.308 141.399 100.256C140.86 100.43 140.847 100.344 140.521 100.711L140.488 100.93C139.862 100.846 139.421 100.748 138.812 100.607C137.581 100.017 136.9 99.7202 135.84 98.8754C133.953 96.7524 133.052 95.4408 133.085 92.4753C133.092 91.8716 133.228 90.7592 133.119 90.2364C134.853 89.3441 134.811 85.9661 138.449 85.4068C139.699 84.8304 141.08 84.5958 142.45 84.7271C143.891 84.4172 143.795 84.904 145.144 84.7688L145.134 84.7166C144.727 84.598 143.929 84.4151 143.619 84.171L143.476 84.111C141.178 84.2676 141.623 82.3651 141.836 80.9091Z" fill="#F66588"/>
<path d="M141.836 80.9091C142.945 80.6874 145.231 81.3147 146.26 81.8305L146.275 81.9315C146.475 83.3416 145.643 84.2601 145.589 84.5985C145.443 85.5171 148.652 87.337 149.232 88.0445C149.948 89.9412 151.014 92.7148 149.974 94.6602C149.629 94.7436 149.522 94.7818 149.155 94.7471C149.837 92.512 149.478 90.0893 148.179 88.1474C146.879 86.2055 144.776 84.9499 142.451 84.7271C143.891 84.4172 143.795 84.904 145.144 84.7688L145.135 84.7166C144.727 84.598 143.929 84.4151 143.619 84.171L143.477 84.111C141.178 84.2676 141.623 82.3651 141.836 80.9091Z" fill="#DDBEC7"/>
<path d="M143.477 84.111C142.331 83.3178 143.9 81.6508 144.988 82.0094C145.677 82.7264 145.405 83.6465 144.865 84.3722C144.369 84.3936 143.981 84.1609 143.619 84.1709L143.477 84.111Z" fill="#989597"/>
<path d="M133.12 90.2365C134.854 89.3441 134.811 85.9662 138.449 85.4069C135.18 86.9137 133.371 90.4644 134.072 93.9945C134.774 97.5245 137.803 100.114 141.399 100.256C140.86 100.43 140.847 100.344 140.521 100.711L140.488 100.93C139.862 100.846 139.421 100.748 138.812 100.607C137.582 100.017 136.9 99.7203 135.84 98.8754C133.953 96.7525 133.052 95.4408 133.085 92.4754C133.092 91.8716 133.228 90.7593 133.12 90.2365Z" fill="#F8B6CE"/>
<path d="M149.974 94.6602C149.236 96.401 148.75 97.4467 147.323 98.7197L145.928 99.8513L145.731 99.4741C145.503 99.4576 145.363 99.4602 145.134 99.4682C147.07 98.5193 148.527 96.8097 149.155 94.7471C149.522 94.7818 149.629 94.7437 149.974 94.6602Z" fill="#FCAAC2"/>
<path d="M140.175 86.0891C142.308 85.2426 144.904 86.7098 146.419 88.1708C147.686 89.3696 148.753 91.6196 148.249 93.3717C148.068 94.1046 147.965 94.6423 147.579 95.3055C146.207 98.4127 142.504 99.6145 139.401 98.5513C138.304 98.2094 137.035 97.2836 136.424 96.3015C135.949 95.4715 135.82 95.3203 135.487 94.3914L135.582 93.8199C134.714 92.8344 135.371 90.6204 135.964 89.5754C137.006 87.737 138.136 86.691 140.175 86.0891Z" fill="#DBD7D8"/>
<path d="M142.638 92.6374C142.835 92.4592 144.596 93.9428 144.962 94.1943C145.939 94.8637 146.398 95.3591 147.395 94.3306L147.591 94.4135C147.686 94.5622 147.597 95.0552 147.579 95.3056C146.207 98.4127 142.504 99.6146 139.401 98.5513C138.304 98.2094 137.035 97.2836 136.424 96.3016C135.949 95.4715 135.82 95.3204 135.487 94.3915C136.521 93.6537 139.785 93.1618 140.515 92.5088C140.372 92.1596 138.58 91.2693 138.351 90.3207C138.462 90.0634 138.38 90.1464 138.653 90.0283C139.386 90.0919 140.989 91.0239 141.169 91.7248C141.526 91.548 141.785 91.4945 142.161 91.6359C142.492 91.9012 142.528 92.2224 142.638 92.6374Z" fill="#F1EEF0"/>
<path d="M136.424 96.3016C136.978 95.9528 137.273 95.4468 137.78 95.0513C138.335 94.6188 140.191 93.4407 140.814 93.5191L140.944 93.7026L140.871 93.9956L140.579 94.907C140.423 96.3856 140.309 96.9372 139.416 98.1877C139.411 98.2605 139.389 98.4956 139.401 98.5514C138.304 98.2094 137.035 97.2836 136.424 96.3016Z" fill="#DBD7D8"/>
<path d="M140.579 94.907C140.074 95.8885 138.643 99.0788 137.868 96.3804C137.717 95.8548 140.133 93.3812 140.871 93.9956L140.579 94.907Z" fill="#C5C3C6"/>
<path d="M141.169 91.7248C141.526 91.548 141.785 91.4945 142.161 91.6359C142.492 91.9012 142.528 92.2224 142.638 92.6374C142.208 93.1007 141.739 93.4833 141.119 93.0098C140.786 92.5132 140.925 92.203 141.169 91.7248Z" fill="#4C4D50"/>
<path d="M146.419 88.1708C147.686 89.3696 148.753 91.6196 148.249 93.3716C147.717 93.6577 146.847 94.2448 146.248 94.0229C145.405 93.7103 143.991 92.9254 143.975 91.8974L144.089 91.6224C144.922 91.4134 145.734 91.1102 145.626 90.1044C144.955 89.4553 144.387 90.0225 143.794 90.4623C144.979 88.9554 145.148 89.1629 146.368 88.2112L146.419 88.1708Z" fill="#A8A6A6"/>
<path d="M135.582 93.8199C134.714 92.8344 135.371 90.6204 135.964 89.5754C137.006 87.737 138.136 86.691 140.175 86.0891C140.191 86.8354 140.132 87.3053 140.533 87.9526C140.734 88.2174 141.182 90.415 141.203 90.7639C140.02 89.9862 138.97 88.339 137.607 88.2925C136.808 88.5751 136.339 90.0133 136.653 90.8145C136.974 91.6338 137.974 92.2847 137.73 93.0616C137.223 93.5481 136.301 93.6501 135.582 93.8199Z" fill="#4C4D50"/>
<path d="M140.175 86.0891C142.308 85.2426 144.904 86.7097 146.419 88.1708L146.368 88.2112C145.147 89.163 144.979 88.9554 143.794 90.4623C143.579 90.643 143.391 90.7747 143.24 91.0096L142.946 91.1205C142.575 90.5778 143.297 86.2901 141.095 86.8201C140.797 87.0626 140.667 87.574 140.533 87.9526C140.132 87.3053 140.191 86.8353 140.175 86.0891Z" fill="#5A5657"/>
<path d="M138.892 101.382C139.11 101.37 139.172 101.389 139.389 101.43L139.393 101.686L139.829 101.284C139.338 102.145 139.097 102.823 138.889 103.801L139.562 104.053L139.373 104.672L140.099 104.874C140.224 105.404 140.115 105.276 140.484 105.595C140.217 105.571 139.507 105.485 139.269 105.493C138.993 107.339 138.452 109.137 137.9 110.917C137.802 111.233 137.712 111.545 137.666 111.873L137.671 111.975C137.702 112.626 137.835 112.707 137.916 113.229C138.089 114.343 137.563 115.975 137.011 116.972L135.742 116.37C135.257 116.46 134.677 116.233 134.226 116.04L133.705 116.01C133.853 115.77 134.052 115.347 134.186 115.08C133.247 116.386 133.13 115.507 131.903 115.634C131.531 114.363 132.333 112.616 132.919 111.497L133.675 111.056C134.526 109.562 135.727 106.362 136.436 104.655L136.738 103.961L137.035 103.302C137.472 102.417 137.642 101.124 138.629 100.813L138.892 101.382Z" fill="#989597"/>
<path d="M138.629 100.813L138.892 101.383C137.99 104.331 136.439 108.403 135.371 111.397C135.011 112.122 134.249 114.303 134.186 115.08C133.247 116.386 133.129 115.507 131.903 115.634C131.531 114.363 132.333 112.616 132.919 111.497L133.675 111.056C134.525 109.562 135.727 106.362 136.436 104.655L136.737 103.962L137.035 103.302C137.472 102.417 137.642 101.124 138.629 100.813Z" fill="#F1EEF0"/>
<path d="M137.666 111.873L137.671 111.975C137.702 112.626 137.835 112.707 137.916 113.229C138.089 114.344 137.563 115.975 137.011 116.972L135.742 116.37C135.257 116.46 134.677 116.233 134.226 116.04L133.706 116.01C133.853 115.77 134.052 115.347 134.186 115.081C134.249 114.303 135.011 112.122 135.371 111.397C135.501 112.089 135.12 112.236 135.183 112.777C135.345 112.575 135.523 112.309 135.741 112.19L135.731 112.379C136.146 112.247 135.968 112.262 136.42 112.352C136.763 112.69 136.715 112.962 136.657 113.404C136.806 113.081 136.995 112.785 136.9 112.45C137.056 112.377 137.504 112.002 137.666 111.873Z" fill="#4C4D50"/>
<path d="M137.666 111.873L137.671 111.975C137.702 112.626 137.835 112.707 137.916 113.229C138.089 114.344 137.563 115.975 137.011 116.972L135.742 116.37C135.958 115.508 136.361 114.235 136.657 113.404C136.806 113.081 136.995 112.785 136.899 112.45C137.055 112.377 137.504 112.002 137.666 111.873Z" fill="#C5C3C6"/>
<path d="M135.371 111.397C135.501 112.089 135.12 112.236 135.183 112.777C135.345 112.575 135.523 112.309 135.741 112.19L135.731 112.379C135.429 114.591 134.472 114.844 134.226 116.04L133.705 116.01C133.853 115.77 134.052 115.347 134.186 115.081C134.249 114.303 135.011 112.122 135.371 111.397Z" fill="#A2A2A7"/>
<path d="M139.562 104.053L139.373 104.672L140.099 104.875C140.224 105.404 140.115 105.277 140.484 105.595C140.217 105.571 139.507 105.485 139.269 105.493C138.993 107.339 138.452 109.137 137.9 110.917C137.802 111.233 137.712 111.545 137.666 111.873C137.504 112.002 137.055 112.377 136.899 112.45L136.686 112.186C136.767 111.473 137.213 110.036 137.414 109.286L138.889 103.801L139.562 104.053Z" fill="#DBD7D8"/>
<path d="M140.098 104.874C140.224 105.404 140.115 105.277 140.484 105.595C140.217 105.571 139.506 105.485 139.269 105.493C139.201 105.201 139.296 104.969 139.373 104.672L140.098 104.874Z" fill="#F8B6CE"/>
<path d="M141.836 80.9092C141.623 82.3651 141.178 84.2677 143.477 84.1111L143.619 84.171C143.929 84.4151 144.727 84.5981 145.135 84.7166L145.144 84.7689C143.795 84.9041 143.891 84.4172 142.451 84.7272C141.08 84.5959 139.699 84.8304 138.449 85.4069C134.811 85.9662 134.853 89.3441 133.119 90.2365C133.102 89.8484 133.169 89.9186 132.959 89.7225C130.806 90.8658 130.778 91.4298 130.603 93.7005L130.485 93.6362L130.428 93.2871C130.144 93.6342 130.604 93.6506 130.155 93.7722C130.089 93.6274 130.048 93.1213 130.043 92.9499C129.945 89.8245 131.072 86.8113 133.182 84.5163C135.6 81.8858 138.369 81.0686 141.836 80.9092Z" fill="#F2EFF0"/>
<path d="M128.53 90.2336C130.684 78.8654 144.202 75.3606 151.762 83.9207C154.485 87.0045 155.292 91.3222 154.543 95.3113L154.517 95.2398C154.458 95.0759 154.402 94.9841 154.435 94.8175C154.221 94.564 154.332 94.6419 154 94.5349C153.976 94.8089 153.948 94.9728 153.892 95.2423L153.657 95.4102C154.177 91.7661 153.985 88.3395 151.71 85.3295C149.604 82.5826 146.503 80.7741 143.075 80.2942C139.499 79.8037 135.573 80.9529 133.125 83.6417C131.604 85.3124 130.211 87.2528 129.663 89.4728C129.261 89.9576 129.169 90.0893 128.53 90.2336Z" fill="#F8AFC8"/>
<path d="M147.323 98.7197C147.952 98.9457 147.895 98.7706 148.49 98.7261C149.102 98.6801 149.403 99.3426 149.877 99.8186L149.754 99.9869L149.812 100.269C148.415 102.062 145.424 103.475 143.211 103.798C142.59 103.888 140.395 103.956 139.62 103.977L139.562 104.053L138.889 103.801C139.097 102.823 139.338 102.145 139.829 101.284L139.393 101.686L139.389 101.43C139.172 101.389 139.11 101.37 138.892 101.382L138.629 100.813L139.298 101.135L138.812 100.607C139.421 100.748 139.862 100.846 140.488 100.93L140.521 100.711C140.847 100.344 140.86 100.43 141.399 100.256C142.691 100.308 143.974 100.037 145.134 99.4682C145.363 99.4602 145.503 99.4575 145.731 99.4741L145.928 99.8512L147.323 98.7197Z" fill="#7D7A7C"/>
<path d="M145.134 99.4682C145.363 99.4602 145.503 99.4576 145.731 99.4741L145.928 99.8513C144.175 101.005 142.534 101.257 140.488 100.93L140.521 100.711C140.847 100.344 140.86 100.43 141.399 100.256C142.691 100.308 143.974 100.037 145.134 99.4682Z" fill="#DDBEC7"/>
<path d="M139.828 101.284C140.346 101.964 139.762 103.112 139.62 103.977L139.561 104.053L138.889 103.801C139.097 102.823 139.338 102.145 139.828 101.284Z" fill="#C5C3C6"/>
<path d="M149.232 88.0446C150.48 86.8273 151.298 88.2525 151.957 89.2269L152.222 89.1825C152.889 89.7647 152.509 90.9399 152.809 91.8102L152.948 91.9041L153.075 91.8631C153.534 94.7441 152.017 98.3972 149.812 100.269L149.754 99.987L149.877 99.8186C149.403 99.3426 149.102 98.6802 148.49 98.7262C147.895 98.7707 147.952 98.9458 147.323 98.7197C148.75 97.4467 149.236 96.401 149.974 94.6602C151.014 92.7148 149.948 89.9413 149.232 88.0446Z" fill="#A7A3A5"/>
<path d="M146.26 81.8305C150.372 83.8435 152.961 87.2043 153.075 91.8631L152.948 91.9041L152.809 91.8102C152.509 90.9399 152.889 89.7647 152.222 89.1825L151.957 89.2269C151.298 88.2525 150.48 86.8273 149.232 88.0446C148.652 87.337 145.443 85.5171 145.589 84.5985C145.643 84.2602 146.475 83.3416 146.275 81.9315L146.26 81.8305Z" fill="#DBD7D8"/>
<path d="M130.155 93.7722C130.604 93.6506 130.144 93.6342 130.428 93.2871L130.485 93.6361L130.603 93.7005C130.778 91.4297 130.806 90.8657 132.959 89.7225C133.169 89.9186 133.102 89.8484 133.12 90.2364C133.228 90.7592 133.092 91.8716 133.085 92.4753C133.052 95.4408 133.953 96.7525 135.84 98.8754C135.438 98.5518 135.034 98.1576 134.53 98.0989L134.46 98.0904C132.736 97.8915 132.775 99.4972 131.932 98.2617C131.777 98.0342 131.674 97.9429 131.435 97.8097C130.833 97.0821 130.2 94.763 130.155 93.7722Z" fill="#BAB7B8"/>
<path d="M135.84 98.8754C136.9 99.7203 137.581 100.017 138.812 100.607L139.297 101.135L138.629 100.813C137.642 101.124 137.472 102.417 137.035 103.302C134.534 101.309 133.067 101.143 131.435 97.8097C131.674 97.943 131.777 98.0342 131.932 98.2617C132.775 99.4972 132.736 97.8916 134.46 98.0904L134.529 98.099C135.034 98.1576 135.438 98.5518 135.84 98.8754Z" fill="#A59FA3"/>
<path d="M153.657 95.4102L153.892 95.2423C153.948 94.9727 153.976 94.8089 154 94.5349C154.332 94.6419 154.221 94.564 154.435 94.8175C154.402 94.9841 154.458 95.0758 154.517 95.2398L154.543 95.3113C153.92 100.97 146.328 106.414 140.735 105.641C140.651 105.63 140.567 105.615 140.484 105.595C140.115 105.277 140.224 105.404 140.099 104.874C143.641 105.321 147.946 103.358 150.445 100.906C151.927 99.4517 153.063 97.395 153.657 95.4102Z" fill="#F6ACBF"/>
<path d="M129.663 89.4728C128.981 93.4999 129.313 96.0193 131.626 99.6539C132.533 101.078 135.164 103.398 136.737 103.962L136.436 104.655C134.768 104.051 132.272 101.99 131.226 100.559C128.805 97.2449 128.048 94.2094 128.53 90.2336C129.169 90.0893 129.26 89.9576 129.663 89.4728Z" fill="#F989AA"/>
<path d="M66.7243 48.3865C67.3502 47.8168 69.8049 42.321 70.5217 40.9241C75.3941 31.4292 80.9689 20.9192 89.3254 14.0441C92.1736 11.7008 95.9364 10.8087 99.5165 11.28C101.442 11.5335 105.312 13.339 106.445 14.8622C106.631 15.5754 107.972 16.2774 107.91 16.4859C107.644 16.3972 105.286 15.345 105.423 15.3467C105.978 15.7492 106.522 16.1662 107.054 16.5972C106.403 17.3588 106.145 17.662 105.713 18.5989C104.266 16.6467 100.33 14.4665 97.8836 14.1492C95.728 13.8696 93.5147 14.5214 91.6676 15.637C91.315 15.8499 90.3046 16.5746 90.0881 16.6778C89.1525 17.758 88.0632 18.7258 87.1892 19.791C84.1172 23.5351 81.3377 27.6444 78.8158 31.7701C76.5962 35.401 74.6432 39.5861 72.5143 43.2106C72.088 44.5905 70.5608 47.2196 69.867 48.8827C69.079 51.4335 67.0915 55.217 65.7001 57.564C65.3143 57.6603 65.4022 57.6154 64.9608 57.4219C64.6872 57.5448 64.6476 57.6061 64.4459 57.8319C64.9784 58.4269 65.111 59.0522 65.3079 59.8254L65.2737 59.9311C64.5759 60.1386 63.6004 62.1809 63.6593 62.7907L63.803 62.9557C63.3111 62.8178 62.826 62.69 62.471 62.2919C62.1181 62.0024 61.7249 61.6309 61.3798 61.3216C62.3101 59.5546 63.7842 56.7889 63.6365 54.8323C63.6222 54.6876 63.6142 54.5424 63.6124 54.3969C63.5865 52.88 64.866 49.9019 65.8721 48.6781C66.0941 48.4079 66.3961 48.3796 66.7243 48.3865Z" fill="#F1EEF0"/>
<path d="M105.424 15.3468C105.978 15.7493 106.522 16.1663 107.054 16.5972C106.404 17.3588 106.145 17.662 105.714 18.5989C104.266 16.6468 100.33 14.4665 97.8838 14.1492C95.7282 13.8696 93.5148 14.5214 91.6677 15.637C91.3152 15.8499 90.3047 16.5746 90.0882 16.6778C89.1526 17.758 88.0633 18.7258 87.1893 19.7911C84.1174 23.5352 81.3379 27.6445 78.8159 31.7701C76.5963 35.4011 74.6434 39.5861 72.5145 43.2107C72.48 42.6592 73.9059 39.4243 74.2359 38.6287C74.3686 38.2304 74.8999 37.2255 75.1053 36.8323C75.5718 36.0052 76.0335 35.0851 76.4781 34.2394L77.187 32.9896C77.5223 32.5028 78.0317 31.4999 78.3317 30.9455L77.8308 31.2508C77.7133 31.065 77.741 31.1631 77.7375 30.9488C80.505 26.284 86.3574 17.4431 90.923 14.472C92.2147 13.6432 93.6577 13.0785 95.1687 12.8106C99.137 12.0967 102.165 13.0923 105.424 15.3468Z" fill="#777677"/>
<path d="M78.3316 30.9455C79.3123 29.6192 80.3427 27.6607 81.2463 26.3344C82.4174 24.6152 88.3254 16.7704 90.0881 16.6778C89.1525 17.758 88.0632 18.7258 87.1892 19.791C84.1172 23.5351 81.3378 27.6444 78.8158 31.7701C76.5962 35.401 74.6433 39.5861 72.5144 43.2106C72.4799 42.6591 73.9058 39.4243 74.2358 38.6287C74.3685 38.2304 74.8997 37.2255 75.1052 36.8322C75.5717 36.0052 76.0333 35.0851 76.478 34.2393L77.1868 32.9895C77.5221 32.5027 78.0316 31.4999 78.3316 30.9455Z" fill="#DBD7D8"/>
<path d="M69.1856 49.2577L69.8671 48.8827C69.0791 51.4336 67.0916 55.217 65.7001 57.5641C65.3144 57.6604 65.4022 57.6155 64.9609 57.4219C64.6872 57.5449 64.6476 57.6061 64.4459 57.832L64.338 57.7218L64.2825 56.7866C65.1028 55.5731 67.8851 49.1587 68.3985 48.8698C68.6406 48.9695 68.946 49.1362 69.1856 49.2577Z" fill="#4C4D50"/>
<path d="M69.1856 49.2576L69.867 48.8826C69.079 51.4335 67.0916 55.2169 65.7001 57.564C65.3144 57.6603 65.4022 57.6154 64.9608 57.4218C65.2492 56.9757 65.8594 55.7385 66.1425 55.209C67.2018 53.2485 68.2164 51.2642 69.1856 49.2576Z" fill="#A2A2A7"/>
<path d="M74.2357 38.6287C73.9057 39.4243 72.4799 42.6592 72.5143 43.2107C72.088 44.5905 70.5608 47.2197 69.867 48.8827L69.1855 49.2577C68.946 49.1362 68.6406 48.9694 68.3984 48.8698C68.4504 48.8382 68.5024 48.8066 68.5543 48.7751C69.7522 46.1042 71.4617 42.3009 72.8539 39.8442C73.5111 39.4468 73.7385 39.1919 74.2357 38.6287Z" fill="#8C8D8D"/>
<path d="M63.6366 54.8323C63.6223 54.6877 63.6142 54.5424 63.6125 54.397C63.5866 52.8801 64.866 49.9019 65.8722 48.6781C66.0942 48.408 66.3961 48.3796 66.7244 48.3865C66.5044 49.4672 64.3488 54.132 63.6366 54.8323Z" fill="#7A7A7D"/>
<path d="M64.338 57.7218L64.4458 57.832C64.9784 58.4269 65.111 59.0523 65.3079 59.8255L65.2737 59.9311C64.5759 60.1387 63.6004 62.181 63.6593 62.7908L63.8029 62.9558C63.3111 62.8179 62.826 62.6901 62.471 62.2919C63.1702 61.334 64.0077 58.89 64.338 57.7218Z" fill="#7A7A7D"/>
<path d="M76.478 34.2393C76.0333 35.0851 75.5717 36.0052 75.1052 36.8322C74.7976 37.0085 74.4874 37.1803 74.1748 37.3476L75.6646 34.5434C76.0168 34.4835 76.1655 34.3935 76.478 34.2393Z" fill="#6E6E6E"/>
<path d="M75.1053 36.8322C74.8999 37.2255 74.3686 38.2304 74.2359 38.6286C73.7387 39.1918 73.5114 39.4468 72.8541 39.8441C73.2761 39.0162 73.7386 38.1715 74.1749 37.3475C74.4876 37.1803 74.7977 37.0085 75.1053 36.8322Z" fill="#7A7A7D"/>
<path d="M78.3316 30.9455C78.0317 31.4999 77.5222 32.5028 77.1869 32.9896L76.8985 32.7741C76.8102 32.8174 76.6633 32.8829 76.5862 32.9334C76.7413 32.553 77.4978 31.311 77.7374 30.9488C77.7409 31.1631 77.7132 31.0651 77.8307 31.2508L78.3316 30.9455Z" fill="#6E6E6E"/>
<path d="M76.5861 32.9333C76.6633 32.8828 76.8101 32.8173 76.8984 32.774L77.1868 32.9895L76.478 34.2393C76.1655 34.3935 76.0167 34.4835 75.6645 34.5433L76.5861 32.9333Z" fill="#7A7A7D"/>
<path d="M126.359 30.0291C134.839 34.9747 135.615 42.4144 130.795 50.6317C125.832 59.0929 118.74 66.0233 111.612 72.6417C110.528 73.635 106.364 76.8889 106.159 77.9622C105.721 79.4387 102.545 82.2867 101.053 82.7218C99.1974 83.0684 97.1529 84.9658 95.5679 86.1718L95.0006 86.171C94.8422 86.1876 94.5087 86.2332 94.3657 86.2324C93.9752 85.9977 93.3951 85.1919 93.2226 84.7656C94.0635 84.2238 94.8016 83.6471 95.6838 83.1158L95.7185 82.5126C95.2232 82.4417 95.1364 82.4767 94.9195 82.0597C95.5718 82.0886 96.445 82.217 96.9428 81.8073C98.5512 80.5042 100.517 78.1657 102.294 76.7416C103.15 75.9306 104.474 75.4871 105.324 74.7159C108.529 71.8062 111.581 68.7839 114.88 65.9737C115.894 65.1101 116.354 63.7981 117.673 62.7332C118.069 62.35 118.396 61.9721 118.758 61.5605C119.259 60.912 119.681 60.4923 120.245 59.913C123.26 56.817 125.875 53.1124 128.365 49.6093C128.875 48.4129 129.839 46.9749 130.524 45.3344C132.24 39.9629 129.187 35.6748 124.904 32.68L123.98 32.2058L124.171 31.9289C124.718 31.378 124.889 30.521 125.656 30.4071C125.743 30.3408 125.851 30.177 125.923 30.0813L126.359 30.0291Z" fill="#F1EEF0"/>
<path d="M130.13 47.5737C130.5 47.1541 131.461 45.8204 131.754 45.5658C131.337 47.0944 130.21 48.9064 129.356 50.2546C124.271 58.2793 117.33 65.0091 110.465 71.5009C109.516 72.398 105.967 75.8766 105.09 76.2674C105.074 76.4527 105.055 76.6719 105.033 76.9247C103.186 78.4401 100.409 80.9966 98.6788 82.461L98.6264 82.5048C98.1788 82.6338 97.7181 82.7737 97.2675 82.887L96.9853 82.4861C96.7966 82.483 96.8514 82.4498 96.7194 82.5256C96.5019 82.5156 95.8941 82.4733 95.7186 82.5126C95.2232 82.4417 95.1365 82.4767 94.9196 82.0597C95.5718 82.0886 96.4451 82.217 96.9428 81.8073C98.5513 80.5042 100.517 78.1657 102.294 76.7416C103.15 75.9306 104.474 75.4871 105.324 74.7159C108.529 71.8062 111.581 68.7839 114.88 65.9737C115.894 65.1101 116.354 63.7981 117.673 62.7332C118.069 62.35 118.396 61.9721 118.758 61.5605C119.259 60.912 119.681 60.4923 120.245 59.913C123.26 56.817 125.875 53.1124 128.365 49.6093C128.875 48.4129 129.839 46.9749 130.524 45.3344C130.685 45.9244 130.305 46.9511 130.13 47.5737Z" fill="#555658"/>
<path d="M117.673 62.7333C118.141 63.1231 117.813 62.8985 118.071 63.3226C115.575 65.8973 112.852 68.4063 110.318 70.9636C108.698 72.5991 106.09 74.2366 104.709 75.9885C104.823 76.0657 105.001 76.1738 105.09 76.2675C105.074 76.4527 105.055 76.6719 105.033 76.9248C103.186 78.4401 100.409 80.9967 98.6788 82.461L98.6263 82.5048C98.1787 82.6339 97.718 82.7737 97.2674 82.887L96.9852 82.4862C96.7965 82.4831 96.8513 82.4498 96.7193 82.5256C96.5019 82.5157 95.894 82.4734 95.7185 82.5126C95.2231 82.4417 95.1364 82.4768 94.9195 82.0597C95.5717 82.0887 96.445 82.2171 96.9427 81.8073C98.5512 80.5042 100.517 78.1658 102.294 76.7417C103.15 75.9306 104.474 75.4871 105.323 74.7159C108.529 71.8062 111.581 68.784 114.88 65.9738C115.894 65.1102 116.354 63.7981 117.673 62.7333Z" fill="#C5C3C6"/>
<path d="M104.709 75.9885C104.823 76.0657 105.002 76.1738 105.09 76.2675C105.074 76.4527 105.055 76.6719 105.033 76.9248C103.186 78.4401 100.409 80.9967 98.6789 82.461L98.6265 82.5048C98.9658 82.085 99.4863 81.4965 99.4437 80.9234C99.4245 80.6646 99.4359 80.6563 99.531 80.4073C101.174 78.9655 102.993 77.2928 104.709 75.9885Z" fill="#1F1F25"/>
<path d="M99.5309 80.4073C99.4358 80.6563 99.4244 80.6647 99.4436 80.9234C99.4862 81.4965 98.9657 82.0851 98.6264 82.5048C98.1787 82.6339 97.7181 82.7737 97.2674 82.8871L96.9852 82.4862C96.7965 82.4831 96.8514 82.4498 96.7193 82.5257C96.5019 82.5157 95.894 82.4734 95.7185 82.5126C95.2231 82.4417 95.1364 82.4768 94.9195 82.0597C95.5717 82.0887 96.445 82.2171 96.9427 81.8074C98.0732 82.0079 98.7362 81.1265 99.5309 80.4073Z" fill="#13181A"/>
<path d="M128.365 49.6092L128.972 48.8864L129.073 48.9152C128.897 51.2002 120.635 60.8415 118.634 62.7284L118.071 63.3225C117.813 62.8984 118.141 63.123 117.673 62.7332C118.069 62.35 118.396 61.9721 118.758 61.5605C119.258 60.912 119.681 60.4922 120.245 59.913C123.26 56.817 125.875 53.1124 128.365 49.6092Z" fill="#F1EEF0"/>
<path d="M125.656 30.4072L126.009 30.7772C129.438 33.5256 131.763 36.112 132.428 40.6943C132.607 41.9261 132.236 44.5 131.754 45.5658C131.461 45.8204 130.5 47.1542 130.13 47.5737C130.305 46.9512 130.685 45.9244 130.524 45.3345C132.24 39.9629 129.188 35.6748 124.904 32.68L123.98 32.2058L124.171 31.929C124.718 31.378 124.889 30.521 125.656 30.4072Z" fill="#838283"/>
<path d="M125.656 30.4072L126.009 30.7772C126.431 31.3839 126.779 31.9796 126.283 32.6056C125.867 32.848 125.391 32.7491 124.904 32.68L123.98 32.2058L124.171 31.929C124.718 31.378 124.889 30.521 125.656 30.4072Z" fill="#4C4D50"/>
<path d="M96.7194 82.5256C96.8514 82.4498 96.7966 82.4831 96.9853 82.4862L97.2675 82.887C96.3302 83.4363 94.5183 84.5789 94.1849 85.6157C94.2225 85.9147 94.2383 85.959 94.3657 86.2324C93.9753 85.9978 93.3951 85.192 93.2226 84.7657C94.0635 84.2239 94.8016 83.6472 95.6839 83.1158L95.7186 82.5126C95.8941 82.4734 96.5019 82.5157 96.7194 82.5256Z" fill="#6A6B6C"/>
<path d="M96.7194 82.5257C96.5565 82.8642 96.1129 82.9411 95.6839 83.1158L95.7186 82.5126C95.8941 82.4734 96.5019 82.5157 96.7194 82.5257Z" fill="#C5C3C6"/>
<path d="M106.159 77.9623C105.722 79.4388 102.545 82.2867 101.053 82.7218C101.448 82.1263 105.448 78.5212 106.159 77.9623Z" fill="#13181A"/>
<path d="M106.445 14.8622C107.834 16.1004 108.085 15.9443 109.665 16.7586C110.901 17.3958 112.178 18.5247 113.497 19.1388C114.816 19.9077 115.722 21.4129 115.347 22.9352C114.897 23.8191 114.105 25.1033 113.072 25.3432C109.673 26.067 108.92 22.7982 107.077 20.9035C106.412 20.3849 105.921 19.4065 105.714 18.5988C106.145 17.662 106.404 17.3588 107.054 16.5972C106.522 16.1662 105.978 15.7492 105.424 15.3467C105.286 15.345 107.644 16.3972 107.91 16.4859C107.972 16.2774 106.631 15.5754 106.445 14.8622Z" fill="#FCAAC2"/>
<path d="M115.347 22.9352C114.897 23.8191 114.105 25.1033 113.071 25.3432C109.673 26.067 108.92 22.7982 107.077 20.9036C108.574 20.1562 109.086 21.909 109.969 22.4037C110.041 22.1131 109.762 21.4717 109.648 21.1285C109.981 21.2502 111.123 23.0482 111.659 23.3247C112.536 23.7779 113.322 23.4115 114.204 23.1563C114.56 22.9743 114.946 22.972 115.347 22.9352Z" fill="#E17794"/>
<path d="M115.347 22.9352C114.897 23.8191 114.105 25.1033 113.072 25.3432C112.155 24.2507 113.44 23.6007 114.205 23.1563C114.56 22.9743 114.946 22.972 115.347 22.9352Z" fill="#EC7292"/>
<path d="M112.928 19.3596C113.895 19.8958 114.047 20.2757 114.716 21.1855C114.806 22.6146 114.666 22.8347 113.164 22.8398C110.836 22.05 110.474 18.8556 112.928 19.3596Z" fill="#F1EEF0"/>
<path d="M108.843 16.8589C110.411 17.8278 109.735 19.1283 108.038 18.8419C107.948 18.7466 107.86 18.6489 107.775 18.5489C107.303 17.9875 107.177 17.2848 107.825 16.7988C108.25 16.6972 108.418 16.761 108.843 16.8589Z" fill="#F1EEF0"/>
<path d="M117.035 24.4041C119.087 22.5289 121.407 25.1768 122.772 26.5352C123.274 27.0343 124.186 27.3823 124.665 27.9761C125.351 28.827 125.347 29.4574 126.359 30.0291L125.923 30.0813C125.851 30.177 125.743 30.3408 125.656 30.4071C124.889 30.521 124.718 31.378 124.171 31.9289L123.98 32.2058C121.522 32.3105 121.723 31.4442 119.896 30.8688C117.523 30.1213 116.291 30.4966 115.27 27.5203C115.59 26.0657 116.085 25.4625 117.035 24.4041Z" fill="#FCAAC2"/>
<path d="M115.27 27.5203C115.59 26.0657 116.085 25.4625 117.035 24.4041C117.275 25.4916 116.395 27.4437 117.264 27.9313C118.418 28.5793 119.914 29.0132 121.198 29.3713C121.957 30.4102 122.915 31.4669 124.171 31.929L123.98 32.2058C121.522 32.3105 121.723 31.4442 119.896 30.8689C117.523 30.1213 116.291 30.4966 115.27 27.5203Z" fill="#EC7292"/>
<path d="M120.555 25.1595C122.207 26.323 120.642 28.479 118.086 26.7869C117.518 26.1031 117.507 25.7352 117.362 24.872C118.229 24.6427 118.516 24.5871 119.415 24.5127C119.744 24.66 120.229 24.9665 120.555 25.1595Z" fill="#F1EEF0"/>
<path d="M123.624 28.1367C123.776 28.2214 123.924 28.3138 124.066 28.4137C125.038 29.0881 125.179 30.3257 123.63 30.3602C123.569 30.3228 123.509 30.284 123.45 30.2441C122.465 29.5763 122.007 28.3693 123.624 28.1367Z" fill="#F1EEF0"/>
<path d="M134.186 115.08C134.052 115.347 133.853 115.77 133.705 116.01C133.844 116.209 134.015 116.444 133.986 116.694L133.891 117.097C133.814 117.306 133.528 118.041 133.501 118.214C133.207 118.94 132.66 120.242 132.489 120.979C132.093 121.385 132.266 121.313 131.748 121.438C131.328 121.324 131.481 121.416 131.182 121.066L131.129 120.782C130.925 120.508 130.922 120.393 130.882 120.064L130.869 119.961L130.61 119.911C131.049 118.966 131.919 116.622 131.903 115.634C133.129 115.507 133.247 116.386 134.186 115.08Z" fill="#F8B6CE"/>
<path d="M134.186 115.08C134.052 115.347 133.853 115.77 133.705 116.01C133.844 116.209 134.015 116.444 133.986 116.694C133.691 116.295 133.814 116.353 133.395 116.167C133.09 116.229 132.891 116.289 132.718 116.605C132.27 117.422 131.273 119.952 131.129 120.782C130.925 120.508 130.922 120.393 130.882 120.064L130.869 119.961L130.61 119.911C131.049 118.966 131.919 116.622 131.903 115.634C133.129 115.507 133.247 116.386 134.186 115.08Z" fill="#F989AA"/>
<path d="M65.7001 57.564C64.8078 59.6462 66.429 60.1811 66.3695 62.29C66.3228 63.9446 65.4532 65.1714 64.7834 66.5962C63.5368 69.2482 63.8401 73.247 64.8657 75.9141C65.2974 77.0364 67.0811 80.2191 67.9633 80.978C67.6603 80.81 67.3115 80.8399 66.9424 80.796C64.3498 77.2118 62.5371 71.2431 64.1489 66.9971C65.4626 63.5365 66.7279 64.2148 65.2737 59.9311L65.3079 59.8254C65.111 59.0522 64.9784 58.4268 64.4459 57.8319C64.6476 57.6061 64.6872 57.5448 64.9608 57.4218C65.4022 57.6154 65.3143 57.6603 65.7001 57.564Z" fill="#4C4D50"/>
<path d="M74.2188 85.7415C79.2928 88.044 84.3638 87.9198 88.9868 84.775C88.763 85.086 88.1753 85.7317 88.2073 85.9893C87.2976 86.3129 86.4565 86.7627 85.528 87.0663C82.4244 88.0809 77.4753 88.0541 74.5265 86.6681C74.5987 86.1682 74.5265 86.1217 74.2188 85.7415Z" fill="#4C4D50"/>
<path d="M66.9424 80.7961C67.3115 80.84 67.6604 80.8101 67.9633 80.9781C69.8435 83.0158 71.742 84.4847 74.2188 85.7416C74.5265 86.1218 74.5987 86.1683 74.5265 86.6682C71.8462 85.6051 68.6563 83.1421 66.9424 80.7961Z" fill="#77737B"/>
<path d="M132.489 120.979C132.327 121.505 132.265 122.192 132.013 122.545C131.916 122.68 131.847 122.688 131.829 122.867C131.587 122.76 131.192 122.571 130.951 122.511C129.66 123.295 129.708 124.041 128.664 124.879C129.09 123.481 129.99 121.235 130.611 119.911L130.87 119.961L130.882 120.064C130.923 120.393 130.925 120.508 131.129 120.783L131.182 121.066C131.481 121.416 131.328 121.324 131.748 121.438C132.266 121.313 132.093 121.385 132.489 120.979Z" fill="#F989AA"/>
</g>
<defs>
<clipPath id="clip0_91_2082">
<rect width="116" height="154.969" fill="white" transform="translate(93.2625) rotate(37)"/>
</clipPath>
</defs>
</svg>
