<svg width="123" height="97" viewBox="0 0 123 97" fill="none" xmlns="http://www.w3.org/2000/svg">
<g clip-path="url(#clip0_91_2206)">
<path d="M49.4158 18.0619C49.479 17.1266 49.8951 16.289 50.1475 15.4433C52.5727 7.31728 60.76 1.87912 69.1425 2.23606C72.509 2.37941 75.3773 3.27842 77.7651 5.7562C79.1681 6.82148 80.0526 8.98613 81.9176 10.4815C83.8461 9.37411 87.0999 6.32638 88.824 5.62925C89.9976 4.9813 91.3475 4.24364 92.6152 3.82713C95.7979 2.78138 99.82 2.98357 102.997 3.90066C104.44 4.32659 105.832 4.90883 107.148 5.63701C110.42 7.42702 111.401 8.62482 113.208 11.7503C117.982 20.0125 116.297 27.5766 113.914 36.1326C114.453 36.2381 115.055 36.2424 115.605 36.2667C117.847 36.3655 120.141 36.5226 122.387 36.4993V38.8876C120.729 38.8391 113.57 38.293 112.565 38.6966C112.416 39.1625 112.263 39.6274 112.108 40.0914C111.16 42.2591 106.839 49.4675 105.175 50.7605C102.546 53.9913 98.8879 57.211 95.5241 59.635C95.0429 59.982 94.3148 60.5648 93.8388 60.8654C93.0117 61.5139 91.9501 62.0761 91.2249 62.7537C90.6885 63.2989 88.7322 67.4078 88.6361 68.1251C87.7284 69.352 86.9342 69.7837 85.8614 70.7533C85.0588 71.527 83.8144 73.1191 83.349 73.5333C83.2162 73.2761 83.1947 73.2025 82.9271 73.0836C81.3745 73.9716 79.7802 74.8342 78.0518 75.3787C73.907 76.6845 68.4121 76.6183 64.3169 75.0695C62.9738 74.5616 61.5793 73.674 60.2926 73.0184C55.138 80.255 48.149 85.9879 40.0442 89.6279C37.0401 90.9671 33.4158 92.6678 30.3982 90.2325C29.9237 90.1632 26.3191 88.0389 25.7511 87.6835C20.5769 84.446 15.8877 80.155 12.4115 75.1235C11.0012 73.0824 9.85978 70.8974 8.74545 68.6881C3.63137 58.95 2.34303 47.5447 2.90157 36.6921C3.09339 34.4727 3.01796 32.1115 3.69877 29.9767C4.10403 28.706 4.7673 27.5173 5.96451 26.8799C7.9274 25.8348 10.0066 24.7163 12.003 23.758C18.4979 20.6403 25.0967 17.7219 31.4732 14.3675C33.4113 13.3479 36.0918 12.6776 38.2363 13.3778C39.3068 13.5137 40.1155 13.5414 41.1819 13.8957C42.4667 14.3226 48.6083 18.1651 49.4158 18.0619ZM63.4575 68.2308C64.4965 69.5113 68.6497 70.7016 70.3307 70.8759C72.6422 71.0957 74.9727 70.7631 77.1304 69.9054C77.5502 69.735 78.0616 69.5687 78.3677 69.2308C75.509 68.6315 71.3228 64.7313 69.2967 62.6253C68.7452 62.0521 67.4813 61.0591 67.0711 60.4497C66.8742 60.6269 66.8138 60.8524 66.7219 61.0975C65.8007 63.5568 64.5448 65.8547 63.4575 68.2308Z" fill="#FD5759"/>
<path d="M30.3982 90.2324C29.9237 90.1631 26.3191 88.0388 25.7511 87.6834C20.5769 84.4459 15.8877 80.1549 12.4115 75.1234C11.0012 73.0823 9.85978 70.8973 8.74545 68.688C3.63137 58.9499 2.34303 47.5446 2.90157 36.692C3.09339 34.4726 3.01796 32.1114 3.69877 29.9767C4.10403 28.7059 4.7673 27.5172 5.96451 26.8798C7.9274 25.8347 10.0066 24.7162 12.003 23.758C18.4979 20.6402 25.0967 17.7218 31.4732 14.3674C33.4113 13.3478 36.0918 12.6775 38.2363 13.3777C39.3068 13.5137 40.1155 13.5413 41.1819 13.8956C42.4667 14.3225 48.6083 18.165 49.4158 18.0619C50.7376 18.8056 52.0888 19.7607 53.4763 20.5411C54.3048 21.0072 56.5787 22.1443 57.2158 22.5991C57.9185 22.9058 59.945 24.0584 60.6749 24.4629C61.5983 24.9745 65.1938 26.815 65.8833 27.4221C67.3914 27.9105 68.9076 29.2692 70.0338 29.8573C70.2833 30.1701 70.867 30.8742 71.2205 31.0386C71.4336 31.1129 71.7238 31.2016 71.9166 31.3059C71.418 32.0398 71.4878 35.1263 71.5691 36.0215C70.0366 36.08 68.5238 36.2061 67.0338 36.6083C63.9502 37.3106 61.1642 38.8397 58.6927 40.7776C57.5808 41.9134 56.6576 42.7708 55.6476 44.048C52.9086 47.5182 51.4566 51.8303 51.5387 56.2503C51.5551 57.8463 51.7087 59.2644 51.8266 60.8479C51.9376 61.0799 52.1984 61.6078 52.2521 61.841C52.4556 62.6022 52.8992 63.6766 53.0235 64.2046C54.5983 67.3867 55.941 69.633 58.8189 71.8763C59.1932 72.1681 59.9402 72.8038 60.2926 73.0183C55.138 80.2549 48.149 85.9878 40.0442 89.6278C37.0401 90.967 33.4158 92.6677 30.3982 90.2324Z" fill="#F3F2F9"/>
<path d="M30.3982 90.2324C29.9237 90.1631 26.3191 88.0388 25.7511 87.6834C20.5769 84.4459 15.8877 80.1549 12.4115 75.1234C11.0012 73.0823 9.85978 70.8973 8.74545 68.688C3.63137 58.9499 2.34303 47.5446 2.90157 36.692C3.09339 34.4726 3.01796 32.1114 3.69877 29.9767C4.10403 28.7059 4.7673 27.5172 5.96451 26.8798C7.9274 25.8347 10.0066 24.7162 12.003 23.758C18.4979 20.6402 25.0967 17.7218 31.4732 14.3674C33.4113 13.3478 36.0918 12.6775 38.2363 13.3777C39.3068 13.5137 40.1155 13.5413 41.1819 13.8956C42.4667 14.3225 48.6083 18.165 49.4158 18.0619C50.7376 18.8056 52.0888 19.7607 53.4763 20.5411C54.3048 21.0072 56.5787 22.1443 57.2158 22.5991C57.9185 22.9058 59.945 24.0584 60.6749 24.4629C61.5983 24.9745 65.1938 26.815 65.8833 27.4221C67.3914 27.9105 68.9076 29.2692 70.0338 29.8573C70.2833 30.1701 70.867 30.8742 71.2205 31.0386C71.4336 31.1129 71.7238 31.2016 71.9166 31.3059C71.418 32.0398 71.4878 35.1263 71.5691 36.0215C70.0366 36.08 68.5238 36.2061 67.0338 36.6083C63.9502 37.3106 61.1642 38.8397 58.6927 40.7776C59.0535 39.136 59.4587 34.817 59.295 33.1927C57.4137 31.5019 54.7144 30.6318 52.5374 29.3624C48.5454 27.0325 44.5076 24.7786 40.428 22.6046C38.5732 21.6162 36.4561 20.2522 34.5126 19.5524C33.8388 19.3098 30.0539 21.3636 29.2139 21.7636L21.1819 25.5332L13.317 29.1959C12.1107 29.7515 9.7552 30.6547 8.78192 31.4017C8.36348 32.7577 8.3252 35.6447 8.24703 37.1198C7.94963 42.7311 8.38939 48.143 9.52833 53.6315C10.3796 57.7339 11.2096 60.0984 13.1175 63.7831C15.9999 69.3499 20.1362 73.4659 25.2405 77.0209C26.7513 78.0851 28.2955 78.9446 29.8542 79.9204C30.34 79.6666 30.9304 79.925 31.321 79.7743C36.6131 77.7326 42.2509 73.6072 46.3211 69.9857C47.4657 69.7618 49.0589 67.7697 50.0618 67.2419C50.7543 66.4744 51.6712 64.6513 51.8526 63.6182C51.9714 62.9416 51.9364 62.4939 52.2521 61.841C52.4556 62.6022 52.8992 63.6766 53.0235 64.2046C54.5983 67.3867 55.941 69.633 58.8189 71.8763C59.1932 72.1681 59.9402 72.8038 60.2926 73.0183C55.138 80.2549 48.149 85.9878 40.0442 89.6278C37.0401 90.967 33.4158 92.6677 30.3982 90.2324Z" fill="#9C96E5"/>
<path d="M38.2363 13.3778C39.3068 13.5137 40.1156 13.5414 41.1819 13.8957C42.4667 14.3226 48.6084 18.1651 49.4159 18.0619C50.7377 18.8056 52.0889 19.7608 53.4763 20.5412C54.3049 21.0073 56.5788 22.1444 57.2158 22.5992C57.9186 22.9059 59.9451 24.0585 60.675 24.463C61.5984 24.9746 65.1939 26.8151 65.8833 27.4222C67.3915 27.9106 68.9077 29.2693 70.0339 29.8574C70.2834 30.1702 70.8671 30.8743 71.2206 31.0387C71.4336 31.113 71.7239 31.2017 71.9166 31.3059C71.4181 32.0399 71.4879 35.1264 71.5692 36.0216C70.0367 36.0801 68.5239 36.2062 67.0339 36.6084C66.775 35.434 66.8914 33.8681 66.7014 32.5935C66.026 28.0623 61.4969 26.7683 58.0025 24.76C53.827 22.3602 49.5194 19.8552 45.3429 17.4079C43.1376 16.1158 40.3122 14.8578 38.2363 13.3778Z" fill="#7A74CB"/>
<path d="M57.2158 22.5991C57.9186 22.9058 59.9451 24.0585 60.6749 24.463C61.5983 24.9746 65.1939 26.815 65.8833 27.4221C64.3495 27.5217 63.1911 26.6007 61.954 25.8661L58.8169 24.0183C59.2179 24.1561 59.5849 24.281 59.9951 24.3957C59.0805 23.84 58.0847 23.3286 57.2189 22.7782L57.2158 22.5991Z" fill="#625EBA"/>
<path d="M65.8833 27.4221C67.3914 27.9105 68.9076 29.2693 70.0338 29.8574C70.2833 30.1701 70.8671 30.8742 71.2206 31.0387L71.3139 31.3729L71.1503 31.4196C71.0761 31.3839 69.6269 29.9691 69.4697 29.7846C68.8727 29.0837 66.1435 27.8632 65.8833 27.4221Z" fill="#5B2752"/>
<path d="M53.0234 64.2046C54.5983 67.3867 55.941 69.633 58.8189 71.8763C59.1932 72.1681 59.9402 72.8038 60.2926 73.0183C55.138 80.2549 48.149 85.9878 40.0442 89.6278C37.04 90.967 33.4158 92.6677 30.3982 90.2324C30.8447 90.1407 32.4446 91.2583 33.3233 91.2467C36.1333 91.2091 37.8153 89.1452 40.4461 88.5882C41.0869 88.4525 42.2699 87.3899 42.8964 87.0483C44.7128 86.0579 46.3553 84.9488 47.9326 83.6079C48.4718 83.1507 49.5889 82.6967 50.083 82.1882C52.1768 80.0241 54.7334 77.9784 56.3747 75.4491C57.1926 74.1886 55.2946 71.5711 54.7759 70.2713C55.1337 70.684 55.3574 71.3516 55.6533 71.5629C55.6929 71.5085 55.7347 71.4604 55.746 71.3889C56.083 69.2563 55.1143 69.0256 54.049 67.3762C53.5511 66.6054 53.5542 66.7614 53.6289 66.076C53.6694 65.7051 52.9278 65.037 53.0234 64.2046Z" fill="#625EBA"/>
<path d="M46.3211 69.9858C47.4657 69.7619 49.0589 67.7698 50.0619 67.2419C48.6046 69.9648 42.8492 74.6424 40.1946 76.3866C38.4069 77.5466 36.5476 78.5924 34.6278 79.5176C33.3801 80.1311 32.6322 80.5576 31.2813 80.8541C30.788 80.6052 30.2751 80.2807 29.8542 79.9204C30.3401 79.6667 30.9304 79.9251 31.3211 79.7744C36.6132 77.7326 42.2509 73.6073 46.3211 69.9858Z" fill="#C8C6EC"/>
<path d="M51.8266 60.8479C51.9376 61.08 52.1984 61.6079 52.2521 61.841C51.9363 62.494 51.9714 62.9416 51.8526 63.6183C51.6712 64.6514 50.7542 66.4745 50.0618 67.2419C49.0588 67.7698 47.4656 69.7619 46.321 69.9858C48.3892 67.1782 51.3018 64.1891 51.8266 60.8479Z" fill="#C8C7EC"/>
<path d="M26.6594 31.6131C28.56 31.4182 32.5326 31.4954 34.4938 31.6893C34.8813 31.7276 36.6271 32.4247 37.3369 32.5703C38.2836 32.6617 38.4798 32.7677 38.4418 33.7602C38.4831 35.9624 38.2822 38.6219 38.0473 40.8785C38.0395 40.9541 37.8269 41.2017 37.7628 41.2752C37.7409 41.8936 37.8079 41.7482 37.9021 42.3127C37.9241 42.4449 37.7293 43.2066 37.6833 43.421L38.9412 43.5616C40.3907 43.5929 44.9309 43.5954 46.0728 43.9725L47.2493 44.3278C47.8267 44.3514 48.4046 44.3579 48.9824 44.3471C49.4625 45.635 49.0747 45.654 48.9715 46.4381C48.778 46.3131 48.8057 46.2691 48.7024 46.0312C48.846 45.5643 49.0229 45.15 48.7704 44.694L48.5919 44.7014C48.2917 45.1553 48.3452 45.3656 48.3839 45.888C48.55 48.1331 48.2923 50.3539 47.9703 52.5708C47.9395 52.7828 47.9534 53.164 47.9536 53.3947C48.1064 53.5074 48.3824 53.7291 48.5702 53.7278L48.7646 53.6185C48.8864 52.9524 48.6984 52.8187 48.9451 52.1657C49.1556 52.5521 48.9339 53.1126 49.2051 53.5534C49.3771 53.8331 49.5139 54.1062 49.5293 54.4369C49.2702 54.7846 46.7839 54.6156 46.2256 54.6018C44.2972 54.5544 42.369 54.4951 40.4414 54.424C39.4415 54.3876 38.0563 54.2892 37.08 54.3309C36.8973 54.801 37.1448 55.7472 37.1198 56.2666C36.9856 59.0509 37.0557 61.8487 36.8261 64.6266C36.7884 64.644 36.7507 64.6616 36.713 64.679C36.431 64.2445 36.6434 60.8185 36.3023 60.2787C35.9148 61.1093 35.8041 64.6667 35.8769 65.608C36.1106 65.8134 36.596 65.7824 36.8942 65.7509L36.9457 65.8259C36.636 65.9983 35.9433 65.833 35.6015 65.7471C33.2373 65.6335 30.8195 65.7857 28.4647 65.5778C27.298 65.4748 26.2524 64.8895 25.1258 64.7533L25.0833 64.7483C25.1846 60.9437 25.6451 57.049 25.6728 53.2039C23.8904 53.2786 21.0244 53.1367 19.2419 52.9757C18.2471 52.8858 16.7824 52.4725 15.6317 52.3374C15.6093 49.556 16.0394 46.013 16.1283 43.1189C19.3516 43.0825 22.6246 43.3096 25.7878 43.2395C26.3556 39.3699 26.117 35.2776 26.6594 31.6131Z" fill="#968EE2"/>
<path d="M46.0728 43.9725L47.2493 44.3279C47.8267 44.3514 48.4047 44.3579 48.9824 44.3471C49.4626 45.635 49.0748 45.654 48.9715 46.4381C48.778 46.3131 48.8057 46.2691 48.7024 46.0312C48.846 45.5643 49.0229 45.15 48.7704 44.694L48.5919 44.7015C48.2917 45.1553 48.3453 45.3656 48.3839 45.888C48.5501 48.1331 48.2923 50.3539 47.9703 52.5708C47.9395 52.7828 47.9534 53.164 47.9537 53.3947C47.7932 53.4152 47.5653 53.454 47.4096 53.4423L46.3324 53.4204C45.9369 53.3502 45.8964 53.4065 45.6294 53.1824C45.3486 51.6668 45.7091 45.5603 46.0728 43.9725Z" fill="#7A74CB"/>
<path d="M47.2493 44.3279C47.8267 44.3515 48.4046 44.3579 48.9824 44.3471C49.4626 45.635 49.0747 45.6541 48.9715 46.4381C48.778 46.3132 48.8057 46.2691 48.7024 46.0313C48.846 45.5643 49.0229 45.15 48.7704 44.694L48.5919 44.7015C48.2917 45.1553 48.3453 45.3656 48.3839 45.888C48.5501 48.1331 48.2923 50.3539 47.9703 52.5708C47.9395 52.7828 47.9534 53.1641 47.9537 53.3947C47.7932 53.4152 47.5653 53.454 47.4096 53.4424L47.649 53.3312C47.7436 53.2104 47.9765 45.5038 47.9166 44.6716C47.7417 44.4189 47.6002 44.4446 47.2493 44.3279Z" fill="#C8C6EC"/>
<path d="M47.9537 53.3948C48.1065 53.5075 48.3825 53.7291 48.5703 53.7279L48.7647 53.6186C48.8865 52.9525 48.6985 52.8188 48.9452 52.1658C49.1557 52.5522 48.9339 53.1127 49.2051 53.5535C49.3772 53.8332 49.514 54.1062 49.5294 54.4369C49.2702 54.7847 46.7839 54.6157 46.2257 54.6019C44.2973 54.5545 42.3691 54.4952 40.4414 54.4241C39.4416 54.3877 38.0564 54.2893 37.0801 54.3309C36.8974 54.8011 37.1448 55.7473 37.1198 56.2667C36.9857 59.051 37.0558 61.8487 36.8262 64.6267C36.7885 64.6441 36.7508 64.6616 36.7131 64.6791C36.4311 64.2445 36.6435 60.8186 36.3023 60.2788C35.9149 61.1094 35.8042 64.6667 35.8769 65.608C36.1107 65.8135 36.5961 65.7824 36.8943 65.751L36.9457 65.826C36.6361 65.9984 35.9433 65.8331 35.6016 65.7472C35.8973 61.5654 35.9071 57.5656 36.2916 53.2863C39.6365 53.4289 42.9849 53.4737 46.3325 53.4204L47.4097 53.4424C47.5653 53.4541 47.7932 53.4152 47.9537 53.3948Z" fill="#C8C6EC"/>
<path d="M37.3368 32.5703C38.2835 32.6617 38.4796 32.7677 38.4417 33.7603C38.483 35.9625 38.2821 38.6219 38.0472 40.8785C38.0394 40.9541 37.8268 41.2017 37.7627 41.2752C37.7408 41.8936 37.8078 41.7482 37.902 42.3128C37.924 42.4449 37.7292 43.2066 37.6832 43.4211L38.9411 43.5616C38.4905 43.582 37.9326 43.5734 37.4737 43.5775C37.2127 43.5862 37.0369 43.6165 36.8061 43.4872C36.738 43.0295 36.8968 40.7838 36.9293 40.1483C37.0345 37.6208 37.1703 35.0946 37.3368 32.5703Z" fill="#C8C7EC"/>
<path d="M37.4739 43.5775C37.3502 43.3704 37.5639 37.7706 37.7232 37.5834L38.0227 37.9463C38.3372 37.1145 38.1483 34.873 38.4419 33.7603C38.4832 35.9625 38.2823 38.6219 38.0474 40.8785C38.0396 40.9541 37.827 41.2017 37.7629 41.2752C37.741 41.8936 37.8079 41.7482 37.9022 42.3127C37.9242 42.4449 37.7294 43.2066 37.6834 43.421L38.9413 43.5616C38.4907 43.582 37.9328 43.5734 37.4739 43.5775Z" fill="#C8C6EC"/>
<path d="M71.5691 36.0216C72.3465 36.0616 73.4163 36.0548 74.1362 36.128C82.2656 37.5398 88.5489 42.3003 91.1203 50.3836C91.3512 51.1097 91.44 52.0303 91.6586 52.6885C93.381 53.318 93.2256 59.8856 93.8388 60.8654C93.0117 61.5139 91.9501 62.0761 91.2249 62.7537C90.6885 63.2989 88.7321 67.4077 88.6361 68.1251C87.7284 69.352 86.9342 69.7837 85.8614 70.7533C85.0588 71.527 83.8144 73.1191 83.349 73.5332C83.2162 73.2761 83.1947 73.2024 82.9271 73.0836C81.3745 73.9715 79.7802 74.8342 78.0518 75.3787C73.907 76.6845 68.4121 76.6183 64.3168 75.0695C62.9738 74.5616 61.5792 73.674 60.2926 73.0184C59.9402 72.8038 59.1932 72.1681 58.8189 71.8764C55.941 69.6331 54.5983 67.3868 53.0234 64.2047C52.8992 63.6766 52.4556 62.6023 52.2521 61.841C52.1984 61.6079 51.9376 61.08 51.8266 60.8479C51.7087 59.2645 51.5551 57.8463 51.5387 56.2504C51.4566 51.8303 52.9085 47.5183 55.6476 44.0481C56.6576 42.7709 57.5808 41.9135 58.6926 40.7776C61.1642 38.8397 63.9502 37.3106 67.0338 36.6083C68.5238 36.2061 70.0366 36.0801 71.5691 36.0216ZM63.4575 68.2307C64.4965 69.5112 68.6496 70.7016 70.3307 70.8759C72.6422 71.0956 74.9727 70.763 77.1304 69.9054C77.5501 69.735 78.0616 69.5686 78.3677 69.2308C75.509 68.6315 71.3228 64.7312 69.2967 62.6253C68.7452 62.0521 67.4813 61.0591 67.0711 60.4497C66.8742 60.6268 66.8137 60.8524 66.7219 61.0975C65.8007 63.5568 64.5448 65.8547 63.4575 68.2307Z" fill="#F6C611"/>
<path d="M91.6586 52.6885C93.381 53.318 93.2256 59.8856 93.8387 60.8654C93.0117 61.5139 91.9501 62.0761 91.2249 62.7537C91.8223 59.1778 91.9102 56.3151 91.6586 52.6885Z" fill="#DE1B1A"/>
<path d="M83.7592 70.1255C84.5257 70.3246 85.1918 70.3666 85.8614 70.7532C85.0589 71.527 83.8145 73.119 83.3491 73.5332C83.2163 73.276 83.1948 73.2024 82.9272 73.0835C82.6934 72.8229 82.5375 72.3986 82.394 72.0679C82.7722 71.3212 83.2326 70.7666 83.7592 70.1255Z" fill="#FEDB74"/>
<path d="M71.0404 41.8521C73.2187 41.8605 74.7467 41.9539 76.8308 42.7704C77.5886 42.9116 78.2955 43.3737 78.9488 43.7364C84.344 46.7308 87.2486 53.087 86.0053 59.1321C85.2667 62.7227 83.2483 66.0855 80.1947 68.1485C79.6112 68.5507 79.0009 68.9123 78.3679 69.2308C75.5091 68.6315 71.323 64.7313 69.2968 62.6253C68.7453 62.0521 67.4814 61.0591 67.0712 60.4497C66.8743 60.6269 66.8139 60.8524 66.722 61.0975C65.8009 63.5568 64.5449 65.8547 63.4576 68.2307C62.0654 67.5002 60.8468 65.9512 59.8991 64.7336C59.3884 63.9951 58.8517 63.1146 58.4583 62.3188C57.308 59.9915 56.773 55.5461 57.6496 53.0818C58.0556 49.8757 61.5228 45.3368 64.3671 43.8829C65.7729 42.76 69.2349 41.9889 71.0404 41.8521Z" fill="#F83B3E"/>
<path d="M64.3671 43.8829C65.7729 42.76 69.2349 41.9889 71.0404 41.8521C71.0278 42.5592 70.8984 44.5567 70.7523 45.2171C70.4536 47.6746 70.0136 50.1128 69.4346 52.5198C69.1758 53.5965 68.7384 54.9619 68.5303 55.9976C68.0972 56.9967 67.5303 59.7583 67.0712 60.4497C66.8743 60.6269 66.8139 60.8524 66.722 61.0975C65.8009 63.5568 64.5449 65.8547 63.4576 68.2307C62.0654 67.5002 60.8468 65.9512 59.8991 64.7336C59.3884 63.9951 58.8517 63.1146 58.4583 62.3188C57.308 59.9915 56.773 55.5461 57.6496 53.0818C58.0556 49.8757 61.5228 45.3368 64.3671 43.8829Z" fill="#7470CA"/>
<path d="M57.6496 53.0817C58.2027 52.583 58.8379 50.1904 59.3479 49.6542C59.873 49.1022 60.8644 48.1603 61.4184 47.5472C61.7176 47.2163 62.4566 47.49 62.5708 47.1212L62.3785 47.038C62.6972 46.6662 63.1912 46.997 63.3027 46.9445C64.084 46.5769 64.3892 45.9359 65.3309 45.9039C65.4795 46.1448 65.3358 46.2611 65.372 46.4787C65.5579 47.5909 65.2195 49.1364 64.9173 50.2709C63.7494 54.6553 62.5692 59.2266 60.5406 63.302C60.3737 63.6373 60.0351 64.5356 59.8991 64.7336C59.3884 63.9951 58.8517 63.1145 58.4583 62.3187C57.308 59.9915 56.773 55.5461 57.6496 53.0817Z" fill="#9C96E5"/>
<path d="M64.3669 43.8829C65.7728 42.76 69.2348 41.9889 71.0402 41.8521C71.0276 42.5592 70.8982 44.5567 70.7522 45.2171C70.1724 44.4027 68.1703 44.509 67.2216 44.0532C66.5039 43.7084 66.5956 43.8344 66.2953 43.1324C65.5754 43.4333 65.132 43.6984 64.4548 44.0669L64.3669 43.8829Z" fill="#625EBA"/>
<path d="M71.0403 41.8521C73.2187 41.8605 74.7466 41.9539 76.8308 42.7704C76.0404 42.9551 74.3057 41.9091 73.6802 42.2454C73.6422 42.438 73.6367 42.6536 73.5219 42.7772C72.2114 44.1877 71.4366 45.4373 70.8206 47.228C70.3313 48.6504 69.3749 55.3171 68.5303 55.9976C68.7384 54.9619 69.1757 53.5965 69.4345 52.5198C70.0135 50.1128 70.4535 47.6746 70.7523 45.2171C70.8983 44.5567 71.0277 42.5592 71.0403 41.8521Z" fill="#DE1B1A"/>
<path d="M88.8241 5.62918C89.9977 4.98122 91.3476 4.24356 92.6153 3.82705C95.798 2.78131 99.8201 2.98349 102.997 3.90058C104.44 4.32652 105.832 4.90875 107.148 5.63693C110.42 7.42694 111.401 8.62474 113.208 11.7502C117.982 20.0124 116.297 27.5765 113.914 36.1325C113.533 36.0595 112.441 36.1031 111.814 36.0198C110.728 35.9538 109.637 35.9108 108.548 35.8684C102.485 35.6322 96.4061 35.1971 90.3423 35.0243C89.6602 33.4682 88.2277 30.4292 87.1498 29.1308C86.7146 28.6064 85.8187 28.7007 85.1785 28.7286C84.1802 29.4332 83.0124 31.1113 82.0908 31.8532C81.7337 30.9219 81.227 27.4763 81.004 26.3378L78.575 14.2549C78.2001 12.3614 77.3097 7.58865 76.6899 5.88672C76.8444 5.75824 76.953 5.68193 77.1205 5.57064C77.3788 5.6096 77.5243 5.66929 77.7652 5.75612C79.1682 6.82141 80.0527 8.98605 81.9177 10.4815C83.8462 9.37403 87.1 6.3263 88.8241 5.62918Z" fill="#FD5759"/>
<path d="M88.824 5.62918C89.9975 4.98122 91.3474 4.24356 92.6151 3.82705C95.7978 2.78131 99.8199 2.98349 102.997 3.90058C104.44 4.32652 105.832 4.90875 107.148 5.63693C110.42 7.42694 111.401 8.62474 113.208 11.7502C117.982 20.0124 116.297 27.5765 113.914 36.1325C113.533 36.0595 112.441 36.1031 111.814 36.0198C112.38 35.3093 112.037 35.0094 112.38 34.2273C113.539 31.3155 114.097 26.7977 113.574 23.7662C112.802 19.2918 110.335 18.7397 106.407 18.2751C105.899 18.2149 105.377 17.8395 104.857 17.9916C103.677 17.5922 101.65 13.1881 100.966 11.9981C100.723 11.5758 100.171 10.8509 99.8218 10.4844C98.2304 8.81586 96.0138 7.31748 94.0052 6.19301C93.4987 5.90939 92.9568 5.81678 92.45 5.58528C92.1602 5.44605 91.3781 4.71876 91.0878 4.74784C90.3937 4.81738 89.5415 5.72473 88.824 5.62918Z" fill="#FEA5A9"/>
<path d="M49.4158 18.0619C49.479 17.1266 49.8951 16.289 50.1474 15.4433C52.5726 7.31728 60.7599 1.87912 69.1425 2.23606C72.509 2.37941 75.3773 3.27842 77.7651 5.7562C77.5242 5.66937 77.3787 5.60967 77.1204 5.57071C76.9529 5.68201 76.8443 5.75832 76.6898 5.8868C76.2927 5.32549 75.9059 5.00092 75.2102 4.88313C73.3643 4.57059 73.004 6.5608 72.7934 7.90308C72.2113 11.7892 71.7156 15.6877 71.3066 19.5958C71.0684 22.0461 70.8533 24.497 70.4823 26.9327C70.3661 27.6958 70.222 29.1698 70.0338 29.8574C68.9076 29.2693 67.3914 27.9106 65.8832 27.4222C65.1938 26.8151 61.5983 24.9746 60.6749 24.463C59.945 24.0585 57.9185 22.9059 57.2157 22.5992C56.5787 22.1444 54.3048 21.0073 53.4762 20.5412C52.0888 19.7608 50.7376 18.8056 49.4158 18.0619Z" fill="#FE5E61"/>
<path d="M65.1406 4.54817C65.4192 4.47181 66.6614 4.45897 66.9895 4.47488C69.3282 4.58833 70.2442 6.88417 70.1336 8.92331C69.8218 9.15665 69.4934 9.40111 69.165 9.60986C69.109 9.64547 68.6933 9.5822 68.5059 9.63306C69.0915 9.91336 69.9722 10.7372 70.6166 11.0604C70.8852 11.1951 71.3238 11.2906 71.4494 11.5515C71.0986 11.5359 70.9984 11.4325 70.7152 11.224C67.874 9.55264 65.1488 7.60808 62.1868 6.10774C61.9587 5.9922 61.93 5.92945 61.8506 5.71141L61.9489 5.5076C62.5037 5.03752 64.3458 4.74172 65.1406 4.54817Z" fill="#FEA5A9"/>
<path d="M70.0337 29.8573C70.2219 29.1697 70.366 27.6957 70.4822 26.9326C70.8533 24.4969 71.0683 22.046 71.3065 19.5956C71.7156 15.6876 72.2113 11.789 72.7934 7.90297C73.0039 6.5607 73.3643 4.57048 75.2101 4.88302C75.9058 5.00081 76.2927 5.32539 76.6897 5.88669C77.3095 7.58862 78.1999 12.3614 78.5748 14.2549L81.0038 26.3378C81.2268 27.4762 81.7335 30.9218 82.0906 31.8532C83.0122 31.1113 84.18 29.4332 85.1783 28.7285C85.8185 28.7007 86.7144 28.6064 87.1496 29.1307C88.2275 30.4291 89.66 33.4682 90.3421 35.0242C96.4059 35.1971 102.485 35.6322 108.548 35.8683C109.636 35.9108 110.728 35.9538 111.814 36.0198C112.441 36.1031 113.533 36.0595 113.914 36.1324C114.453 36.238 115.055 36.2423 115.605 36.2666C117.847 36.3654 120.141 36.5225 122.387 36.4992V38.8875C120.729 38.839 113.57 38.2929 112.565 38.6965C107.89 38.3687 103.21 38.1012 98.5288 37.8942C95.5648 37.7468 92.0844 37.7974 89.1851 37.154C88.5002 37.0019 87.753 35.0963 87.4243 34.4144L85.8121 31.1417C84.9675 32.5201 83.5531 34.3716 81.9966 34.9066C81.1806 34.7186 80.5056 34.5367 80.2123 33.6711C79.5074 31.5906 79.1663 29.3304 78.7456 27.177L76.4375 15.7444C76.1052 14.0577 75.541 10.6235 75.0989 9.16609C74.6999 11.0476 74.4506 14.0332 74.1767 15.9658C73.531 20.5215 73.0483 25.1816 72.3404 29.7225C72.2129 30.3829 72.1577 30.6772 71.9165 31.3058C71.7237 31.2015 71.4335 31.1129 71.2204 31.0386C70.8669 30.8742 70.2832 30.1701 70.0337 29.8573Z" fill="#F3F2F9"/>
<path d="M72.3404 29.7225C72.7605 30.2378 72.3932 30.8054 72.1581 31.3836C72.43 31.6033 73.4848 31.6092 73.8195 31.4989C73.9515 31.0302 73.9672 30.4652 74.0014 29.9731C73.983 31.3672 73.8796 34.9046 74.1361 36.1279C73.4162 36.0547 72.3465 36.0615 71.5691 36.0216C71.4878 35.1263 71.418 32.0398 71.9165 31.3059C72.1577 30.6773 72.2129 30.383 72.3404 29.7225Z" fill="#DE1B1A"/>
<path d="M111.167 41.4936L111.674 40.6895C111.673 40.336 111.724 40.4013 111.556 40.1384C110.926 40.1671 110.769 40.6863 110.325 40.9791C110.022 41.1796 109.5 41.4366 109.163 41.6044L109.057 41.4468L108.779 41.5436L108.717 41.5107C109.121 40.8529 111.287 39.8922 112.108 40.0914C111.16 42.2591 106.839 49.4675 105.175 50.7605C105.242 50.2663 106.192 49.3239 106.538 48.85C107.242 47.7517 108.466 46.3574 109.086 45.2694C110.006 43.6582 108.508 42.2817 111.167 41.4936Z" fill="#FEA5A9"/>
<path d="M88.6362 68.1251C89.0491 68.2178 90.5071 68.3599 90.7715 68.5752C91.9693 69.55 93.177 70.9483 94.2718 72.0729C94.504 72.3115 94.3725 72.8501 94.2241 73.1201L94.2575 73.1995C95.3225 75.6624 101.365 79.7758 102.685 82.4363C103.62 84.3226 100.311 87.2827 98.7544 87.7329C98.3992 87.8413 98.0032 87.8887 97.6433 87.7813C94.7759 86.9269 90.5039 79.8344 88.3315 79.2786L87.9494 79.1523C87.1495 78.8331 85.673 77.4716 85.0829 76.8525C84.0419 75.7602 83.3508 75.1019 83.3491 73.5332C83.8145 73.1191 85.0589 71.527 85.8615 70.7533C86.9343 69.7837 87.7285 69.352 88.6362 68.1251Z" fill="#FEDB74"/>
<path d="M88.6362 68.1251C89.0491 68.2178 90.5071 68.3599 90.7715 68.5752C91.9693 69.55 93.177 70.9483 94.2718 72.0729C94.504 72.3115 94.3725 72.8501 94.2241 73.1201C92.8315 73.1692 91.854 74.1928 90.9401 75.1874C90.8821 75.2517 90.826 75.3178 90.7721 75.3857L90.4333 75.7032C89.6615 76.6386 88.4687 78.0234 88.3315 79.2786L87.9494 79.1523C87.1495 78.8331 85.673 77.4716 85.0829 76.8525C84.0419 75.7602 83.3508 75.1019 83.3491 73.5332C83.8145 73.1191 85.0589 71.527 85.8615 70.7533C86.9343 69.7837 87.7285 69.352 88.6362 68.1251Z" fill="#8F8DDD"/>
<path d="M87.9495 79.1523C88.3673 77.7568 89.1761 76.4795 90.4333 75.7032C89.6616 76.6386 88.4688 78.0234 88.3315 79.2786L87.9495 79.1523Z" fill="#5E5A6D"/>
<path d="M90.772 75.3857C90.8259 75.3177 90.8819 75.2516 90.94 75.1873C91.8539 74.1928 92.8314 73.1692 94.224 73.12L94.2574 73.1995C95.3224 75.6624 101.365 79.7758 102.685 82.4363C103.619 84.3225 100.311 87.2827 98.7543 87.7329C98.4237 87.7081 98.3271 87.7095 98.0126 87.5935L97.9614 87.4502C98.8064 86.3793 102.545 86.0006 100.252 83.308C98.0145 80.6804 96.6097 78.2634 93.3375 77.0274C92.6064 76.7512 92.0063 74.9584 90.772 75.3857Z" fill="#F2BE42"/>
</g>
<defs>
<clipPath id="clip0_91_2206">
<rect width="122.387" height="97" fill="white"/>
</clipPath>
</defs>
</svg>
