<svg width="100" height="135" viewBox="0 0 100 135" fill="none" xmlns="http://www.w3.org/2000/svg">
<g clip-path="url(#clip0_91_3390)">
<path d="M34.1431 50.0615C33.7851 45.9311 34.1592 41.833 34.2296 37.7082C34.402 27.6023 33.9956 11.634 40.8572 3.51131C42.3668 1.72425 44.6081 0.465742 46.9577 0.277742C49.6157 0.065052 52.048 1.27422 54.0268 2.9645C58.0973 6.44152 61.0638 11.8142 63.7391 16.4034C71.8372 30.2951 79.1648 45.7686 92.8485 55.1111C96.5413 57.6323 100.932 59.5059 105.31 60.3835C106.469 60.6157 107.691 60.8429 108.869 60.9305C110.06 61.0191 111.287 60.9859 112.469 61.144C112.676 61.1717 112.825 61.2528 113 61.3599V62.4854C111.542 63.2095 105.592 61.9713 103.861 61.5699C85.986 57.4234 75.4933 40.251 66.9908 25.4376C63.0088 18.5 59.4071 11.0425 53.9767 5.11655C50.9265 1.78323 46.0792 0.0493317 42.7087 3.90283C35.1928 12.4957 35.8246 28.4773 35.9851 39.1163C36.1271 39.9549 36.287 46.165 36.0883 46.9844C36.1425 48.0914 36.2398 49.0789 36.064 50.1801C38.0974 50.2363 40.1319 50.2509 42.1659 50.2239C42.1142 47.9667 42.0954 45.7088 42.1091 43.4511C42.1142 41.271 41.6486 38.2135 44.7675 38.2996C46.0119 38.3339 47.1427 38.3328 48.3822 38.581C49.0344 39.0715 49.2446 39.1727 49.3323 40.0352C49.4947 41.6308 49.458 43.4829 49.4382 45.0996C49.4201 46.5632 49.5182 48.8363 49.3413 50.2272C50.3817 50.2156 52.2235 50.1659 53.2072 50.3115C53.3057 51.2267 53.3283 53.2452 53.6345 53.9502C55.7163 58.7438 61.6157 62.3206 62.8415 67.5609C63.4835 70.306 63.2316 74.5798 63.2647 77.5314L63.4321 97.4951L63.6172 116.892C63.6598 120.069 63.9485 125.306 63.603 128.211C63.3442 130.534 62.421 132.733 60.944 134.545C58.6577 137.374 53.9682 139.416 50.8876 141.4C49.1996 142.486 47.4036 143.568 45.5999 144.445C44.4787 144.973 41.894 145.278 41.396 145.633L41.3523 145.664H22.4166C21.9034 145.329 19.8166 144.991 19.0173 144.743C16.4114 143.879 14.0608 142.243 11.6876 140.806C8.90685 139.122 5.46502 137.427 3.19105 135.101C1.98663 133.87 1.06314 132.216 0.559097 130.594C0.398707 130.078 0.272374 129.449 0 128.989V68.8522C0.272846 68.5473 0.73007 65.4471 1.65196 64.2271C4.21393 60.8368 7.39394 57.9311 9.80533 54.469C10.3593 53.6737 9.75336 51.0701 10.4568 50.3818C11.2482 49.9888 13.3012 50.1556 14.2328 50.2307C13.8379 47.9399 14.0913 41.5533 14.5407 39.2035C14.7946 37.8761 19.8522 38.1585 21.2791 39.134C21.6661 40.4898 21.6918 48.8244 21.4029 50.2294C22.8536 50.1524 24.8852 50.3667 26.2444 49.9989C26.1286 49.588 26.1534 49.432 26.1783 49.0091C26.132 46.1761 25.7061 42.5625 26.0523 39.7224C26.0922 39.3958 26.3824 39.1379 26.6715 38.9782C27.3833 38.851 27.6393 39.0733 28.2436 39.4783C28.4351 42.1152 28.2997 44.4093 28.2188 47.0373C28.2246 47.6795 28.273 49.1255 28.1692 49.6902L28.1793 49.9873C28.7221 50.3956 32.9501 50.2379 33.7877 50.1212C33.9068 50.1052 34.0254 50.0854 34.1431 50.0615Z" fill="#A82C2B"/>
<path d="M30.5538 118.31C24.1247 118.014 17.4313 118.53 10.9761 118.239C8.88276 118.146 8.07137 117.133 8.0319 115.101C7.97762 112.307 8.00425 109.531 8.00883 106.745L8.01377 92.1387L8.0142 82.2305C8.01116 80.3827 7.92761 78.4689 8.07285 76.6428C8.23192 74.6431 9.80942 74.2164 11.4934 74.1969C14.4352 74.1625 17.3673 74.1698 20.303 74.1716L36.6317 74.1771L47.0362 74.1688C49.0686 74.1673 51.1631 74.0972 53.1894 74.2858C54.649 74.4117 55.4281 75.5371 55.4628 76.9472C55.6368 84.0248 55.3829 91.1702 55.5217 98.245C55.37 104.167 55.716 110.379 55.3697 116.307C55.316 117.225 54.0764 118.198 53.2105 118.183C51.1394 118.373 48.9924 118.299 46.9144 118.298L36.1353 118.289C34.3992 118.289 32.2427 118.224 30.5538 118.31Z" fill="#F6F5F5"/>
<path d="M15.9757 91.8316C16.711 91.9202 18.1092 91.8949 18.895 91.9029C19.1845 93.1796 20.3832 95.8303 20.8701 97.0883C21.7268 99.3023 22.5558 101.51 23.3831 103.735C22.7863 103.751 21.6763 103.822 21.1524 103.645L21.0892 103.623C19.006 102.908 20.8082 101.202 19.008 101.078L15.118 101.074C14.8397 102.071 14.6479 102.758 14.2137 103.694C13.3383 103.776 12.2825 103.739 11.3887 103.731C11.7397 102.921 12.0958 101.8 12.4388 100.938C13.6693 97.923 14.8484 94.887 15.9757 91.8316Z" fill="#A42728"/>
<path d="M17.4023 94.658C17.7649 94.999 18.7401 98.4579 18.9618 99.2348C18.4622 99.2139 17.9125 99.2172 17.4079 99.2095L15.7961 99.2204C16.2955 97.5295 16.7564 96.2788 17.4023 94.658Z" fill="#F6F5F5"/>
<path d="M38.1631 93.1142C39.0095 92.082 38.3849 92.1556 38.7074 91.6961C39.8511 91.365 42.3603 91.482 43.5766 91.6496C43.6254 91.7522 43.7327 91.9635 43.7681 92.0598C43.9655 92.5002 44.0475 92.5282 44.4659 92.781C44.8881 92.7859 45.5839 92.7113 45.8804 93.0151C45.5883 93.0591 44.8614 93.0949 44.7024 93.2396C44.749 94.0129 46.0988 94.2441 45.8333 95.1014C45.6381 95.2751 45.6124 95.3241 45.3667 95.3712C44.9224 95.3673 44.2553 95.3411 43.8308 95.3815L43.7508 95.4147L43.7905 96.2252C44.2106 96.4815 44.2352 96.5371 44.2222 97.0721C44.3326 97.1945 44.3768 97.2664 44.5156 97.3513C44.1863 98.0906 42.6548 99.5666 41.8742 100.078C40.9447 99.1804 40.0791 98.2192 39.2836 97.2011C39.1731 97.1812 39.0633 97.1583 38.9541 97.1323C38.4607 97.0098 38.4397 96.8194 38.1942 96.4134C37.5793 95.7767 37.0959 95.3127 36.4319 94.7279C37.0176 94.1549 37.5476 93.6546 38.1631 93.1142Z" fill="#D5D2D2"/>
<path d="M38.1631 93.1142C39.0095 92.082 38.3849 92.1556 38.7075 91.6961C39.8511 91.365 42.3603 91.482 43.5766 91.6496C43.6254 91.7522 43.7327 91.9635 43.7681 92.0598C43.9655 92.5002 44.0475 92.5282 44.4659 92.781C44.8881 92.7859 45.5839 92.7113 45.8804 93.0151C45.5883 93.0591 44.8614 93.0949 44.7024 93.2396C44.749 94.0129 46.0988 94.2441 45.8333 95.1014C45.6381 95.2751 45.6124 95.3241 45.3667 95.3712C44.9224 95.3673 44.2553 95.3411 43.8309 95.3815C43.8249 95.3323 43.8179 95.2832 43.8102 95.2342C43.746 94.8372 43.7024 94.5576 43.3765 94.3196C42.2889 94.2081 40.9405 94.2455 39.8285 94.2471L39.2791 94.1272L39.1929 93.9763L39.2977 93.5968C38.8745 93.4445 38.4984 93.4144 38.1631 93.1142Z" fill="#E6C3C1"/>
<path d="M39.2977 93.5968C40.0351 93.2128 41.4893 93.1417 42.2985 93.3568C42.9682 93.5348 43.0438 93.7515 43.3765 94.3196C42.2889 94.2081 40.9405 94.2455 39.8285 94.2471L39.2791 94.1272L39.1929 93.9763L39.2977 93.5968Z" fill="#F6F5F5"/>
<path d="M44.466 92.7811C44.8882 92.7859 45.584 92.7113 45.8805 93.0151C45.5 93.0281 44.7672 93.0936 44.4436 92.9661L44.466 92.7811Z" fill="#B5B5B4"/>
<path d="M40.3057 96.1338C40.9951 96.2667 43.0769 96.3164 43.7906 96.2252C44.2107 96.4815 44.2353 96.5371 44.2223 97.0721C44.3328 97.1945 44.3769 97.2664 44.5157 97.3513C44.1864 98.0906 42.655 99.5666 41.8743 100.078C40.9448 99.1805 40.0792 98.2192 39.2837 97.2011C39.1733 97.1812 39.0635 97.1583 38.9542 97.1323C38.4608 97.0098 38.4399 96.8194 38.1943 96.4134C38.7973 96.229 39.5948 96.2583 40.3057 96.1338Z" fill="#EED6D3"/>
<path d="M40.3057 96.1338C40.9951 96.2667 43.0769 96.3164 43.7906 96.2252C44.2107 96.4815 44.2353 96.5371 44.2223 97.0721C43.504 97.0058 39.8858 96.9936 39.2837 97.2011C39.1733 97.1812 39.0635 97.1583 38.9542 97.1323C38.4608 97.0098 38.4399 96.8194 38.1943 96.4134C38.7973 96.229 39.5948 96.2583 40.3057 96.1338Z" fill="#D5D2D2"/>
<path d="M36.4319 94.7279C37.0176 94.1549 37.5476 93.6546 38.1631 93.1142C38.4984 93.4144 38.8745 93.4445 39.2977 93.5968L39.1929 93.9763L39.2791 94.1272L39.8285 94.2471L39.7219 94.2615C38.8769 94.3716 38.7271 94.0652 38.4032 94.4245C38.3698 94.7882 38.3548 94.8596 38.507 95.2109C38.9275 95.4864 39.2456 95.4164 39.8081 95.4543C39.9621 95.668 40.1422 95.9341 40.3056 96.1338C39.5947 96.2583 38.7972 96.229 38.1942 96.4134C37.5793 95.7767 37.0959 95.3127 36.4319 94.7279Z" fill="#EED6D3"/>
<path d="M39.8081 95.4543C40.5105 95.3463 43.1217 95.2486 43.7509 95.4147L43.7905 96.2252C43.0768 96.3164 40.9949 96.2667 40.3056 96.1338C40.1422 95.9341 39.9622 95.668 39.8081 95.4543Z" fill="#F6F5F5"/>
<path d="M46.7211 76.1584L47.754 76.1415C48.1078 76.1401 48.6856 76.1193 49.0201 76.1448C49.3394 76.1428 50.0077 76.102 50.2623 76.2202C50.3691 76.6373 50.3102 77.4379 50.299 77.9033C50.2773 78.8027 50.7788 80.0622 49.8493 80.5604L49.0115 80.5341L47.7834 80.5483C47.497 80.5204 47.0426 80.5399 46.7427 80.5445L46.0122 80.5363C45.557 80.5466 45.069 80.5305 44.611 80.5241L44.1267 80.5243L43.3694 80.5413L42.1126 80.517L41.5771 80.5394C41.4063 80.4902 41.12 80.5215 40.9329 80.5306C40.6408 80.5462 40.1213 80.6097 39.9319 80.3961C39.8485 79.4786 39.8242 77.1556 39.933 76.2575C40.1909 76.0958 40.624 76.1453 40.9546 76.1485L41.5732 76.1428L42.0999 76.1682L43.4222 76.1371L44.114 76.1642L44.5529 76.1557L45.9366 76.149L46.7211 76.1584Z" fill="#777576"/>
<path d="M46.721 76.1584L47.7539 76.1415C48.1077 76.1401 48.6855 76.1193 49.0199 76.1448C49.3393 76.1428 50.0076 76.102 50.2622 76.2202C50.369 76.6373 50.3101 77.4379 50.2988 77.9033C50.2772 78.8027 50.7786 80.0622 49.8491 80.5604L49.0113 80.5341L47.7832 80.5483C47.4969 80.5204 47.0424 80.5399 46.7425 80.5445C46.6699 79.2226 46.6682 77.4845 46.721 76.1584Z" fill="#B5B5B4"/>
<path d="M49.02 76.1448C49.3394 76.1428 50.0076 76.102 50.2622 76.2202C50.369 76.6373 50.3101 77.4379 50.2989 77.9033C50.2772 78.8027 50.7787 80.0622 49.8492 80.5604L49.0114 80.5341C48.9308 79.5971 49.0145 77.1909 49.02 76.1448Z" fill="#2F2F2F"/>
<path d="M46.721 76.1584L47.7539 76.1415C47.7804 77.6103 47.7902 79.0793 47.7832 80.5483C47.4969 80.5205 47.0424 80.5399 46.7425 80.5445C46.6699 79.2226 46.6682 77.4845 46.721 76.1584Z" fill="#D5D2D2"/>
<path d="M40.9546 76.1485L41.5732 76.1428L42.0999 76.1682C42.0034 77.2919 42.032 79.3982 42.1126 80.517L41.5771 80.5394C41.4063 80.4902 41.12 80.5215 40.9329 80.5306C40.6408 80.5461 40.1213 80.6097 39.9319 80.3961C39.8485 79.4786 39.8242 77.1556 39.933 76.2574C40.1909 76.0958 40.624 76.1453 40.9546 76.1485Z" fill="#D5D2D2"/>
<path d="M40.9329 80.5306C40.6408 80.5461 40.1213 80.6097 39.9319 80.3961C39.8485 79.4786 39.8242 77.1556 39.933 76.2574C40.1909 76.0958 40.624 76.1453 40.9546 76.1485L40.9329 80.5306Z" fill="#777576"/>
<path d="M41.5732 76.1428L42.0999 76.1682C42.0034 77.2919 42.032 79.3982 42.1126 80.517L41.5771 80.5394C41.5933 79.0724 41.6211 77.6093 41.5732 76.1428Z" fill="#2F2F2F"/>
<path d="M42.0998 76.1682L43.4221 76.1371L44.1138 76.1642C44.0628 77.6683 44.0889 79.0181 44.1265 80.5243L43.3693 80.5413L42.1125 80.517C42.0318 79.3982 42.0033 77.2919 42.0998 76.1682Z" fill="#B5B5B4"/>
<path d="M43.4221 76.1371L44.1139 76.1642C44.0628 77.6683 44.089 79.0181 44.1266 80.5243L43.3694 80.5413C43.31 79.3622 43.4375 77.4281 43.4221 76.1371Z" fill="#020302"/>
<path d="M45.9365 76.149L46.721 76.1584C46.6683 77.4845 46.6699 79.2226 46.7425 80.5445L46.0121 80.5363C45.9052 80.3107 46.0105 76.7791 45.9365 76.149Z" fill="#020302"/>
<path d="M44.1139 76.1642L44.5529 76.1557C44.6557 77.6128 44.6227 79.0637 44.6109 80.5241L44.1266 80.5243C44.089 79.0181 44.0628 77.6683 44.1139 76.1642Z" fill="#B5B5B4"/>
<path d="M41.6002 102.972C45.0929 102.57 49.3832 107.718 45.0164 109.926C42.5609 110.752 36.9866 105.728 41.6002 102.972Z" fill="#EED6D3"/>
<path d="M41.6406 104.396C41.7088 104.392 41.777 104.39 41.8453 104.388C43.2472 104.358 45.1664 106.354 45.286 107.704C45.3199 108.085 45.0117 108.352 44.7657 108.592C43.5196 108.514 40.204 105.924 41.6406 104.396Z" fill="#F6F5F5"/>
<path d="M46.021 98.6701C48.729 98.43 50.7862 100.672 51.2486 103.189C51.2086 103.355 51.1615 103.519 51.1073 103.68C50.739 104.753 50.2489 105.108 49.2672 105.58C46.0259 105.981 41.4109 100.724 46.021 98.6701Z" fill="#EED6D3"/>
<path d="M46.4395 100.097C47.7586 100.38 49.6295 102.137 49.6457 103.533C49.5652 103.898 49.2834 104.07 48.9899 104.313C47.865 104.081 45.0815 101.868 45.5985 100.542C45.9766 100.157 45.8758 100.268 46.4395 100.097Z" fill="#F6F5F5"/>
<path d="M32.2187 99.138C33.2341 97.8819 34.1046 96.5487 35.8523 96.378C37.2718 96.2394 38.231 97.1495 38.3448 98.5395C38.4555 99.8896 37.5887 100.849 36.7046 101.725C37.316 102.469 37.7692 102.943 38.4542 103.624L37.1812 104.758C35.8456 103.529 32.6399 100.816 32.0432 99.2405L32.2187 99.138Z" fill="#EED6D3"/>
<path d="M35.2139 97.9602C36.0368 97.9236 36.7642 98.3215 36.7123 99.263C36.6712 100.013 36.2954 100.299 35.7541 100.776C35.101 100.224 34.5825 99.7461 33.968 99.1504C34.3962 98.6723 34.7347 98.3802 35.2139 97.9602Z" fill="#F6F5F5"/>
<path d="M15.9039 113.481C15.8802 113.07 15.8111 112.617 15.9902 112.256C16.2162 112.151 32.9004 112.329 34.7406 112.234C34.747 112.74 34.742 113.277 34.7919 113.778C33.0604 113.841 31.0112 113.795 29.2511 113.799C28.7582 113.874 24.7575 113.807 23.952 113.806L18.5857 113.798C18.059 113.797 16.4345 113.824 15.9984 113.756L15.9039 113.481Z" fill="#D5D2D2"/>
<path d="M16.0044 113.43C17.5303 113.44 28.5118 113.322 29.1483 113.564L29.251 113.799C28.7581 113.874 24.7574 113.807 23.952 113.806L18.5857 113.798C18.059 113.797 16.4345 113.824 15.9984 113.756L15.9038 113.481L16.0044 113.43Z" fill="#4C494D"/>
<path d="M16.0044 113.43C16.6271 113.274 19.0246 113.326 19.7674 113.327L27.8696 113.358C30.1186 113.35 32.2455 113.04 34.52 113.279C34.6629 113.493 34.6983 113.541 34.7917 113.778C33.0603 113.841 31.0111 113.795 29.251 113.799L29.1483 113.564C28.5118 113.322 17.5302 113.44 16.0044 113.43Z" fill="#B5B5B4"/>
<path d="M27.0336 94.0988C27.7347 94.0917 28.4357 94.0798 29.1367 94.0629L29.1317 97.3329L32.2158 97.3283L32.2185 99.138L32.043 99.2405C31.0736 99.216 30.1038 99.2055 29.134 99.2091L29.1305 101.71C29.0723 102.215 29.1641 102.114 28.8522 102.375C28.1375 102.557 27.7423 102.325 27.0314 102.479L27.0297 99.2128L24.0494 99.2133L24.0439 97.3251L27.0299 97.3285L27.0336 94.0988Z" fill="#A42728"/>
<path d="M15.8909 114.283C16.2982 114.281 17.101 114.219 17.4072 114.407C19.3129 114.414 34.0463 114.309 34.592 114.545L34.69 114.737C34.2926 115.153 31.2416 115.043 30.5917 114.933C30.6079 115.125 30.6224 115.407 30.6595 115.588L30.6892 115.812C30.2531 116.105 27.6588 116 26.959 116C26.0627 116.109 23.8509 116.056 22.867 116.056C20.5381 116.058 18.2091 116.072 15.8803 116.101C15.8596 115.515 15.8822 114.873 15.8909 114.283Z" fill="#B5B5B4"/>
<path d="M30.5916 114.933C30.032 114.728 27.8541 114.755 27.175 114.755L20.331 114.751C19.2589 114.746 17.1615 114.763 16.1497 114.58L16.2345 114.482C16.6834 114.411 16.9501 114.41 17.407 114.407C19.3128 114.414 34.0461 114.309 34.5918 114.545L34.6898 114.737C34.2924 115.153 31.2414 115.043 30.5916 114.933Z" fill="#777576"/>
<path d="M30.6593 115.588L30.689 115.812C30.2529 116.105 27.6586 116 26.9588 116C24.865 115.801 21.6004 116.081 19.4215 115.967C18.4408 115.917 17.2196 116.042 16.24 115.794C17.1831 115.625 20.2751 115.667 21.3584 115.664C24.4589 115.669 27.5593 115.644 30.6593 115.588Z" fill="#777576"/>
<path d="M37.705 106.557C38.0115 106.653 38.2385 106.877 38.441 107.113C38.6672 108.337 36.8061 108.88 37.1725 110.105C37.8606 110.579 39.9134 107.918 41.5372 109.7C43.4397 111.789 41.6819 114.908 39.1376 114.72C38.8165 113.392 39.5199 113.659 40.4339 112.959C41.4532 112.18 40.768 110.821 39.6711 110.71C38.8744 110.88 38.0662 111.893 37.3464 112.5C36.9052 111.725 35.5969 110.028 35.0234 109.244C35.8994 108.435 36.8567 107.418 37.705 106.557Z" fill="#EED6D3"/>
<path d="M39.3978 86.5658C42.6571 86.4775 45.9765 86.5891 49.2436 86.5694C50.2594 86.5632 53.0926 86.1857 53.6077 87.0259C53.5901 87.4213 53.6424 87.2897 53.4528 87.5853L52.9963 87.6214L43.3378 87.6094C42.3756 87.6086 39.2032 87.7756 38.5243 87.4681C38.3392 87.1542 38.4056 87.1702 38.4206 86.7424C38.7253 86.5164 38.9536 86.5853 39.3978 86.5658Z" fill="#777576"/>
<path d="M30.219 106.067C31.4351 106.722 33.1026 107.517 34.0412 105.937C34.3055 105.492 34.4012 104.801 34.8158 104.512C37.2236 103.748 35.2422 108.234 32.9492 108.472C30.7319 108.703 31.2998 108.204 29.7071 107.68C28.4668 107.485 28.1854 107.201 28.6505 105.922C29.0377 105.431 29.3702 105.549 29.9378 105.619L30.219 106.067Z" fill="#EED6D3"/>
<path d="M28.6505 105.922C29.0377 105.431 29.3702 105.549 29.9378 105.619L30.219 106.067C30.1053 106.472 30.1946 106.327 29.8753 106.611C29.5258 106.661 29.1444 106.688 28.831 106.841C28.8565 107.346 29.4178 107.299 29.851 107.484C29.7912 107.648 29.847 107.59 29.7071 107.68C28.4668 107.485 28.1854 107.201 28.6505 105.922Z" fill="#777576"/>
<path d="M34.4485 76.0735C35.2284 76.1082 36.3513 77.9593 36.4717 78.668C36.6059 79.4592 36.5674 79.5972 36.3521 80.3565C35.9581 80.7082 35.7835 80.8959 35.3044 81.1051C34.4257 81.1824 33.2107 81.1853 32.8538 80.1338C32.2993 78.5002 33.4744 77.2174 34.4485 76.0735Z" fill="#2F2F2F"/>
<path d="M33.0229 79.0403C33.6869 79.4998 33.3996 79.8632 33.9267 80.2836C34.3718 80.6385 35.2131 80.252 35.6688 80.6113C34.1176 81.3042 33.1227 80.7292 33.0229 79.0403Z" fill="#D5D2D2"/>
<path d="M29.1306 101.71C29.8178 101.264 31.3594 100.064 32.0472 100.823C32.1207 101.211 32.1927 101.437 32.0891 101.818C30.8723 103.448 29.422 101.346 29.9379 105.619C29.3703 105.549 29.0378 105.431 28.6506 105.922C28.5091 105.79 28.3621 105.766 28.1748 105.707L28.0333 105.494C28.1599 105.33 28.1506 104.767 28.1784 104.508C28.2594 103.757 28.4235 103.224 28.7251 102.532C28.1528 102.546 27.5951 102.582 27.0315 102.479C27.7424 102.325 28.1377 102.557 28.8523 102.375C29.1643 102.114 29.0724 102.215 29.1306 101.71Z" fill="#EED6D3"/>
<path d="M46.6729 91.5414C47.4904 91.4709 51.5344 91.4675 52.1652 91.6758L52.0244 91.8028C52.1079 91.9389 52.1308 92.0094 52.2767 92.0737C51.9367 92.204 51.886 92.1646 51.6692 92.4245C51.6829 92.6078 51.6644 92.646 51.7449 92.8029C52.4254 92.7966 53.2214 92.7546 53.8792 92.8869C53.3482 93.176 47.2529 93.4225 46.8333 93.1195L46.7857 92.9138C46.7284 92.524 46.7032 91.9477 46.6729 91.5414Z" fill="#D5D2D2"/>
<path d="M51.7448 92.8029C52.4253 92.7966 53.2213 92.7546 53.8792 92.8869C53.3481 93.176 47.2528 93.4225 46.8332 93.1195L46.7856 92.9138C47.2862 92.8243 50.9601 92.8148 51.7448 92.8029Z" fill="#B5B5B4"/>
<path d="M38.417 88.6028C41.4893 88.7225 44.5902 88.6336 47.6635 88.613C48.506 88.6073 49.3416 88.5687 50.1826 88.6336C50.368 88.8636 50.316 89.0378 50.3413 89.3863C47.3436 89.3035 41.8346 89.3995 38.6368 89.3522C38.5834 89.3084 38.53 89.2645 38.4766 89.2206L38.417 88.6028Z" fill="#4C494D"/>
<path d="M46.794 94.2503C48.3249 94.2584 49.8559 94.2569 51.3868 94.2457C52.0224 94.2423 53.8819 94.0715 54.2059 94.5084C54.2625 94.8747 54.264 94.9206 54.1595 95.2754C53.1774 95.304 47.4277 95.4719 46.8593 95.2291C46.7033 94.9188 46.7691 94.6106 46.794 94.2503Z" fill="#D5D2D2"/>
<path d="M38.2842 84.9921C39.3949 84.8925 40.9461 84.9373 42.0963 84.9332C44.7735 84.9238 47.4677 84.8855 50.1377 85.0705C51.1016 85.1372 52.5366 84.9988 53.4435 85.1543L53.5784 85.3665C51.9895 85.4623 39.4014 85.6885 38.6019 85.46C38.4159 85.4068 38.3598 85.1587 38.2842 84.9921Z" fill="#2F2F2F"/>
<path d="M11.8053 111.529C12.2758 111.523 12.3661 111.512 12.653 111.852C12.8022 112.666 12.0176 113.525 12.4912 114.193C12.8745 114.028 12.7051 113.628 13.0849 113.436L13.123 113.587C13.0595 113.711 12.7152 114.335 12.6961 114.406C12.4924 115.166 12.7762 115.153 12.2786 115.779L12.0286 115.803C11.5746 115.409 11.7237 115.199 11.8541 114.716C11.4891 114.151 11.787 114.144 11.9086 113.597C12.0437 112.989 11.1304 113.212 10.8199 112.725L10.917 112.346C10.4826 111.938 10.4261 112.371 9.91846 111.94C9.92783 111.914 10.0682 111.8 10.0994 111.773C11.3893 111.706 10.9781 112.234 11.8357 112.595C11.9613 112.083 11.636 112.128 11.8053 111.529Z" fill="#2F2F2F"/>
<path d="M51.8584 76.1356C52.207 76.1367 52.4776 76.1107 52.7962 76.2518C52.9131 76.9602 52.8444 79.5936 52.8679 80.5311C52.4834 80.552 52.3186 80.5807 51.9472 80.471C51.7852 80.0246 51.855 76.7926 51.8584 76.1356Z" fill="#2F2F2F"/>
<path d="M38.3179 83.0311C38.7358 82.938 43.1218 82.9185 43.6697 82.9579C45.0202 83.0549 52.9912 82.7284 53.6619 83.1538C53.5857 83.1669 53.4715 83.1889 53.3971 83.1895C48.5053 83.2345 43.6081 83.2467 38.7168 83.2093C38.5625 83.2081 38.4325 83.1263 38.3179 83.0311Z" fill="#4C494D"/>
<path d="M38.321 84.0243C38.3493 84.0181 38.4833 83.9842 38.5062 83.9839C43.383 83.9386 48.2675 83.9427 53.1449 83.9744C53.3451 83.9758 53.4592 84.0325 53.6055 84.1449C52.5884 84.294 47.8241 84.2044 46.5769 84.2064L41.3756 84.2209C40.7522 84.2222 38.7575 84.3378 38.321 84.0243Z" fill="#4C494D"/>
<path d="M46.7358 96.3598L50.3803 96.3144C50.9619 96.3111 52.1412 96.2346 52.5255 96.6146L52.5001 96.9352C51.734 96.9959 47.2584 97.1095 46.8147 96.8232L46.7358 96.3598Z" fill="#B5B5B4"/>
<path d="M11.2896 104.732C12.8423 104.627 13.7299 105.318 12.2885 106.594C12.6113 106.892 12.925 107.117 13.0879 107.524L12.9539 107.56L12.5906 107.321C12.3506 106.874 11.8704 106.46 11.4978 106.098C11.5347 106.561 11.5632 106.797 11.5055 107.256L11.4904 107.132L11.3852 107.375L11.4485 107.461L11.3515 107.431C11.1324 106.332 11.1858 105.85 11.2896 104.732Z" fill="#4A5050"/>
<path d="M11.6079 104.907C12.1467 104.952 12.3918 104.961 12.6927 105.438C12.6447 105.913 12.6711 105.764 12.3512 106.178L11.9638 106.272C11.6458 106.154 11.7614 106.231 11.5352 105.913C11.4622 105.443 11.4857 105.371 11.6079 104.907Z" fill="#F6F5F5"/>
<path d="M17.2508 106.847C17.0212 107.316 17.2143 107.396 16.9427 107.654L16.782 107.485C16.8097 106.79 16.637 105.123 16.9949 104.757C18.9596 104.467 19.3121 106.239 17.4494 106.71L17.2508 106.847Z" fill="#2F2F2F"/>
<path d="M17.2507 106.847C17.203 106.375 17.0256 105.38 17.2043 105.03C17.8079 104.822 18.1117 105.044 18.3081 105.622C18.2621 106.071 18.0111 106.257 17.6724 106.533C17.5987 106.593 17.5243 106.652 17.4494 106.71L17.2507 106.847Z" fill="#F6F5F5"/>
<path d="M19.4683 105.557C20.7817 105.493 21.1117 106.545 20.4622 107.55C20.1019 107.599 19.6501 107.655 19.3433 107.439C19.1575 107.309 19.0344 107.107 19.004 106.882C18.9368 106.369 19.194 105.953 19.4683 105.557Z" fill="#2F2F2F"/>
<path d="M19.6278 105.747C20.6742 106.011 20.5389 106.7 20.1754 107.477C18.9786 107.279 19.2055 106.59 19.6278 105.747Z" fill="#F6F5F5"/>
<path d="M21.0717 85.0305L21.9561 85.1992L22.2768 85.2358C22.5489 85.9091 22.301 85.6083 22.7988 86.362C22.5244 86.4195 22.3559 86.4607 22.07 86.4693C21.9352 86.4468 21.709 86.4573 21.5632 86.4586L21.121 86.4105C20.6723 86.0092 20.7101 85.4737 21.0717 85.0305Z" fill="#E6C3C1"/>
<path d="M21.0717 85.0305C21.2093 85.4641 21.3778 86.0573 21.5632 86.4586L21.121 86.4105C20.6723 86.0092 20.7101 85.4737 21.0717 85.0305Z" fill="#B5312F"/>
<path d="M21.9562 85.1992L22.2769 85.2358C22.549 85.9091 22.3011 85.6083 22.7989 86.362C22.5245 86.4195 22.356 86.4607 22.0701 86.4693C22.0906 85.9376 21.8805 85.6454 21.9562 85.1992Z" fill="#A42728"/>
<path d="M43.831 95.3815C44.2554 95.3411 44.9226 95.3673 45.3669 95.3712C45.0515 96.0639 45.0045 96.6641 44.5157 97.3513C44.3769 97.2664 44.3328 97.1945 44.2223 97.0721C44.2353 96.5371 44.2107 96.4815 43.7906 96.2252L43.751 95.4147L43.831 95.3815Z" fill="#EED6D3"/>
<path d="M38.6835 76.0567L38.9206 76.1588C39.2139 76.6197 39.1064 79.9764 38.9987 80.6455L38.7731 80.5339C38.4768 80.0842 38.6204 76.7544 38.6835 76.0567Z" fill="#777576"/>
<path d="M38.6301 90.6597C39.2073 90.5048 45.4919 90.5332 45.9689 90.7666C45.6811 90.8089 45.2874 90.8238 44.8619 90.8248C42.8503 90.8293 40.8013 90.8614 38.7873 90.8134C38.7349 90.7622 38.6825 90.711 38.6301 90.6597Z" fill="#D5D2D2"/>
<path d="M46.9641 90.6624C47.3904 90.5152 53.9216 90.5438 54.2762 90.7676C53.4744 90.9092 48.094 90.8382 47.0588 90.837L46.9641 90.6624Z" fill="#D5D2D2"/>
<path d="M13.7691 104.651L13.9566 104.787C14.0516 105.035 14.0433 105.094 14.0337 105.364L14.0303 105.439C14.3389 105.774 14.4298 105.537 14.8821 105.649C15.5628 105.818 15.4131 107.031 15.2189 107.523C15.0706 107.284 15.0773 106.368 15.0624 106.028C14.6051 105.855 14.6858 105.81 14.2595 105.88C13.9147 106.323 14.2774 106.872 13.9126 107.611L13.8072 107.549C13.7827 106.76 13.6878 105.364 13.7691 104.651Z" fill="#4C494D"/>
<path d="M51.8782 114.599C52.338 114.451 53.2338 114.957 53.0189 115.472L52.5522 115.469C52.1418 115.45 51.0528 115.362 50.8406 115.013C51.1231 114.694 51.387 114.729 51.8782 114.599Z" fill="#B5B5B4"/>
<path d="M12.0637 75.1732C12.5925 75.3978 12.3651 75.784 13.033 75.6773C13.2063 75.4706 13.2596 75.3583 13.5057 75.2907C13.5726 75.3605 13.8682 75.6625 13.9259 75.673C14.464 75.771 15.9335 75.6229 16.429 75.5164L16.5228 75.6465C16.022 76.3418 13.4139 75.6174 12.3172 76.0075L12.1735 75.9339L12.0637 75.1732Z" fill="#4C494D"/>
<path d="M24.3709 105.031C25.5039 106.186 24.4297 105.849 24.4426 106.763C24.6271 107.217 24.6726 107.26 25.0567 107.567C24.7758 107.684 24.7211 107.661 24.4202 107.591C24.0454 107.272 24.0668 106.579 24.0503 106.128C24.0271 105.49 24.0271 105.516 24.3709 105.031Z" fill="#4A5050"/>
<path d="M32.4388 85.0354L32.7818 85.1806C32.9231 85.5173 33.0644 85.7497 32.9765 86.1C32.5613 86.6424 31.9092 86.5816 31.2854 86.3831L31.3264 86.2541C31.3321 85.894 31.3017 85.4787 31.4481 85.1598C31.6173 85.5338 31.8315 86.1903 32.1425 86.3715C32.4174 86.2261 32.3254 86.3044 32.4717 85.9691C32.3877 85.5949 32.3257 85.4131 32.4388 85.0354Z" fill="#B5312F"/>
<path d="M50.8406 76.1088L51.0829 76.2761C51.1678 77.0166 51.228 80.1421 50.9227 80.6888C50.7377 80.2578 50.835 76.8295 50.8406 76.1088Z" fill="#4C494D"/>
<path d="M21.4362 105.59C21.9727 105.583 21.9921 105.495 22.3729 105.737L22.3572 105.886C22.0608 105.865 21.875 105.836 21.5819 105.912L21.5503 106.091C21.744 106.482 21.925 106.536 22.3159 106.735C22.5062 107.004 22.4598 107.247 22.4438 107.574C22.0055 107.603 21.7946 107.624 21.3615 107.562L21.2742 107.409C21.5821 107.263 21.7552 107.478 22.1075 107.281C22.0389 106.951 21.5877 106.568 21.3275 106.304C21.2529 105.938 21.3001 105.99 21.4362 105.59Z" fill="#4C494D"/>
<path d="M13.3648 111.778C13.5536 111.788 13.7954 111.767 13.9881 111.757L14.2178 111.968L14.2563 111.959L14.3017 111.81L14.4461 111.856C14.1725 112.031 14.0468 112.103 13.7499 112.242L13.5877 112.709C13.5531 112.748 13.1733 113.042 13.1048 113.096C12.9556 113.081 13.0151 113.117 12.917 112.997C12.9189 112.565 13.1684 112.182 13.3648 111.778Z" fill="#020302"/>
<path d="M19.5856 75.4575C19.9134 75.7548 19.7496 79.257 19.6989 79.8778L19.5588 79.73C19.4716 78.4516 19.5101 76.7336 19.5856 75.4575Z" fill="#D5D2D2"/>
<path d="M50.1825 114.563C50.3843 114.791 50.0619 114.571 50.1508 115.204L49.9695 115.316C49.4508 115.334 49.1813 115.366 48.683 115.237C48.4279 115.158 48.5286 115.229 48.3687 115.019L48.4858 114.877C49.2665 114.855 49.5035 115 50.1825 114.563Z" fill="#4C494D"/>
<path d="M43.5767 91.6496C44.097 91.6603 44.9452 91.6521 45.4328 91.7381L45.5339 91.9041L45.5447 91.7571L45.7382 91.8561C45.0998 92.1024 44.4576 92.0521 43.7681 92.0598C43.7328 91.9635 43.6254 91.7523 43.5767 91.6496Z" fill="#D5D2D2"/>
<path d="M28.0332 105.494L28.1748 105.707C28.0487 106.188 27.7356 107.169 27.287 107.428L27.2002 107.271C27.2638 106.772 27.7601 105.945 28.0332 105.494Z" fill="#4C494D"/>
<path d="M52.165 91.6758C52.7251 91.6822 53.4338 91.6452 53.9456 91.8313C53.7463 92.1213 52.6481 92.0438 52.2765 92.0737C52.1307 92.0094 52.1077 91.9389 52.0242 91.8028L52.165 91.6758Z" fill="#D5D2D2"/>
<path d="M25.7854 105.425C26.139 105.679 25.9817 107.019 25.9959 107.549C25.9254 107.553 25.8315 107.526 25.7561 107.51C25.6182 106.855 25.6869 106.084 25.7854 105.425Z" fill="#4C494D"/>
<path d="M23.1042 105.44C23.4667 105.692 23.328 107.065 23.3194 107.552L23.1903 107.555L23.0558 107.424C22.9782 106.664 23.0366 106.199 23.1042 105.44Z" fill="#4C494D"/>
<path d="M26.5519 105.556L26.7693 105.751C26.9609 106.278 26.9289 106.462 26.899 107.03C26.5908 106.507 26.542 106.154 26.5519 105.556Z" fill="#4A5050"/>
<path d="M42.1659 50.2239C42.1142 47.9667 42.0954 45.7088 42.1091 43.4512C42.1142 41.271 41.6486 38.2135 44.7675 38.2996C46.0119 38.3339 47.1427 38.3328 48.3822 38.581C49.0344 39.0715 49.2446 39.1727 49.3323 40.0352C49.4947 41.6308 49.458 43.4829 49.4382 45.0996C49.4201 46.5632 49.5182 48.8363 49.3413 50.2272C50.3817 50.2156 52.2235 50.1659 53.2072 50.3115C53.3057 51.2267 53.3283 53.2452 53.6345 53.9502C55.7163 58.7438 61.6157 62.3206 62.8415 67.5609C63.4835 70.306 63.2316 74.5798 63.2647 77.5314L63.4321 97.495L63.6172 116.892C63.6598 120.069 63.9485 125.306 63.603 128.211C63.3442 130.534 62.421 132.733 60.944 134.545C58.6577 137.374 53.9682 139.416 50.8876 141.4C49.1996 142.486 47.4036 143.568 45.5999 144.445C44.4787 144.973 41.894 145.278 41.396 145.633L41.3523 145.664H22.4166C21.9034 145.329 19.8166 144.991 19.0173 144.743C16.4114 143.879 14.0608 142.243 11.6876 140.806C8.90685 139.122 5.46502 137.427 3.19105 135.101C1.98663 133.87 1.06314 132.216 0.559097 130.594C0.398707 130.078 0.272374 129.449 0 128.989V68.8522C0.272846 68.5473 0.73007 65.4471 1.65196 64.2271C4.21393 60.8368 7.39394 57.9312 9.80533 54.469C10.3593 53.6737 9.75336 51.0702 10.4568 50.3818C11.2482 49.9888 13.3012 50.1556 14.2328 50.2307C13.8379 47.9399 14.0913 41.5533 14.5407 39.2035C14.7946 37.8761 19.8522 38.1585 21.2791 39.134C21.6661 40.4898 21.6918 48.8244 21.4029 50.2294C22.8536 50.1524 24.8852 50.3667 26.2444 49.9989L26.3222 49.8167C26.5352 53.5939 27.1704 58.1635 22.0084 58.4678C20.8651 58.5352 19.3527 57.6904 19.2507 56.574C18.916 52.9096 19.1213 48.7173 19.0739 45.0485L16.2577 45.0117L16.2631 52.2168C16.2662 53.6091 16.3537 56.3071 16.0386 57.5809C15.8345 58.3844 15.4147 59.1169 14.8244 59.6991C12.5196 61.9988 7.39214 62.7245 6.01764 66.6448C5.00823 68.7631 5.73279 73.7761 5.52576 76.2573C5.49994 76.5668 5.5193 77.2064 5.54106 77.5291C5.38939 88.8117 5.52083 100.379 5.51587 111.685L5.50609 121.481C5.50508 122.986 5.49141 124.579 5.53583 126.078C5.67331 130.715 12.0586 133.638 15.8709 134.712C17.632 135.398 23.5032 136.709 25.324 136.604C25.9386 136.351 27.452 136.642 28.6395 136.283C29.6312 136.294 31.9417 136.265 32.8578 136.381C33.1368 136.338 33.6967 136.302 33.9791 136.3C36.8883 136.282 39.7958 135.636 42.6489 135.399C43.3486 135.555 43.7202 135.312 44.2893 135.706C48.3265 135.063 57.1637 131.786 58.0076 127.049C58.2486 125.696 58.1739 123.412 58.1741 121.987L58.1704 114.079C58.1632 105.211 58.2484 96.1964 58.1367 87.3406C58.2653 85.5941 58.1318 82.5985 58.1584 80.7448C58.217 76.9435 58.0926 73.1516 58.1563 69.3515C58.2279 65.0803 55.1539 63.285 51.7419 61.493C50.6552 60.9222 49.4652 60.5071 48.5738 59.6279C47.9784 59.0447 47.558 58.3066 47.3602 57.4969C47.0198 56.1201 47.1201 53.6008 47.1227 52.102L47.141 45.0298L44.3441 45.0063C44.3305 47.4013 44.3324 49.7964 44.3496 52.1913C44.3529 53.431 44.4239 54.953 44.2465 56.1529C43.7115 59.5658 38.6621 58.5318 36.8814 56.9375C35.5295 55.7273 35.8984 53.1496 35.8811 51.4744C36.0589 50.0217 35.9107 48.433 36.0883 46.9844C36.1425 48.0914 36.2398 49.0789 36.064 50.1801C38.0974 50.2363 40.1319 50.2509 42.1659 50.2239Z" fill="#F6F5F5"/>
<path d="M0.49504 70.9233C0.830711 72.4892 0.777007 76.5312 0.776916 78.234L0.774778 89.5583L0.793549 113.316C0.797088 118.319 0.86185 123.497 0.716963 128.486L0.648251 128.514L0.53531 128.337L0.68835 128.499C0.280766 128.007 0.441953 121.976 0.442697 120.881L0.451712 107.888L0.49504 70.9233Z" fill="#B5B5B4"/>
<path d="M55.5217 98.245L55.5366 98.1424C55.59 97.7576 55.685 95.0229 55.6998 95.0017C56.1988 97.1442 55.2731 109.117 55.9915 109.931L55.8151 109.686L55.8983 110.01L56.1642 109.794L56.4569 110.067C56.7623 109.618 56.3974 109.789 56.875 109.342L57.1482 109.347L57.2462 109.461C57.3474 107.736 57.2355 105.949 57.3275 104.215C57.3503 103.784 57.2113 103.439 57.3144 103.05L57.4329 102.983C57.4394 103.687 57.4131 105.465 57.5036 106.083C57.5748 112.053 57.4668 118.034 57.5334 124.005C57.5587 126.273 57.5271 128.017 55.7579 129.711C52.2976 133.124 47.1879 134.202 42.6489 135.399C39.7957 135.636 36.8883 136.282 33.9791 136.3C33.6967 136.302 33.1368 136.338 32.8578 136.381C31.9417 136.265 29.6311 136.294 28.6395 136.283C27.452 136.642 25.9386 136.351 25.324 136.604C23.5032 136.709 17.632 135.398 15.8708 134.712C16.6429 134.579 19.2497 135.44 20.3288 135.551L20.3776 135.418C19.7186 135.431 18.2657 134.915 17.5969 134.687L17.7634 134.599L17.6542 134.495C17.9309 134.349 19.6166 134.942 20.0851 135.043C21.517 135.35 22.2295 135.449 23.6679 135.35C23.7537 135.508 23.8298 135.623 23.9299 135.774C24.2338 135.82 24.1203 135.848 24.3563 135.694L24.2459 135.47C24.0244 135.369 23.9982 135.364 23.8211 135.203C24.1019 134.845 24.8247 134.787 25.2624 134.542C25.7704 134.257 26.1779 133.928 26.6265 133.562L32.7727 128.512C33.254 128.119 33.7192 127.839 34.1869 127.47C34.5744 127.209 35.0436 126.519 35.4038 126.282C36.7036 125.558 37.7396 124.21 38.9029 123.397C40.3676 122.375 41.575 121.313 42.8695 120.081C43.0876 119.874 43.3124 119.841 43.4485 119.451C43.6183 118.966 43.8838 118.83 44.2165 118.511C43.6958 118.33 41.2111 118.544 40.5372 118.525C38.1611 118.457 35.7769 118.425 33.3996 118.424C32.6089 118.423 31.2756 118.48 30.5538 118.31C32.2427 118.224 34.3992 118.289 36.1354 118.289L46.9144 118.298C48.9924 118.299 51.1394 118.373 53.2105 118.183C54.0764 118.198 55.316 117.225 55.3698 116.307C55.716 110.379 55.37 104.167 55.5217 98.245Z" fill="#603534"/>
<path d="M17.7634 134.599C20.0916 135.305 22.1322 135.606 24.5329 135.896C25.6071 136.026 27.6777 136.101 28.6395 136.283C27.452 136.642 25.9386 136.351 25.324 136.604C23.5032 136.709 17.632 135.398 15.8708 134.712C16.6429 134.579 19.2497 135.44 20.3288 135.551L20.3776 135.418C19.7186 135.431 18.2657 134.915 17.5969 134.687L17.7634 134.599Z" fill="#A42728"/>
<path d="M33.5218 57.5819C29.5919 57.9572 27.6827 57.9195 27.9867 53.3979C28.0774 52.0479 28.0387 50.3765 28.0859 48.981L28.1692 49.6902L28.1793 49.9873C28.7221 50.3956 32.9501 50.2379 33.7877 50.1212C33.9068 50.1052 34.0254 50.0854 34.1431 50.0615C34.2304 50.2878 34.2348 50.6262 34.2354 50.8708C34.2403 53.1573 34.564 55.4737 33.5218 57.5819Z" fill="#F6F5F5"/>
<path d="M57.5037 106.083C57.6008 105.438 57.644 104.658 57.6964 103.997L57.8261 125.911L57.9124 125.932C58.1282 125.173 58.0132 119.888 57.9902 118.812C57.8258 111.09 57.9352 103.448 58.0365 95.7283C58.0604 94.0468 58.0701 92.3651 58.0655 90.6836C58.0646 89.7225 58.0173 88.2583 58.1368 87.3406C58.2484 96.1964 58.1633 105.211 58.1704 114.079L58.1742 121.987C58.174 123.412 58.2487 125.696 58.0077 127.049C57.1637 131.786 48.3265 135.063 44.2893 135.706C43.7202 135.312 43.3487 135.555 42.6489 135.399C47.1879 134.202 52.2976 133.124 55.7579 129.711C57.5272 128.017 57.5587 126.273 57.5335 124.005C57.4668 118.034 57.5749 112.053 57.5037 106.083Z" fill="#A42728"/>
<path d="M26.1782 49.0091C26.132 46.1761 25.706 42.5625 26.0523 39.7224C26.0921 39.3958 26.3823 39.1379 26.6715 38.9782C27.3832 38.851 27.6393 39.0733 28.2435 39.4783C28.435 42.1152 28.2996 44.4093 28.2187 47.0374C28.1359 46.3006 28.1432 45.8084 28.1517 45.0701C27.5513 45.0498 26.9116 45.0165 26.3142 45.0167C26.3009 45.6772 26.2937 48.5624 26.1782 49.0091Z" fill="#F6F5F5"/>
<path d="M6.01773 66.6448C6.17763 67.4704 5.84877 69.7593 5.86999 70.979C5.99264 78.0282 5.96046 85.0938 5.6834 92.1413L5.59793 82.5477C5.5933 81.4729 5.64422 78.4452 5.54115 77.5291C5.51939 77.2064 5.50003 76.5668 5.52584 76.2573C5.73288 73.7761 5.00832 68.7631 6.01773 66.6448Z" fill="#A42728"/>
<path d="M35.8811 51.4744C35.5456 48.7423 35.6676 43.6549 35.7735 40.8744L35.6953 41.2C35.6341 40.2862 35.5894 39.9509 35.9851 39.1163C36.1271 39.9549 36.287 46.165 36.0882 46.9844C35.9107 48.433 36.0589 50.0217 35.8811 51.4744Z" fill="#B5312F"/>
</g>
<defs>
<clipPath id="clip0_91_3390">
<rect width="113" height="145.664" fill="white"/>
</clipPath>
</defs>
</svg>
