<svg width="113" height="121" viewBox="0 0 113 121" fill="none" xmlns="http://www.w3.org/2000/svg">
<path d="M51.9005 4.15345C57.3129 2.57375 55.2951 8.37447 54.0768 10.9529C54.0554 11.1853 53.9824 11.9707 54.0465 12.1558C54.4904 13.4387 55.6508 15.0952 56.4921 16.1066C56.7054 16.3616 56.924 16.6121 57.1478 16.8578C59.2287 17.5507 60.5271 17.6194 62.7329 17.6668C63.6298 17.6861 64.7933 17.7088 65.6585 17.9157C68.9271 18.087 72.2689 18.3227 75.4449 19.1623C77.2399 19.6368 80.0153 19.9524 81.6607 20.7308C81.5283 18.5253 82.7954 17.6825 84.7656 17.2536C86.2762 17.1412 87.4338 18.4371 87.7671 19.8077C88.1471 20.6401 88.2618 22.3818 88.2499 23.3087L88.3729 23.3414C90.677 23.9734 93.7436 25.9085 96.4151 25.8535C97.2362 25.8367 98.3046 25.2494 98.7021 25.2135C100.636 24.4363 100.65 24.7358 102.704 23.4565C106.012 21.5485 105.253 18.6506 108.988 16.5771C110.069 16.4679 110.505 17.1509 111.206 17.9034C111.356 18.0522 112.13 18.844 112.243 18.9269C112.801 19.6016 114.602 21.8934 114.889 22.6295C115.899 24.0884 114.984 24.6801 113.833 25.6494L113.766 25.7032C113.143 26.1915 111.663 26.7177 110.898 27.0355C107.167 28.5861 107.057 30.0684 104.939 33.0351C104.711 33.6036 104.267 34.8191 104.018 35.3177C103.298 39.1288 104.869 42.1047 106.006 45.6397C106.57 47.3916 107.004 49.2157 107.569 50.9714C108.868 55.6103 109.374 61.3253 111.576 65.5919C112.042 66.2619 112.334 66.6817 112.883 67.2913C113.486 67.5572 114.085 68.1514 114.611 68.5091C116.939 70.092 119.695 72.5936 122.702 71.2714C124.637 70.5366 126.932 69.4714 128.904 70.011C132.055 71.8918 131.393 73.9272 130.647 77.1112C130.227 78.3988 129.276 81.846 128.597 82.5534C124.858 86.4506 122.105 83.0078 120.075 79.9867C118.512 77.6594 115.248 78.1962 113.022 78.3078C110.807 78.4634 108.785 78.5514 106.919 79.853C104.728 81.6575 103.545 83.1574 101.668 85.0989C98.9709 87.8892 93.0857 93.6284 89.5413 95.3265C88.6856 95.8328 87.84 96.3558 87.0049 96.8955C87.1062 97.8633 87.1243 99.0623 86.4666 99.8603C86.2611 100.108 85.998 100.301 85.7005 100.424C85.0816 100.807 84.4658 101.196 83.8531 101.589C83.442 102.063 83.7608 103.423 83.7574 104.059C83.9941 105.416 83.984 105.95 84.6123 107.201C85.0679 108.037 87.3642 109.217 88.3407 110.018C90.612 111.87 91.1714 114.927 89.5233 117.376C88.9245 118.209 88.527 118.439 87.9334 119.121C86.7128 120.496 83.3078 121.511 81.4158 121.625C81.1785 121.638 80.941 121.644 80.7033 121.64C79.3624 121.691 78.1174 121.716 76.8641 121.185C74.9337 119.759 74.2633 119.095 74.2457 116.532C74.3413 116.044 74.4292 115.554 74.5093 115.063C74.6812 114.603 74.7725 114.259 74.8953 113.783C75.1294 112.868 76.2394 110.641 75.9825 109.739C75.1221 106.717 73.4656 103.9 72.3417 100.962C72.2698 100.774 71.9223 100.75 71.7364 100.708C71.0828 100.925 64.6989 100.633 63.4983 100.586C60.3176 100.316 57.1462 100.1 53.9683 99.7582L54.8212 99.587C55.2439 99.7407 59.3999 100.045 59.9117 99.971C59.1522 99.7465 59.0805 99.3044 58.3636 98.9396C50.4337 94.904 42.6965 88.6276 38.2856 80.7957C37.3367 79.1111 36.4936 76.4159 35.1433 75.1101C34.6238 75.1696 33.8644 75.0389 33.3261 74.9699L32.907 74.899L32.9053 74.7552C33.4841 74.2622 35.6938 73.8726 36.4652 73.823C40.0709 73.1008 42.7495 72.7749 46.3756 72.433C46.0469 72.2912 45.7634 72.3142 45.4029 72.3044C45.4772 71.865 46.0733 70.7351 46.2837 70.2316C46.6284 69.3957 46.9152 68.5371 47.142 67.662C47.305 67.0306 47.4465 66.0553 47.4498 65.4036C47.4554 64.2872 47.7868 64.363 48.0962 63.4766C47.9175 63.2008 46.8569 62.8802 46.4798 62.6891C41.1825 60.0066 39.1849 56.06 39.0027 50.3808C38.9839 49.7581 38.9777 49.4631 38.8515 48.8587C38.6114 48.1025 39.1491 44.6501 39.8352 44.2689L40.0258 44.4166C40.1684 44.1252 40.567 42.3628 40.7559 41.8753C41.667 39.5231 43.366 36.8904 45.1178 35.1126C46.5361 33.1549 50.6797 30.5187 52.9096 29.5603C53.6397 29.2465 55.4179 28.5514 55.961 28.2201L56.0353 28.1738C51.528 29.1954 47.1207 32.5129 44.0634 35.9095C44.1865 34.7567 45.5938 32.1765 46.0123 30.7499C46.7237 28.3252 46.8855 25.9478 47.7784 23.6238C48.0535 23.4845 48.2534 23.611 48.6279 23.6987C48.7452 23.3884 48.7845 22.3265 48.7871 21.9525C48.7986 20.3177 49.7783 17.0191 48.6629 15.7346C48.5821 15.0737 48.2198 14.3849 47.9409 13.7681C46.9101 12.6785 45.0489 11.7537 44.6343 10.522C44.4565 9.99396 44.9984 7.99717 45.3458 7.42425C46.3895 5.70342 50.0501 4.59905 51.9005 4.15345Z" fill="#187085"/>
<path d="M51.9002 4.15345C57.3125 2.57375 55.2948 8.37447 54.0764 10.9529C54.055 11.1853 53.982 11.9707 54.0462 12.1558C54.49 13.4387 55.6505 15.0952 56.4917 16.1066C56.705 16.3616 56.9236 16.6121 57.1475 16.8578C59.2284 17.5507 60.5268 17.6194 62.7325 17.6668C63.6294 17.6861 64.7929 17.7088 65.6582 17.9157C68.9267 18.087 72.2685 18.3227 75.4445 19.1623C77.2396 19.6368 80.0149 19.9524 81.6603 20.7308C81.528 18.5253 82.795 17.6825 84.7652 17.2536C86.2758 17.1412 87.4334 18.4371 87.7667 19.8077C88.1468 20.6401 88.2614 22.3818 88.2495 23.3087L88.3725 23.3414C90.6766 23.9734 93.7432 25.9085 96.4147 25.8535C97.2358 25.8367 98.3042 25.2494 98.7018 25.2135C100.636 24.4363 100.65 24.7358 102.703 23.4565C106.012 21.5485 105.253 18.6506 108.988 16.5771C110.068 16.4679 110.505 17.1509 111.206 17.9034C111.356 18.0522 112.13 18.844 112.243 18.9269C112.801 19.6016 114.601 21.8934 114.888 22.6295C115.899 24.0884 114.984 24.6801 113.833 25.6494L113.766 25.7032C113.143 26.1915 111.662 26.7177 110.898 27.0355C107.166 28.5861 107.057 30.0684 104.939 33.0351C104.711 33.6036 104.267 34.8191 104.017 35.3177C103.298 39.1288 104.869 42.1047 106.006 45.6397C106.569 47.3916 107.003 49.2157 107.569 50.9714C108.868 55.6103 109.373 61.3253 111.576 65.5919C112.041 66.2619 112.334 66.6817 112.882 67.2913C113.485 67.5572 114.085 68.1514 114.611 68.5091C116.939 70.092 119.695 72.5936 122.702 71.2714C124.637 70.5366 126.932 69.4714 128.904 70.011C132.055 71.8918 131.392 73.9272 130.647 77.1112C130.227 78.3988 129.276 81.846 128.596 82.5534C124.857 86.4506 122.105 83.0078 120.075 79.9867C118.512 77.6594 115.247 78.1962 113.022 78.3078C110.807 78.4634 108.785 78.5514 106.919 79.853C104.728 81.6575 103.544 83.1574 101.668 85.0989C98.9706 87.8892 93.0853 93.6284 89.5409 95.3265C88.6852 95.8328 87.8396 96.3558 87.0045 96.8955C87.1058 97.8633 87.1239 99.0623 86.4663 99.8603C86.2607 100.108 85.9977 100.301 85.7001 100.424C85.0812 100.807 84.4654 101.196 83.8528 101.589C83.4417 102.063 83.7604 103.423 83.757 104.059C83.317 103.858 83.6445 102.674 83.3858 102.076L83.2777 102.101C83.1902 102.547 83.1905 102.649 83.2076 103.102L83.1112 103.07C82.0044 101.258 82.5187 100.342 82.2996 98.5014C82.1284 97.064 83.2293 95.8658 82.9416 95.1949C82.6349 94.9614 82.5948 94.9375 82.2113 94.941C83.3134 94.9271 85.2016 94.2823 86.2271 93.8209C87.5444 93.5206 89.2766 91.5206 90.0719 90.5236C90.1167 90.3938 90.6702 89.3579 90.7747 89.1415C91.2755 88.1061 91.4769 87.3519 91.7618 86.2406C92.0256 84.7731 92.3939 83.5043 91.7455 82.1302C91.7303 81.6455 91.5614 80.8073 91.4752 80.3018L91.1893 78.5654C91.804 78.0228 91.7447 77.8617 91.7015 77.0619C91.9671 76.8957 91.9892 76.8591 92.1517 76.5896C92.1645 75.8372 91.2112 75.1958 91.652 74.3266C92.0272 70.3464 90.7346 61.4669 88.9126 58.0766C86.8647 54.266 84.345 51.5848 83.9738 46.6306C83.719 44.8945 82.4743 43.2076 81.9417 41.621C81.1095 39.1429 79.3318 34.7796 77.0201 33.3004C77.0173 33.5827 77.036 33.5143 77.2247 33.7988L77.0456 34.0972C75.8403 32.3967 73.5312 30.738 71.6937 29.7899C70.9807 29.422 67.6654 27.9535 67.0711 28.1484C64.8715 27.1784 58.2879 27.2717 56.3053 28.0506C56.213 28.0864 56.1226 28.1276 56.0349 28.1738C51.5276 29.1954 47.1203 32.5129 44.063 35.9095C44.1861 34.7567 45.5935 32.1765 46.0119 30.7499C46.7233 28.3252 46.8852 25.9478 47.7781 23.6238C48.0531 23.4845 48.253 23.611 48.6275 23.6987C48.7448 23.3884 48.7842 22.3265 48.7868 21.9525C48.7982 20.3177 49.7779 17.0191 48.6625 15.7346C48.5817 15.0737 48.2194 14.3849 47.9405 13.7681C46.9097 12.6785 45.0485 11.7537 44.6339 10.522C44.4562 9.99396 44.998 7.99717 45.3455 7.42425C46.3892 5.70342 50.0497 4.59905 51.9002 4.15345Z" fill="#428FA1"/>
<path d="M112.883 67.2913C113.485 67.5572 114.085 68.1514 114.611 68.5091C116.939 70.092 119.695 72.5936 122.702 71.2714C124.637 70.5366 126.932 69.4714 128.904 70.011C132.055 71.8918 131.392 73.9272 130.647 77.1112C130.227 78.3988 129.276 81.846 128.596 82.5534C124.857 86.4506 122.105 83.0078 120.075 79.9867C118.512 77.6594 115.247 78.1962 113.022 78.3078C110.807 78.4634 108.785 78.5514 106.919 79.853L106.785 79.6738L107.004 79.5016C106.809 79.315 106.591 79.1497 106.38 78.9811C104.599 74.7879 107.686 70.494 111.594 68.8724C112.144 68.6441 113.646 68.9688 114.158 68.6641C114.112 68.3999 113.099 67.6748 112.804 67.4398L112.883 67.2913Z" fill="#14667A"/>
<path d="M108.988 16.5771C110.069 16.4679 110.505 17.1509 111.206 17.9034C111.356 18.0522 112.13 18.844 112.243 18.9269C112.801 19.6016 114.602 21.8934 114.889 22.6295C115.899 24.0884 114.984 24.6801 113.833 25.6494L113.766 25.7032C113.143 26.1915 111.663 26.7177 110.898 27.0355C107.167 28.5861 107.057 30.0684 104.939 33.0351C104.611 33.1166 104.109 33.3733 103.764 33.5221C102.662 33.4719 101.005 32.5325 100.082 31.92L100.21 31.8571C100.606 31.8798 100.507 31.8871 100.874 32.1253C100.617 31.6358 99.9005 31.1577 99.5683 30.6131C98.307 28.5449 101.147 28.5998 102.063 27.9478C101.864 27.0352 101.612 26.5657 101.658 25.6174L101.958 25.3794C101.9 25.2342 101.894 25.1315 101.868 24.9771L102.171 24.6499C102.613 24.3664 102.667 24.2787 102.986 23.855L102.875 23.7934C102.643 23.9064 101.943 24.2648 101.736 24.308L101.837 24.5173L101.761 24.6071C100.911 24.6649 99.3123 25.4348 98.7021 25.2135C100.636 24.4363 100.65 24.7358 102.704 23.4565C106.012 21.5485 105.253 18.6506 108.988 16.5771Z" fill="#14667A"/>
<path d="M108.988 16.5771C110.069 16.4679 110.505 17.1509 111.206 17.9034C111.356 18.0522 112.13 18.844 112.243 18.9269C112.355 23.662 107.51 25.8543 103.498 26.431C102.036 26.6411 102.327 26.9809 102.063 27.9478C101.864 27.0352 101.612 26.5657 101.658 25.6174L101.958 25.3794C101.9 25.2342 101.894 25.1315 101.868 24.9771L102.171 24.6499C102.613 24.3664 102.667 24.2787 102.986 23.855L102.875 23.7934C102.643 23.9064 101.943 24.2648 101.736 24.308L101.837 24.5173L101.761 24.6071C100.911 24.6649 99.3123 25.4348 98.7021 25.2135C100.636 24.4363 100.65 24.7358 102.704 23.4565C106.012 21.5485 105.253 18.6506 108.988 16.5771Z" fill="#55A2B6"/>
<path d="M102.704 23.4565C106.012 21.5485 105.253 18.6506 108.988 16.5771C109.763 17.4471 109.092 17.7413 109.292 18.6739C108.698 19.5809 109.315 20.6932 108.477 21.1985L108.223 21.1404C106.944 22.5208 106.088 23.5704 104.02 23.5983C103.565 23.6044 103.14 23.6203 102.704 23.4565Z" fill="#97DAEC"/>
<path d="M111.206 17.9034C111.356 18.0522 112.13 18.844 112.243 18.9269C112.355 23.662 107.51 25.8543 103.498 26.431C102.036 26.6411 102.327 26.9809 102.062 27.9478C101.864 27.0352 101.611 26.5657 101.657 25.6174L101.958 25.3794C103.799 24.6205 106.362 25.2768 108.24 23.5417C108.957 22.8785 110.287 21.7417 110.329 20.7117C110.336 20.5349 110.378 20.5417 110.509 20.3751C110.564 20.6794 110.561 20.7148 110.712 20.9783C110.741 20.6629 110.774 20.4265 110.825 20.1151L110.983 20.0908C111.003 20.3818 110.998 20.4304 111.095 20.7014C111.424 20.5705 111.56 20.5434 111.626 20.1829C111.517 19.7983 111.494 19.6729 111.152 19.4194L111.355 19.5523L111.085 19.4829L110.981 19.7261L110.871 19.6769C110.778 19.1672 111.057 18.4395 111.206 17.9034Z" fill="#3192AA"/>
<path d="M109.292 18.6739L109.57 18.737C109.917 19.7386 109.86 20.113 109.376 21.1124C108.692 22.4938 107.482 23.5435 106.018 24.0264C104.793 24.4365 103.419 24.3626 102.171 24.6499C102.613 24.3664 102.667 24.2787 102.986 23.855L102.875 23.7934C102.643 23.9064 101.943 24.2648 101.736 24.308L101.837 24.5173L101.761 24.6071C100.911 24.6649 99.3123 25.4348 98.7021 25.2135C100.636 24.4363 100.65 24.7358 102.704 23.4565C103.14 23.6203 103.566 23.6044 104.021 23.5983C106.088 23.5704 106.944 22.5208 108.224 21.1404L108.477 21.1985C109.315 20.6932 108.698 19.5809 109.292 18.6739Z" fill="#5EAFC6"/>
<path d="M61.0302 19.4752C60.7598 19.5839 58.3729 19.6812 58.0015 19.6761C56.7362 19.6588 51.529 21.0296 50.6617 20.4103C50.0109 19.3956 50.497 17.3507 50.1743 16.2323C49.5697 14.2858 47.4256 12.7618 47.1979 10.7325C47.0806 9.68673 49.5441 6.47508 50.5186 6.44702L50.6118 6.47492C51.6571 6.78079 52.135 6.42277 52.71 7.21855C52.8234 8.2653 51.7612 10.0906 51.9605 10.8756C52.1962 11.804 53.4009 13.4011 53.6511 14.4336C53.9302 15.328 53.6356 16.9045 53.7523 17.7692C53.8487 18.4829 55.393 18.5203 53.7591 19.7411C54.7569 20.0525 58.7322 18.93 61.0302 19.4752Z" fill="#126679"/>
<path d="M111.576 65.592C110.896 66.3268 110.11 67.3412 109.03 67.0372L109.035 66.8825L109.199 66.7733C109.499 66.8627 109.569 66.8631 109.884 66.8702L109.936 66.7102L109.384 66.6686L109.323 66.5262C109.58 66.3599 110.946 65.494 111.041 65.3641C111.298 65.0125 109.755 62.0979 109.679 61.6826C109.155 58.8534 108.601 55.9048 107.763 53.1635L107.659 53.1998C107.615 53.509 107.621 53.5471 107.477 53.8171L107.028 53.7416C107.005 53.9477 107.029 54.1124 107.047 54.3176L106.844 54.3863C105.842 53.4999 105.552 53.1861 105.172 51.789C104.33 48.6964 103.959 45.0747 103.582 41.8789C103.506 41.2377 103.704 39.5393 103.666 38.6619C103.624 37.6825 103.486 35.9156 103.888 35.1367L104.017 35.3177C103.298 39.1288 104.869 42.1047 106.006 45.6397C106.569 47.3916 107.003 49.2157 107.569 50.9714C108.868 55.6103 109.373 61.3253 111.576 65.592Z" fill="#83BFCE"/>
<path d="M47.9406 13.7681C46.9098 12.6785 45.0486 11.7537 44.634 10.522C44.4562 9.99396 44.9981 7.99717 45.3455 7.42425C46.3892 5.70342 50.0498 4.59905 51.9002 4.15345C51.0673 5.25084 48.6295 6.71375 48.4754 7.35685L48.65 7.37029C49.15 6.91475 50.257 5.85493 50.8915 5.70924C50.8673 5.98847 50.68 6.20357 50.5184 6.44702C49.5439 6.47508 47.0805 9.68673 47.1977 10.7325C47.4254 12.7618 49.5696 14.2858 50.1742 16.2323C50.4969 17.3507 50.0107 19.3956 50.6616 20.4103C51.5289 21.0296 56.7361 19.6588 58.0014 19.6761C58.3728 19.6812 60.7597 19.5839 61.0301 19.4752L61.1223 19.4047C61.797 19.5189 62.9686 19.4773 63.9215 19.6171C62.7147 19.6464 61.1902 19.6776 60.1343 20.2036C59.7318 20.4042 57.4452 20.2152 56.7325 20.2446C55.4184 20.2832 51.7754 21.2771 50.7313 20.8463C49.6326 20.3929 50.215 17.7166 49.9476 16.621C49.6728 15.495 49.308 14.3982 48.0491 13.8169L47.9406 13.7681Z" fill="#5EAFC6"/>
<path d="M86.2272 93.8209C87.5445 93.5206 89.2767 91.5206 90.072 90.5236L90.0419 90.6199C89.2234 93.1665 85.4626 94.2654 85.315 94.6567C85.8541 95.0185 85.9645 94.3645 86.3468 95.0305L86.4362 94.9043L86.3167 94.7986L86.3644 95.009C85.9929 95.1693 85.68 95.2968 85.2992 95.4325L85.304 95.5517C85.3197 96.0267 85.3066 96.1111 85.0502 96.5022C85.2329 97.1181 86.4966 96.9239 86.9063 96.738C87.989 96.2471 88.0343 95.4284 89.3585 95.2066L89.541 95.3265C88.6853 95.8328 87.8397 96.3558 87.0046 96.8955C87.1059 97.8633 87.124 99.0623 86.4663 99.8603C86.2608 100.108 85.9977 100.301 85.7002 100.424C85.0813 100.807 84.4655 101.196 83.8528 101.589C83.4417 102.063 83.7605 103.423 83.7571 104.059C83.3171 103.858 83.6446 102.674 83.3858 102.076L83.2778 102.101C83.1902 102.547 83.1906 102.649 83.2077 103.102L83.1113 103.07C82.0045 101.258 82.5188 100.342 82.2997 98.5013C82.1285 97.064 83.2293 95.8658 82.9416 95.1949C82.635 94.9614 82.5949 94.9375 82.2114 94.941C83.3135 94.9271 85.2017 94.2823 86.2272 93.8209Z" fill="#55A2B6"/>
<path d="M87.0047 96.8955C87.106 97.8633 87.1241 99.0623 86.4665 99.8603C86.2609 100.108 85.9979 100.301 85.7003 100.424C85.0814 100.807 84.4656 101.196 83.853 101.589C83.9335 101.109 83.8007 99.3923 83.7681 98.8142C84.543 98.2723 84.9747 97.9916 85.8106 97.5565C86.3005 97.3325 86.5794 97.2233 87.0047 96.8955Z" fill="#063645"/>
<path d="M87.0046 96.8955C87.1059 97.8633 87.124 99.0623 86.4664 99.8603C86.2608 100.108 85.9978 100.301 85.7002 100.424C86.1379 99.6571 85.9605 98.4116 85.8105 97.5565C86.3004 97.3325 86.5793 97.2233 87.0046 96.8955Z" fill="#0E4C5E"/>
<path d="M84.7652 17.2536C86.2758 17.1412 87.4334 18.4371 87.7667 19.8077C88.1468 20.6401 88.2615 22.3818 88.2495 23.3087C87.4896 23.171 82.0167 21.1348 81.6603 20.7308C81.528 18.5253 82.795 17.6825 84.7652 17.2536Z" fill="#2C768B"/>
<path d="M81.6603 20.7308C81.528 18.5253 82.795 17.6825 84.7652 17.2536C84.2181 18.5068 83.8372 19.7432 83.4162 21.0405C84.1383 21.3312 87.0051 22.663 87.5556 22.4943C87.5689 22.0546 87.3079 21.1586 87.3549 21.0197L87.5893 21.3661C87.7955 21.0394 87.73 20.2359 87.6345 19.859L87.7667 19.8077C88.1468 20.6401 88.2615 22.3818 88.2495 23.3087C87.4896 23.171 82.0167 21.1348 81.6603 20.7308Z" fill="#83BFCE"/>
<path d="M65.6581 17.9157C64.8982 18.0758 63.3757 17.9948 62.5093 18.0317C61.1546 18.0895 57.6979 19.0581 56.7978 17.9778C56.6957 17.6843 56.6204 17.4796 56.7214 17.1467C56.9201 16.4914 55.8875 15.8779 55.6006 15.3621C55.0372 14.3483 52.8201 11.9727 54.0764 10.9529C54.055 11.1853 53.982 11.9707 54.0461 12.1558C54.49 13.4387 55.6504 15.0952 56.4917 16.1066C56.705 16.3616 56.9236 16.6121 57.1474 16.8578C59.2283 17.5507 60.5267 17.6194 62.7325 17.6668C63.6294 17.6861 64.7929 17.7088 65.6581 17.9157Z" fill="#14667A"/>
<path d="M91.6521 74.3266C91.9195 75.0751 92.2739 75.7442 92.6274 76.3242C92.7818 76.5774 91.6941 78.718 91.7622 79.058C91.9215 79.8532 93.0469 82.2003 92.9569 82.9013L92.9481 82.9736C92.9265 83.1445 91.8396 87.0257 91.8529 87.0099C91.7742 86.6885 91.7724 86.5726 91.7619 86.2406C92.0257 84.7731 92.394 83.5043 91.7456 82.1302C91.7304 81.6455 91.5616 80.8073 91.4753 80.3018L91.1895 78.5654C91.8041 78.0228 91.7449 77.8617 91.7016 77.0619C91.9672 76.8957 91.9894 76.8591 92.1518 76.5896C92.1647 75.8372 91.2114 75.1958 91.6521 74.3266Z" fill="#14667A"/>
<path d="M58.3961 24.7571C58.4538 24.9528 58.3314 25.3785 58.2824 25.5976L58.0903 25.7049C57.7601 25.6264 57.6534 25.5237 57.3542 25.3863C56.4991 24.9938 56.7425 25.9927 56.0374 26.2866C55.5783 26.1467 55.4459 26.0713 55.3862 25.6234C55.6664 24.9701 56.7758 24.2883 56.8065 24.2046C57.3073 22.8418 56.9544 22.6254 58.5673 22.5514L58.879 22.7939C58.9248 23.3218 58.5767 24.2263 58.3961 24.7571Z" fill="#83BFCE"/>
<path d="M58.5673 22.5514L58.8789 22.7939C58.9247 23.3218 58.5766 24.2263 58.3961 24.7571C58.1363 25.2338 57.8246 25.6799 57.522 26.1307C57.7523 25.2692 58.1086 24.4904 58.1534 23.5986L58.3753 22.9323L58.5673 22.5514Z" fill="#55A2B6"/>
<path d="M58.1535 23.5986C57.7044 23.584 57.4825 23.6508 57.3394 23.2058L57.5499 22.972C58.0648 22.8133 57.8476 22.8238 58.3753 22.9323L58.1535 23.5986Z" fill="#97DAEC"/>
<path d="M55.8906 24.9338C56.1421 24.9678 56.1889 25.0006 56.423 25.1077C56.4975 25.5228 56.4227 25.4817 56.2002 25.9451C56.1047 25.9253 55.9114 25.8456 55.811 25.8083C55.6631 25.3929 55.738 25.4476 55.8906 24.9338Z" fill="#97DAEC"/>
<path d="M94.7785 57.8383L94.6227 57.5578C93.8977 57.3748 93.303 56.8556 93.8745 56.1452C94.2143 56.2176 94.4926 56.5444 94.7642 56.796C95.1248 56.8052 95.1869 56.6309 95.5341 56.3309L95.8722 56.375L95.8347 56.5561C95.7615 56.8356 95.6939 57.1166 95.6321 57.399C95.412 57.5243 95.4492 57.5485 95.2355 57.5403L94.7785 57.8383Z" fill="#14667A"/>
<path d="M95.2352 57.5403C95.4507 58.1145 95.2688 58.5914 94.8905 59.0374C94.7239 59.0784 94.6256 59.1114 94.4508 59.1105C94.1181 59.2828 94.2494 59.2774 93.946 59.1873C93.7041 58.7025 93.7028 58.3939 93.9667 57.9189C94.3321 57.7122 94.1573 57.7406 94.6497 57.8743L94.7783 57.8383L95.2352 57.5403Z" fill="#0E4C5E"/>
<path d="M95.2357 57.5403C95.4512 58.1145 95.2693 58.5914 94.8909 59.0374C94.7243 59.0784 94.626 59.1114 94.4512 59.1105C94.4711 58.6442 94.5514 58.3277 94.6501 57.8743L94.7787 57.8383L95.2357 57.5403Z" fill="#55A2B6"/>
<path d="M62.9145 24.4405C63.378 24.7793 63.2593 24.5966 63.4166 25.1451C63.3494 25.6299 63.2686 25.6936 62.9485 26.0557C62.6437 25.8644 62.5648 25.8347 62.4203 25.5112C62.4015 25.1063 62.681 24.7907 62.9145 24.4405Z" fill="#55A2B6"/>
<path d="M60.8643 24.5887C61.3267 24.6609 61.2957 24.6997 61.4781 25.0752C61.4754 25.5487 61.4011 25.6457 61.1838 26.0611C60.8239 25.8364 60.7334 25.7974 60.5347 25.4022C60.5751 24.8885 60.5541 25.047 60.8643 24.5887Z" fill="#83BFCE"/>
<path d="M99.1967 77.8245C98.7496 78.0656 98.7303 78.5497 98.1355 78.3392C97.9979 77.7183 98.2643 77.3304 98.8845 77.2067C99.201 77.4251 99.0986 77.3053 99.2556 77.6832L99.1967 77.8245Z" fill="#0E4C5E"/>
<path d="M100.067 63.9703C100.503 64.0218 101.083 64.1258 101.392 64.4424C101.551 64.9164 101.528 64.7381 101.36 65.2614C100.651 64.2695 100.651 64.9291 100.057 64.3609L100.067 63.9703Z" fill="#55A2B6"/>
<path d="M99.2557 77.6832C99.507 77.3608 99.6084 77.173 100.004 77.0431L100.157 77.1336C100.222 77.6528 99.9616 78.0254 99.5593 78.3124L99.3312 78.2777C99.2512 78.0897 99.2167 78.0343 99.1968 77.8245L99.2557 77.6832Z" fill="#55A2B6"/>
<path d="M98.8912 80.7714C99.2877 80.8496 99.1719 80.7675 99.3633 81.0467C99.2867 81.4617 99.1338 81.5716 98.8456 81.8672C98.4152 81.742 98.5406 81.8379 98.2944 81.5402C98.433 81.0874 98.4941 81.143 98.8912 80.7714Z" fill="#187085"/>
<path d="M95.8719 56.375L96.2132 55.9482C96.51 56.2186 96.5616 56.757 96.4471 57.1246C96.1629 57.2999 96.2982 57.2692 95.9146 57.1876C95.7799 56.9352 95.8128 56.8555 95.8344 56.5561L95.8719 56.375Z" fill="#5EAFC6"/>
<path d="M47.8765 74.6868C49.5686 74.7213 51.2601 74.7787 52.9505 74.859C55.5424 74.8502 62.4411 75.4295 64.8844 76.0753L64.9959 76.0619C65.2896 76.5094 65.6989 77.092 65.9617 77.5406C67.4585 79.8611 68.7685 82.4001 70.0204 84.8621C71.9347 88.6265 74.7526 94.3589 79.6406 94.7615L79.7569 94.7899C80.5614 94.9734 81.3904 95.0244 82.2113 94.941C82.5948 94.9375 82.6349 94.9614 82.9415 95.1949C83.2292 95.8658 82.1284 97.064 82.2996 98.5014C82.5187 100.342 82.0044 101.258 83.1112 103.07L83.2076 103.102C83.1905 102.649 83.1901 102.547 83.2777 102.101L83.3857 102.076C83.6444 102.674 83.317 103.858 83.757 104.059C83.9937 105.416 83.9836 105.95 84.6119 107.201C85.0675 108.037 87.3638 109.217 88.3403 110.018C90.6116 111.87 91.171 114.927 89.5229 117.376C88.9241 118.209 88.5266 118.439 87.933 119.121C86.7124 120.496 83.3074 121.511 81.4154 121.625C81.1781 121.638 80.9406 121.644 80.7029 121.64C79.362 121.691 78.117 121.716 76.8637 121.185C74.9333 119.759 74.2629 119.095 74.2453 116.532C74.3409 116.044 74.4288 115.554 74.5089 115.063C74.6808 114.603 74.7721 114.259 74.8949 113.783C75.129 112.868 76.239 110.641 75.9821 109.739C75.1217 106.717 73.4652 103.9 72.3413 100.962C72.2694 100.774 71.9219 100.75 71.736 100.708C71.0824 100.925 64.6985 100.633 63.4979 100.586C60.3172 100.316 57.1458 100.1 53.9679 99.7582L54.8208 99.587C55.2435 99.7408 59.3995 100.045 59.9113 99.971C59.1518 99.7465 59.0801 99.3044 58.3632 98.9396C50.4333 94.904 42.6961 88.6276 38.2851 80.7957C37.3363 79.1111 36.4932 76.4159 35.1429 75.1101C34.6234 75.1696 33.864 75.0389 33.3257 74.9699C34.8181 74.8495 36.3151 74.7973 37.8122 74.8131C38.4898 74.6597 40.5491 74.7008 41.3257 74.6975C43.5086 74.6884 45.6898 74.761 47.8765 74.6868Z" fill="#2E8DA2"/>
<path d="M88.3406 110.018C90.6119 111.87 91.1713 114.927 89.5232 117.376C88.9244 118.209 88.5269 118.439 87.9333 119.121C86.7127 120.496 83.3077 121.511 81.4157 121.625C81.1784 121.638 80.9409 121.644 80.7032 121.64C79.3623 121.691 78.1173 121.716 76.864 121.185C74.9336 119.759 74.2632 119.095 74.2456 116.532L74.3953 116.819C75.0949 116.748 75.8653 115.101 77.1943 114.626C77.7515 114.676 77.8866 114.988 78.4182 115.411C80.3716 114.361 81.427 112.858 83.394 111.737C84.9766 110.835 87.1867 110.951 88.3406 110.018Z" fill="#2B8197"/>
<path d="M80.703 121.64C80.6453 121.6 80.5875 121.56 80.5297 121.519C78.1521 118.957 82.7133 117.977 84.3516 117.358C85.0603 117.09 85.7429 117.037 86.4889 116.992C86.781 117.819 87.397 118.4 87.9331 119.121C86.7125 120.496 83.3076 121.511 81.4156 121.625C81.1783 121.638 80.9407 121.644 80.703 121.64Z" fill="#0E4C5E"/>
<path d="M74.2456 116.532L74.3953 116.819C75.0949 116.748 75.8653 115.101 77.1943 114.626C77.7515 114.676 77.8866 114.988 78.4182 115.411C76.0901 117.288 77.3599 118.953 76.864 121.185C74.9336 119.759 74.2632 119.095 74.2456 116.532Z" fill="#97DAEC"/>
<path d="M86.4888 116.992C87.5504 116.959 88.4594 117.31 89.5228 117.376C88.9241 118.209 88.5266 118.439 87.933 119.121C87.3969 118.4 86.7808 117.819 86.4888 116.992Z" fill="#187085"/>
<path d="M85.5598 112.512C86.0497 112.481 86.112 112.483 86.5312 112.744C87.0279 113.505 86.7018 113.8 86.0282 114.211C85.6721 114.241 85.5218 114.167 85.1836 114.062C84.59 113.422 85.0512 113.023 85.5598 112.512Z" fill="#14667A"/>
<path d="M70.6653 95.6873C70.8668 95.9784 71.1146 96.3702 71.3136 96.668C71.5104 96.9628 72.577 97.9042 72.6343 98.0479C73.2318 98.7146 73.4456 99.1048 73.9002 99.9107C74.0183 99.9371 74.1239 99.9606 74.217 99.9813C75.4233 100.333 75.3293 100.889 76.1881 101.575C76.1781 102.038 76.193 103.093 76.0608 103.484L75.9486 103.419L75.3463 103.927C75.9384 104.777 77.4747 106.709 78.4084 107.122C78.5372 106.961 78.583 106.884 78.7602 106.77C79.0279 107.083 79.2959 107.484 79.682 107.575C79.8899 107.42 79.8853 107.433 80.0047 107.206L80.2145 107.157C80.7097 107.569 80.5745 107.883 81.4988 107.763C82.2955 107.659 83.8821 107.423 84.612 107.201C85.0675 108.037 87.3638 109.217 88.3404 110.018C87.1864 110.951 84.9764 110.835 83.3937 111.737C81.4267 112.858 80.3713 114.361 78.4179 115.411C77.8863 114.988 77.7512 114.676 77.194 114.626C75.8651 115.101 75.0947 116.748 74.395 116.819L74.2453 116.532C74.3409 116.044 74.4288 115.554 74.5089 115.063C74.6808 114.603 74.7721 114.259 74.895 113.783C75.129 112.868 76.2391 110.641 75.9821 109.739C75.1217 106.717 73.4652 103.9 72.3413 100.962C72.2694 100.774 71.9219 100.75 71.736 100.708L71.7512 100.608L72.0593 100.5L72.1446 100.301C71.937 99.3721 70.8247 98.3043 69.8483 98.2773C69.3029 97.883 69.6295 97.7219 68.4537 97.2359L68.3936 97.2115L68.4458 97.1289C68.5686 97.1224 68.6915 97.115 68.8142 97.1069C71.0158 96.9608 69.742 96.7379 70.6653 95.6873Z" fill="#68C5D8"/>
<path d="M74.5684 102.424C74.6854 102.102 74.7134 102.07 74.9627 101.835L75.2292 101.806C75.4778 102.055 75.4034 101.931 75.4872 102.304L75.2559 103.093C75.7847 103.179 75.6778 103.077 75.9486 103.419L75.3462 103.927C75.2939 103.959 75.082 104.033 75.012 104.06L74.782 103.918C74.5721 103.527 74.5901 102.889 74.5684 102.424Z" fill="#97DAEC"/>
<path d="M74.8953 113.783L75.4121 113.656C75.8737 114.291 75.5117 114.723 75.0156 115.185C74.6949 115.211 74.8175 115.224 74.5093 115.063C74.6812 114.603 74.7725 114.259 74.8953 113.783Z" fill="#97DAEC"/>
<path d="M65.6005 99.2183C65.2997 98.3272 64.5974 96.3314 64.9772 95.5109C65.8801 94.7607 66.7459 95.5507 66.9666 95.4592C68.4321 94.8523 68.5742 96.1574 70.1135 96.1102L70.0974 96.0142L70.1135 96.1121L70.0932 95.7266L70.0394 95.7384L70.0456 95.6849L70.6654 95.6873C69.7421 96.7379 71.0159 96.9608 68.8143 97.107C68.6916 97.115 68.5687 97.1224 68.4459 97.1289L68.3936 97.2115L68.4538 97.2359C69.6296 97.7219 69.303 97.883 69.8484 98.2773C70.8248 98.3043 71.937 99.3721 72.1447 100.301L72.0594 100.5L71.7513 100.608L71.7361 100.708C71.0825 100.925 64.6986 100.633 63.498 100.586C63.906 100.198 64.7931 100.128 65.6005 99.2183Z" fill="#83BFCE"/>
<path d="M69.8483 98.2773C70.8246 98.3043 71.9369 99.3721 72.1446 100.301L72.0593 100.5L71.7512 100.608L71.724 100.562C71.3295 99.8806 69.7514 99.3248 69.002 98.5772C69.518 98.8196 70.7306 99.6628 71.2269 99.4688C70.8304 98.8646 70.4417 98.6806 69.8483 98.2773Z" fill="#97DAEC"/>
<path d="M52.9507 74.859C55.5425 74.8502 62.4412 75.4295 64.8845 76.0753L64.9961 76.0619C65.2898 76.5094 65.699 77.0921 65.9618 77.5406C64.5424 77.068 61.7128 76.6766 60.1805 76.3829C59.4561 76.2441 58.3483 76.2406 57.5597 76.0845C58.2998 75.9632 59.7078 76.4001 60.6911 76.1426C60.6198 75.0621 53.7221 75.5428 52.9507 74.859Z" fill="#0E4C5E"/>
<path d="M33.3257 74.9699C34.8181 74.8495 36.3151 74.7972 37.8122 74.8131C38.5701 74.8878 39.0134 74.8954 39.7665 74.8856L40.4945 75.6067L40.3202 75.9983L40.6078 76.7244C40.3232 77.1687 39.9312 77.6639 39.4053 77.8159L39.1916 77.8683C38.6547 77.5918 38.034 77.2255 37.7533 76.6868C37.9229 76.2371 38.077 75.941 38.2986 75.5141L38.164 75.3089C37.3419 74.9641 36.0366 75.0693 35.1429 75.1101C34.6234 75.1696 33.864 75.0389 33.3257 74.9699Z" fill="#55A2B6"/>
<path d="M39.145 77.0966C39.1952 76.5601 39.1666 76.1178 39.5091 75.7454C39.9052 75.7122 39.9932 75.7946 40.3202 75.9983L40.6078 76.7244C40.3232 77.1687 39.9311 77.6639 39.4052 77.8159L39.145 77.0966Z" fill="#187085"/>
<path d="M37.7534 76.6868C38.0501 76.3053 38.3775 75.8026 38.8321 75.6983C39.2116 76.163 39.0117 76.6566 39.1452 77.0967L39.4054 77.8159L39.1918 77.8683C38.6548 77.5918 38.0342 77.2255 37.7534 76.6868Z" fill="#83BFCE"/>
<path d="M41.1284 75.9235L41.428 75.8651L41.6425 76.1137L41.9328 75.768C42.7995 75.7731 43.1524 77.4378 43.2129 78.126L43.0882 78.2921C42.5406 78.1142 42.1858 78.0797 41.8841 77.6398L41.9883 77.5432L42.3228 77.5804C42.2068 77.1779 42.2931 77.3263 41.9663 77.0253C41.7723 76.9781 41.5256 76.8898 41.3504 76.9308C41.5068 76.3572 41.5531 76.2742 41.1284 75.9235Z" fill="#2B8197"/>
<path d="M76.1884 101.575C77.6609 101.411 77.564 103.993 76.3959 103.921C76.1976 103.74 76.1609 103.725 76.061 103.484C76.1933 103.093 76.1783 102.038 76.1884 101.575Z" fill="#187085"/>
<path d="M72.6343 98.0479C72.8174 97.5885 72.7015 97.6996 73.0421 97.4879C73.6019 97.6495 74.5185 99.3965 74.217 99.9813C74.1239 99.9606 74.0183 99.9371 73.9002 99.9107C73.4456 99.1048 73.2318 98.7146 72.6343 98.0479Z" fill="#2B8197"/>
<path d="M40.4946 75.6068L41.1283 75.9235C41.553 76.2742 41.5067 76.3572 41.3503 76.9308C41.1949 76.9939 41.1364 76.9916 40.9723 77.0175L40.6079 76.7244L40.3203 75.9983L40.4946 75.6068Z" fill="#5EAFC6"/>
<path d="M59.2729 91.6435C59.3332 91.1571 59.2527 91.0296 59.5466 90.783L60.0444 90.8748C60.5716 91.0875 60.9307 91.1938 61.3409 91.5861C61.4227 92.2609 61.4532 92.7466 60.7089 92.944C60.3237 92.8831 60.1814 92.7075 59.8963 92.4503C59.3892 92.1798 59.393 92.1694 59.2729 91.6435Z" fill="#55A2B6"/>
<path d="M60.4228 92.1119C60.8106 91.8105 60.8779 91.7531 61.3406 91.5861C61.4224 92.2609 61.4529 92.7466 60.7086 92.944C60.3234 92.8832 60.1811 92.7075 59.896 92.4503C60.0824 92.2064 60.1248 92.1964 60.4228 92.1119Z" fill="#5EAFC6"/>
<path d="M59.2729 91.6435C59.7559 91.5132 60.0218 91.8143 60.4231 92.1119C60.1252 92.1964 60.0827 92.2064 59.8963 92.4503C59.3892 92.1799 59.393 92.1694 59.2729 91.6435Z" fill="#55A2B6"/>
<path d="M60.0444 90.8748C62.3281 90.1651 61.7171 92.216 63.1932 92.2989C63.6846 92.6886 63.8906 92.8948 64.3203 93.3565C64.0119 93.4871 63.9722 93.5007 63.6451 93.4366C63.3236 93.1788 61.4344 91.7333 61.341 91.5861C60.9308 91.1938 60.5717 91.0875 60.0444 90.8748Z" fill="#3192AA"/>
<path d="M63.1929 92.2989C63.7984 92.1561 64.9572 92.3707 65.4889 92.6838L65.5888 92.9007C65.2871 93.2926 64.7802 93.3338 64.32 93.3565C63.8903 92.8949 63.6843 92.6886 63.1929 92.2989Z" fill="#2B8197"/>
<path d="M62.0166 98.9228C62.7272 98.8691 63.4262 99.467 63.5423 100.117L63.3388 100.245C63.0203 100.195 62.4447 100.007 62.1576 99.8488C61.6961 99.5941 61.8943 99.311 62.0166 98.9228Z" fill="#5EAFC6"/>
<path d="M56.0349 28.1738C56.1226 28.1276 56.213 28.0864 56.3053 28.0507C58.2879 27.2717 64.8714 27.1784 67.0711 28.1484C67.6654 27.9535 70.9807 29.422 71.6937 29.7899C73.5312 30.738 75.8403 32.3967 77.0456 34.0973C77.7801 34.881 79.9035 37.6453 79.8874 38.688C81.0922 41.114 81.3606 43.8271 81.394 46.5058C81.398 46.8311 81.3916 47.1293 81.448 47.452C81.6934 46.597 81.4906 45.9889 81.6927 45.2089C81.787 47.1921 82.0903 47.1875 80.3537 48.2941C80.4824 48.523 80.5413 48.5363 80.773 48.6802L80.7274 48.7171L80.5867 48.6282L80.4454 48.7528L80.2905 48.6999C80.0783 48.2051 79.5531 47.8616 79.0887 48.2909C78.5534 48.1733 77.6494 47.8151 76.8653 47.6367L76.7662 47.5831L75.3938 47.1562C75.3262 47.0648 75.2574 46.9758 75.1796 46.8928C74.3213 45.9781 65.9733 45.47 64.2486 45.4367C63.5097 45.8482 62.8301 45.703 62.0455 45.4786C61.9671 44.9791 62.0564 45.1525 61.7328 44.8038C60.0105 44.8019 58.2882 44.8449 56.5681 44.9326C56.3828 44.9435 55.8353 44.9611 55.6828 44.9872C55.1669 45.0534 54.4956 45.161 53.9912 45.2014C53.2918 45.1925 52.308 44.9523 51.8282 45.0144C51.5457 45.0509 51.1565 45.4792 50.4825 45.3655C50.104 45.1311 50.2124 45.2634 50.0494 44.8786C48.3682 44.9659 46.239 45.8486 44.5533 46.3482C43.9998 46.6485 41.9173 47.8125 41.4269 47.8066C41.6743 48.1307 41.9171 48.4581 42.1553 48.7888L42.3967 48.583L42.7659 48.7294L41.8715 49.2906C41.6697 49.1633 40.9058 49.1673 40.6179 49.1547C40.2696 48.955 39.8435 48.9544 39.4365 48.9155L39.1643 48.8993C38.8829 49.3184 39.0857 49.9806 39.0023 50.3808C38.9835 49.7581 38.9773 49.4631 38.8511 48.8587C38.611 48.1025 39.1487 44.6501 39.8348 44.2689L40.0254 44.4166C40.168 44.1252 40.5666 42.3628 40.7555 41.8753C41.6666 39.5231 43.3656 36.8904 45.1174 35.1126C46.5357 33.1549 50.6793 30.5187 52.9092 29.5603C53.6393 29.2465 55.4175 28.5514 55.9606 28.2201L56.0349 28.1738Z" fill="#2E899E"/>
<path d="M56.0349 28.1738C56.1226 28.1276 56.213 28.0864 56.3053 28.0507C58.2879 27.2717 64.8714 27.1784 67.0711 28.1484C66.4578 28.436 62.8206 28.5678 61.994 28.5794L57.9551 31.0766C55.0195 32.893 52.9749 34.0584 51.9365 37.7464C51.5815 39.0069 51.1226 42.4045 50.6158 43.3561C50.914 43.5088 51.9702 43.2053 52.5253 43.2702C52.2297 43.529 49.3036 43.9467 49.0059 44.7002C50.232 44.8065 52.147 44.0507 53.4815 44.0326C53.3677 44.2154 53.3009 44.2275 53.1093 44.3205C52.3813 44.2463 50.833 44.6905 50.0494 44.8786C48.3682 44.9659 46.239 45.8486 44.5533 46.3482C43.9998 46.6485 41.9173 47.8125 41.4269 47.8066C41.6743 48.1307 41.9171 48.4581 42.1553 48.7888L42.3967 48.583L42.7659 48.7294L41.8715 49.2906C41.6697 49.1633 40.9058 49.1673 40.6179 49.1547C40.2696 48.955 39.8435 48.9544 39.4365 48.9155L39.1643 48.8993C38.8829 49.3184 39.0857 49.9806 39.0023 50.3808C38.9835 49.7581 38.9773 49.4631 38.8511 48.8587C38.611 48.1025 39.1487 44.6501 39.8348 44.2689L40.0254 44.4166C40.168 44.1252 40.5666 42.3628 40.7555 41.8753C41.6666 39.5231 43.3656 36.8904 45.1174 35.1126C46.5357 33.1549 50.6793 30.5187 52.9092 29.5603C53.6393 29.2465 55.4175 28.5514 55.9606 28.2201L56.0349 28.1738Z" fill="#7BCBDB"/>
<path d="M45.1174 35.1126L45.695 34.6495L45.869 34.6981C45.9536 35.2933 45.3276 36.8518 45.3074 37.4644C45.2825 38.2181 45.2803 39.8606 45.3487 40.5959L45.1831 40.7748L45.0226 41.3237C44.8735 41.0142 45.0998 40.9364 44.7737 40.6504L44.4212 40.7426C44.0736 41.0933 43.7428 41.3508 43.6478 41.83L43.7276 42.1961C43.3751 42.5365 43.267 43.6555 43.2538 44.136C43.2511 44.2397 43.2521 44.3436 43.257 44.4473C43.3253 44.4827 43.3669 44.5173 43.4331 44.5205L43.5421 44.9977C43.734 45.0306 43.9291 45.0453 44.0946 45.1409L44.3724 45.3466C44.2111 45.7091 43.9418 45.9707 43.6773 46.2721L43.7471 46.3992C44.0223 46.3389 44.283 46.2566 44.5533 46.3482C43.9998 46.6485 41.9173 47.8125 41.4269 47.8066C41.6743 48.1307 41.9171 48.4581 42.1553 48.7888L42.3967 48.583L42.7659 48.7294L41.8715 49.2906C41.6697 49.1633 40.9058 49.1673 40.6179 49.1547C40.2696 48.955 39.8435 48.9544 39.4365 48.9155L39.1643 48.8993C38.8829 49.3184 39.0857 49.9806 39.0023 50.3808C38.9835 49.7581 38.9773 49.4631 38.8511 48.8587C38.611 48.1025 39.1487 44.6501 39.8348 44.2689L40.0254 44.4166C40.168 44.1253 40.5666 42.3628 40.7555 41.8753C41.6666 39.5231 43.3656 36.8904 45.1174 35.1126Z" fill="#C9EEF3"/>
<path d="M38.8511 48.8587C38.611 48.1025 39.1487 44.6501 39.8348 44.2689L40.0254 44.4166C39.8547 45.2043 39.2529 47.5937 39.4459 48.2375L39.6166 48.3357C40.8672 47.6525 43.2001 46.2283 44.0946 45.1409L44.3724 45.3466C44.2111 45.7091 43.9418 45.9707 43.6773 46.2721L43.7471 46.3992C44.0223 46.3389 44.283 46.2566 44.5533 46.3482C43.9998 46.6485 41.9173 47.8124 41.4269 47.8066C41.6743 48.1307 41.9171 48.4581 42.1553 48.7888L42.3967 48.583L42.7659 48.7294L41.8715 49.2906C41.6697 49.1633 40.9058 49.1673 40.6179 49.1547C40.2696 48.955 39.8435 48.9544 39.4365 48.9155L39.1643 48.8993C38.8829 49.3184 39.0857 49.9806 39.0023 50.3808C38.9835 49.7581 38.9773 49.4631 38.8511 48.8587Z" fill="#83BFCE"/>
<path d="M41.4269 47.8066C41.6743 48.1307 41.9171 48.4581 42.1552 48.7888L42.3966 48.583L42.7659 48.7294L41.8715 49.2907C41.6697 49.1633 40.9057 49.1673 40.6179 49.1547C40.2696 48.955 39.8435 48.9544 39.4365 48.9155C40.6193 48.7717 40.1124 48.4043 41.4269 47.8066Z" fill="#3192AA"/>
<path d="M42.1741 42.7275C42.4542 42.8041 42.4632 42.806 42.6535 43.0326C42.7722 43.4645 42.5418 43.8733 42.3678 44.3022L42.1175 44.3048L41.9815 44.1484C41.8851 43.686 42.0559 43.1924 42.1741 42.7275Z" fill="#97DAEC"/>
<path d="M44.4213 40.7426L44.7738 40.6505C45.0999 40.9364 44.8736 41.0142 45.0227 41.3237C45.2075 41.6824 45.5151 42.1723 45.4793 42.5547L45.1935 42.8078L45.0435 42.8395L44.8693 43.6376L44.7028 43.6685L44.4983 43.4398L44.6035 43.1603L44.1332 42.8603L44.0527 42.4877C43.4778 42.9413 43.6665 43.8372 43.4332 44.5205C43.367 44.5173 43.3254 44.4827 43.2571 44.4473C43.2522 44.3436 43.2512 44.2397 43.2539 44.136C43.2671 43.6555 43.3752 42.5365 43.7277 42.1961L43.6479 41.83C43.7429 41.3508 44.0737 41.0933 44.4213 40.7426Z" fill="#97DAEC"/>
<path d="M44.4213 40.7426L44.7406 41.0556C44.725 41.5601 44.5541 41.8894 44.1273 42.2015L43.7278 42.1961L43.6479 41.83C43.7429 41.3508 44.0737 41.0933 44.4213 40.7426Z" fill="#E3F6F9"/>
<path d="M45.1834 40.7748C45.8611 41.2829 46.8857 42.0078 46.111 42.932C45.7988 43.1279 45.7518 43.1665 45.3882 43.1463C45.1827 42.9703 45.2473 43.0785 45.1938 42.8078L45.4795 42.5547C45.5154 42.1723 45.2077 41.6824 45.0229 41.3237L45.1834 40.7748Z" fill="#55A2B6"/>
<path d="M75.394 47.1562C75.9233 47.0688 75.7998 47.1714 76.0782 46.8191C76.2171 46.1217 76.0209 45.6019 76.2624 45.1393L76.4006 45.1569L76.3064 45.7132C76.6881 46.0983 77.285 45.5442 77.4187 45.5768C78.3462 45.8031 79.7408 47.275 80.673 47.2548C80.9769 47.5107 81.0035 47.5642 81.4482 47.452C81.6936 46.5969 81.4908 45.9889 81.6929 45.2089C81.7873 47.1921 82.0905 47.1875 80.3539 48.2941C80.4826 48.523 80.5415 48.5363 80.7732 48.6802L80.7276 48.7171L80.587 48.6282L80.4456 48.7528L80.2908 48.6999C80.0785 48.2051 79.5533 47.8616 79.089 48.2909C78.5536 48.1732 77.6496 47.8151 76.8655 47.6366L76.7664 47.5831L75.394 47.1562Z" fill="#1C6C7E"/>
<path d="M79.8878 38.688C81.0926 41.114 81.361 43.8271 81.3944 46.5058C81.3983 46.8311 81.392 47.1293 81.4484 47.452C81.0037 47.5642 80.977 47.5107 80.6731 47.2548L81.1164 47.3137C81.4704 46.8507 81.2963 45.4208 81.2589 44.7428C81.1863 43.4279 80.6487 44.5042 79.2913 43.4463C79.3766 43.086 79.376 43.0386 79.3182 42.6725C79.0361 42.3932 79.1699 42.4563 78.8165 42.3905L78.4964 42.6606L78.4009 42.5039L78.7714 42.3029C79.2329 42.3688 79.0022 42.3202 79.373 42.6351C79.5534 42.7884 80.5079 42.6437 80.8163 42.618C81.1159 41.7793 80.1418 39.8088 79.9134 38.8044L79.8878 38.688Z" fill="#55A2B6"/>
<path d="M53.1096 44.3205C53.5027 44.3449 55.5125 44.2672 55.6074 44.3207L55.5247 44.4329C55.0337 44.4861 54.5687 44.5312 54.082 44.6244C54.4936 45.1145 55.039 44.7851 55.6832 44.9872C55.1673 45.0534 54.496 45.161 53.9916 45.2014C53.2922 45.1925 52.3084 44.9523 51.8285 45.0144C51.546 45.0509 51.1569 45.4792 50.4828 45.3655C50.1043 45.1311 50.2128 45.2634 50.0498 44.8786C50.8334 44.6905 52.3817 44.2463 53.1096 44.3205Z" fill="#2B8197"/>
<path d="M61.7329 44.8038C62.6133 44.8999 63.8713 44.6362 64.2487 45.4367C63.5098 45.8482 62.8303 45.703 62.0457 45.4786C61.9672 44.9791 62.0565 45.1525 61.7329 44.8038Z" fill="#013361"/>
<path d="M54.6433 37.9518L54.7953 38.0048C54.8839 38.4808 54.852 38.5676 54.7404 39.0398L54.4983 39.1754C54.1135 38.9803 54.0425 38.9927 53.917 38.6012C54.0798 38.2261 54.293 38.1505 54.6433 37.9518Z" fill="#5EAFC6"/>
<path d="M55.7438 38.0454C56.1684 38.2375 56.2151 38.241 56.3899 38.5913C56.2405 39.0302 56.2608 38.9178 55.8714 39.2553C55.6158 39.0872 55.6077 39.0424 55.4443 38.7726C55.4733 38.2842 55.4274 38.4563 55.7438 38.0454Z" fill="#55A2B6"/>
<path d="M72.832 36.0681C73.4558 36.1064 74.2295 36.7321 74.5005 37.2831C73.8273 37.0957 72.926 36.7909 72.832 36.0681Z" fill="#187085"/>
<path d="M73.8952 39.7385C74.1105 39.6102 74.3888 39.6776 74.5217 39.8901C74.6545 40.1026 74.593 40.3825 74.3832 40.5197C74.2437 40.6111 74.0655 40.6198 73.9176 40.5425C73.7697 40.4652 73.6752 40.3139 73.6706 40.1471C73.6659 39.9803 73.7518 39.824 73.8952 39.7385Z" fill="#14667A"/>
<path d="M56.5684 44.9326C58.2885 44.8449 60.0107 44.8019 61.733 44.8038C62.0566 45.1525 61.9673 44.9791 62.0458 45.4786C62.8304 45.703 63.5099 45.8482 64.2488 45.4367C65.9735 45.47 74.3215 45.9781 75.1798 46.8928C75.2576 46.9758 75.3265 47.0648 75.3941 47.1562L76.7664 47.5831L76.8655 47.6367C78.2162 48.8276 77.6104 50.0604 77.4147 51.5594C76.9122 55.4091 74.2992 58.5892 71.3674 60.9513C70.7375 61.4587 70.6667 61.524 70.2345 62.2146C68.9867 62.8114 66.4521 63.9259 65.0769 64.0302C62.9088 64.5407 60.0886 64.8005 57.8629 64.6248C57.7353 64.5198 56.132 64.3738 55.7965 64.3282C53.1267 63.9646 49.9823 62.8948 47.5539 61.7214C46.9957 61.4324 46.039 60.5285 45.4976 60.0751L45.4403 60.1219C44.9449 60.128 44.1161 59.3026 43.7281 58.9524C43.5437 58.5694 43.1862 58.572 43.3434 58.0355C43.2902 57.5931 41.9233 54.9021 41.6718 54.1066C41.2021 52.6205 41.3157 50.25 40.6182 49.1547C40.906 49.1673 41.6699 49.1633 41.8718 49.2906L42.7662 48.7294L42.3969 48.583L42.1555 48.7888C41.9173 48.4581 41.6746 48.1307 41.4272 47.8066C41.9176 47.8125 44.0001 46.6485 44.5535 46.3482C46.2392 45.8486 48.3684 44.9659 50.0497 44.8786C50.2127 45.2634 50.1042 45.1311 50.4827 45.3655C51.1567 45.4792 51.5459 45.0509 51.8284 45.0144C52.3082 44.9523 53.292 45.1925 53.9915 45.2014C54.4958 45.161 55.1671 45.0534 55.6831 44.9872C55.8356 44.9611 56.383 44.9435 56.5684 44.9326Z" fill="#D3CFCD"/>
<path d="M56.5681 44.9326C58.2882 44.8449 60.0104 44.8019 61.7327 44.8038C62.0563 45.1525 61.967 44.9791 62.0455 45.4786C62.0513 47.8674 61.1057 49.0863 58.6485 49.3564C57.0282 49.303 56.5557 48.9519 55.5937 47.6736L55.3821 47.1211C55.2649 46.5185 55.3515 46.388 54.9709 46.1266C54.7012 46.2069 54.4335 46.2937 54.1682 46.387C53.7712 46.3203 53.7082 46.3153 53.3931 46.0701C53.4358 45.8391 53.6047 45.5367 53.7129 45.3167L53.9912 45.2014C54.4955 45.161 55.1668 45.0534 55.6828 44.9872C55.8353 44.9611 56.3827 44.9435 56.5681 44.9326Z" fill="#020202"/>
<path d="M55.6828 44.9872C55.8353 44.9611 56.3827 44.9435 56.5681 44.9326C56.0934 45.0342 55.8065 45.0462 55.4981 45.4152C55.2678 45.8666 55.361 46.59 55.3821 47.1211C55.2649 46.5185 55.3515 46.388 54.9709 46.1266C54.7012 46.2069 54.4335 46.2937 54.1682 46.387C53.7712 46.3203 53.7082 46.3153 53.3931 46.0701C53.4358 45.8391 53.6047 45.5367 53.7129 45.3167L53.9912 45.2014C54.4955 45.161 55.1668 45.0534 55.6828 44.9872Z" fill="#013361"/>
<path d="M55.5938 47.6736C56.1429 47.5952 56.5187 47.4886 57.0124 47.7446C57.0807 48.6709 57.7364 48.8956 58.5947 48.8977L58.6485 49.3564C57.0282 49.303 56.5558 48.9519 55.5938 47.6736Z" fill="#151820"/>
<path d="M57.0127 47.7446C57.49 47.8015 58.1047 47.8139 58.4588 48.1069C58.6555 48.4237 58.6255 48.5299 58.595 48.8977C57.7367 48.8956 57.0809 48.6709 57.0127 47.7446Z" fill="#28262B"/>
<path d="M64.2485 45.4367C63.8522 47.5246 63.8208 48.9142 61.8633 50.2566C60.5322 51.1696 58.6923 51.4273 57.1417 51.0995C54.4241 50.5248 53.4582 48.5826 53.3237 46.0704L53.3931 46.0701C53.7082 46.3153 53.7712 46.3203 54.1682 46.387C54.4335 46.2937 54.7012 46.2069 54.9709 46.1266C55.3515 46.388 55.2649 46.5185 55.3821 47.1211L55.5937 47.6736C56.5558 48.9519 57.0282 49.303 58.6485 49.3564C61.1057 49.0863 62.0513 47.8674 62.0455 45.4786C62.8301 45.703 63.5096 45.8482 64.2485 45.4367Z" fill="#2C7CD0"/>
<path d="M76.7662 47.5831L76.8653 47.6366C78.216 48.8276 77.6102 50.0604 77.4145 51.5594C76.912 55.4091 74.299 58.5892 71.3672 60.9513C70.7373 61.4587 70.6665 61.524 70.2343 62.2146C68.9865 62.8114 66.4519 63.9259 65.0767 64.0302C65.3631 63.6336 65.6495 63.7693 65.8916 63.6151C66.4343 63.3025 66.8417 62.7736 67.4082 62.4858C70.7915 60.7669 73.6108 57.7491 75.3225 54.3823C75.8056 53.4321 76.3005 51.746 76.6996 50.6618C76.7896 49.8574 76.7918 49.4529 76.773 48.6477L76.7662 47.5831Z" fill="#A4A1A2"/>
<path d="M44.5536 46.3482C46.2393 45.8486 48.3685 44.9659 50.0498 44.8786C50.2127 45.2634 50.1043 45.1311 50.4828 45.3655C51.1568 45.4792 51.546 45.0509 51.8285 45.0144C52.3083 44.9523 53.2921 45.1925 53.9916 45.2014L53.7133 45.3167C53.6051 45.5367 53.4362 45.8391 53.3935 46.0701L53.3241 46.0704C51.6178 46.1059 49.9424 46.5823 48.2882 46.9959C46.3058 47.5013 44.5552 47.7602 42.7662 48.7294L42.397 48.583L42.1556 48.7888C41.9174 48.4581 41.6746 48.1307 41.4272 47.8066C41.9177 47.8124 44.0002 46.6485 44.5536 46.3482Z" fill="#3F95AA"/>
<path d="M48.2881 46.9958C48.7868 46.3177 52.8097 45.3813 53.7132 45.3167C53.605 45.5367 53.436 45.8391 53.3933 46.0701L53.324 46.0704C51.6177 46.1059 49.9423 46.5823 48.2881 46.9958Z" fill="#187085"/>
<path d="M40.6182 49.1547C40.906 49.1673 41.6699 49.1633 41.8718 49.2906C41.6052 52.8353 42.2608 55.2069 43.9509 58.239L43.6988 58.3042L43.3434 58.0355C43.2902 57.5931 41.9233 54.9021 41.6718 54.1066C41.2021 52.6205 41.3157 50.25 40.6182 49.1547Z" fill="#063645"/>
<path d="M76.6999 50.6618C76.2826 50.9067 76.4154 50.9157 76.0324 50.8307C75.6581 50.2723 75.7511 48.6231 76.2975 48.181L76.5864 48.2736L76.7733 48.6477C76.7921 49.4529 76.7899 49.8574 76.6999 50.6618Z" fill="#C0BAB8"/>
<path d="M43.7278 58.9524C43.5434 58.5694 43.186 58.572 43.3431 58.0355L43.6986 58.3042L43.9507 58.239C44.451 58.8676 44.9732 59.4667 45.4973 60.0751L45.4401 60.1219C44.9447 60.128 44.1159 59.3026 43.7278 58.9524Z" fill="#2B8197"/>
<path d="M75.5475 73.5408C75.8606 73.5392 75.8848 73.5501 76.154 73.4085C76.1547 73.0998 76.1473 73.063 76.2386 72.7729C76.7111 72.3084 81.0226 72.2286 81.5067 72.5485C83.2461 72.7309 84.75 73.2035 86.3511 73.9136C88.1183 74.8346 90.048 76.0359 90.8311 78.0209L91.1896 78.5654L91.4754 80.3018C91.5617 80.8073 91.7305 81.6455 91.7457 82.1302C92.3941 83.5043 92.0258 84.7731 91.762 86.2406C91.4772 87.3519 91.2757 88.1061 90.775 89.1416C90.6704 89.3579 90.117 90.3938 90.0722 90.5236C89.2769 91.5206 87.5447 93.5206 86.2274 93.8209C85.2018 94.2823 83.3137 94.9271 82.2116 94.941C81.3906 95.0245 80.5617 94.9734 79.7572 94.7899L79.6409 94.7615C74.7529 94.3589 71.935 88.6265 70.0207 84.8621C68.7688 82.4001 67.4588 79.8611 65.962 77.5406C65.6991 77.0921 65.2899 76.5094 64.9962 76.0619L64.8847 76.0753L64.665 75.6417C64.7407 75.2112 64.7699 74.186 65.118 73.996C68.2135 72.3063 73.2368 73.4081 76.3461 74.1144C76.078 73.926 75.8117 73.7348 75.5475 73.5408Z" fill="#C34067"/>
<path d="M86.3512 73.9135C88.1184 74.8346 90.0481 76.0359 90.8312 78.0209L91.1897 78.5654L91.4755 80.3018C91.5618 80.8072 91.7306 81.6455 91.7458 82.1302C92.3942 83.5043 92.0259 84.7731 91.7621 86.2406C91.4773 87.3518 91.2758 88.1061 90.7751 89.1415C90.6705 89.3579 90.1171 90.3938 90.0723 90.5236C89.277 91.5206 87.5448 93.5206 86.2275 93.8209C85.202 94.2823 83.3138 94.9271 82.2117 94.941C81.3908 95.0244 80.5618 94.9734 79.7573 94.7899L79.641 94.7615L79.4766 94.4446C80.9284 94.3638 83.0272 92.3784 84.4079 92.2245C85.0349 92.1547 85.4698 92.9592 86.5889 92.296C91.3754 89.4595 89.3164 82.9301 87.9347 78.7571C87.5651 77.6593 87.0843 77.2546 87.2428 75.8377C87.2465 75.8047 86.2551 74.4262 86.128 74.1828L86.3512 73.9135Z" fill="#A12947"/>
<path d="M89.914 83.4438C89.8188 81.6717 89.3224 80.4705 91.4755 80.3018C91.5618 80.8073 91.7306 81.6455 91.7458 82.1302C91.4603 83.4818 91.0702 84.452 90.5533 85.7289C90.4662 85.4054 90.0095 83.6367 89.914 83.4438Z" fill="#D68193"/>
<path d="M90.8312 78.0209L91.1896 78.5654L91.4755 80.3018C89.3224 80.4705 89.8188 81.6717 89.914 83.4438C88.9306 82.0458 89.7716 79.2761 90.8312 78.0209Z" fill="#C34F6D"/>
<path d="M79.7568 94.7899C81.3939 94.8483 84.6584 93.0885 86.227 93.8209C85.2015 94.2823 83.3133 94.9271 82.2112 94.941C81.3903 95.0244 80.5614 94.9734 79.7568 94.7899Z" fill="#8F1439"/>
<path d="M64.665 75.6417C64.7407 75.2112 64.7699 74.186 65.118 73.996C68.2135 72.3063 73.2368 73.4081 76.3461 74.1144C76.6642 74.4272 77.4495 75.1618 77.7122 75.4681C78.3713 76.099 81.2076 79.1962 81.4214 79.8836C80.6793 79.623 78.7709 78.7216 78.5169 77.9466C78.7941 77.8735 79.4537 78.2321 79.785 78.3743L79.8497 78.2784C79.4481 77.9572 78.4568 76.3284 77.4879 75.8703C76.6029 75.3692 76.4093 75.5547 75.5089 75.2765C72.6949 74.4068 69.6225 73.7359 66.6836 74.2971C65.6531 74.494 65.2351 75.1309 64.9962 76.0619L64.8847 76.0753L64.665 75.6417Z" fill="#A12947"/>
<path d="M75.5474 73.5408C75.8605 73.5392 75.8846 73.5501 76.1539 73.4085C76.1546 73.0998 76.1472 73.063 76.2385 72.7729C76.7109 72.3084 81.0225 72.2286 81.5066 72.5485L81.4205 72.5602C80.2998 72.7068 77.7251 72.5266 76.9492 73.0112C76.5528 73.7592 77.1951 74.175 77.7175 74.7203C79.1326 76.239 80.0758 77.3865 81.3773 79.0357C81.6321 79.4424 82.5074 80.1839 82.5826 80.4181C82.1441 80.2674 81.6919 80.1938 81.4213 79.8836C81.2075 79.1962 78.3712 76.099 77.7121 75.4681C77.4494 75.1618 76.6641 74.4272 76.346 74.1144C76.0779 73.926 75.8116 73.7348 75.5474 73.5408Z" fill="#41010F"/>
<path d="M77.7178 74.7203C79.8511 73.8127 81.7896 77.3189 81.5511 78.7844L81.3776 79.0357C80.0761 77.3865 79.1328 76.239 77.7178 74.7203Z" fill="#C34F6D"/>
<path d="M66.5398 75.5462C67.4917 75.7863 73.3915 80.2922 73.0946 81.7334L72.9886 81.7096C72.3734 79.9023 68.4242 77.1118 66.816 75.9066L66.6544 75.9704L66.6258 76.378C67.5939 76.8772 67.1573 76.8342 67.6172 77.6042C68.3897 78.8977 69.5706 80.43 70.8052 81.3097C71.0233 81.4652 72.5185 81.9072 72.8858 82.0237L72.8719 82.169C70.9201 82.7915 66.0096 77.0285 66.5398 75.5462Z" fill="#D68193"/>
<path d="M46.3756 72.433L46.4677 72.4406C48.6182 72.5997 51.319 72.0985 53.5201 71.9834C60.3243 71.6277 85.9198 70.0644 90.1392 74.8128C90.7076 75.4526 91.3129 76.3012 91.7019 77.0619C91.7451 77.8617 91.8043 78.0228 91.1897 78.5654L90.8312 78.0209C90.0481 76.0359 88.1184 74.8346 86.3512 73.9136C84.7502 73.2035 83.2462 72.7309 81.5068 72.5485C81.0227 72.2286 76.7112 72.3084 76.2387 72.7729C76.1474 73.063 76.1548 73.0998 76.1542 73.4085C75.8849 73.5501 75.8607 73.5392 75.5476 73.5408C75.8118 73.7348 76.0781 73.926 76.3463 74.1144C73.2369 73.4081 68.2137 72.3063 65.1181 73.996C64.77 74.186 64.7409 75.2112 64.6652 75.6417L64.8848 76.0753C62.4415 75.4295 55.5428 74.8502 52.9509 74.859C51.2605 74.7787 49.569 74.7213 47.8769 74.6868C45.6902 74.761 43.509 74.6885 41.3261 74.6975C40.5495 74.7008 38.4902 74.6597 37.8126 74.8131C36.3155 74.7973 34.8185 74.8496 33.3261 74.9699L32.907 74.899L32.9053 74.7552C33.4841 74.2622 35.6938 73.8726 36.4652 73.8231C40.0709 73.1008 42.7495 72.7749 46.3756 72.433Z" fill="#020202"/>
<path d="M63.5624 73.6174C64.7754 72.3013 67.0489 72.4494 68.7201 72.4849C71.0124 72.5336 73.5824 72.1947 75.5471 73.5408C75.8113 73.7348 76.0776 73.926 76.3458 74.1144C73.2364 73.4081 68.2132 72.3063 65.1176 73.996C64.7695 74.186 64.7404 75.2112 64.6647 75.6417C64.4809 75.629 63.7877 75.2338 63.5772 75.1222C63.5315 74.7072 63.558 74.0529 63.5624 73.6174Z" fill="#8F1439"/>
<path d="M33.3261 74.9699L32.907 74.899L32.9053 74.7552C33.4841 74.2622 35.6938 73.8726 36.4652 73.823C37.6184 75.2222 45.8364 74.1373 47.8769 74.6868C45.6902 74.761 43.509 74.6884 41.3261 74.6975C40.5495 74.7008 38.4902 74.6597 37.8126 74.8131C36.3155 74.7973 34.8185 74.8495 33.3261 74.9699Z" fill="#063645"/>
<path d="M76.8654 47.6367C77.6495 47.8151 78.5535 48.1733 79.0888 48.2909C79.5532 47.8616 80.0784 48.2051 80.2906 48.6999L80.1765 48.9647C79.6024 52.6777 79.5763 53.4971 77.6404 56.7627C76.1266 58.6895 75.3845 59.4022 73.347 60.8774L72.9145 60.7069C71.8564 61.1778 71.4842 61.7982 70.2344 62.2146C70.6665 61.524 70.7374 61.4587 71.3672 60.9513C74.2991 58.5892 76.9121 55.4091 77.4146 51.5594C77.6103 50.0604 78.2161 48.8276 76.8654 47.6367Z" fill="#848A8D"/>
<path d="M79.0889 48.2909C79.5533 47.8616 80.0784 48.2051 80.2907 48.6999L80.1765 48.9647C79.6025 52.6777 79.5763 53.4971 77.6405 56.7626C76.1267 58.6895 75.3845 59.4022 73.3471 60.8774L72.9146 60.7069C74.6844 59.2437 75.6496 58.4504 76.9181 56.5307C78.2668 54.4895 79.619 50.7213 79.0889 48.2909Z" fill="#063645"/>
<path d="M70.2343 62.2146C71.4841 61.7982 71.8563 61.1778 72.9144 60.7069L73.3469 60.8774C71.5546 62.3162 69.8752 62.8124 67.7429 63.6262C67.3453 63.778 66.2377 64.0508 65.9494 64.2061L65.9763 64.3443C65.6853 64.3975 65.4323 64.4443 65.1437 64.5184L65.1807 64.721C65.4495 64.683 65.9301 64.5547 66.0949 64.669C64.8513 65.2162 62.3785 65.4839 61.0099 65.5984C56.1249 66.0073 52.25 64.8899 47.86 62.8304C47.7652 62.6699 47.6128 61.9595 47.5537 61.7214C49.9821 62.8948 53.1265 63.9646 55.7962 64.3281C56.1318 64.3738 57.7351 64.5198 57.8627 64.6248C60.0884 64.8005 62.9086 64.5407 65.0766 64.0302C66.4518 63.9259 68.9864 62.8114 70.2343 62.2146Z" fill="#83BFCE"/>
<path d="M70.2345 62.2146C71.4843 61.7982 71.8565 61.1778 72.9146 60.7069L73.3471 60.8774C71.5548 62.3162 69.8754 62.8124 67.7431 63.6262C67.3454 63.778 66.2379 64.0508 65.9495 64.2061C63.7761 64.6105 59.9455 65.3443 57.7896 64.7407L57.7929 64.6469L57.8629 64.6248C60.0886 64.8005 62.9087 64.5407 65.0768 64.0302C66.452 63.9259 68.9866 62.8114 70.2345 62.2146Z" fill="#14667A"/>
<path d="M77.6406 56.7626C78.2483 56.5006 79.1395 54.6181 79.3948 53.9727C79.5149 53.6752 79.6067 53.367 79.6692 53.0523L79.7565 53.0249C80.1736 56.1877 78.1793 55.6084 77.8793 57.8233C77.8998 58.3743 77.9941 58.3606 77.7306 58.7072C77.558 58.7284 76.9328 58.8098 76.8255 58.8933C75.5078 59.9192 74.3759 61.0401 72.9243 61.9011C70.8659 63.122 68.4586 64.219 66.0952 64.669C65.9304 64.5547 65.4498 64.683 65.181 64.721L65.144 64.5184C65.4326 64.4443 65.6856 64.3975 65.9766 64.3443L65.9497 64.2061C66.238 64.0508 67.3456 63.778 67.7432 63.6262C69.8756 62.8124 71.5549 62.3162 73.3472 60.8774C75.3847 59.4022 76.1268 58.6895 77.6406 56.7626Z" fill="#55A2B6"/>
<path d="M80.1767 48.9647C82.401 49.2014 80.7972 52.9407 80.2845 54.1229C79.686 55.5027 78.783 56.6388 77.8793 57.8233C78.1793 55.6084 80.1736 56.1877 79.7565 53.0249L79.6692 53.0523C79.6067 53.367 79.5148 53.6752 79.3948 53.9727C79.1395 54.6181 78.2483 56.5006 77.6406 56.7627C79.5765 53.4971 79.6026 52.6777 80.1767 48.9647Z" fill="#2B8197"/>
<path d="M47.8601 62.8304C46.5598 62.7979 43.9526 60.4432 43.5278 59.1763L43.7279 58.9523C44.116 59.3026 44.9448 60.128 45.4402 60.1219L45.4974 60.0751C46.0389 60.5285 46.9955 61.4324 47.5538 61.7214C47.6129 61.9595 47.7653 62.6699 47.8601 62.8304Z" fill="#55A2B6"/>
<path d="M38.8512 48.8587C38.9773 49.4631 38.9835 49.7581 39.0023 50.3808C39.1846 56.06 41.1822 60.0066 46.4794 62.6891C46.8566 62.8802 47.9172 63.2008 48.0958 63.4766C47.7864 64.363 47.455 64.2872 47.4494 65.4036C47.4462 66.0553 47.3046 67.0306 47.1417 67.662C46.9148 68.5371 46.6281 69.3957 46.2834 70.2316C46.0729 70.7351 45.4768 71.865 45.4025 72.3044C45.7631 72.3142 46.0466 72.2912 46.3752 72.433C42.7492 72.7749 40.0705 73.1008 36.4649 73.823C35.6935 73.8726 33.4837 74.2622 32.9049 74.7552L32.9067 74.899L33.3257 74.9699C33.8641 75.0389 34.6234 75.1696 35.1429 75.1101C36.4933 76.4159 37.3364 79.1111 38.2852 80.7957C42.6961 88.6276 50.4333 94.904 58.3632 98.9396C59.0801 99.3044 59.1518 99.7465 59.9114 99.971C59.3996 100.045 55.2435 99.7407 54.8208 99.587L53.968 99.7582C52.3034 99.6623 49.5278 99.1036 47.9808 99.2708C47.3609 99.3391 46.9562 99.3615 46.3614 99.5769C46.0113 99.7249 42.9866 101.298 43.0658 101.278C41.9175 102.068 41.2867 102.534 40.2709 103.485C38.3826 106.535 40.5064 108.068 38.8529 111.698C37.4736 112.532 36.5657 112.939 34.9486 112.352C33.3997 111.899 31.3911 110.604 30.3413 109.417C29.1592 108.376 28.0351 106.624 28.1099 104.98C28.1525 104.044 28.6427 103.589 29.3138 103C31.0014 101.769 34.0102 101.699 35.0316 100.928C36.0926 100.128 36.9181 94.7546 37.0294 93.2793C36.3818 89.8833 34.735 87.5228 32.6791 84.8366L31.741 83.6597C30.8664 82.2549 29.6346 80.367 28.9069 78.9256C26.8204 74.7922 25.164 70.1945 23.4666 65.8778C22.9321 64.8869 22.238 63.5365 21.5308 62.6976L19.9679 61.4028C19.7514 61.3174 19.1636 60.9312 18.9336 60.7871C16.938 60.1959 16.6523 58.6705 13.9717 59.6938C14.1009 58.7801 15.4977 59.1634 15.9328 58.7561C16.1382 57.9424 16.0324 54.9555 16.021 53.9539L17.1147 53.7764C18.0418 53.5446 20.0907 52.6508 21.0362 52.2535L21.4719 52.0137C22.2639 52.7342 25.5624 57.4087 26.1063 58.3963C26.1071 58.4053 27.4681 62.1956 27.4869 62.224C28.1561 62.529 30.2261 60.5679 30.8528 60.2301C31.0641 60.1162 31.1837 59.4104 31.3889 59.1402L31.4851 59.1381C31.912 59.1199 31.7282 58.3121 32.0682 57.8236C33.2261 56.1602 34.4754 54.8807 35.5016 53.1046C35.9445 52.338 36.8201 49.3581 36.9345 49.2111C37.0398 49.3698 37.1447 49.8401 37.2029 50.0588C37.676 51.8384 36.3812 51.5435 37.9456 52.946C37.7675 53.0773 37.8294 52.9961 37.7436 53.1904C38.0662 53.708 37.9436 53.6672 38.4219 53.9377C38.3996 52.4228 38.3509 50.2726 38.8512 48.8587Z" fill="#77C7D7"/>
<path d="M37.0294 93.2793C37.643 94.8842 36.4602 96.8206 36.74 97.8025L36.8047 97.7922C36.8694 97.43 37.0246 97.1814 37.129 96.8298L37.3513 96.9951C37.365 97.318 37.3857 97.5487 37.4245 97.868C38.1773 98.5239 38.0155 98.3444 38.247 99.2866C37.9297 100.216 37.1757 101.091 37.1324 101.379C37.448 101.408 37.5558 101.336 37.8531 101.216C37.9274 100.925 40.0076 98.9901 40.3591 98.6989C41.5996 97.6714 43.7157 98.7154 45.3584 99.0169C45.7112 99.1846 46.068 99.325 46.3615 99.5769C46.0114 99.7249 42.9866 101.298 43.0658 101.278C41.9176 102.068 41.2867 102.534 40.2709 103.485C38.3826 106.535 40.5065 108.068 38.853 111.698C37.4736 112.532 36.5658 112.939 34.9487 112.352C33.3997 111.899 31.3912 110.604 30.3414 109.417C29.1593 108.376 28.0352 106.624 28.11 104.98C28.1526 104.044 28.6427 103.589 29.3139 103C31.0015 101.769 34.0103 101.699 35.0317 100.928C36.0927 100.128 36.9181 94.7546 37.0294 93.2793Z" fill="#5EAFC6"/>
<path d="M40.8614 102.518C40.6774 102.8 40.1088 103.274 40.1189 103.469L40.2709 103.485C38.3826 106.535 40.5065 108.068 38.853 111.698C37.4737 112.532 36.5658 112.939 34.9487 112.352C34.0804 111.116 33.7697 110.53 32.7188 109.223C33.2502 108.688 33.4699 108.543 33.4816 107.745C33.5106 105.776 34.2906 105.057 36.115 104.362L36.466 104.049L35.9366 103.744C37.07 103.34 38.9689 102.77 40.138 102.735C40.2879 102.645 40.6738 102.565 40.8614 102.518Z" fill="#065468"/>
<path d="M35.9367 103.744C37.0701 103.34 38.969 102.77 40.138 102.735C39.8296 104.012 37.8174 104.005 36.7595 104.452C36.3073 104.643 35.859 105.012 35.4363 104.988L35.436 104.856C35.6716 104.714 35.9567 104.575 36.1151 104.362L36.466 104.049L35.9367 103.744Z" fill="#187085"/>
<path d="M37.8534 101.216C37.9277 100.925 40.0079 98.9901 40.3593 98.6989C41.5999 97.6714 43.716 98.7154 45.3586 99.0169C45.7115 99.1846 46.0683 99.325 46.3617 99.5769C46.0116 99.7249 42.9869 101.298 43.0661 101.278C41.9178 102.068 41.287 102.534 40.2712 103.485L40.1192 103.469C40.1091 103.274 40.6777 102.8 40.8617 102.518C40.6741 102.565 40.2881 102.645 40.1382 102.735C38.9692 102.77 37.0703 103.34 35.9368 103.744C35.2257 103.461 33.3726 104.248 32.9126 104.06L32.9928 103.813C34.5879 102.994 36.9636 102.792 37.9429 101.622L37.8534 101.216Z" fill="#24879C"/>
<path d="M40.8613 102.518C40.8889 102.016 40.8144 102.171 41.0802 101.846C41.6262 101.689 42.6332 101.29 43.0657 101.278C41.9174 102.068 41.2866 102.534 40.2708 103.485L40.1188 103.469C40.1087 103.274 40.6773 102.8 40.8613 102.518Z" fill="#187085"/>
<path d="M32.7189 109.223C32.5398 109.034 32.366 108.841 32.1976 108.643C31.2841 107.56 30.5133 106.041 30.548 104.595C30.5697 103.693 31.8965 102.836 32.701 102.966C32.8096 103.219 32.4337 103.115 32.455 103.546C32.7459 103.595 32.7571 103.619 32.9927 103.813L32.9125 104.06C33.3725 104.248 35.2256 103.461 35.9367 103.744L36.4661 104.049L36.1152 104.362C34.2907 105.057 33.5107 105.776 33.4817 107.745C33.47 108.543 33.2504 108.688 32.7189 109.223Z" fill="#157D94"/>
<path d="M29.3139 103C29.3897 104.221 29.4252 105.596 29.533 106.807C29.588 107.424 30.5163 108.748 30.3414 109.417C29.1593 108.376 28.0352 106.624 28.11 104.98C28.1526 104.044 28.6427 103.589 29.3139 103Z" fill="#83BFCE"/>
<path d="M21.0362 52.2535C21.2959 52.8044 22.0283 53.4452 22.0602 53.5215C22.3824 54.2926 24.0568 57.2487 24.0974 57.8545C23.9145 58.0358 23.8636 58.1122 23.7773 58.3554C23.6679 58.2934 23.5609 58.207 23.4544 58.2072C23.7096 58.8079 24.0563 59.4399 23.8396 60.0512C23.4466 59.3646 23.4194 59.9459 23.3957 59.4436L23.7077 58.9553C23.4517 58.7289 23.2542 58.5414 23.0131 58.2989C22.5875 58.5058 21.7895 60.2564 21.5697 60.7541C21.8914 61.1449 21.9945 60.719 22.5839 61.1329L22.895 61.163C22.8777 61.5694 21.9316 62.565 21.5308 62.6976L19.9679 61.4028C19.7514 61.3174 19.1636 60.9312 18.9336 60.7871C16.938 60.1959 16.6523 58.6705 13.9717 59.6938C14.1009 58.78 15.4977 59.1634 15.9328 58.7561C16.1382 57.9424 16.0324 54.9555 16.021 53.9539L17.1147 53.7764C18.0418 53.5446 20.0907 52.6508 21.0362 52.2535Z" fill="#5EAFC6"/>
<path d="M16.021 53.9539L17.1147 53.7764C17.3624 54.1434 17.9266 55.0284 18.2281 55.2852C19.815 56.6373 21.7217 57.5807 20.8414 60.0878C20.5282 60.7166 20.3307 60.8565 19.9679 61.4028C19.7514 61.3174 19.1636 60.9312 18.9336 60.7871C16.938 60.1959 16.6523 58.6705 13.9717 59.6938C14.1009 58.78 15.4977 59.1634 15.9328 58.7561C16.1382 57.9424 16.0324 54.9555 16.021 53.9539Z" fill="#22748A"/>
<path d="M18.9336 60.7871C19.2744 60.746 19.1705 60.7597 19.5288 60.919C20.1874 60.682 20.3632 59.8927 20.7374 59.3271L20.8413 60.0878C20.5282 60.7166 20.3306 60.8565 19.9678 61.4028C19.7513 61.3174 19.1635 60.9312 18.9336 60.7871Z" fill="#3192AA"/>
<path d="M32.6792 84.8366L32.9175 84.8262C33.6884 85.4161 34.4802 87.1373 34.9398 87.4233C35.5005 87.3208 35.3465 87.3283 35.8598 87.624C37.4971 88.567 38.5208 90.293 39.9423 91.4458L40.0368 91.3932C39.3517 89.9021 38.8854 89.7535 38.1136 87.8099C38.5683 88.3596 40.4047 90.4825 40.636 90.8797C40.4481 91.321 40.327 91.3728 40.4468 91.7361C40.9191 91.9589 40.8126 91.8251 41.0068 92.2455C40.9493 92.5999 41.0176 92.5307 40.8015 92.703C40.6194 92.4348 40.6282 92.3753 40.5705 92.0464C40.4315 92.4288 40.3503 92.8473 40.2601 93.2456C40.6922 93.9243 41.9918 94.6144 42.7112 94.9604C41.7853 94.7018 41.2316 94.5207 40.3422 94.1599C40.9065 95.4571 44.1646 98.2578 45.3584 99.0169C43.7158 98.7154 41.5996 97.6714 40.3591 98.6989C40.0077 98.9901 37.9275 100.925 37.8532 101.216C37.5559 101.336 37.4481 101.408 37.1324 101.379C37.1758 101.091 37.9297 100.216 38.2471 99.2866C38.0155 98.3443 38.1774 98.5239 37.4245 97.868C37.3858 97.5487 37.365 97.318 37.3513 96.9951L37.1291 96.8298C37.0246 97.1814 36.8695 97.43 36.8048 97.7922L36.74 97.8025C36.4603 96.8206 37.643 94.8842 37.0295 93.2793C36.382 89.8833 34.7351 87.5228 32.6792 84.8366Z" fill="#97DAEC"/>
<path d="M37.3512 96.9951C37.5393 96.6219 38.1014 96.7078 37.9666 95.962C37.8133 96.0021 37.8212 96.0061 37.6649 95.9871C37.7583 95.662 37.7896 95.2428 37.8498 94.8892C38.2543 95.008 38.1867 95.0853 38.5153 95.4892C39.4372 95.158 39.5124 95.3934 40.3089 95.2689L39.9125 95.226C39.778 95.0315 39.7042 94.8929 39.5922 94.6842C39.4175 94.6735 39.2807 94.674 39.1078 94.6763L38.9721 94.4268C39.172 94.2378 39.4983 94.3204 39.9026 94.1903C39.6907 94.039 39.6679 94.0363 39.5911 93.7995C40.012 93.8194 39.9403 93.864 40.3421 94.1599C40.9064 95.4571 44.1645 98.2578 45.3583 99.0169C43.7156 98.7154 41.5995 97.6714 40.359 98.6989C40.0075 98.9901 37.9274 100.925 37.8531 101.216C37.5557 101.336 37.4479 101.408 37.1323 101.379C37.1757 101.091 37.9296 100.216 38.247 99.2866C38.0154 98.3443 38.1773 98.5239 37.4244 97.868C37.3857 97.5487 37.3649 97.318 37.3512 96.9951Z" fill="#4CB1C7"/>
<path d="M23.4668 65.8778C23.9787 65.6361 24.1014 65.2417 24.837 65.2483C25.2598 65.2521 25.5059 65.4483 25.7993 65.7431C26.7685 66.8985 26.8156 69.3608 27.286 70.849C28.1804 73.6791 29.1052 76.313 30.2446 79.0468C30.6622 80.0487 32.0798 82.4993 32.2489 83.2839C32.1965 83.3437 32.0764 83.4889 32.0234 83.5331C32.6463 83.5873 32.824 84.2966 32.9176 84.8262L32.6793 84.8366L31.7412 83.6597C30.8666 82.2549 29.6348 80.367 28.9071 78.9256C26.8206 74.7921 25.1642 70.1945 23.4668 65.8778Z" fill="#97DAEC"/>
<path d="M47.9807 99.2708C47.3608 99.3091 46.9949 99.0224 46.5488 98.6292C45.7936 97.9635 45.2117 97.8066 45.4477 96.7188C46.2444 96.4534 48.8242 99.0147 50.0468 99.1138C51.5925 99.2391 53.2586 99.4715 54.8207 99.587L53.9679 99.7582C52.3034 99.6623 49.5277 99.1036 47.9807 99.2708Z" fill="#83BFCE"/>
<path d="M40.0449 64.6825C40.5691 64.3667 41.0856 63.9329 41.6299 63.9975C41.9185 64.3518 41.8263 64.3928 41.8621 64.9493C41.9774 64.437 41.8979 64.4063 42.214 64.0942C42.9432 64.1944 44.0129 66.315 43.9832 66.9344L43.849 67.038C43.5581 66.9958 43.6666 67.0505 43.4546 66.7989C42.1645 67.5525 40.7815 65.5169 40.0449 64.6825Z" fill="#97DAEC"/>
<path d="M41.8623 64.9493C41.9776 64.437 41.898 64.4063 42.2141 64.0942C42.9433 64.1944 44.013 66.315 43.9834 66.9344L43.8492 67.038C43.5582 66.9958 43.6668 67.0505 43.4548 66.7989C42.5925 65.9155 42.5415 65.9866 41.8623 64.9493Z" fill="#14667A"/>
<path d="M38.435 66.8378C38.2268 66.832 38.0007 66.8133 37.7913 66.8005C37.335 66.4875 36.9413 66.0358 37.2832 65.5083C37.7382 65.4386 37.648 65.4905 38.1406 65.7394C38.2229 66.0317 38.3871 66.5622 38.435 66.8378Z" fill="#97DAEC"/>
<path d="M38.1406 65.7394L38.4632 65.6898C38.8703 66.0357 38.881 66.4828 38.8226 66.9728L38.6529 67.0567L38.4351 66.8378C38.3871 66.5622 38.2229 66.0317 38.1406 65.7394Z" fill="#187085"/>
<path d="M48.6628 15.7346C49.7782 17.0191 48.7985 20.3177 48.787 21.9525C48.7844 22.3265 48.7451 23.3884 48.6278 23.6987C48.2533 23.611 48.0533 23.4845 47.7783 23.6238C46.8854 25.9478 46.7236 28.3252 46.0122 30.7499C45.5937 32.1765 44.1864 34.7567 44.0632 35.9095C47.1206 32.5129 51.5279 29.1954 56.0352 28.1738L55.9608 28.2201C55.4178 28.5514 53.6395 29.2465 52.9095 29.5603C50.6796 30.5187 46.5359 33.1549 45.1176 35.1126C43.3659 36.8904 41.6669 39.5231 40.7558 41.8753C40.5669 42.3628 40.1682 44.1252 40.0257 44.4166L39.8351 44.2689C39.149 44.6501 38.6112 48.1025 38.8514 48.8587C38.3512 50.2726 38.3998 52.4228 38.4221 53.9377C37.9438 53.6672 38.0664 53.708 37.7438 53.1904C37.8296 52.9961 37.7678 53.0773 37.9458 52.946C36.3814 51.5435 37.6762 51.8384 37.2031 50.0588C37.1449 49.8401 37.0401 49.3698 36.9347 49.2111C36.8203 49.3581 35.9447 52.338 35.5018 53.1046C34.4756 54.8807 33.2264 56.1602 32.0684 57.8236C31.7284 58.3121 31.9123 59.1199 31.4853 59.1381L31.3891 59.1402C31.1839 59.4104 31.0643 60.1162 30.853 60.2301C30.2263 60.5679 28.1563 62.529 27.4871 62.224C27.4683 62.1956 26.1073 58.4053 26.1066 58.3963C25.5626 57.4087 22.2641 52.7342 21.4722 52.0137C21.9999 51.7839 22.7569 51.2785 23.2579 50.9566C23.6652 50.6126 24.1504 49.6612 24.4379 49.1613C25.5759 47.7233 27.9391 43.4607 28.9051 41.686C29.9437 39.2918 33.4538 35.1584 35.0368 33.0134C35.6286 32.2117 38.2813 29.5638 38.4708 28.8969C37.8552 28.8458 37.7302 28.7045 37.2031 28.364C31.9408 25.8669 35.5524 19.4939 40.2479 18.9944C42.574 18.3734 44.9657 20.5007 44.3905 22.7764L44.5983 22.8533C45.9113 22.197 48.165 17.276 48.6628 15.7346Z" fill="#BCE8F1"/>
<path d="M40.2476 18.9944C42.5736 18.3734 44.9654 20.5007 44.3902 22.7764C44.1371 22.9918 43.949 23.2286 43.7368 23.4822C42.5775 24.8687 40.8311 26.0868 39.7341 27.4824C39.3354 27.9041 38.5813 28.4457 38.4705 28.8969C37.8548 28.8458 37.7298 28.7045 37.2028 28.364C31.9404 25.8669 35.552 19.4939 40.2476 18.9944Z" fill="#187085"/>
<path d="M37.2028 28.364C31.9404 25.8669 35.552 19.4939 40.2476 18.9944L40.3722 19.1633C40.2301 19.9127 37.1178 24.1469 36.5651 25.0917C36.237 25.6523 37.8687 26.6645 38.4259 26.711C38.7914 26.1469 38.3198 25.3805 38.5968 25.071C38.9736 25.2879 39.0049 25.4989 39.149 25.9014C39.3666 26.4421 39.5648 26.9217 39.7341 27.4824C39.3354 27.9041 38.5813 28.4457 38.4705 28.8969C37.8548 28.8458 37.7298 28.7045 37.2028 28.364Z" fill="#55A2B6"/>
<path d="M39.1493 25.9014C39.3669 26.4421 39.5651 26.9217 39.7345 27.4824C39.3357 27.9041 38.5816 28.4457 38.4708 28.8969C37.8551 28.8458 37.7301 28.7045 37.2031 28.364C37.6633 28.3255 38.3147 28.3333 38.7906 28.3242C38.8118 27.6867 38.752 26.2836 39.1493 25.9014Z" fill="#83BFCE"/>
<path d="M24.438 49.1613C25.576 47.7233 27.9392 43.4607 28.9052 41.686C29.1446 41.9629 29.6001 42.4746 29.5198 42.8576C29.2359 44.2125 28.4452 45.6646 27.765 46.8539C27.2158 47.8142 26.3361 49.5682 25.1043 49.5948C24.8841 49.5979 24.622 49.3135 24.438 49.1613Z" fill="#E3F6F9"/>
<path d="M21.4722 52.0137C21.9999 51.7839 22.7569 51.2785 23.2579 50.9566C23.1105 51.2623 23.0459 51.3502 23.0633 51.6846C23.293 51.9008 23.3709 51.9048 23.6786 52.0105C23.845 52.2534 23.938 52.2966 23.9322 52.5492L23.8493 52.6432C23.6357 52.8873 23.5079 52.9819 23.4743 53.2968C23.5506 53.6364 24.3555 54.3786 24.6526 54.7658C25.152 55.4164 24.965 55.9219 25.2115 56.4028C25.6586 57.2756 25.8912 57.3352 26.1066 58.3963C25.5626 57.4087 22.2641 52.7342 21.4722 52.0137Z" fill="#E3F6F9"/>
<path d="M31.389 59.1402C31.3507 58.648 31.2292 57.8782 31.5859 57.4937C31.937 57.7863 31.6848 58.8178 31.4853 59.1381L31.389 59.1402Z" fill="#83BFCE"/>
<path d="M9.71745 50.7148C12.1039 50.2098 13.4366 53.493 16.021 53.9539C16.0325 54.9555 16.1383 57.9424 15.9329 58.7561C15.4977 59.1634 14.101 58.78 13.9717 59.6938C12.9429 60.3387 10.284 62.361 9.18888 61.5898C6.03069 59.5556 6.9559 55.2627 8.04359 52.2428C8.3559 51.3758 8.88002 51.004 9.71745 50.7148Z" fill="#063645"/>
<path d="M9.18888 61.5898C6.03069 59.5556 6.9559 55.2627 8.04359 52.2428C8.3559 51.3758 8.88002 51.004 9.71745 50.7148C9.82502 51.0944 9.30665 53.4391 9.1935 54.0317C8.68731 56.683 8.88539 58.9226 9.18888 61.5898Z" fill="#5EAFC6"/>
</svg>
