<svg width="113" height="99" viewBox="0 0 113 99" fill="none" xmlns="http://www.w3.org/2000/svg">
<path d="M53.2364 19.6308C53.2563 19.6242 60.7966 20.2975 60.7566 20.2711C61.746 20.2094 63.0174 20.1555 64.0033 20.2797C64.0994 20.2289 64.245 20.1668 64.353 20.1632C66.7927 20.0794 69.0013 20.0122 71.411 19.565C71.5798 20.4765 71.5281 22.3901 71.5244 23.3784L71.517 29.1783L71.5436 42.6228C71.5402 44.2983 71.6441 45.9035 71.5803 47.5942C76.5718 47.3603 81.5692 47.2827 86.5655 47.3614C87.4956 47.6846 89.2684 47.6847 90.2025 47.386C92.9121 47.3288 95.6225 47.3199 98.3327 47.3595C100.188 47.3687 102.278 47.3326 104.117 47.4031C105.503 47.4119 109.672 47.2747 110.688 47.9084C111.457 49.2297 111.253 56.2163 111.313 58.1408C111.398 60.8763 111.496 64.1792 111.463 66.9328C112.484 66.896 115.792 67.2546 116.881 67.4143C118.694 67.2998 124.384 68.4596 125.777 69.8959C126.838 70.9907 126.925 72.0714 127.004 73.4987C127.268 78.2368 126.492 82.6272 123.307 86.3159C120.911 89.0915 116.571 89.9442 113.062 90.0811C108.936 90.242 104.383 89.8187 100.424 88.57C100.152 88.4844 99.0711 88.1362 98.8727 87.9863C96.6962 87.5452 94.2549 85.1846 92.7306 83.6758L92.3318 83.8003C92.0811 83.8771 92.0113 83.8458 91.9113 84.0269C92.3629 85.0614 92.4289 86.2398 92.0169 87.3029C91.3851 88.9336 89.9203 89.8035 88.3912 90.4627C77.1091 95.3269 47.7019 95.1786 36.2774 90.602C34.9028 90.0514 33.1481 89.18 32.5383 87.7371C32.1984 86.9327 32.1595 85.8528 32.2463 84.9893C34.4442 84.9131 36.8193 84.6336 39.027 84.4893C40.2626 84.4085 41.7772 84.1836 42.9973 84.25L43.1973 84.3103L43.6139 84.1079C41.459 81.1073 42.1829 77.1805 45.4293 75.2943C46.9126 74.6345 48.9825 74.2311 50.3216 75.3709C49.9845 74.6361 50.0337 73.3457 50.6816 72.8064C50.4845 72.5916 50.3048 72.3613 50.1443 72.118C49.2194 70.7151 48.9888 68.9656 49.5185 67.371C49.2442 67.5402 43.4562 67.3186 42.9258 67.1502C43.5738 66.2568 44.9287 64.1169 45.5309 63.1299C47.7943 59.3799 50.5778 55.7671 52.1581 51.6643C53.1615 49.0592 53.0651 46.4653 53.0704 43.746L53.0675 36.2206C53.0694 35.696 53.0942 35.1719 53.1093 34.6476C53.2529 29.6463 53.1161 24.6291 53.2364 19.6308Z" fill="#9C80D4"/>
<path d="M71.5803 47.5942C76.5718 47.3603 81.5692 47.2827 86.5655 47.3614C87.4956 47.6846 89.2684 47.6847 90.2026 47.386C92.9121 47.3288 95.6225 47.3199 98.3328 47.3595C100.188 47.3687 102.278 47.3326 104.117 47.4031C105.503 47.4119 109.672 47.2747 110.688 47.9084C111.457 49.2297 111.253 56.2163 111.313 58.1408C111.398 60.8763 111.496 64.1792 111.463 66.9328C112.485 66.896 115.792 67.2546 116.881 67.4143C118.695 67.2998 124.384 68.4596 125.777 69.8959C126.838 70.9907 126.925 72.0714 127.004 73.4987C127.268 78.2368 126.492 82.6272 123.307 86.3159C120.911 89.0915 116.571 89.9442 113.062 90.0811C108.936 90.242 104.383 89.8187 100.424 88.57C100.152 88.4844 99.0711 88.1362 98.8728 87.9863C96.6963 87.5452 94.2549 85.1846 92.7307 83.6758L92.3318 83.8003C92.2471 83.8032 92.0117 83.8137 91.9653 83.771C91.4841 83.3295 90.7768 81.5967 90.5403 81.0366C90.5631 80.5891 89.5834 79.2937 89.0809 79.073C88.7069 78.7289 87.5875 76.6553 87.2589 76.1074C86.8217 75.3148 85.9135 74.4846 85.4874 73.7253C83.0608 69.4014 80.3836 65.2402 77.7747 61.0238C77.1424 59.9795 76.4966 58.9433 75.8377 57.9154C75.1572 56.8732 74.2806 55.634 73.7489 54.5412C73.08 53.1667 72.4183 51.4831 72.0568 49.9978C71.8548 49.1676 71.8924 48.6157 71.6129 47.7665L71.5803 47.5942Z" fill="#9C6BE4"/>
<path d="M101.153 66.8974C104.37 66.9931 107.564 66.6042 110.76 67.0574C110.985 67.0892 111.155 67.421 111.346 67.5061C111.374 68.2807 111.4 68.9599 111.364 69.7332C112.383 69.725 113.402 69.6974 114.42 69.6503C114.077 69.5682 112.09 69.6062 111.513 69.5628C111.622 68.8654 111.474 68.075 111.627 67.4111C111.828 66.5425 115.961 67.9712 116.881 67.4143C118.695 67.2998 124.384 68.4596 125.777 69.8959C126.838 70.9907 126.925 72.0714 127.004 73.4987C127.268 78.2368 126.492 82.6272 123.308 86.3159C120.912 89.0915 116.571 89.9442 113.062 90.0811C108.936 90.242 104.383 89.8187 100.424 88.57C100.152 88.4844 99.0711 88.1362 98.8728 87.9863C96.6963 87.5452 94.255 85.1846 92.7307 83.6758L92.3319 83.8003C92.2472 83.8032 92.0117 83.8137 91.9653 83.771C91.4841 83.3295 90.7769 81.5967 90.5403 81.0366C90.7216 81.2967 90.7524 81.3585 91.058 81.4857L91.197 81.4087C91.4207 80.6918 90.5902 79.424 90.7355 78.8691C90.1106 75.8987 90.1179 73.3237 90.1574 70.332C90.2637 69.9788 90.428 69.466 90.649 69.1859C92.035 67.4289 96.3844 67.2809 98.5581 67.0172C99.1963 66.882 100.452 66.9035 101.153 66.8974Z" fill="#8696E6"/>
<path d="M90.1574 70.332C90.5881 71.0117 90.1996 71.3742 90.4975 71.9808C90.5427 72.0728 91.755 72.2439 91.6876 72.6467L91.3603 72.6484C91.4943 73.317 91.7516 73.8542 91.8921 74.4882C92.7698 78.4523 94.8237 82.0064 95.6296 86.009C95.7118 86.4172 98.4339 87.5757 98.8728 87.9863C96.6963 87.5452 94.255 85.1846 92.7307 83.6758L92.3319 83.8003C92.2472 83.8032 92.0117 83.8137 91.9653 83.771C91.4841 83.3295 90.7769 81.5967 90.5403 81.0366C90.7216 81.2968 90.7524 81.3586 91.058 81.4857L91.197 81.4087C91.4207 80.6918 90.5902 79.424 90.7355 78.8691C90.1106 75.8987 90.1179 73.3237 90.1574 70.332Z" fill="#4B5BCA"/>
<path d="M90.7354 78.8691C91.543 80.7096 91.5306 81.7528 92.7307 83.6758L92.3318 83.8003C92.2471 83.8032 92.0117 83.8137 91.9653 83.771C91.4841 83.3295 90.7768 81.5967 90.5403 81.0367C90.7215 81.2968 90.7524 81.3586 91.058 81.4857L91.197 81.4087C91.4206 80.6918 90.5901 79.424 90.7354 78.8691Z" fill="#66299C"/>
<path d="M98.5579 67.0172C99.1961 66.882 100.451 66.9035 101.153 66.8974C101.19 67.3319 101.296 68.0036 101.151 68.3881C100.743 68.7663 99.5301 68.5423 98.8736 68.5589C98.7379 68.0067 98.631 67.5854 98.5579 67.0172Z" fill="#9C80D4"/>
<path d="M99.8883 73.244C100.449 73.2343 101.349 73.3316 101.691 73.8289C101.725 74.2001 101.738 74.0671 101.545 74.4167C100.88 74.2007 99.974 74.3732 99.5784 73.8367C99.6332 73.485 99.6477 73.5557 99.8883 73.244Z" fill="#7B8BE6"/>
<path d="M104.117 47.4031C105.503 47.4119 109.672 47.2747 110.688 47.9084C111.457 49.2297 111.253 56.2163 111.313 58.1408C111.398 60.8763 111.496 64.1792 111.463 66.9328C112.484 66.896 115.792 67.2546 116.881 67.4143C115.961 67.9712 111.828 66.5425 111.627 67.4111C111.474 68.075 111.622 68.8654 111.513 69.5628C112.09 69.6062 114.077 69.5682 114.42 69.6504C113.402 69.6974 112.383 69.7251 111.364 69.7332C111.4 68.9599 111.374 68.2807 111.346 67.5061C111.297 66.6515 109.192 66.7289 108.512 66.6817C108.903 66.4429 109.802 66.8378 110.442 66.6237C110.721 66.3613 110.641 66.4777 110.726 66.0816C110.216 65.5176 110.478 65.1669 110.284 64.3536L110.267 64.2875L110.274 64.2869L110.14 64.4225C110.141 64.4263 109.998 61.9926 109.947 61.5967C109.646 59.2367 109.254 56.8291 108.858 54.4834C108.696 53.5265 108.492 51.3454 108.163 50.5312L108.072 50.5396C108.086 50.7903 108.091 50.9012 108.065 51.1503C107.907 50.9176 108.001 49.6246 107.741 49.121L107.571 49.2258C107.489 48.9406 107.592 48.2398 107.624 47.9086C107.445 47.6321 104.646 47.6204 104.117 47.4031Z" fill="#B493E5"/>
<path d="M99.4993 49.1397L100.763 49.0874C100.897 53.8465 100.934 58.6078 100.872 63.3685L100.091 63.2105C99.6601 63.1684 99.0035 63.0234 98.5607 62.9394C98.4211 61.7476 98.4096 59.7664 98.3778 58.5169L98.219 49.1962C98.6416 49.1893 99.0767 49.1611 99.4993 49.1397Z" fill="#B493E5"/>
<path d="M53.2364 19.6308C53.2564 19.6242 60.7966 20.2975 60.7567 20.2711C61.746 20.2094 63.0174 20.1555 64.0034 20.2797C64.0994 20.2289 64.245 20.1668 64.353 20.1632C66.7927 20.0794 69.0013 20.0122 71.4111 19.565C71.5798 20.4765 71.5281 22.3901 71.5244 23.3784L71.5171 29.1783L71.5436 42.6228C71.5403 44.2983 71.6441 45.9035 71.5803 47.5942L71.6128 47.7665C71.2263 47.7599 70.7583 47.7042 70.4378 47.8955C69.9196 48.5297 70.0614 52.6606 70.0724 53.7144C70.0768 54.1346 70.1857 55.3899 70.0813 55.6888C68.7609 55.2788 67.8414 55.6237 66.5424 55.6393C66.4657 55.6402 66.2662 55.4913 66.1936 55.4343C66.0137 55.1836 65.6831 55.0054 65.4215 54.8397C63.5856 53.6762 60.9143 54.0547 59.5435 55.7631C58.1983 57.1924 57.8551 58.1588 57.739 60.0938C57.3559 61.634 59.5085 64.0469 60.6053 64.9507C60.842 64.9181 61.3747 64.918 61.5878 65.0038C61.0752 65.1505 61.1158 65.6933 61.2656 66.1353C60.651 66.9495 60.5888 67.2391 60.1071 68.0659C60.3059 69.1014 60.2019 70.1722 59.8076 71.1502C59.595 71.6774 59.3017 72.1684 58.9382 72.6056C57.9262 73.8225 56.4378 74.5429 54.8555 74.5814C53.2732 74.6199 51.7515 73.9727 50.6816 72.8064C50.4845 72.5916 50.3048 72.3613 50.1443 72.118C49.2194 70.7151 48.9888 68.9656 49.5185 67.371C49.2442 67.5402 43.4562 67.3186 42.9258 67.1502C43.5738 66.2568 44.9287 64.1169 45.5309 63.1299C47.7943 59.3799 50.5778 55.7671 52.1581 51.6643C53.1615 49.0592 53.0651 46.4653 53.0704 43.746L53.0675 36.2206C53.0694 35.696 53.0942 35.1719 53.1094 34.6476C53.2529 29.6463 53.1161 24.6291 53.2364 19.6308Z" fill="#C1AECE"/>
<path d="M64.0033 20.2797C64.0993 20.2289 64.2449 20.1668 64.3529 20.1632C66.7926 20.0794 69.0012 20.0122 71.411 19.565C71.5797 20.4765 71.528 22.3901 71.5243 23.3784L71.517 29.1783L71.5435 42.6228C71.5402 44.2983 71.644 45.9035 71.5802 47.5942L71.6127 47.7665C71.2262 47.7599 70.7582 47.7042 70.4377 47.8955C69.9196 48.5297 70.0613 52.6606 70.0723 53.7144C70.0767 54.1346 70.1856 55.3899 70.0812 55.6888C68.7608 55.2788 67.8413 55.6237 66.5423 55.6393C66.4656 55.6402 66.2661 55.4913 66.1936 55.4343C68.3684 52.3651 68.4137 50.0434 65.6426 47.3137C65.5024 47.2636 65.0499 46.9924 64.8812 46.9036C64.1552 46.5213 63.5793 46.3655 62.7594 46.2251C62.583 46.1973 62.5934 46.2047 62.4554 46.0922C62.683 45.5878 63.7327 45.2937 64.291 44.09C65.0142 42.5304 65.0804 41.3049 64.5401 39.6382C64.42 39.2674 64.3887 39.246 64.5293 38.9722C65.492 37.8258 65.6614 36.0494 65.0736 34.6928C64.6376 34.3586 63.6617 34.4236 62.8508 33.7313L62.8042 33.6909C61.9795 32.9875 61.8851 31.6226 61.4427 31.34L61.662 31.2173C61.7782 30.7936 61.8122 30.5034 61.8683 30.0655C61.262 30.0006 60.8436 29.9013 60.2853 29.6372C59.0656 29.0603 58.1298 28.0162 57.6896 26.7408C56.7715 24.1334 58.1142 21.1764 60.7566 20.2711C61.7459 20.2094 63.0173 20.1555 64.0033 20.2797Z" fill="#C1AECE"/>
<path d="M60.7566 20.2711C61.7459 20.2094 63.0173 20.1555 64.0033 20.2797C65.3084 20.728 66.2824 21.5935 66.8852 22.8488C67.483 24.0732 67.5593 25.4875 67.0965 26.769C66.9579 27.1535 66.6949 27.6134 66.4723 27.9586C64.5099 27.6716 62.759 28.1143 61.8683 30.0655C61.262 30.0006 60.8436 29.9013 60.2853 29.6372C59.0656 29.0603 58.1298 28.0162 57.6896 26.7408C56.7715 24.1334 58.1142 21.1764 60.7566 20.2711Z" fill="#3E4BE3"/>
<path d="M61.8685 30.0655C62.7591 28.1143 64.51 27.6716 66.4725 27.9586C68.4872 29.1571 69.1626 31.0602 67.9863 33.2263C67.8418 33.4923 67.6874 33.691 67.4157 33.8353C67.3055 33.8275 67.2398 33.835 67.1416 33.7926C66.9026 33.5807 66.7357 33.5594 66.4332 33.4784C65.7774 33.6698 65.9597 34.2288 65.8736 34.7784C65.6241 34.7413 65.3202 34.6817 65.0738 34.6928C64.6378 34.3586 63.6619 34.4236 62.8509 33.7313L62.8043 33.691C61.9796 32.9876 61.8852 31.6226 61.4429 31.34L61.6622 31.2173C61.7784 30.7936 61.8123 30.5034 61.8685 30.0655Z" fill="#7B8BE6"/>
<path d="M65.8736 34.7784C65.9597 34.2288 65.7774 33.6698 66.4332 33.4784C66.7357 33.5594 66.9026 33.5807 67.1416 33.7926C66.9183 37.9136 67.1643 42.9397 67.0913 47.1797C66.7534 47.1802 66.0502 47.2305 65.7958 47.0788L65.6428 47.3137C65.5025 47.2636 65.0501 46.9924 64.8813 46.9036C64.1553 46.5213 63.5795 46.3655 62.7596 46.2251C62.5831 46.1973 62.5935 46.2047 62.4556 46.0921C62.6831 45.5878 63.7328 45.2937 64.2911 44.09C65.0144 42.5304 65.0805 41.3049 64.5403 39.6382C64.4201 39.2674 64.3888 39.246 64.5295 38.9722C65.4921 37.8258 65.6615 36.0494 65.0738 34.6928C65.3202 34.6817 65.6241 34.7413 65.8736 34.7784Z" fill="#FAF8FC"/>
<path d="M65.8736 34.7784C65.7864 36.0197 65.8915 37.6684 65.9216 38.9402C65.9613 40.857 65.9538 42.7745 65.8991 44.6909C65.8821 45.232 65.8688 46.6256 65.7958 47.0788L65.6428 47.3137C65.5025 47.2636 65.0501 46.9924 64.8813 46.9036C64.1553 46.5213 63.5795 46.3655 62.7596 46.2251C62.5831 46.1973 62.5935 46.2047 62.4556 46.0922C62.6831 45.5878 63.7328 45.2937 64.2911 44.09C65.0144 42.5304 65.0805 41.305 64.5403 39.6382C64.4201 39.2674 64.3888 39.246 64.5295 38.9722C65.4921 37.8258 65.6615 36.0494 65.0738 34.6928C65.3202 34.6817 65.6241 34.7413 65.8736 34.7784Z" fill="#C1AECE"/>
<path d="M50.6709 65.4045C50.3392 63.7561 51.4731 61.5978 52.8575 60.7178C54.5996 59.6106 55.858 59.7137 57.7389 60.0938C57.3558 61.634 59.5084 64.0469 60.6052 64.9506C60.8419 64.9181 61.3746 64.918 61.5877 65.0038C61.0751 65.1505 61.1157 65.6933 61.2655 66.1353C60.6509 66.9495 60.5887 67.2391 60.107 68.0658C60.3058 69.1014 60.2018 70.1722 59.8075 71.1501C59.5949 71.6774 59.3016 72.1684 58.9381 72.6056C57.9261 73.8225 56.4377 74.5429 54.8554 74.5814C53.2731 74.6199 51.7514 73.9727 50.6815 72.8064C50.4844 72.5916 50.3047 72.3613 50.1442 72.118C49.2193 70.7151 48.9887 68.9656 49.5184 67.371C49.7606 66.642 50.1533 65.9721 50.6709 65.4045Z" fill="#3E4BE3"/>
<path d="M50.671 65.4045C50.3393 63.7561 51.4732 61.5978 52.8576 60.7178C54.5997 59.6106 55.8581 59.7137 57.739 60.0938C57.356 61.634 59.5085 64.0469 60.6053 64.9506C60.8421 64.9181 61.3747 64.918 61.5878 65.0038C61.0752 65.1505 61.1158 65.6933 61.2656 66.1353C60.651 66.9495 60.5888 67.2391 60.1071 68.0658C59.7158 66.0279 58.2077 64.3856 56.2105 63.8223C54.2134 63.2591 52.0694 63.8714 50.671 65.4045Z" fill="#9C80D4"/>
<path d="M62.7595 46.2251C63.5794 46.3655 64.1553 46.5213 64.8813 46.9036C65.05 46.9924 65.5025 47.2636 65.6427 47.3137C68.4138 50.0434 68.3685 52.3651 66.1936 55.4343C66.0137 55.1836 65.6831 55.0054 65.4215 54.8397C63.5856 53.6762 60.9143 54.0547 59.5435 55.7631C58.2148 54.8009 57.3294 53.2275 57.2945 51.5612C57.2681 50.2968 57.8782 48.8997 58.7192 47.9643C59.1084 47.5315 59.6233 47.1742 60.0354 46.7571L60.0714 46.7201C60.3428 46.9933 62.5982 46.5653 62.919 46.336L62.7595 46.2251Z" fill="#7B8BE6"/>
<path d="M58.6902 36.6398C61.3506 36.2229 62.822 37.0977 64.5295 38.9722C64.3889 39.246 64.4201 39.2674 64.5403 39.6382C65.0805 41.3049 65.0144 42.5304 64.2912 44.09C63.7328 45.2937 62.6832 45.5878 62.4556 46.0922C62.5935 46.2047 62.5831 46.1973 62.7596 46.2251L62.9191 46.336C62.5983 46.5653 60.3429 46.9933 60.0714 46.7201L59.2827 46.6914L58.6502 46.5399C58.5902 46.1898 58.6214 44.3858 58.6193 43.952C58.6092 41.9318 58.6808 39.8801 58.6373 37.8623C58.7053 37.5117 58.6889 37.0083 58.6902 36.6398Z" fill="#3E4BE3"/>
<path d="M55.7464 38.1375C55.5675 37.8703 55.5424 37.6333 55.4769 37.3292C54.936 34.8195 56.2594 32.4389 58.6535 31.5591C59.6527 31.1918 60.4058 31.2102 61.4428 31.34C61.8851 31.6226 61.9796 32.9875 62.8043 33.6909L62.8509 33.7313C63.6618 34.4236 64.6377 34.3586 65.0737 34.6928C65.6615 36.0494 65.4921 37.8258 64.5294 38.9722C62.8219 37.0977 61.3505 36.2229 58.6901 36.6398C58.6888 37.0083 58.7053 37.5117 58.6372 37.8623C58.6269 37.5075 58.67 36.9753 58.4645 36.7281C58.1731 36.6608 57.9278 36.8028 57.6342 36.9173L57.5482 37.0029C57.0693 37.1552 56.076 37.7837 55.7464 38.1375Z" fill="#313BD5"/>
<path d="M57.6342 36.9173C57.5378 36.0874 57.6718 34.3409 57.6726 33.4464C57.6729 33.1481 57.7354 33.1137 57.9095 32.9769C58.1698 32.9532 58.3175 32.9226 58.5713 33.0043C58.8528 33.4787 58.7053 35.961 58.6901 36.6398C58.6888 37.0083 58.7052 37.5117 58.6372 37.8623C58.6269 37.5075 58.67 36.9753 58.4645 36.7281C58.1731 36.6608 57.9278 36.8028 57.6342 36.9173Z" fill="#646FD6"/>
<path d="M57.6342 36.9173C57.9278 36.8028 58.1731 36.6608 58.4645 36.7281C58.67 36.9753 58.6269 37.5075 58.6372 37.8623C58.6807 39.8801 58.6091 41.9318 58.6192 43.952C58.6213 44.3858 58.5901 46.1898 58.6501 46.5399C58.3626 46.5182 57.9882 46.3763 57.7031 46.2816L57.6458 46.2371C56.6153 45.8643 55.5653 44.6743 55.1465 43.7017C54.5528 42.3234 54.5772 40.6776 55.2041 39.3128C55.3692 38.9533 55.6888 38.7474 55.8561 38.312L55.7464 38.1375C56.076 37.7837 57.0693 37.1552 57.5481 37.0029L57.6342 36.9173Z" fill="#3E4BE3"/>
<path d="M57.6342 36.9173C57.9278 36.8028 58.173 36.6608 58.4644 36.7281C58.67 36.9753 58.6268 37.5075 58.6371 37.8623C58.6806 39.8801 58.609 41.9318 58.6191 43.952C58.6213 44.3858 58.5901 46.1898 58.65 46.5399C58.3626 46.5182 57.9881 46.3763 57.7031 46.2816L57.6457 46.2371C57.68 45.2939 57.5524 43.4869 57.5747 42.4439C57.5995 41.2737 57.7403 38.0417 57.5481 37.0029L57.6342 36.9173Z" fill="#7774D7"/>
<path d="M57.7031 46.2816C57.9882 46.3763 58.3626 46.5182 58.6501 46.5399L59.2826 46.6914C58.9168 47.2384 58.4297 47.5455 57.8578 47.0792C57.7051 46.738 57.7147 46.6503 57.7031 46.2816Z" fill="#FAF8FC"/>
<path d="M70.0812 55.6888C70.1857 55.3899 70.0768 54.1346 70.0724 53.7144C70.0614 52.6606 69.9196 48.5297 70.4378 47.8955C70.7583 47.7042 71.2263 47.7599 71.6128 47.7665C71.8923 48.6157 71.8547 49.1676 72.0568 49.9978C72.4182 51.4831 73.0799 53.1667 73.7488 54.5412C74.2806 55.634 75.1571 56.8732 75.8376 57.9154C76.4965 58.9433 77.1423 59.9795 77.7746 61.0238C80.3835 65.2402 83.0607 69.4014 85.4873 73.7253C85.9135 74.4846 86.8216 75.3148 87.2589 76.1075C87.5874 76.6553 88.7069 78.7289 89.0808 79.073C89.5833 79.2937 90.563 80.5891 90.5402 81.0367C90.7767 81.5967 91.484 83.3295 91.9652 83.771C92.0116 83.8137 92.2471 83.8032 92.3318 83.8003C92.0811 83.8771 92.0113 83.8458 91.9113 84.0269C91.9008 84.0204 86.1105 83.617 85.6903 83.6514C85.5188 83.6915 84.6894 83.608 84.4584 83.5904C83.9772 86.2958 81.5278 88.1989 78.7875 87.9964C76.0472 87.794 73.904 85.5517 73.8255 82.805C73.7295 82.4052 73.8786 82.0456 73.5282 81.7235C73.2139 81.6194 72.9251 81.6727 72.5944 81.7027C72.3747 81.7906 72.2467 82.0729 72.1077 82.2907L72.1553 81.9823L72.2228 82.134L72.1317 82.0467C72.7327 80.3782 72.1301 77.894 70.9209 76.6675C70.6976 76.441 70.2481 76.0097 70.1812 75.8367C70.1128 75.8314 69.1066 75.4683 69.0126 75.4162C68.4331 75.0953 66.9206 75.1214 66.516 74.9314C66.1887 75.0232 66.019 75.0792 65.6772 75.102C61.9017 75.1562 61.3635 74.0454 59.8075 71.1501C60.2018 70.1722 60.3058 69.1014 60.107 68.0658C60.5887 67.2391 60.6509 66.9495 61.2656 66.1353C61.1158 65.6933 61.0752 65.1505 61.5878 65.0038C61.3746 64.918 60.842 64.9181 60.6053 64.9506C59.5085 64.0469 57.3559 61.634 57.7389 60.0938C57.855 58.1588 58.1982 57.1924 59.5435 55.7631C60.9143 54.0547 63.5855 53.6762 65.4215 54.8397C65.683 55.0054 66.0137 55.1836 66.1936 55.4343C66.2662 55.4913 66.4657 55.6402 66.5424 55.6393C67.8414 55.6237 68.7609 55.2788 70.0812 55.6888Z" fill="#7774D7"/>
<path d="M59.5435 55.7631C60.9143 54.0547 63.5855 53.6762 65.4215 54.8397C65.683 55.0054 66.0137 55.1836 66.1936 55.4343C66.2662 55.4913 66.4657 55.6402 66.5424 55.6393C67.8414 55.6237 68.7609 55.2788 70.0812 55.6888C71.565 56.3596 72.5407 57.1196 73.1489 58.7289C73.6242 59.9631 73.5734 61.3382 73.0083 62.534C72.541 63.5305 71.9339 64.2094 71.0016 64.7884C70.9107 64.8449 70.3197 65.191 70.2947 65.2125C69.5648 65.4422 69.1412 65.4724 68.3621 65.4661C67.756 65.4471 66.7337 64.7617 66.1246 64.7378L66.065 64.736C65.4 64.7124 63.5007 65.1241 62.527 65.1942L61.5878 65.0038C61.3746 64.918 60.842 64.9181 60.6053 64.9507C59.5085 64.0469 57.3559 61.634 57.7389 60.0938C57.855 58.1588 58.1982 57.1924 59.5435 55.7631Z" fill="#3E4BE3"/>
<path d="M62.5271 65.1942C63.5008 65.1241 65.4001 64.7124 66.0651 64.736L66.1247 64.7378C66.7338 64.7617 67.756 65.4471 68.3622 65.4661C69.1413 65.4724 69.5648 65.4422 70.2948 65.2125C70.1809 65.8935 70.1666 67.8605 70.0599 68.0533C69.9189 68.6434 70.2873 69.4891 70.2884 70.129C70.2891 70.5688 70.0215 71.1398 70.1007 71.5261L70.1576 71.5928C70.2124 72.7422 70.0387 74.8143 70.1813 75.8367C70.1129 75.8314 69.1066 75.4683 69.0127 75.4162C68.4332 75.0953 66.9207 75.1214 66.5161 74.9314C66.1888 75.0232 66.0191 75.0792 65.6773 75.102C61.9017 75.1562 61.3635 74.0454 59.8076 71.1502C60.2019 70.1722 60.3059 69.1014 60.1071 68.0659C60.5888 67.2391 60.651 66.9495 61.2656 66.1353C61.1158 65.6933 61.0752 65.1505 61.5878 65.0038L62.5271 65.1942Z" fill="#6A78DD"/>
<path d="M66.5161 74.9314C68.5027 74.2797 69.1516 73.2298 70.1577 71.5928C70.2125 72.7422 70.0388 74.8143 70.1814 75.8367C70.1129 75.8314 69.1067 75.4683 69.0127 75.4162C68.4332 75.0953 66.9207 75.1214 66.5161 74.9314Z" fill="#C1AECE"/>
<path d="M70.2947 65.2125C70.1808 65.8935 70.1664 67.8605 70.0598 68.0533C69.7628 67.3415 69.4313 66.7432 68.9108 66.1691C68.7079 65.9453 68.4497 65.7569 68.3621 65.4661C69.1411 65.4724 69.5647 65.4422 70.2947 65.2125Z" fill="#C1AECE"/>
<path d="M61.2656 66.1353C61.1158 65.6933 61.0752 65.1505 61.5878 65.0038L62.5271 65.1942C61.97 65.5349 61.7274 65.6668 61.2656 66.1353Z" fill="#C1AECE"/>
<path d="M73.8254 82.805C73.767 80.7602 74.8779 78.8604 76.6887 77.9086C78.4995 76.9567 80.6943 77.1188 82.3456 78.3263C83.9969 79.534 84.8166 81.5763 84.4584 83.5904C83.9771 86.2958 81.5277 88.1989 78.7875 87.9964C76.0471 87.794 73.9039 85.5517 73.8254 82.805Z" fill="#3E4BE3"/>
<path d="M89.081 79.073C89.5835 79.2937 90.5631 80.5891 90.5403 81.0367C90.7769 81.5967 91.4841 83.3295 91.9653 83.771C92.0117 83.8137 92.2472 83.8032 92.3319 83.8003C92.0812 83.8771 92.0114 83.8458 91.9114 84.0269C91.9009 84.0205 86.1106 83.617 85.6905 83.6514L85.4492 83.5512C86.0866 83.0913 90.4553 83.7287 91.4307 83.4159L91.4465 83.2948C91.0925 82.7807 91.021 82.3238 90.7011 81.7366C90.1891 80.7965 89.6628 79.9658 89.081 79.073Z" fill="#313BD5"/>
<path d="M59.8077 71.1501C61.3636 74.0454 61.9018 75.1562 65.6774 75.102C65.3569 75.383 64.9463 75.5699 64.5668 75.7683C63.4213 76.3672 61.4194 78.4852 61.7233 79.8706C61.6544 79.924 61.0208 80.145 60.9669 80.1463C60.2224 80.1646 58.407 82.5524 58.1803 82.5855C58.4439 83.1441 57.838 85.3221 57.7906 86.1143C56.6839 87.6501 55.5619 88.8965 53.5785 89.2278C52.1703 89.4628 50.6919 89.0892 49.5708 88.2049C49.0579 87.8005 47.8087 86.8244 47.924 86.1251C48.0896 85.9536 48.1467 85.964 48.3939 85.9151C48.5056 85.7632 49.2886 85.3232 49.4973 85.2118C50.9393 84.4421 51.9746 82.4316 52.5971 81.0064C53.08 79.9007 53.4028 78.2916 52.2516 77.5632C52.0671 77.3916 51.6222 77.0336 51.569 76.7866C51.4308 76.1451 50.4404 75.9651 50.3217 75.3709C49.9846 74.6361 50.0338 73.3457 50.6817 72.8064C51.7515 73.9727 53.2733 74.6199 54.8556 74.5814C56.4379 74.5429 57.9263 73.8225 58.9383 72.6056C59.3018 72.1684 59.5951 71.6774 59.8077 71.1501Z" fill="#646FD6"/>
<path d="M53.1047 77.8782C55.0578 78.2432 55.7742 78.6691 57.1856 80.0538C57.4985 80.5887 57.9282 81.305 58.0576 81.911L58.1803 82.5855C58.4439 83.1441 57.838 85.3221 57.7906 86.1143C56.6839 87.6501 55.5619 88.8965 53.5785 89.2278C52.1703 89.4628 50.6919 89.0892 49.5708 88.205C49.0579 87.8005 47.8087 86.8244 47.924 86.1251C48.0896 85.9536 48.1467 85.964 48.3939 85.9151C50.5993 85.5628 52.57 82.301 53.0283 80.3052C53.2251 79.4482 53.1773 78.7374 53.1047 77.8782Z" fill="#313BD5"/>
<path d="M59.8075 71.1501C61.3634 74.0454 61.9016 75.1562 65.6772 75.102C65.3567 75.383 64.9461 75.5699 64.5665 75.7683C63.4211 76.3672 61.4192 78.4852 61.7231 79.8706C61.6542 79.924 61.0206 80.145 60.9667 80.1463C60.2222 80.1646 58.4068 82.5524 58.1801 82.5855L58.0574 81.911C58.5521 80.555 59.3805 80.6672 59.5987 78.4776C59.7271 77.9676 59.6457 77.5232 59.6742 77.0034C59.7644 75.3634 59.865 74.0492 58.9381 72.6056C59.3016 72.1684 59.5949 71.6774 59.8075 71.1501Z" fill="#C1AECE"/>
<path d="M57.1855 80.0538C58.2752 79.3698 58.8146 78.5689 59.4997 77.5436L59.5712 77.5778L59.5988 78.4776C59.3807 80.6672 58.5522 80.555 58.0575 81.911C57.9281 81.305 57.4984 80.5887 57.1855 80.0538Z" fill="#3E4BE3"/>
<path d="M66.5159 74.9314C66.9205 75.1214 68.433 75.0953 69.0125 75.4162C69.1065 75.4683 70.1127 75.8314 70.1812 75.8367C70.2481 76.0097 70.6976 76.441 70.9209 76.6675C72.1301 77.894 72.7327 80.3782 72.1317 82.0467L72.2228 82.134L72.1553 81.9823L72.1076 82.2907C72.2466 82.0729 72.3747 81.7906 72.5943 81.7027C71.9411 82.6988 72.4428 83.2172 71.3834 84.1693C70.9223 84.5837 70.1436 85.7027 69.4068 85.7397C68.7085 85.3388 68.3566 80.9948 66.0584 80.4817C64.9857 80.2423 63.854 79.6872 62.5947 79.9579C62.2249 80.0374 62.0076 80.0571 61.7232 79.8706C61.4192 78.4852 63.4211 76.3672 64.5666 75.7683C64.9462 75.5699 65.3567 75.383 65.6772 75.102C66.0189 75.0792 66.1886 75.0232 66.5159 74.9314Z" fill="#937DE6"/>
<path d="M69.5928 80.2309C69.8191 80.3145 69.8426 80.33 69.9811 80.5271C70.0435 80.8245 69.9589 80.9768 69.8553 81.2572C69.5032 81.11 69.6215 81.2034 69.3943 80.9127C69.358 80.6058 69.4473 80.4961 69.5928 80.2309Z" fill="#B493E5"/>
<path d="M43.6138 84.1078C44.0823 84.5665 44.6736 85.0457 45.0869 85.4631C44.4271 85.1303 43.7952 84.7447 43.1973 84.3103L43.6138 84.1078Z" fill="#313BD5"/>
<path d="M45.9995 88.3443C46.5557 88.3959 49.0516 88.9972 49.6735 89.1453C49.7409 89.2372 49.3742 90.7681 49.3039 90.9892L49.1485 91.0214C47.7703 90.7865 46.4623 90.6812 45.0703 90.555C45.4132 89.684 45.5594 89.1972 45.9995 88.3443Z" fill="#B493E5"/>
<path d="M78.1227 88.69C78.2608 88.6449 78.2982 88.6774 78.4389 88.7251C78.6191 89.0081 78.9679 90.091 79.1708 90.5536C78.014 90.67 76.8581 90.7953 75.7033 90.9298C75.5084 90.9753 75.4997 90.9695 75.3015 90.9198C75.065 90.6078 74.9183 89.7887 74.8035 89.3488C75.8575 89.0969 77.0499 88.8949 78.1227 88.69Z" fill="#FAF8FC"/>
<path d="M29.7024 27.3703C40.3793 27.1952 49.1792 35.7032 49.3644 46.3798C49.5496 57.0564 41.0498 65.8644 30.3734 66.0595C19.6827 66.2549 10.8605 57.7415 10.6751 47.0507C10.4898 36.3599 19.0114 27.5456 29.7024 27.3703Z" fill="#C1AECE"/>
<path d="M27.9817 43.7489C27.9761 41.9582 28.1495 35.0759 29.8102 33.7465C30.3399 33.3223 31.0033 34.5931 31.1766 35.1176C31.4521 36.226 31.8281 41.0843 31.7771 42.2489L31.8651 42.681C32.3936 42.8329 39.7232 37.1772 40.523 39.3926C41.1103 41.0193 35.5133 44.9157 34.1038 45.8582C34.6721 45.9187 36.2001 46.003 36.6155 46.2683L36.943 46.012L37.0355 45.7425C37.6115 45.6253 37.7842 45.4691 38.3448 45.6181C38.5747 45.8358 38.4942 45.8911 38.5063 46.3228C39.4694 46.4592 43.8269 46.4971 42.4167 48.2615C42.1414 48.6059 41.097 48.473 40.7232 48.5049C39.4891 48.6099 35.3715 47.8604 34.4282 48.0393C34.5649 48.6479 41.1766 52.3843 40.2769 54.0202C40.176 54.2036 39.7912 54.4765 39.6561 54.4479C37.5245 53.9963 33.3484 50.5652 31.7178 49.6244C31.6714 50.4553 31.608 62.2788 28.8093 59.0563C28.0162 58.1431 27.9739 51.97 27.7941 50.2606C26.4453 51.2633 21.5836 54.3618 19.8552 54.2395C19.5318 54.2166 19.3234 53.9685 19.1266 53.7334C18.8475 52.0742 24.0139 48.2022 25.4095 47.2648C24.461 47.0733 23.9824 46.9853 23.0162 46.9403C22.9696 46.711 23.115 46.36 23.1904 46.1166C23.2685 45.8249 23.2292 45.5197 23.3108 45.1326C23.7859 44.8723 24.5813 45.6753 25.5798 44.852L25.5777 44.7712L25.2249 44.8038C25.1164 44.7524 25.0103 44.6961 24.9069 44.635C23.6196 43.8657 22.3592 42.7475 21.1766 41.8192C20.4683 41.2634 18.9204 40.1389 19.59 39.145C20.964 38.3909 26.8737 42.7295 27.9817 43.7489Z" fill="#7774D7"/>
<path d="M19.1267 53.7334C19.8366 53.4563 21.4883 51.722 22.2563 51.1552C23.9289 49.9208 25.5091 48.4509 27.3488 47.4562C27.3661 47.4469 27.8686 46.8238 27.9441 46.7367L28.0416 46.8659C27.996 47.2988 27.9679 47.4092 27.7881 47.8256C27.8134 48.1277 27.8228 48.1753 27.6778 48.4377C27.8736 49.2287 27.7123 49.6615 27.7942 50.2606C26.4454 51.2633 21.5837 54.3618 19.8553 54.2395C19.5319 54.2166 19.3235 53.9685 19.1267 53.7334Z" fill="#646FD6"/>
<path d="M27.7879 47.8256C27.8132 48.1277 27.8227 48.1753 27.6777 48.4377C26.9916 48.6323 25.9259 49.7876 24.4382 50.2586C25.5265 49.4093 26.6436 48.5978 27.7879 47.8256Z" fill="#B493E5"/>
<path d="M36.943 46.012L37.0355 45.7425C37.6115 45.6253 37.7842 45.4691 38.3448 45.6181C38.5747 45.8358 38.4942 45.8912 38.5063 46.3228C38.4816 46.9401 38.6217 47.5173 38.0863 47.9378C37.3797 48.0711 36.8205 46.8458 36.6155 46.2683L36.943 46.012Z" fill="#B3B7F5"/>
<path d="M36.9431 46.012L37.0356 45.7425C37.6117 45.6253 37.7844 45.4691 38.3449 45.6181C38.5749 45.8358 38.4943 45.8912 38.5064 46.3228C37.9893 46.3041 37.2927 46.3475 36.9431 46.012Z" fill="#CDBFD7"/>
<path d="M34.3775 43.406C34.4756 43.5087 34.4358 43.4466 34.4454 43.6294C34.1478 43.9408 32.4726 45.0523 32.0121 45.3837C31.9722 45.3454 31.9172 45.243 31.8887 45.1959C32.079 44.6214 33.8467 43.704 34.3775 43.406Z" fill="#B493E5"/>
<path d="M30.0448 41.6556C30.0378 42.0741 30.035 42.4927 30.0365 42.9112C30.0361 43.2988 30.0842 43.7913 29.8152 44.0597C29.5269 43.7034 29.6818 41.6157 29.963 41.2473L30.0405 41.5055L30.0448 41.6556Z" fill="#B493E5"/>
<path d="M29.7839 48.8769C29.8617 48.9396 29.9145 49.0324 29.9742 49.1175C30.0712 49.8187 30.033 50.5568 29.9107 51.2526C29.8497 51.1927 29.7694 51.0854 29.7129 51.0156C29.6261 50.324 29.6103 49.5557 29.7839 48.8769Z" fill="#B493E5"/>
<path d="M20.3443 46.6639C19.9002 46.61 17.4261 46.4103 17.2573 46.0076C16.5303 44.274 19.2176 44.7245 20.158 44.7083C20.9657 44.6942 24.6405 45.1838 25.225 44.8038L25.5778 44.7712L25.5799 44.852C24.5814 45.6753 23.786 44.8723 23.3109 45.1326C23.2293 45.5197 23.2686 45.8249 23.1905 46.1166C23.1151 46.36 22.9697 46.711 23.0162 46.9403C23.0755 47.6039 23.0545 47.8608 22.9941 48.5221C22.1477 48.5211 21.3208 48.6184 20.3983 48.6102L20.3965 46.6881L20.3443 46.6639Z" fill="#7B8BE6"/>
<path d="M20.3965 46.6881C21.2675 46.7578 22.1521 46.8174 23.0162 46.9403C23.0755 47.6039 23.0544 47.8608 22.9941 48.5221C22.1476 48.5211 21.3207 48.6184 20.3982 48.6102L20.3965 46.6881Z" fill="#CDBFD7"/>
<path d="M20.4155 45.2464C21.1151 45.2232 22.4073 45.0827 22.9927 45.4579C23.1589 45.5643 23.1549 45.8863 23.1904 46.1166C23.115 46.36 22.9695 46.711 23.0161 46.9403C22.152 46.8174 21.2674 46.7578 20.3964 46.6881L20.3442 46.6639C20.4508 46.3758 20.4158 45.5943 20.4155 45.2464Z" fill="#B3B7F5"/>
<path d="M31.7528 84.8425C30.9086 85.1877 21.9969 85.0295 20.6731 84.9901C17.0372 84.8821 3.98348 84.3155 1.67933 81.7687C1.40759 81.4684 1.28462 81.0196 1.2267 80.628C1.0445 79.3965 1.20812 78.0544 1.24832 76.8139C1.28986 75.5318 1.27354 74.2474 1.32103 72.9658C1.34937 72.2011 1.41562 71.2779 2.02145 70.7313C6.29717 66.8738 35.3334 66.7574 42.0191 67.1556C42.4336 67.2042 42.5157 67.2127 42.9258 67.1502C43.4562 67.3186 49.2442 67.5402 49.5186 67.371C48.9888 68.9656 49.2195 70.7151 50.1444 72.118C50.3048 72.3613 50.4846 72.5916 50.6816 72.8064C50.0338 73.3457 49.9846 74.636 50.3217 75.3709C48.9826 74.2311 46.9127 74.6345 45.4294 75.2943C42.183 77.1805 41.459 81.1073 43.6139 84.1078L43.1974 84.3103L42.9973 84.25C41.7773 84.1836 40.2627 84.4085 39.027 84.4892C36.8193 84.6336 34.4443 84.9131 32.2464 84.9892L31.7528 84.8425Z" fill="#9C80D4"/>
<path d="M42.9257 67.1502C43.4562 67.3186 49.2441 67.5402 49.5185 67.371C48.9887 68.9656 49.2194 70.7151 50.1443 72.118C48.6137 72.1906 46.365 72.4657 44.8628 72.7869C44.4207 73.0594 42.8933 72.8823 42.2646 72.8817C41.4926 72.881 39.8941 73.2733 39.3748 72.7408C39.5417 72.1635 41.9971 68.1303 42.4527 67.4963C42.1676 67.4637 41.9575 67.4912 41.7628 67.338L42.019 67.1556C42.4335 67.2042 42.5157 67.2127 42.9257 67.1502Z" fill="#B493E5"/>
<path d="M50.1442 72.118C50.3047 72.3613 50.4844 72.5916 50.6815 72.8064C50.0336 73.3457 49.9844 74.6361 50.3215 75.3709C48.9824 74.2311 46.9125 74.6345 45.4292 75.2943C42.1828 77.1805 41.4589 81.1073 43.6138 84.1079L43.1972 84.3103L42.9972 84.25C41.7771 84.1836 40.2625 84.4085 39.0269 84.4892C36.8192 84.6336 34.4441 84.9131 32.2462 84.9892L31.7527 84.8425C32.1537 84.7075 32.101 84.8293 32.4362 84.8036C35.3029 84.5845 39.4759 84.7761 42.0497 83.7C42.4676 83.5253 40.9368 81.7256 41.1729 81.1548C41.1751 81.1382 41.1774 81.1215 41.1797 81.105C40.8789 80.3509 41.2234 78.5901 41.6209 77.8772C42.4626 76.3676 42.8893 74.1784 44.8113 73.7627L44.9044 73.7433C43.5008 73.5401 42.3303 73.8298 40.9864 73.9013C40.016 73.9529 40.073 72.8719 38.7265 74.0701L38.6733 74.0549C38.9493 73.6055 39.253 73.4559 39.6922 73.1768C39.9699 73.3303 40.2864 73.535 40.6033 73.5883C41.6312 73.7615 48.8207 73.0341 48.9488 73.1251L48.6447 73.2597C48.7929 73.4077 49.6966 73.4819 49.9241 73.4715C50.0338 73.2717 50.139 73.0693 50.2394 72.8646L50.0951 72.516C49.3846 72.137 46.1437 72.8015 44.8627 72.7869C46.3649 72.4657 48.6136 72.1906 50.1442 72.118Z" fill="#7774D7"/>
<path d="M41.3075 81.0653C41.2816 80.6794 41.2785 80.2924 41.298 79.9062C41.3752 78.5748 41.9549 77.2258 42.974 76.3503C43.5429 75.8615 44.6515 75.2366 45.4292 75.2943C42.1828 77.1805 41.4589 81.1073 43.6137 84.1079L43.1972 84.3103L42.9972 84.25C42.1371 83.2103 41.61 82.4138 41.3075 81.0653Z" fill="#3E4BE3"/>
<path d="M28.4696 68.5827C31.5833 68.4963 34.6752 68.4428 37.7798 68.767C38.464 68.8385 39.3441 68.9537 39.6934 69.62C39.7132 69.9561 39.7487 69.8286 39.5663 70.102C38.4825 70.7714 32.4008 71.0206 30.9489 71.0347C28.8756 71.0613 20.8258 71.3738 19.5454 70.1471L19.5675 69.9654C20.6917 68.9631 26.8106 68.7045 28.4696 68.5827Z" fill="#8348CB"/>
<path d="M93.2478 24.312C91.4799 27.1222 87.7594 25.4616 89.1057 22.6411C91.1047 18.4526 93.5251 14.3139 95.7556 10.2394C96.9321 8.09039 98.2143 5.52674 100.838 7.8638C101.32 9.11619 101.164 9.57807 100.736 10.8291C102.173 11.3784 105.868 13.4144 107.329 14.1908L118.61 20.176C121.229 21.5641 123.925 22.8909 126.523 24.3173C129.513 25.9596 133.914 27.4757 135.297 30.8534C138.089 37.6729 130.966 43.7227 124.506 40.8827C121.67 39.6361 119.074 38.1845 116.357 36.7078L105.933 31.106L97.682 26.6879C96.6298 26.1315 94.1397 24.9028 93.2478 24.312Z" fill="#CDBFD7"/>
<path d="M93.2478 24.312C91.4799 27.1222 87.7594 25.4616 89.1057 22.6411C91.1047 18.4526 93.5251 14.3139 95.7556 10.2394C96.9321 8.09039 98.2143 5.52674 100.838 7.8638C101.32 9.11619 101.164 9.57807 100.736 10.8291C100.553 10.9874 99.2203 13.9384 98.9383 14.466C97.6069 16.9523 96.1729 19.3763 94.827 21.8529C94.5336 22.3928 93.384 23.9323 93.2478 24.312Z" fill="#7F8FE7"/>
<path d="M97.0899 14.478L97.268 14.5501L97.3113 14.7205C97.165 15.1212 96.7386 15.6525 96.4758 16.0143C96.444 16.0216 96.3756 15.9943 96.3352 15.9828C96.3699 15.5252 96.8233 14.8453 97.0899 14.478Z" fill="#B3B7F5"/>
<path d="M50.3256 18.6126C50.1507 18.5258 49.9915 18.4226 49.835 18.3064C49.2413 17.8657 48.8362 17.3054 48.7335 16.5603C48.6393 15.8774 48.8313 15.2767 49.2493 14.7339C50.4635 13.1569 52.8604 12.8587 54.7068 12.6022C59.0285 12.0021 71.4175 11.4571 74.8966 14.1493C75.5443 14.6504 75.9155 15.2706 76.0132 16.0857C76.0943 16.762 75.875 17.3195 75.4585 17.8465L74.7813 18.4192C74.0909 18.867 73.7264 19.0298 72.8935 19.2328C72.4278 19.3279 71.8574 19.4283 71.411 19.565C69.0012 20.0122 66.7926 20.0794 64.3529 20.1632C64.2449 20.1668 64.0993 20.2289 64.0032 20.2797C63.0173 20.1555 61.7459 20.2094 60.7566 20.2711C60.7965 20.2975 53.2562 19.6242 53.2363 19.6308C53.0834 19.4425 52.2328 19.2839 51.9379 19.2107C51.2508 19.0452 50.9459 18.9551 50.3256 18.6126Z" fill="#8A9BEA"/>
<path d="M52.8241 18.0965C52.8565 18.0824 53.1572 17.9093 53.0933 17.928C58.676 16.2978 65.4943 16.9234 71.019 17.611C72.1248 17.8332 71.5274 18.0265 72.2804 18.371C72.51 18.5739 72.7255 18.9623 72.8936 19.2328C72.4279 19.3279 71.8575 19.4283 71.411 19.565C69.0013 20.0122 66.7927 20.0794 64.353 20.1632C64.245 20.1668 64.0994 20.2289 64.0033 20.2797C63.0174 20.1555 61.7459 20.2094 60.7566 20.2711C60.7966 20.2975 53.2563 19.6242 53.2364 19.6308C53.0834 19.4425 52.2328 19.2839 51.938 19.2107C52.2715 18.652 52.3483 18.548 52.8241 18.0965Z" fill="#646FD9"/>
<path d="M65.8153 18.0993C66.1083 18.0717 66.2779 18.0323 66.554 18.1481C66.8713 18.5003 66.8629 18.7537 66.8551 19.2529C66.3802 19.4448 66.0858 19.6267 65.7474 19.1817C65.6648 18.826 65.7544 18.4613 65.8153 18.0993Z" fill="#7B8BE6"/>
<path d="M58.1878 18.0463C59.0646 18.4339 59.2111 18.6002 59.0496 19.53C58.5198 19.4438 58.5418 19.5261 58.171 19.2317C58.0181 18.9271 58.14 18.4066 58.1878 18.0463Z" fill="#B3B7F5"/>
<path d="M72.2803 18.371L72.0151 18.0385L72.0605 17.9003C72.6332 17.7091 73.8466 17.9255 74.4448 18.0349C74.6017 18.1863 74.6564 18.2412 74.7813 18.4192C74.091 18.867 73.7264 19.0297 72.8935 19.2328C72.7255 18.9623 72.5099 18.5739 72.2803 18.371Z" fill="#B493E5"/>
<path d="M50.3257 18.6126C50.7708 18.1702 52.1832 17.6945 52.7589 17.882L52.8241 18.0965C52.3483 18.5479 52.2716 18.652 51.938 19.2107C51.2509 19.0452 50.946 18.955 50.3257 18.6126Z" fill="#B493E5"/>
<path d="M71.019 17.611C72.1606 17.4992 73.7752 18.0055 74.2388 17.6132L74.3199 17.3808C74.2348 17.2178 74.2088 17.2582 73.9706 17.1743C74.2208 16.9162 74.9131 17.3627 75.2102 17.5085L75.4585 17.8465L74.7813 18.4192C74.6565 18.2412 74.6017 18.1863 74.4449 18.0349C73.8466 17.9255 72.6332 17.7091 72.0605 17.9003L72.0152 18.0385L72.2804 18.371C71.5274 18.0265 72.1248 17.8332 71.019 17.611Z" fill="#7B8BE6"/>
<path d="M67.7932 14.6688C68.2797 14.6106 69.2996 14.5442 69.5586 14.9863C69.1219 15.0487 68.1819 15.1143 67.8226 14.8754L67.7932 14.6688Z" fill="#B3B7F5"/>
<path d="M37.0534 12.5522C40.6853 12.0471 44.0375 14.5863 44.5352 18.2192C45.0328 21.8522 42.4871 25.1993 38.8532 25.6897C35.2294 26.1788 31.8938 23.6418 31.3976 20.019C30.9013 16.3963 33.4317 13.0556 37.0534 12.5522Z" fill="#CDBFD7"/>
<path d="M35.694 18.5258C35.8423 18.5766 35.8583 18.5998 35.9882 18.6843L36.0209 18.9054C35.8832 19.322 35.5069 19.6775 35.2067 20.0108C35.0111 19.7993 34.8882 19.605 34.9106 19.3131C35.0367 18.9899 35.4113 18.7482 35.694 18.5258Z" fill="#FAF8FC"/>
<path d="M40.532 18.7348C41.1387 18.8364 40.6586 19.6196 40.4653 19.895C40.2532 19.7756 40.2335 19.7557 40.1296 19.5358C40.1139 19.2438 40.3548 18.9828 40.532 18.7348Z" fill="#FAF8FC"/>
<path d="M25.0567 4.74204C27.1001 4.23335 29.1694 5.47588 29.6808 7.51862C30.1921 9.56136 28.9523 11.6323 26.9103 12.1463C24.8644 12.6613 22.7888 11.4186 22.2765 9.37214C21.7642 7.32562 23.0096 5.25168 25.0567 4.74204Z" fill="#CDBFD7"/>
<path d="M88.5323 25.9301C89.0676 26.1268 90.1927 28.868 90.3921 29.507C91.1982 32.0904 92.5572 35.3261 89.1019 36.5116C83.4796 36.7363 87.0348 28.2466 88.5323 25.9301Z" fill="#7D8EED"/>
<path d="M85.4068 45.7402C85.092 44.4814 85.3022 43.2244 86.3292 42.343C86.9414 41.8163 87.7416 41.5613 88.5457 41.6365C89.3945 41.7134 90.176 42.1307 90.7121 42.7933C91.3991 43.6396 91.4409 44.3806 91.3452 45.3887C91.2061 46.2097 90.71 46.7325 90.2024 47.386C89.2683 47.6847 87.4955 47.6846 86.5654 47.3614C86.0402 46.8411 85.9407 46.8312 85.5566 46.1665L85.4068 45.7402Z" fill="#717FEA"/>
<path d="M89.0444 46.3187C89.0208 46.1952 89.0317 46.196 89.0409 46.0682L89.2826 46.1637C89.2837 45.9572 89.2509 46.0384 89.3361 45.8868L89.5853 46.0658C89.7855 46.0427 89.8154 46.0367 90.0077 45.9693L90.054 45.9528C90.1309 46.0737 90.1162 46.1614 90.1209 46.308L90.1226 46.3715L90.2969 46.4557C91.1619 46.1915 90.643 45.8296 91.3452 45.3887C91.2061 46.2097 90.71 46.7325 90.2024 47.386C89.2683 47.6847 87.4955 47.6846 86.5654 47.3614C86.0402 46.8411 85.9407 46.8312 85.5566 46.1665L85.4067 45.7402C86.4472 45.9785 87.9667 46.0639 89.0444 46.3187Z" fill="#513CCE"/>
<path d="M85.4067 45.7402C86.4472 45.9785 87.9667 46.0639 89.0444 46.3187L89.1292 46.3966L89.0969 46.5142C88.4201 46.7926 86.5629 46.1016 85.5566 46.1665L85.4067 45.7402Z" fill="#3E4BE3"/>
</svg>
