<svg width="113" height="108" viewBox="0 0 113 108" fill="none" xmlns="http://www.w3.org/2000/svg">
<path d="M99.0997 22.8523C101.533 22.2174 103.915 21.4556 106.381 20.8881C107.894 20.4696 109.374 19.9178 110.922 19.6281C114.276 18.9984 117.675 18.3367 120.857 17.0685C122.118 16.5658 123.352 16.5438 124.648 16.216C124.808 16.1757 124.728 15.6353 125.596 15.4724C126.321 15.3364 127.366 14.9601 128.127 14.814C128.545 14.7058 129.015 14.4818 129.403 14.3508C129.754 14.476 129.681 14.5006 129.938 14.8713L130.089 14.7584C130.921 16.1103 131.112 19.5091 131.421 21.1812C132.991 29.6429 133.037 38.0578 133.734 46.6038C134.026 48.8125 133.971 57.4788 132.858 59.2701L133.029 59.3617L133.335 59.349C134.463 60.0161 135.284 60.349 135.709 61.6127C135.766 63.5159 135.256 68.004 133.852 69.3802C132.755 70.4535 131.493 71.2397 130.036 71.7318C129.381 71.9354 129.025 71.9652 128.352 72.0411C128.251 70.85 128.039 69.8061 127.764 68.647L127.68 68.6378L127.684 68.5141C127.693 68.8672 127.944 70.4468 127.997 70.9981L127.895 70.7311C127.838 71.2308 127.864 71.7032 128.201 72.0866C127.902 72.8456 128.057 74.8548 127.822 75.8445C126.813 80.0699 124.812 84.7632 120.84 86.9852C118.725 88.1677 117.343 87.5557 115.259 87.0397C112.296 86.3063 109.64 85.5498 108.145 82.6145C107.698 81.7355 107.537 80.7708 107.178 79.8611C104.574 80.6181 102.079 81.651 99.5177 82.505L88.9495 86.1148C87.4749 86.6063 85.981 86.9739 84.4964 87.489C81.1502 88.6503 77.9433 90.1041 74.4707 90.8575L74.0473 90.9174L73.7849 90.9301C73.5423 91.5506 73.5091 92.3368 73.3479 92.9999C73.1001 94.0197 72.8496 95.0379 72.5587 96.047C71.7693 98.6974 69.8584 101.57 67.9421 103.573C67.4481 104.089 66.2804 104.705 65.6597 105.017C62.4464 106.673 59.1775 105.37 55.9957 104.307C54.0863 103.669 52.4356 102.01 51.4808 100.247C50.623 98.6625 50.6181 96.5224 50.0492 95.0227C44.2872 96.723 41.2855 95.6446 35.6281 94.2132C33.6766 93.7195 32.0185 93.5339 29.962 92.7567C29.0478 92.4114 25.359 90.9349 24.6881 91.0103C21.3194 93.7996 17.2752 91.6357 14.0083 90.0343C12.4395 89.2653 10.2018 86.8104 9.67288 85.1842L9.51387 84.7204C8.87968 84.2731 8.68145 83.9353 7.90931 83.5502C5.78299 82.4896 2.93515 80.383 2.10374 78.0807C1.65656 76.9034 1.25222 72.5908 1.44252 71.3159C1.70543 69.3258 3.58163 69.171 4.91626 68.1529C5.24952 67.7671 5.30521 67.418 5.3125 66.9323C4.99934 65.0368 5.29708 61.9062 5.67077 60.03L5.71651 59.8897C5.92038 58.8924 6.36935 57.2981 6.9838 56.4897C7.9141 54.2234 14.8639 51.1746 17.1909 50.1111C19.551 49.0322 23.0927 47.11 25.5573 46.4091C25.968 46.1402 26.4505 45.5649 26.7958 45.188L26.7901 44.8672C25.3018 44.3161 25.4556 41.2014 25.7017 39.9426L25.916 39.295C26.7955 36.6608 28.9329 36.3997 30.6659 38.4351C30.9773 39.4237 30.2769 39.7171 30.2511 40.5332L30.5446 40.5015C31.0791 40.0543 31.7971 39.0336 32.385 38.4168C32.9698 37.3511 41.8548 26.2999 42.7512 25.6952L42.9254 25.5315C43.346 25.6388 43.87 25.9812 44.2585 26.2084C45.3347 26.6684 50.6828 28.7474 51.2645 29.213C53.0867 29.9671 55.1501 30.4456 57.0486 31.0588C60.4834 32.1682 64.8027 33.7362 68.3449 34.2481C69.4037 34.5135 70.9211 34.9288 71.9778 35.0808C73.7303 35.6765 75.2766 35.6267 76.844 36.6739C76.8397 36.3964 76.94 36.1996 77.0394 35.9381L77.2784 36.0135L78.0824 35.8968C78.5877 35.8483 79.3809 35.7801 79.8368 36.0177L79.9781 36.4949L80.1709 36.1296C82.0621 33.8715 83.9759 33.7325 86.6331 32.9064C89.4454 32.0501 92.2462 31.1566 95.0349 30.2261L95.3426 29.9309C94.6414 27.2366 93.4033 25.4253 93.852 22.4446C94.3515 22.0331 94.5952 21.6765 94.8083 21.0688C94.9951 21.1406 95.1597 21.1702 95.3587 21.1884C96.0064 21.6015 97.0007 22.8123 97.443 23.4579C98.2676 22.9754 98.7534 23.0458 99.0997 22.8523Z" fill="#A4A0A5"/>
<path d="M99.0996 22.8523C101.533 22.2174 103.915 21.4556 106.381 20.8881C107.894 20.4696 109.374 19.9178 110.922 19.6281C114.276 18.9984 117.675 18.3367 120.857 17.0685C122.118 16.5658 123.352 16.5438 124.648 16.216C124.808 16.1757 124.728 15.6353 125.596 15.4724C126.321 15.3364 127.366 14.9601 128.127 14.814C128.545 14.7058 129.015 14.4818 129.403 14.3508C129.754 14.476 129.681 14.5006 129.938 14.8713L130.089 14.7584C130.921 16.1103 131.112 19.5091 131.421 21.1812C132.991 29.6429 133.037 38.0578 133.734 46.6038C134.026 48.8125 133.971 57.4788 132.858 59.2701L133.029 59.3617L133.335 59.349C134.463 60.0161 135.284 60.349 135.709 61.6127C135.766 63.5159 135.256 68.004 133.852 69.3802C132.755 70.4535 131.493 71.2397 130.036 71.7318C129.381 71.9354 129.025 71.9652 128.352 72.0411C128.251 70.85 128.039 69.8061 127.764 68.647L127.68 68.6378L127.684 68.5141C127.693 68.8672 127.944 70.4468 127.997 70.9981L127.895 70.7311C127.838 71.2308 127.864 71.7032 128.201 72.0866C127.902 72.8456 128.057 74.8548 127.822 75.8445C126.813 80.0699 124.812 84.7632 120.84 86.9852C118.725 88.1677 117.343 87.5557 115.259 87.0397C112.296 86.3063 109.64 85.5498 108.145 82.6145C107.698 81.7355 107.537 80.7708 107.178 79.8611C108.411 79.307 109.013 79.6053 109.651 78.1936C110.573 76.1561 111.176 73.9953 112.006 71.9371C112.417 70.9245 112.881 69.934 113.396 68.9698C112.049 68.9382 111.7 69.5939 110.751 69.8218C108.328 70.404 100.726 73.3496 98.7426 72.7448C98.8811 70.8299 98.9539 67.1044 99.2646 65.3973L98.9351 65.4115C99.0322 64.3039 98.9498 59.2761 98.8423 58.1687L99.2607 58.0541C99.0108 57.4831 98.9528 54.7892 98.841 53.9992C98.7344 53.2445 98.6428 51.9911 98.5798 51.1902C98.3 48.6519 98.0107 46.1131 97.7068 43.5778C97.6316 42.9496 97.7296 42.1237 97.6282 41.5391C96.9656 37.7126 96.3547 33.6745 95.3426 29.9309C94.6414 27.2366 93.4032 25.4253 93.8519 22.4446C94.3514 22.0331 94.5952 21.6765 94.8082 21.0688C94.9951 21.1406 95.1597 21.1702 95.3587 21.1884C96.0064 21.6015 97.0007 22.8123 97.443 23.4579C98.2676 22.9754 98.7534 23.0458 99.0996 22.8523Z" fill="#C5C3CB"/>
<path d="M113.396 68.9698C115.523 65.0284 116.978 62.1211 121.28 60.0322C122.439 59.4694 124.049 58.904 125.364 59.3119C126.135 59.5515 127.408 60.4942 127.76 61.2274C127.634 61.6854 128.582 62.3621 128.911 62.8171L129.133 62.8931L129.308 63.1882L129.699 63.1841C129.629 61.3288 132.419 62.2045 133.07 60.0517L133.335 59.349C134.463 60.0161 135.284 60.349 135.709 61.6126C135.766 63.5159 135.256 68.004 133.852 69.3802C132.755 70.4535 131.493 71.2397 130.036 71.7318C129.381 71.9354 129.025 71.9652 128.352 72.0411C128.251 70.85 128.039 69.8061 127.764 68.647L127.68 68.6378L127.684 68.5141C127.693 68.8672 127.944 70.4468 127.997 70.9981L127.895 70.7311C127.838 71.2308 127.864 71.7032 128.201 72.0866C127.902 72.8456 128.057 74.8548 127.822 75.8445C126.813 80.0699 124.812 84.7632 120.84 86.9852C118.725 88.1677 117.343 87.5557 115.259 87.0397C112.296 86.3063 109.64 85.5498 108.145 82.6145C107.698 81.7355 107.537 80.7708 107.178 79.8611C108.411 79.307 109.013 79.6053 109.651 78.1936C110.573 76.1561 111.176 73.9953 112.006 71.9371C112.417 70.9245 112.881 69.934 113.396 68.9698Z" fill="#292527"/>
<path d="M128.669 48.2702C130.596 47.615 131.64 47.4977 133.734 46.6038C134.026 48.8125 133.972 57.4788 132.858 59.2701L133.029 59.3617L133.335 59.349L133.07 60.0517C132.419 62.2045 129.629 61.3288 129.699 63.1841L129.308 63.1882L129.133 62.8931L128.911 62.8171C128.582 62.3621 127.634 61.6855 127.76 61.2274C127.408 60.4942 126.135 59.5515 125.364 59.3119C124.049 58.904 122.439 59.4694 121.28 60.0322C116.978 62.1211 115.523 65.0284 113.396 68.9698C112.049 68.9382 111.7 69.5939 110.751 69.8218C108.328 70.404 100.726 73.3496 98.7427 72.7448C98.8812 70.8299 98.954 67.1044 99.2647 65.3973L98.9352 65.4115C99.0323 64.3039 98.9499 59.2761 98.8424 58.1687L99.2608 58.0541L99.4179 58.0459C100.397 57.7385 101.321 57.4029 102.284 57.0533C103.487 56.6603 104.859 56.0988 106.058 55.6363C107.357 55.1887 108.746 54.9061 110.068 54.4903L121.886 50.6856C124.146 49.9628 126.409 48.9618 128.669 48.2702Z" fill="#D32D28"/>
<path d="M99.3915 65.3665C101.663 64.8115 104.307 63.837 106.512 63.0604L117.816 58.9981C121.146 57.8106 124.615 56.8005 127.936 55.5617C129.19 55.0944 130.513 54.8011 131.766 54.3157C131.7 55.3913 131.095 58.7276 131.937 59.357C132.275 59.4662 132.513 59.3641 132.858 59.2701L133.029 59.3617L133.335 59.349L133.07 60.0517C132.419 62.2045 129.629 61.3288 129.699 63.1841L129.308 63.1882L129.133 62.8931L128.911 62.8171C128.582 62.3621 127.634 61.6855 127.76 61.2274C127.408 60.4942 126.135 59.5515 125.364 59.3119C124.049 58.904 122.439 59.4694 121.28 60.0322C116.978 62.1211 115.523 65.0284 113.396 68.9698C112.049 68.9382 111.7 69.5939 110.751 69.8218C108.328 70.404 100.726 73.3496 98.7427 72.7448C98.8812 70.8299 98.954 67.1044 99.2647 65.3973L99.3915 65.3665Z" fill="#B1AEB3"/>
<path d="M99.2607 58.0541L99.4178 58.0459C99.441 59.6256 99.4355 61.2054 99.4013 62.7848C99.3927 63.2732 99.3275 64.9765 99.3913 65.3665L99.2646 65.3973L98.9351 65.4115C99.0322 64.3039 98.9498 59.2761 98.8423 58.1687L99.2607 58.0541Z" fill="#960E0D"/>
<path d="M94.8082 21.0688C94.9951 21.1406 95.1597 21.1702 95.3587 21.1884C96.0064 21.6015 97.0007 22.8123 97.443 23.4579C98.1264 24.589 98.3596 31.6878 98.4705 33.3842L99.5665 50.1461C99.6993 52.0388 100.029 53.8965 100.108 55.7912C100.121 56.121 100.065 57.3595 100.138 57.5971L100.213 57.5663C100.672 57.3805 101.851 56.88 102.284 57.0533C101.321 57.4029 100.397 57.7385 99.4178 58.0459L99.2607 58.0541C99.0108 57.4831 98.9528 54.7892 98.841 53.9992C98.7344 53.2445 98.6428 51.9911 98.5798 51.1902C98.3 48.6519 98.0107 46.1131 97.7068 43.5778C97.6316 42.9496 97.7296 42.1237 97.6282 41.5391C96.9656 37.7126 96.3547 33.6745 95.3426 29.9309C94.6414 27.2366 93.4032 25.4253 93.8519 22.4446C94.3514 22.0331 94.5952 21.6765 94.8082 21.0688Z" fill="#B09B9A"/>
<path d="M106.058 55.6363C105.804 55.0332 104.716 54.2476 104.699 53.6066C105.186 53.5867 105.203 54.7128 106.782 54.2292C113.883 52.0556 121.171 50.1365 127.971 47.1303C128.275 46.996 128.624 46.6392 129.006 46.4573L129.116 46.5636C129.088 47.0763 128.782 47.5282 128.683 48.1766L128.669 48.2702C126.409 48.9618 124.146 49.9628 121.886 50.6856L110.068 54.4903C108.745 54.9061 107.357 55.1887 106.058 55.6363Z" fill="#F8F7F9"/>
<path d="M116.521 31.5678C116.742 31.5435 116.764 31.555 116.984 31.604C117.116 31.8952 117.339 36.1274 117.409 36.7798C118.603 36.4553 119.918 36.0236 121.111 35.6584C121.088 37.0444 121.256 40.3211 121.389 41.7037C120.159 42.0737 118.936 42.4662 117.72 42.881C117.771 44.6546 117.849 46.4273 117.954 48.1985C116.765 48.6318 115.462 49.0413 114.254 49.4429L114.106 49.3915C113.875 48.6344 113.795 45.1306 113.741 44.0952C112.67 44.3269 110.985 44.928 109.849 45.2587L109.495 38.9801C110.603 38.7557 112.008 38.2607 113.237 37.9876C113.046 36.589 112.941 34.0464 112.863 32.5938C114.068 32.3019 115.227 31.8579 116.521 31.5678Z" fill="#536FAE"/>
<path d="M102.646 24.7031C102.771 24.6004 102.907 24.5114 103.052 24.4374C104.294 23.7896 108.094 22.5968 109.547 23.0712C110.059 23.2383 110.187 23.5949 110.405 24.0423C110.416 25.464 110.755 27.6103 110.297 28.9519C110.237 29.1272 109.745 29.3521 109.557 29.442C109.302 29.9886 109.01 29.8685 108.878 30.0748C108.138 31.2329 103.816 32.7767 103.126 31.1976L103.365 30.7249C102.878 29.5801 102.656 26.0324 102.646 24.7031Z" fill="#D32D28"/>
<path d="M102.646 24.7031C102.771 24.6004 102.907 24.5114 103.052 24.4374C104.294 23.7896 108.094 22.5968 109.547 23.0712C110.059 23.2383 110.187 23.5949 110.405 24.0423L109.974 23.9684C109.084 24.2607 105.04 25.6553 104.358 25.4654C104.036 24.9609 103.428 25.2 102.646 24.7031Z" fill="#FA4845"/>
<path d="M104.358 25.4654C104.418 25.2753 104.434 25.1086 104.672 25.058C105.53 24.8753 109.294 23.5251 109.868 23.7144L109.974 23.9684C109.084 24.2607 105.04 25.6553 104.358 25.4654Z" fill="#FDAEBD"/>
<path d="M109.557 29.442C109.302 29.9886 109.01 29.8685 108.878 30.0748C108.137 31.2329 103.815 32.7766 103.126 31.1976L103.365 30.7248L103.55 30.8532C104.213 30.9572 108.761 29.7541 109.557 29.442Z" fill="#8F90A0"/>
<path d="M122.979 27.2421C124.126 26.9311 126.095 26.2043 127.205 26.7012C127.42 26.7976 127.578 27.1526 127.684 27.368L127.369 27.5987L127.224 27.5547C126.85 26.4871 126.454 26.763 125.501 26.9328C124.088 27.1842 122.748 27.6892 121.38 28.1026L115.141 29.9598C111.843 30.9266 108.289 31.4959 105.008 32.6356C104.833 32.6966 104.478 32.7972 104.304 32.7614L104.529 32.7185L104.43 32.6584C105.474 32.0431 106.652 31.7934 107.801 31.4822C112.871 30.1094 118.022 29.0277 122.979 27.2421Z" fill="#46424A"/>
<path d="M42.9255 25.5315C43.3461 25.6388 43.87 25.9812 44.2585 26.2084C45.3348 26.6684 50.6828 28.7474 51.2645 29.213C53.0868 29.9671 55.1501 30.4456 57.0486 31.0588C60.4835 32.1682 64.8027 33.7362 68.345 34.2481C69.4037 34.5135 70.9211 34.9288 71.9779 35.0808C73.7304 35.6765 75.2767 35.6267 76.844 36.6739C76.8563 36.9913 76.6823 37.2622 76.539 37.5599C76.4013 38.0219 76.2977 38.4056 76.0911 38.8458C75.5847 40.3529 73.4737 44.3078 72.66 45.99L72.6264 46.3336C72.4881 46.8404 72.2405 47.3396 71.9996 47.8071C70.5428 50.6347 69.2461 53.5233 67.8911 56.3969C67.7971 56.5964 67.6125 56.8873 67.5827 57.0916C67.6295 57.5576 67.0415 58.716 66.7282 59.0279C66.0071 59.7456 64.3042 59.8027 63.4243 60.2564C61.3916 61.3043 59.3384 62.1696 57.276 63.1411C56.2727 63.6066 51.9522 66.0852 51.1898 66.0043C49.8447 66.6356 46.5996 68.6126 45.8939 69.8329C45.5823 70.249 45.452 70.6856 45.2742 71.1708L44.9741 72.8551C45.6304 72.8562 48.1275 72.7382 48.5651 72.7937L48.0879 72.938L48.0861 73.0199L48.7392 73.1299C47.7592 73.1821 45.1927 73.3586 44.2973 73.2331C43.4495 73.0102 41.7501 72.7909 40.7666 72.5921L40.6678 72.571C39.7323 72.744 38.6572 72.4379 37.6888 72.4064C36.8894 72.278 36.2053 72.115 35.4622 72.5051C34.799 73.2263 34.4171 75.0322 34.3678 75.9879C34.0453 76.8779 33.9236 78.8642 33.6092 80.0393C30.121 80.1442 24.6823 77.8539 21.3609 76.6662C20.2787 76.2792 19.1845 75.9705 18.0878 75.6261C16.1608 74.9449 12.7016 73.8025 11.5162 72.2033L11.2651 70.2432C10.6596 70.2754 9.59942 69.5582 9.03026 69.2373C8.04847 68.7813 7.078 68.0864 6.20946 67.4454C5.89924 67.3126 5.68078 67.1679 5.39588 66.9904L5.31254 66.9323C4.99938 65.0368 5.29712 61.9062 5.67082 60.03L5.71656 59.8897C5.92043 58.8924 6.3694 57.2981 6.98384 56.4897C7.91414 54.2234 14.864 51.1746 17.1909 50.1111C19.5511 49.0322 23.0928 47.11 25.5574 46.4091C25.968 46.1402 26.4506 45.5649 26.7959 45.188L26.7902 44.8672C25.3018 44.3161 25.4557 41.2014 25.7017 39.9426L25.916 39.295C26.7955 36.6608 28.933 36.3997 30.6659 38.4351C30.9773 39.4237 30.277 39.7171 30.2512 40.5332L30.5446 40.5015C31.0791 40.0543 31.7972 39.0336 32.385 38.4168C32.9699 37.3511 41.8548 26.2999 42.7513 25.6952L42.9255 25.5315Z" fill="#F8F7F9"/>
<path d="M42.9256 25.5315C43.3462 25.6388 43.8701 25.9812 44.2586 26.2084C45.3348 26.6684 50.6829 28.7474 51.2646 29.213C53.0868 29.9671 55.1502 30.4456 57.0487 31.0588C60.4835 32.1682 64.8028 33.7362 68.345 34.2481C69.4038 34.5135 70.9212 34.9288 71.978 35.0808C73.7305 35.6765 75.2768 35.6267 76.8441 36.6739C76.8564 36.9913 76.6824 37.2622 76.5391 37.5599C76.4014 38.0219 76.2978 38.4056 76.0911 38.8458C75.5848 40.3529 73.4738 44.3078 72.6601 45.99L72.6264 46.3336C72.4882 46.8404 72.2406 47.3396 71.9996 47.8071C70.5429 50.6347 69.2462 53.5233 67.8912 56.3969C67.7971 56.5964 67.6126 56.8873 67.5827 57.0916C67.3356 57.5607 67.0768 58.0236 66.8067 58.4799C66.024 59.8775 64.7496 59.4371 63.385 59.3197C61.9161 59.1933 60.4288 58.9056 58.9748 58.6581C58.9237 58.7047 58.8724 58.7513 58.8213 58.798C58.2538 59.0921 58.2717 58.9652 57.8786 58.5736C54.3829 58.136 50.1859 56.3961 46.7579 55.4673C44.3629 54.8184 42.1669 54.2254 39.893 53.1919C40.0124 53.1326 39.9839 53.1352 40.0778 53.0229C39.9524 52.7221 39.4133 52.1378 39.1076 52.0254C38.611 52.0248 37.9997 51.2673 37.6619 50.9176L37.5381 51.1677L37.2519 51.2596L37.1457 51.5114C36.6122 51.0636 35.8058 49.632 35.0332 48.8947L34.8356 49.3439C34.4843 49.4522 33.2259 48.8485 32.849 48.6954C30.4759 47.7317 28.5573 47.1192 26.7959 45.188L26.7902 44.8672C25.3019 44.3161 25.4557 41.2014 25.7018 39.9426L25.9161 39.295C26.7956 36.6608 28.9331 36.3997 30.666 38.4351C30.9774 39.4237 30.277 39.7171 30.2513 40.5332L30.5447 40.5015C31.0792 40.0543 31.7972 39.0336 32.3851 38.4168C32.97 37.3511 41.8549 26.2999 42.7513 25.6952L42.9256 25.5315Z" fill="#538AB3"/>
<path d="M73.9268 36.7787C74.7087 36.9313 75.8916 37.0929 76.4905 37.5443C76.5066 37.5495 76.5228 37.5547 76.539 37.5599C76.4013 38.0219 76.2977 38.4056 76.091 38.8458C75.5847 40.3529 73.4737 44.3078 72.66 45.99L72.6263 46.3336C72.4881 46.8404 72.2405 47.3396 71.9995 47.8071C70.5428 50.6347 69.2461 53.5233 67.8911 56.3969C67.797 56.5964 67.6125 56.8873 67.5826 57.0916C67.3355 57.5607 67.0767 58.0236 66.8066 58.4799C66.0239 59.8775 64.7495 59.4371 63.3849 59.3197C61.916 59.1933 60.4287 58.9056 58.9747 58.6581C58.9236 58.7047 58.8723 58.7513 58.8212 58.798C58.2537 59.0921 58.2716 58.9652 57.8785 58.5736C57.5036 57.7411 55.7502 56.6041 54.9245 55.7485C54.8542 55.542 54.766 55.3326 54.6846 55.1296L54.7555 54.6893C55.9059 55.2456 58.7959 57.1535 59.808 57.1103C60.6228 56.7938 64.5067 58.3493 66.3732 57.7719C67.2618 57.0001 68.805 53.7262 69.2229 52.5395C69.3978 52.1982 68.9735 51.9183 68.938 51.6758C68.4613 48.4752 69.6527 44.8879 71.2466 42.1331C71.7198 41.315 75.1702 37.479 76.0312 37.8214L76.1662 38.2027C76.2259 37.9696 76.2254 37.9623 76.1619 37.7261C75.7742 37.1994 74.536 37.0493 73.8589 36.8881L73.9268 36.7787Z" fill="#86B9D5"/>
<path d="M72.6263 46.3336C72.4881 46.8404 72.2404 47.3396 71.9995 47.8071C70.5428 50.6347 69.2461 53.5233 67.8911 56.3969C67.797 56.5964 67.6125 56.8873 67.5826 57.0916C67.3355 57.5607 67.0767 58.0236 66.8066 58.4799C66.0239 59.8775 64.7495 59.4371 63.3849 59.3197C61.916 59.1933 60.4287 58.9056 58.9747 58.6581C58.9236 58.7047 58.8723 58.7513 58.8212 58.798C58.2537 59.0921 58.2716 58.9652 57.8785 58.5736C57.5036 57.7411 55.7502 56.6041 54.9245 55.7485C54.8542 55.542 54.766 55.3326 54.6846 55.1296L54.7555 54.6893C55.9059 55.2456 58.7959 57.1535 59.808 57.1103C60.9056 57.4649 65.771 58.4535 66.5484 57.8116C68.5581 56.1521 70.9523 47.7287 72.6263 46.3336Z" fill="#394353"/>
<path d="M58.0047 57.0448C58.2661 57.0948 59.0687 57.4898 59.2367 57.6639C59.9377 58.3902 60.51 57.6657 60.8385 57.7451C61.4704 57.898 66.6492 58.3811 66.8067 58.4799C66.024 59.8775 64.7495 59.4371 63.3849 59.3197C61.9161 59.1933 60.4288 58.9056 58.9748 58.6581C58.9236 58.7047 58.8724 58.7513 58.8213 58.798C58.5072 58.2429 57.8797 57.7422 57.4011 57.2868L58.0047 57.0448Z" fill="#8F8887"/>
<path d="M57.4012 57.2868C56.9036 56.8727 55.3151 55.8371 55.1509 55.3357L55.3959 55.3336C56.0199 55.6936 57.5619 56.5937 58.0048 57.0448L57.4012 57.2868Z" fill="#73727C"/>
<path d="M72.6601 45.99L72.5542 45.7495C72.6792 45.1629 75.5769 39.3973 75.9948 38.816L76.0912 38.8458C75.5848 40.3529 73.4738 44.3078 72.6601 45.99Z" fill="#525E78"/>
<path d="M37.5933 49.9163C39.102 50.7308 41.6506 51.7308 43.3146 52.1592C44.9048 52.5685 54.0675 56.0635 54.9246 55.7484C55.7503 56.6041 57.5037 57.7411 57.8786 58.5736C54.3829 58.136 50.1859 56.3961 46.7579 55.4673C44.3629 54.8184 42.1669 54.2254 39.893 53.1919C40.0124 53.1326 39.9839 53.1352 40.0778 53.0229C39.9524 52.7221 39.4133 52.1378 39.1076 52.0254C38.3481 51.2569 37.8914 50.9458 37.5933 49.9163Z" fill="#5A5B68"/>
<path d="M25.9161 39.295C26.7956 36.6608 28.9331 36.3997 30.666 38.4351C30.9774 39.4237 30.277 39.7171 30.2513 40.5332L30.0984 40.4851L29.8206 40.8177C29.2185 41.7312 27.9312 43.8309 27.1661 44.5L26.8837 44.7985L26.7902 44.8672C25.3019 44.3161 25.4557 41.2014 25.7018 39.9426L25.9161 39.295Z" fill="#292527"/>
<path d="M25.916 39.295C26.7955 36.6608 28.9329 36.3997 30.6658 38.4351C30.9772 39.4237 30.2769 39.7171 30.2511 40.5332L30.0983 40.4851C28.7953 39.3782 26.8466 40.281 25.966 40.2637L25.7017 39.9426L25.916 39.295Z" fill="#66759E"/>
<path d="M30.6658 38.4351C30.9772 39.4237 30.2769 39.7171 30.2511 40.5332L30.0983 40.4851C28.7953 39.3782 26.8466 40.281 25.966 40.2637L25.7017 39.9427L25.916 39.295C26.2716 39.3067 26.6621 39.1342 27.0734 39.1018C27.9961 39.0292 28.9186 38.9965 29.8414 38.933C30.3613 38.8972 30.3564 38.7936 30.6658 38.4351Z" fill="#5C575C"/>
<path d="M25.7018 39.9426L25.9662 40.2637C26.8467 40.281 28.7954 39.3782 30.0984 40.4851L29.8206 40.8177C26.9219 39.8879 26.0415 41.3902 26.8828 44.1608C26.9069 44.2403 27.0977 44.4357 27.1661 44.5L26.8837 44.7985L26.7902 44.8672C25.3019 44.3161 25.4557 41.2014 25.7018 39.9426Z" fill="#46444E"/>
<path d="M29.304 44.042C30.1787 44.3183 36.6005 46.8317 36.8149 47.3498C36.1942 47.445 35.6389 47.0399 35.1386 47.2517L35.0886 47.3855L35.278 47.6179C36.0756 47.9955 37.1903 49.1513 37.5932 49.9163C37.8914 50.9458 38.3481 51.2569 39.1075 52.0254C38.611 52.0248 37.9996 51.2673 37.6618 50.9176L37.5381 51.1677L37.2518 51.2596L37.1457 51.5114C36.6122 51.0636 35.8058 49.632 35.0332 48.8947C34.0879 47.6843 33.3989 46.9284 32.0892 46.1299C31.1436 45.5534 30.2124 44.7153 29.304 44.042Z" fill="#394353"/>
<path d="M35.2781 47.6179C36.0757 47.9955 37.1904 49.1513 37.5933 49.9163C37.8915 50.9458 38.3482 51.2569 39.1076 52.0254C38.6111 52.0248 37.9997 51.2673 37.6619 50.9176C37.1883 50.0929 35.3361 47.9141 35.2781 47.6179Z" fill="#1B2536"/>
<path d="M68.3451 34.2481C69.4039 34.5135 70.9213 34.9288 71.978 35.0808C73.7305 35.6765 75.2768 35.6267 76.8442 36.6739C76.8565 36.9913 76.6825 37.2622 76.5392 37.5599C76.523 37.5547 76.5068 37.5495 76.4907 37.5443C75.8917 37.0929 74.7088 36.9313 73.927 36.7787C73.2843 36.3808 68.8722 35.6723 67.8564 34.8733L67.954 34.8128C67.8738 34.5946 67.8907 34.6805 67.9297 34.439L68.3451 34.2481Z" fill="#525E78"/>
<path d="M51.2646 29.213C53.0868 29.9671 55.1502 30.4456 57.0487 31.0588C60.4835 32.1682 64.8028 33.7362 68.3451 34.2481L67.9296 34.439C67.8907 34.6805 67.8737 34.5946 67.9539 34.8128L67.8564 34.8733C66.222 34.179 63.1423 33.5312 61.3596 33.0109C57.8751 31.9941 54.6709 30.5583 51.1606 29.7777C51.284 29.4588 51.2026 29.4054 51.2646 29.213Z" fill="#1B2536"/>
<path d="M49.462 52.0996C48.0278 51.5105 41.153 49.6599 40.6162 48.5257C40.8674 48.5572 42.7168 49.1894 43.1306 49.3092C45.6402 50.036 48.1598 51.002 50.7174 51.5364C50.2398 51.6495 50.1653 51.586 49.8635 51.8797C49.6515 51.9442 49.6026 51.9411 49.462 52.0996Z" fill="#1B2536"/>
<path d="M44.2585 26.2084C45.3347 26.6684 50.6828 28.7474 51.2645 29.213C51.2025 29.4054 51.2839 29.4588 51.1605 29.7777C49.1172 29.5431 45.9059 27.5309 44.1897 26.4102L44.2585 26.2084Z" fill="#394353"/>
<path d="M51.0032 52.4287C51.7507 52.1298 53.7393 52.9671 54.9574 52.9391C54.4437 53.0876 54.4611 52.9981 54.1538 53.3406C54.0702 53.7055 54.2015 54.0222 54.3065 54.3854C53.2246 53.782 52.0678 53.0699 51.0032 52.4287Z" fill="#5A8FA2"/>
<path d="M30.0983 40.4851L30.2511 40.5332L30.5446 40.5015C29.8343 41.7346 28.5609 43.6467 27.5203 44.6714L27.4429 44.7293C27.305 44.8345 27.1817 44.9639 27.0589 45.0868C26.8906 44.9796 26.9441 45.0386 26.8835 44.7985L27.166 44.5C27.9311 43.8309 29.2183 41.7312 29.8204 40.8177L30.0983 40.4851Z" fill="#C5C3CB"/>
<path d="M50.7175 51.5364C51.5355 51.7618 54.4791 52.5022 54.9573 52.9391C53.7393 52.9671 51.7506 52.1298 51.0031 52.4287C50.8993 52.4191 50.0161 51.9563 49.8635 51.8797C50.1654 51.586 50.2398 51.6495 50.7175 51.5364Z" fill="#1B2536"/>
<path d="M32.3852 38.4168C31.8342 39.3907 28.4536 44.6527 27.5205 44.6714C28.5611 43.6467 29.8345 41.7346 30.5447 40.5015C31.0793 40.0543 31.7973 39.0336 32.3852 38.4168Z" fill="#1B2536"/>
<path d="M49.4622 52.0996C49.6027 51.9411 49.6516 51.9442 49.8636 51.8797C50.0162 51.9563 50.8994 52.419 51.0032 52.4287C52.0679 53.0699 53.2246 53.782 54.3065 54.3854L54.7556 54.6893L54.6847 55.1296C52.6927 53.8778 51.6432 53.0567 49.4622 52.0996Z" fill="#1B191D"/>
<path d="M42.9254 25.5315C43.346 25.6388 43.87 25.9812 44.2585 26.2084L44.1897 26.4102C43.7085 26.1755 43.229 25.9372 42.7512 25.6952L42.9254 25.5315Z" fill="#536FAE"/>
<path d="M44.2877 28.4075C45.3537 28.8945 46.3251 29.3257 47.4176 29.7534C48.4259 30.148 50.2631 30.6113 51.0977 31.1822C51.3086 31.7868 50.4543 35.6966 50.2995 36.737C50.9579 37.9522 49.806 40.0797 48.4726 39.6145C47.583 39.8762 45.9811 40.4751 45.1493 40.5811C44.3959 41.3965 38.408 42.4942 37.1567 43.2401C36.9349 43.3723 36.297 43.6524 36.0589 43.6658L35.9852 43.4086C35.9316 43.3755 35.8752 43.2966 35.8296 43.2431C35.9093 42.6034 36.3117 41.8302 36.5368 41.207C37.1981 39.3752 37.9186 37.8721 38.9608 36.219C40.653 33.5348 42.284 30.8842 44.2877 28.4075Z" fill="#86B9D5"/>
<path d="M35.9854 43.4086C38.5419 42.6598 42.6456 41.0388 45.1495 40.5811C44.396 41.3965 38.4082 42.4942 37.1569 43.2401C36.935 43.3723 36.2972 43.6524 36.0591 43.6658L35.9854 43.4086Z" fill="#536FAE"/>
<path d="M50.2995 36.737C50.9579 37.9522 49.806 40.0797 48.4727 39.6145C50.054 39.0086 50.0103 38.2889 50.2995 36.737Z" fill="#536FAE"/>
<path d="M5.67082 60.03C6.74281 60.5367 7.59085 61.4535 8.72404 61.9194L9.0283 62.1676C10.3521 62.7908 11.8201 64.3322 13.348 64.8593C16.7478 66.0319 20.017 67.4784 23.4384 68.6025C26.8006 69.7073 30.5177 70.6248 33.813 71.8693C34.1851 71.9982 34.991 72.4713 35.2626 72.322L35.4622 72.5051C34.799 73.2263 34.4171 75.0322 34.3678 75.9879C34.0453 76.8779 33.9236 78.8642 33.6092 80.0393C30.121 80.1442 24.6823 77.8539 21.3609 76.6663C20.2787 76.2792 19.1845 75.9705 18.0878 75.6261C16.1608 74.9449 12.7016 73.8025 11.5162 72.2033L11.2651 70.2432C10.6596 70.2754 9.59942 69.5582 9.03026 69.2373C8.04847 68.7813 7.078 68.0864 6.20946 67.4454C5.89924 67.3126 5.68078 67.1679 5.39588 66.9904L5.31254 66.9323C4.99938 65.0368 5.29712 61.9062 5.67082 60.03Z" fill="#1B191D"/>
<path d="M16.5557 67.4725C15.9375 66.7695 13.2017 66.2092 12.9389 65.7099C13.0539 65.4199 12.9825 65.4887 13.2052 65.3145C14.2156 65.857 14.5057 65.3426 14.769 65.5347C16.6538 66.9105 33.0528 72.4109 33.7302 72.0557L33.8131 71.8693C34.1852 71.9982 34.991 72.4713 35.2627 72.322L35.4623 72.5051C34.799 73.2263 34.4172 75.0322 34.3679 75.9879C34.0454 76.8779 33.9236 78.8642 33.6093 80.0393C30.1211 80.1442 24.6824 77.8539 21.361 76.6662C20.2787 76.2792 19.1846 75.9705 18.0879 75.6261C16.1609 74.9449 12.7017 73.8025 11.5163 72.2033L11.2651 70.2432L11.2785 69.5097C11.6444 68.2952 10.8391 66.3218 11.8046 65.6507C12.5655 66.331 11.9839 70.1399 12.9483 71.7718C13.7836 72.4411 14.8015 72.5051 15.7124 72.954C20.3524 75.2406 24.9968 76.4518 29.9498 77.7942C30.2647 77.8429 30.3437 77.8642 30.6638 77.7986C31.0012 77.3235 31.5283 73.6779 31.6972 72.7821C30.3608 72.2367 28.5647 71.7325 27.1543 71.2493C25.5678 70.7057 23.9005 70.0149 22.336 69.5091C20.4592 68.9023 18.3373 68.3935 16.5557 67.4725Z" fill="#383437"/>
<path d="M29.9498 77.7942C28.7968 78.7743 12.9197 72.6036 12.7488 71.9571L12.9484 71.7718C13.7837 72.4411 14.8015 72.5051 15.7125 72.954C20.3524 75.2406 24.9969 76.4518 29.9498 77.7942Z" fill="#5C575C"/>
<path d="M5.67082 60.03C6.74281 60.5367 7.59085 61.4535 8.72404 61.9194L9.0283 62.1676C9.27042 62.3607 9.50679 62.5468 9.73882 62.7522C10.0776 63.0883 10.2169 63.2129 10.6057 63.4856C10.4947 64.2509 10.6052 66.5052 10.6313 67.3853C10.614 67.6869 10.6002 68.1787 10.5579 68.4608C10.5151 68.8973 10.5556 69.2612 10.3204 69.5698C9.97669 69.5679 9.53542 69.2957 9.20887 69.1289L9.03026 69.2373C8.04847 68.7813 7.078 68.0864 6.20946 67.4454C5.89924 67.3126 5.68078 67.1679 5.39588 66.9904L5.31254 66.9323C4.99938 65.0368 5.29712 61.9062 5.67082 60.03Z" fill="#F5AE64"/>
<path d="M8.32905 62.6308L8.85116 63.0844L9.73895 62.7522C10.0777 63.0882 10.2171 63.2129 10.6059 63.4856C10.4949 64.2509 10.6053 66.5052 10.6314 67.3853C9.79365 67.4707 7.84595 66.5291 7.16791 65.9449C6.88367 65.6999 7.37912 64.6742 7.22488 64.2188C7.16357 64.0378 7.63798 63.8146 7.80104 63.7226C7.99703 63.0714 7.51475 63.2249 8.32905 62.6308Z" fill="#FDE68A"/>
<path d="M7.39575 64.6659C8.31058 64.1022 8.96118 63.852 9.65807 64.7992C9.77053 65.3104 10.0304 66.2748 9.46808 66.5572C8.99301 66.4969 8.16325 65.8627 7.68131 65.6242C7.42992 65.4997 7.43507 64.9696 7.39575 64.6659Z" fill="#FEFBCA"/>
<path d="M8.32887 62.6308L8.85098 63.0844C9.26361 63.8295 9.47183 63.9136 9.65807 64.7992C8.96118 63.852 8.31058 64.1022 7.39575 64.6659C7.49177 64.3989 7.68267 63.995 7.80086 63.7226C7.99686 63.0714 7.51457 63.2249 8.32887 62.6308Z" fill="#FEF2A0"/>
<path d="M6.5806 61.6861C7.20682 62.0014 7.72816 62.2706 8.32902 62.6308C7.51471 63.2249 7.997 63.0714 7.80101 63.7226C7.63795 63.8146 7.16354 64.0378 7.22484 64.2188C7.37908 64.6742 6.88363 65.6999 7.16787 65.9449C7.84592 66.5291 9.79362 67.4707 10.6314 67.3853C10.6141 67.6869 10.6003 68.1787 10.558 68.4608C10.3175 68.4435 10.118 68.4297 9.87478 68.4295C10.0716 68.6037 10.1329 68.6923 10.29 68.9043L10.215 69.0288L9.66623 69.0849C9.24084 68.9012 8.82145 68.4007 8.4237 68.1556C8.01549 67.9043 7.74032 67.8753 7.31773 67.5671C7.12554 67.4272 6.95128 67.2642 6.7989 67.0817C5.85042 65.9359 6.4206 63.2308 6.5806 61.6861Z" fill="#FBCF72"/>
<path d="M6.20947 67.4454C6.30919 67.4378 6.42985 67.4287 6.57146 67.4178C7.17973 67.7513 8.7418 68.7461 9.20888 69.1289L9.03027 69.2373C8.04848 68.7813 7.07801 68.0864 6.20947 67.4454Z" fill="#E67B33"/>
<path d="M10.6058 63.4856C10.8398 64.0446 11.2323 68.4505 11.2317 69.226L11.2784 69.5097L11.2651 70.2432C10.6596 70.2754 9.59944 69.5582 9.03027 69.2373L9.20889 69.1289C9.53543 69.2957 9.9767 69.5679 10.3205 69.5698C10.5556 69.2612 10.5151 68.8973 10.5579 68.4608C10.6002 68.1787 10.6141 67.6869 10.6313 67.3853C10.6052 66.5052 10.4948 64.2509 10.6058 63.4856Z" fill="#BD9494"/>
<path d="M5.71664 59.8897C5.92051 58.8924 6.36948 57.2981 6.98392 56.4897C7.04395 57.0106 6.5569 57.7999 6.73275 58.0026C6.93652 58.2375 7.76822 58.4876 8.04258 58.7061C10.8749 61.1841 14.7709 61.9373 17.9869 63.797C18.4541 64.0672 19.6671 64.329 20.1887 64.6415C20.3838 64.7584 21.1246 64.8895 21.3675 64.9179C23.6728 65.1862 25.7678 66.3066 27.964 66.8656C28.0336 66.8834 28.5639 66.8313 28.7997 66.8726C30.8185 67.2259 33.2765 68.269 35.2329 68.6547C36.903 68.984 39.2091 68.7094 40.9396 69.1904L40.9874 69.2666L40.7739 69.2793L40.7836 69.3764C41.0194 69.4669 41.2522 69.5563 41.4847 69.6551C42.6676 70.1577 44.2401 69.8493 45.4927 69.9201C44.924 70.9712 44.8392 71.7195 44.6263 72.891C43.6053 72.7104 41.775 72.3777 40.7667 72.5921L40.6679 72.571C39.7324 72.744 38.6573 72.4379 37.6889 72.4064C36.8895 72.278 36.2054 72.115 35.4623 72.5051L35.2627 72.322C34.991 72.4713 34.1852 71.9982 33.8131 71.8694C30.5178 70.6248 26.8007 69.7073 23.4384 68.6025C20.0171 67.4784 16.7479 66.0319 13.3481 64.8593C11.8202 64.3322 10.3522 62.7908 9.02838 62.1676L8.72412 61.9194C7.59093 61.4535 6.74289 60.5367 5.6709 60.03L5.71664 59.8897Z" fill="#B1ADB1"/>
<path d="M35.2627 72.322C35.4856 72.0375 35.653 71.8487 36.0429 71.8364C37.4495 71.7917 39.2699 72.2885 40.6679 72.571C39.7324 72.744 38.6573 72.4379 37.6889 72.4064C36.8895 72.278 36.2054 72.115 35.4623 72.5051L35.2627 72.322Z" fill="#521415"/>
<path d="M5.71664 59.8897C6.39444 60.087 8.25419 61.4307 8.72412 61.9194C7.59093 61.4535 6.74289 60.5367 5.6709 60.03L5.71664 59.8897Z" fill="#746158"/>
<path d="M26.7958 45.188C28.5572 47.1192 30.4758 47.7317 32.8489 48.6954C33.2258 48.8485 34.4842 49.4522 34.8356 49.3439L35.0331 48.8947C35.8058 49.632 36.6121 51.0636 37.1456 51.5114C37.0804 51.7806 37.0604 51.9128 36.9165 52.1581C33.5671 50.9983 27.7255 49.3237 25.5574 46.4091C25.968 46.1402 26.4506 45.5649 26.7958 45.188Z" fill="#525E78"/>
<path d="M45.4926 69.9201C45.5594 69.769 45.6466 69.6278 45.7518 69.5002C47.9594 66.7733 53.9805 64.595 57.1046 62.7603C58.6446 61.856 61.0281 61.2183 62.607 60.204C62.8252 60.0637 63.5059 59.7654 63.7277 59.9641C60.4428 61.6221 56.96 62.9014 53.7536 64.7523C52.9476 65.2174 51.9054 65.4463 51.1898 66.0043C49.8447 66.6356 46.5997 68.6126 45.8939 69.8329C45.5823 70.249 45.452 70.6856 45.2742 71.1708L44.9741 72.8551C45.6304 72.8562 48.1275 72.7382 48.5651 72.7937L48.0879 72.938L48.0861 73.0199L48.7392 73.1299C47.7592 73.1821 45.1928 73.3586 44.2974 73.2331C43.4495 73.0102 41.7502 72.7909 40.7666 72.5921C41.775 72.3777 43.6052 72.7104 44.6262 72.891C44.8392 71.7195 44.924 70.9712 45.4926 69.9201Z" fill="#5C575C"/>
<path d="M37.6618 50.9176C37.9996 51.2673 38.6109 52.0248 39.1075 52.0254C39.4132 52.1378 39.9523 52.7221 40.0777 53.0229C39.9838 53.1352 40.0124 53.1327 39.8929 53.1919C38.7608 52.8513 38.0226 52.6057 36.9165 52.1581C37.0604 51.9128 37.0804 51.7806 37.1456 51.5114L37.2518 51.2596L37.5381 51.1677L37.6618 50.9176Z" fill="#394353"/>
<path d="M95.0349 30.2261L95.3426 29.9309C96.3548 33.6745 96.9656 37.7126 97.6283 41.5391C97.7296 42.1237 97.6317 42.9496 97.7069 43.5778C98.0107 46.1131 98.3 48.6519 98.5799 51.1902C98.6429 51.9911 98.7344 53.2445 98.8411 53.9992C98.9528 54.7892 99.0109 57.4831 99.2608 58.0541L98.8424 58.1687C98.9499 59.2761 99.0323 64.3039 98.9352 65.4115L98.8899 65.4993C98.2971 65.4635 93.3094 67.3154 92.3518 67.674C89.9956 68.5565 87.7175 69.1264 85.3136 69.8832C82.2879 70.8359 79.2707 72.0405 76.1915 72.8204C75.8544 72.9057 74.8435 73.2044 74.5674 73.2213C74.4446 72.2813 74.4013 65.8513 74.1909 65.5918L73.9434 65.669L73.8677 65.6794C69.7539 67.1543 65.8351 68.3988 61.6582 69.6121C57.8329 70.7233 54.6072 71.9707 50.6272 72.6744C49.9682 72.6935 49.2093 72.6918 48.5651 72.7937C48.1275 72.7382 45.6304 72.8562 44.9741 72.8551L45.2742 71.1708C45.452 70.6856 45.5823 70.249 45.8939 69.8329C46.5996 68.6126 49.8447 66.6356 51.1898 66.0043C51.9522 66.0852 56.2727 63.6066 57.276 63.1411C59.3384 62.1696 61.3916 61.3043 63.4243 60.2564C64.3042 59.8027 66.0071 59.7456 66.7282 59.0279C67.0415 58.716 67.6295 57.5577 67.5827 57.0916C67.6125 56.8873 67.7971 56.5964 67.8911 56.3969C69.2461 53.5233 70.5428 50.6347 71.9996 47.8071C72.2405 47.3396 72.4881 46.8404 72.6264 46.3336L72.66 45.99C73.4737 44.3078 75.5847 40.3529 76.0911 38.8458C76.2977 38.4056 76.4013 38.0219 76.539 37.5599C76.6823 37.2622 76.8563 36.9913 76.844 36.6739C76.8397 36.3964 76.9401 36.1996 77.0395 35.9381L77.2784 36.0135L78.0825 35.8968C78.5878 35.8483 79.3809 35.7801 79.8369 36.0177L79.9782 36.4949L80.1709 36.1296C82.0621 33.8715 83.9759 33.7325 86.6332 32.9064C89.4454 32.0501 92.2463 31.1566 95.0349 30.2261Z" fill="#C5C3CB"/>
<path d="M78.0825 35.8968C78.5878 35.8483 79.3809 35.7801 79.8369 36.0177L79.9782 36.4949C79.8369 36.7956 79.6844 37.0965 79.578 37.4103C78.3469 41.1598 76.2311 45.2037 74.7432 48.9176C74.2407 50.1717 72.8073 52.0211 72.468 53.1261L72.3651 53.526L72.5571 53.7231C72.4668 53.9694 72.4378 53.9785 72.235 54.1588L72.376 54.5383C72.4701 54.7855 72.9072 55.5156 73.0612 55.7004L73.0598 55.6152C73.0558 55.1126 73.1542 54.9666 73.5035 54.6195C73.5723 54.5515 73.642 54.4846 73.7129 54.4189L73.6536 54.4665C73.847 54.8725 72.9856 55.8862 73.1423 57.0094L73.0447 57.0131C73.1219 58.129 73.5495 60.1181 73.7289 61.3648C73.9161 62.6661 73.998 64.3833 74.1959 65.5669L74.1909 65.5918L73.9434 65.669L73.8677 65.6794C69.7539 67.1543 65.8351 68.3988 61.6582 69.6121C57.8329 70.7233 54.6072 71.9707 50.6272 72.6744C49.9682 72.6935 49.2093 72.6918 48.5651 72.7937C48.1275 72.7382 45.6304 72.8562 44.9741 72.8551L45.2742 71.1708C45.452 70.6856 45.5823 70.249 45.8939 69.8329C46.5996 68.6126 49.8447 66.6356 51.1898 66.0043C51.9522 66.0852 56.2727 63.6066 57.276 63.1411C59.3384 62.1696 61.3916 61.3043 63.4243 60.2564C64.3042 59.8027 66.0071 59.7456 66.7282 59.0279C67.0415 58.716 67.6295 57.5576 67.5827 57.0916C67.6125 56.8873 67.7971 56.5964 67.8911 56.3969C69.2461 53.5233 70.5428 50.6347 71.9996 47.8071C72.2405 47.3396 72.4881 46.8404 72.6264 46.3336L72.66 45.99C73.4737 44.3078 75.5847 40.3529 76.0911 38.8458C76.2977 38.4056 76.4013 38.0219 76.539 37.5599C76.6823 37.2622 76.8563 36.9913 76.844 36.6739C76.8397 36.3964 76.9401 36.1996 77.0395 35.9381L77.2784 36.0135L78.0825 35.8968Z" fill="#E0DEE0"/>
<path d="M72.376 54.5383C72.4701 54.7855 72.9072 55.5156 73.0612 55.7004L73.0598 55.6152C73.0558 55.1126 73.1542 54.9666 73.5035 54.6195C73.5723 54.5515 73.642 54.4846 73.7129 54.4189L73.6536 54.4665C73.847 54.8725 72.9856 55.8862 73.1423 57.0094L73.0447 57.0131C73.1219 58.129 73.5495 60.1181 73.7289 61.3648C73.9161 62.6661 73.998 64.3833 74.1959 65.5669L74.1909 65.5918L73.9434 65.669L73.8677 65.6794C69.7539 67.1543 65.8351 68.3988 61.6582 69.6121C57.8329 70.7233 54.6072 71.9707 50.6272 72.6744C49.9682 72.6935 49.2093 72.6918 48.5651 72.7937C48.1275 72.7382 45.6304 72.8562 44.9741 72.8551L45.2742 71.1708C45.6224 71.2086 45.9712 71.242 46.3203 71.2714C45.9421 71.3 45.8676 71.2996 45.5101 71.4479L45.5175 71.5845C46.8494 72.3358 52.3544 71.1892 54.0113 70.7572C54.9455 70.5137 56.1885 69.8689 57.2063 69.6585C58.7159 69.3464 60.2579 69.4712 61.7456 69.0181C61.9626 68.9534 63.0915 68.3286 63.3471 68.1883C63.4666 68.1985 63.5863 68.2066 63.7061 68.2125C65.2237 68.2897 68.499 65.3304 68.8494 63.8979C68.8716 63.8072 70.0194 62.5936 70.1783 62.4422C71.6048 61.083 71.8121 59.2179 72.6227 57.5124C72.6141 57.5306 72.3744 56.5524 72.3636 56.4315C72.3068 55.8007 72.3505 55.1713 72.376 54.5383Z" fill="#B1AEB3"/>
<path d="M73.8677 65.6794C73.8193 64.4222 72.6815 56.1401 72.7402 55.9615C72.8569 56.3186 72.9477 56.6502 73.0447 57.0131C73.1219 58.129 73.5496 60.1181 73.7289 61.3648C73.9161 62.6661 73.9981 64.3833 74.1959 65.5669L74.1909 65.5918L73.9434 65.669L73.8677 65.6794Z" fill="#5C575C"/>
<path d="M45.2742 71.1708C45.452 70.6856 45.5823 70.249 45.8939 69.8329L46.0472 70.0811C47.2449 70.2238 48.9954 69.8598 49.3427 69.9511C49.5239 71.2341 47.2078 70.9869 46.4991 71.3153L46.3203 71.2714C45.9713 71.242 45.6224 71.2086 45.2742 71.1708Z" fill="#C5C3CB"/>
<path d="M72.3653 53.526L72.5573 53.7231C72.4669 53.9694 72.438 53.9785 72.2351 54.1588C70.1347 56.2801 69.3748 58.7678 66.6821 60.1129C69.0147 58.2559 70.5416 55.9317 72.3653 53.526Z" fill="#73727C"/>
<path d="M78.0824 35.8968C78.5877 35.8483 79.3808 35.7801 79.8368 36.0177C79.1591 36.0731 77.9091 36.1945 77.2783 36.0135L78.0824 35.8968Z" fill="#B1AEB3"/>
<path d="M76.9494 48.6781L76.9711 49.3235C77.7933 49.6559 78.7756 49.3703 79.614 49.2755C83.0185 48.8905 86.0796 47.5584 89.1453 46.1081C89.7079 45.8419 90.4275 44.964 90.9687 44.5983C91.4769 44.2337 92.0844 43.9791 92.6552 43.7161C93.3927 44.193 92.9053 46.2046 93.417 46.9444C93.413 46.902 93.9893 51.5401 93.8353 51.2239L93.9641 51.0766C93.9328 50.7788 93.9121 50.6642 93.9609 50.3588C94.0599 51.1413 94.0401 51.6389 94.0201 52.4313L93.8502 53.0644C93.4711 53.8403 92.631 54.1361 91.8562 54.4019C90.8548 54.7455 84.8901 56.0848 84.5696 56.8165C84.5625 56.8329 84.5594 56.851 84.5544 56.8682C84.6087 57.1462 84.687 57.4832 84.7046 57.7607C84.782 59.8557 84.9183 61.29 82.194 61.3312C80.8939 61.3509 79.6329 61.0799 78.3496 60.9774C77.8385 60.8597 76.6693 60.6294 76.2487 60.9614L76.2398 61.294L76.0082 61.552C74.331 59.3226 74.3743 57.7224 74.3783 55.0069C74.6367 53.7043 75.4341 52.5187 75.9259 51.2953C76.2878 50.3949 76.5509 49.5735 76.9494 48.6781Z" fill="#364048"/>
<path d="M76.3664 51.6888C78.153 51.5608 80.2042 51.9686 81.9063 52.5065C83.0144 52.8566 83.6465 53.3661 84.1477 54.3998L83.987 54.6143C83.6469 54.5942 83.2511 54.4579 82.9163 54.3594C83.117 54.5428 83.2333 54.6673 83.5092 54.7152C84.4572 54.8801 84.2242 55.9903 84.4392 56.7937C83.6882 56.0467 84.9052 55.4503 82.4771 54.9475C79.7878 54.3907 78.3552 52.7171 75.4365 53.0985C75.7496 52.5877 76.0036 52.1699 76.3664 51.6888Z" fill="#73727C"/>
<path d="M84.1478 54.3998C84.6643 55.6071 84.5179 55.5428 85.6775 55.1892C86.5114 54.9941 87.5419 54.5994 88.3747 54.4577C90.0178 54.1783 92.2715 52.6192 93.8502 53.0644C93.471 53.8403 92.631 54.1361 91.8561 54.4019C90.8548 54.7455 84.89 56.0848 84.5696 56.8165C84.5624 56.8329 84.5594 56.851 84.5543 56.8681L84.4393 56.7937C84.2244 55.9903 84.4573 54.8801 83.5093 54.7152C83.2335 54.6673 83.1171 54.5428 82.9165 54.3594C83.2513 54.4579 83.647 54.5942 83.9872 54.6143L84.1478 54.3998Z" fill="#525E78"/>
<path d="M98.8424 58.1687C98.9499 59.2761 99.0323 64.3039 98.9352 65.4115L98.89 65.4993C98.2971 65.4635 93.3095 67.3154 92.3518 67.674C89.9957 68.5565 87.7176 69.1264 85.3137 69.8832C82.288 70.8359 79.2707 72.0405 76.1916 72.8204C75.8544 72.9057 74.8436 73.2044 74.5674 73.2213C74.4447 72.2813 74.4013 65.8513 74.1909 65.5918L74.196 65.5669C75.6605 65.3918 75.9853 65.2644 77.4049 64.7833L77.9305 64.5747L79.2576 64.1374C79.9646 63.8403 81.1823 63.508 81.9461 63.2366C84.6945 62.2601 87.4919 61.5393 90.2924 60.7221L90.5221 61.8881C91.5558 61.8428 93.4611 61.4628 94.2272 60.7671C94.8067 60.241 94.8376 59.9326 94.8935 59.1939C95.951 58.8125 97.7053 58.4402 98.8424 58.1687Z" fill="#D32D28"/>
<path d="M83.1263 36.9807C83.1491 36.9874 83.3959 37.0592 83.3959 37.0592C86.2032 36.2421 89.1989 34.9986 92.0627 34.4562C92.4848 36.0432 92.6364 37.7387 92.8128 39.3725C92.8024 41.606 93.4237 44.6962 93.4169 46.9444C92.9051 46.2046 93.3926 44.193 92.6551 43.7161C92.0842 43.9791 91.4768 44.2337 90.9685 44.5983C90.4274 44.964 89.7078 45.8419 89.1451 46.108C86.0795 47.5584 83.0184 48.8905 79.6138 49.2755C78.7755 49.3703 77.7932 49.6559 76.971 49.3235L76.9492 48.6781C78.1799 45.8996 79.467 43.0578 80.6802 40.2675C81.1129 39.2723 82.0828 37.3333 83.1263 36.9807Z" fill="#496782"/>
<path d="M74.3781 55.0069C74.3741 57.7224 74.3309 59.3226 76.0081 61.552L76.2396 61.294L76.2486 60.9614C76.6692 60.6294 77.8384 60.8597 78.3495 60.9774L78.1578 61.0959C78.1859 61.8644 78.6709 63.7266 79.2575 64.1374L77.9305 64.5747L77.4049 64.7833C75.9852 65.2644 75.6605 65.3918 74.1959 65.5669C73.998 64.3833 73.9161 62.6661 73.7289 61.3648C73.5496 60.1181 73.1219 58.129 73.0447 57.0131L73.1423 57.0094C73.3316 57.4676 73.4827 58.4847 73.6102 59.0349C73.6004 58.1171 73.5549 57.3268 73.892 56.4588C74.1199 55.872 74.2638 55.6342 74.3781 55.0069Z" fill="#8D898F"/>
<path d="M76.2396 61.294L76.2486 60.9614C76.6692 60.6294 77.8384 60.8597 78.3495 60.9774L78.1578 61.0959C78.1859 61.8644 78.6709 63.7266 79.2575 64.1374L77.9305 64.5747L77.4049 64.7833C77.173 64.4907 76.1547 61.991 76.0081 61.552L76.2396 61.294Z" fill="#8F90A0"/>
<path d="M76.2396 61.294C76.9821 62.2426 77.4346 63.3163 77.7694 64.475L77.9305 64.5747L77.4049 64.7833C77.173 64.4907 76.1547 61.991 76.0081 61.552L76.2396 61.294Z" fill="#757789"/>
<path d="M94.4665 57.7334C94.6684 58.2902 94.7899 58.6011 94.8934 59.1939C94.8376 59.9326 94.8066 60.241 94.2272 60.7671C93.4611 61.4628 91.5557 61.8428 90.5221 61.8881L90.2923 60.7221C90.2024 59.523 89.8588 58.8065 91.0682 58.3578L91.1893 58.5053C91.6889 58.5063 93.6745 58.0381 94.2648 57.9072L94.4665 57.7334Z" fill="#292527"/>
<path d="M94.2647 57.9072L94.2989 58.2452C93.9819 58.5859 91.3279 59.0773 90.9011 58.9445L90.9084 58.7577L91.1892 58.5053C91.6888 58.5063 93.6744 58.0381 94.2647 57.9072Z" fill="#8F90A0"/>
<path d="M94.02 52.4313L94.2211 52.5077C94.3149 52.9077 94.4676 54.4493 94.236 54.6256C92.6202 55.856 89.2268 56.3641 87.2329 57.0717C86.1074 57.4712 85.7431 57.607 84.8994 57.934L84.7044 57.7607C84.6869 57.4832 84.6085 57.1462 84.5542 56.8681C84.5592 56.851 84.5623 56.8329 84.5695 56.8165C84.8899 56.0848 90.8547 54.7455 91.856 54.4019C92.6308 54.1361 93.4709 53.8403 93.8501 53.0644L94.02 52.4313Z" fill="#F8F7F9"/>
<path d="M95.0348 30.2261L95.3425 29.9309C96.3547 33.6745 96.9655 37.7126 97.6282 41.5391C97.7295 42.1237 97.6316 42.9496 97.7068 43.5778C98.0106 46.1131 98.2999 48.6519 98.5798 51.1902C98.6428 51.9911 98.7343 53.2445 98.841 53.9992C98.9527 54.7892 99.0108 57.4831 99.2607 58.0541L98.8423 58.1687C98.6988 57.4038 98.6642 56.1603 98.6076 55.345C98.5015 53.7627 98.3739 52.1819 98.2248 50.6031C98.0341 48.6538 97.8057 46.7087 97.5947 44.7615C97.4465 43.5845 97.4803 42.3028 97.2871 41.1368C96.7053 37.6249 96.0436 34.015 95.211 30.5583C91.5822 31.3815 87.7483 33.1949 84.0189 33.9251C81.8885 34.3421 80.7789 35.6477 79.7609 37.4791L79.5779 37.4103C79.6843 37.0966 79.8368 36.7956 79.9781 36.4949L80.1708 36.1296C82.0621 33.8715 83.9758 33.7325 86.6331 32.9064C89.4453 32.0501 92.2462 31.1566 95.0348 30.2261Z" fill="#5C575C"/>
<path d="M92.3883 33.9051C92.911 34.3063 93.2217 37.5706 93.2148 38.2886C93.1991 38.6511 93.2319 39.1499 93.0178 39.4069L92.8127 39.3725C92.6363 37.7387 92.4847 36.0432 92.0626 34.4562C89.1988 34.9986 86.2031 36.2421 83.3959 37.0592C83.3959 37.0592 83.1491 36.9874 83.1262 36.9807C84.3988 36.2658 90.7487 34.2885 92.3883 33.9051Z" fill="#1B191D"/>
<path d="M93.215 38.2886C93.3037 38.8681 93.4039 39.6935 93.5202 40.2455C93.7229 43.4138 93.9972 47.1887 93.9609 50.3588C93.912 50.6642 93.9328 50.7788 93.964 51.0766L93.8353 51.2239C93.9893 51.5401 93.413 46.902 93.417 46.9444C93.4238 44.6962 92.8025 41.606 92.8129 39.3725L93.0179 39.4069C93.2321 39.1499 93.1993 38.651 93.215 38.2886Z" fill="#292527"/>
<path d="M72.468 53.1261C72.8073 52.0211 74.2407 50.1717 74.7432 48.9176C76.2311 45.2037 78.3468 41.1598 79.5779 37.4103L79.761 37.4791C79.2023 39.2407 73.7261 52.5645 72.619 53.076C72.5379 53.1135 72.5423 53.1091 72.468 53.1261Z" fill="#807C80"/>
<path d="M92.3884 33.9051C92.7281 33.8315 93.0224 33.8107 93.3671 33.7794C93.4709 34.6571 93.6245 39.3734 93.5201 40.2455C93.4039 39.6935 93.3036 38.8681 93.2149 38.2886C93.2219 37.5706 92.9111 34.3063 92.3884 33.9051Z" fill="#B1AEB3"/>
<path d="M91.0681 58.3578C91.7715 58.0793 93.768 57.469 94.4664 57.7334L94.2648 57.9072C93.6745 58.0381 91.6888 58.5063 91.1892 58.5053L91.0681 58.3578Z" fill="#1B191D"/>
<path d="M5.3125 66.9323L5.39583 66.9904C5.68073 67.1679 5.89919 67.3126 6.20942 67.4454C7.07795 68.0864 8.04842 68.7813 9.03021 69.2373C9.59938 69.5582 10.6596 70.2754 11.265 70.2432L11.5161 72.2033C12.7016 73.8025 16.1608 74.9449 18.0877 75.6261C19.1845 75.9705 20.2786 76.2792 21.3608 76.6663C24.6823 77.8539 30.121 80.1442 33.6092 80.0393C33.7516 80.4619 33.7613 80.5714 33.8005 81.0187L33.6486 81.2803C33.2905 81.239 31.3927 80.7279 30.9522 80.6052C30.3462 80.6184 29.3283 80.5634 28.8595 80.8352L29.0626 80.9773L29.0601 81.1264C29.8589 81.3692 30.2682 81.9449 31.2464 82.2377C32.0947 82.4916 33.2148 82.39 33.9152 82.5848L33.3462 82.6566C33.9573 82.7359 34.4171 82.7301 34.7936 83.1969L34.8012 83.2712C34.4426 83.3111 34.0452 83.2318 33.716 83.0895C33.9259 83.8758 35.1915 83.3116 35.6767 83.6982C37.4317 83.8372 39.3838 83.8316 41.1415 84.068C41.6108 84.1311 44.3795 85.1672 44.7334 85.1342L44.4643 85.3093L44.3646 85.2882C43.9452 85.2016 43.8659 85.2061 43.4521 85.2974L43.2729 85.397L43.3286 85.6058C43.769 85.8607 45.2042 86.3145 45.7192 86.425C46.1664 86.3623 46.7143 86.2349 47.165 86.1432C47.4827 86.1233 47.5418 86.1075 47.8438 86.0049C48.1803 86.0857 48.4085 86.0441 48.4971 86.4243C48.9175 86.3739 50.153 86.045 50.6213 85.9327C51.5311 85.671 52.4423 85.4148 53.3551 85.1642C53.7617 85.0332 54.1638 84.8882 54.5604 84.7296C55.3669 84.3986 56.684 83.692 57.0281 82.8656C56.9923 83.5428 56.6136 85.0867 56.3171 85.7062C55.4269 88.0595 54.3585 91.4386 52.6292 93.2093C52.0969 93.7543 50.5661 94.5371 50.0492 95.0227C44.2872 96.723 41.2855 95.6446 35.6281 94.2132C33.6766 93.7195 32.0185 93.5339 29.962 92.7567C29.0478 92.4114 25.359 90.9349 24.6881 91.0103C21.3194 93.7996 17.2752 91.6357 14.0083 90.0343C12.4395 89.2653 10.2018 86.8104 9.67288 85.1842L9.51387 84.7204C8.87968 84.2731 8.68145 83.9353 7.90931 83.5502C5.78299 82.4896 2.93515 80.383 2.10374 78.0807C1.65656 76.9034 1.25222 72.5908 1.44252 71.3159C1.70543 69.3258 3.58163 69.171 4.91626 68.1529C5.24952 67.7671 5.30521 67.418 5.3125 66.9323Z" fill="#39363B"/>
<path d="M2.10386 78.0807L2.10869 78.0045C2.13499 77.5481 1.97167 77.1524 2.12147 76.9555C2.25341 76.9724 5.03427 79.3681 5.78059 79.3383C6.23244 79.6199 6.68045 79.9074 7.12451 80.201L7.19618 80.017C8.03461 80.5173 9.53657 81.5823 10.307 81.9223C10.1332 81.7596 10.0193 81.6666 9.88268 81.4647C10.8141 81.3325 13.5495 82.5541 14.7302 82.8349C16.212 83.1874 17.9535 83.8334 19.4544 84.2202C20.4497 84.4767 21.4684 84.656 22.4583 84.9241C24.4665 85.4679 26.4989 85.9685 28.5321 86.4108C29.2663 86.5705 30.2028 86.5791 30.9964 86.7333C32.0518 86.9383 33.1464 87.2551 34.1896 87.4304C34.8899 87.5482 36.0861 87.4158 36.804 87.5162C37.6746 87.6378 38.3181 87.8831 39.2214 87.9186C40.3864 87.9644 41.3561 87.6263 42.4317 87.5108C43.0518 87.4442 44.6925 87.5997 45.3829 87.6463C48.5792 87.8621 50.4847 88.2428 53.6244 87.0156C54.0338 86.8557 54.6923 86.5173 55.1029 86.3C55.1289 86.2861 55.4585 86.4822 55.5327 86.5373C55.5701 86.5648 55.6069 86.593 55.6434 86.6218L55.7856 86.5725C55.9314 86.2628 56.0552 85.913 56.3172 85.7061C55.427 88.0595 54.3586 91.4386 52.6293 93.2093C52.0971 93.7543 50.5662 94.5371 50.0494 95.0227C44.2873 96.723 41.2856 95.6446 35.6283 94.2132C33.6767 93.7195 32.0186 93.5339 29.9622 92.7567C29.0479 92.4114 25.3591 90.9349 24.6883 91.0103C21.3195 93.7996 17.2753 91.6357 14.0084 90.0343C12.4396 89.2653 10.2019 86.8104 9.673 85.1842L9.51398 84.7204C8.87979 84.2731 8.68156 83.9353 7.90943 83.5502C5.78311 82.4896 2.93527 80.383 2.10386 78.0807Z" fill="#302C2F"/>
<path d="M9.67285 85.1842C10.7171 85.4521 11.799 86.2445 13.1071 86.6336C13.3929 86.8348 14.8339 87.3612 15.3042 87.5476C17.1015 88.2601 18.9599 89.1733 20.763 89.8219C21.9997 90.267 23.4103 90.5433 24.6881 91.0103C21.3194 93.7996 17.2752 91.6357 14.0083 90.0343C12.4395 89.2653 10.2018 86.8104 9.67285 85.1842Z" fill="#1B191D"/>
<path d="M7.19619 80.017C8.03461 80.5173 9.53658 81.5823 10.3071 81.9223C10.7014 82.396 18.7554 85.5967 20.034 86.1551C20.5963 86.4005 23.1985 87.0514 24.0023 87.3259C24.7079 87.5668 28.4517 87.9506 28.8112 88.3861C28.8405 88.7735 28.6521 89.1699 28.5119 89.5394C26.2075 88.8667 23.942 87.7522 21.6485 87.0449C18.9737 86.3696 16.537 84.9454 14.0093 84.0002C11.0606 82.8975 9.6836 81.9461 7.12451 80.201L7.19619 80.017Z" fill="#0F0D0F"/>
<path d="M9.51392 84.7204C10.1252 84.8284 12.3959 86.0855 13.1023 86.4572C13.122 86.5707 13.1424 86.5587 13.1072 86.6336C11.7991 86.2445 10.7171 85.4521 9.67293 85.1842L9.51392 84.7204Z" fill="#73727C"/>
<path d="M31.9895 88.2455C37.3092 89.7012 43.0204 90.7497 48.5218 89.8086C50.018 89.5527 52.1211 88.7447 53.4251 88.6682C47.3865 91.5265 39.1085 90.3214 32.8933 88.7725C32.359 88.6395 32.2874 88.7067 31.9895 88.2455Z" fill="#1B191D"/>
<path d="M5.3125 66.9323L5.39583 66.9904C5.68074 67.1679 5.8992 67.3126 6.20942 67.4454C7.07796 68.0864 8.04843 68.7813 9.03022 69.2373C9.59938 69.5582 10.6596 70.2754 11.265 70.2432L11.5161 72.2033C12.7016 73.8025 16.1608 74.9449 18.0877 75.6261C19.1845 75.9705 20.2786 76.2792 21.3608 76.6663C24.6823 77.8539 30.121 80.1442 33.6092 80.0393C33.7516 80.4619 33.7613 80.5714 33.8005 81.0187L33.6486 81.2803C33.2905 81.239 31.3927 80.7279 30.9522 80.6052C30.3463 80.6184 29.3283 80.5634 28.8595 80.8352L29.0627 80.9773L29.0601 81.1264C29.8589 81.3692 30.2682 81.9449 31.2464 82.2377C32.0947 82.4916 33.2148 82.39 33.9152 82.5848L33.3462 82.6566C33.9573 82.7359 34.4171 82.7301 34.7936 83.1969L34.8012 83.2712C34.4426 83.3111 34.0452 83.2318 33.7161 83.0895C33.9259 83.8758 35.1915 83.3116 35.6767 83.6982C34.7767 83.6759 33.9153 83.6499 33.0321 83.862C32.8039 83.9168 32.0869 84.2288 31.9453 84.2116C30.1675 83.9957 27.5601 83.4784 25.9102 82.9911L25.5983 83.3601L24.7068 83.2796L24.6308 82.9648C24.41 82.8092 23.5956 82.5614 23.2986 82.4608C21.5252 81.8737 19.7603 81.2609 18.0044 80.623C17.0264 80.2575 15.8782 79.7027 14.9289 79.4429C14.8866 79.4397 14.8444 79.4364 14.8021 79.433C13.2081 79.1155 11.2592 77.8638 10.4124 76.431C9.27194 74.5014 8.14605 73.4374 6.4905 71.9825C6.39682 71.9002 5.82162 70.7975 5.7362 70.6031C5.47239 70.0026 4.96191 69.7057 5.05977 69.044C5.08963 68.8326 4.96674 68.3831 4.91626 68.1529C5.24953 67.7671 5.30521 67.418 5.3125 66.9323Z" fill="#424047"/>
<path d="M5.3125 66.9323L5.39583 66.9904C5.68074 67.1679 5.8992 67.3126 6.20942 67.4454C7.07796 68.0864 8.04843 68.7813 9.03022 69.2373C9.59938 69.5582 10.6596 70.2754 11.265 70.2432L11.5161 72.2033C12.7016 73.8025 16.1608 74.9449 18.0877 75.6261C19.1845 75.9705 20.2786 76.2792 21.3608 76.6663C24.6823 77.8539 30.121 80.1442 33.6092 80.0393C33.7516 80.4619 33.7613 80.5714 33.8005 81.0187L33.6486 81.2803C33.2905 81.239 31.3927 80.7279 30.9522 80.6052C30.3463 80.6184 29.3283 80.5634 28.8595 80.8352C27.9997 80.5925 27.0599 80.2312 26.192 79.9567C25.2244 79.6506 24.0187 79.3976 23.1293 78.9601C22.6774 78.9419 20.1171 77.7886 19.5418 77.5696C16.0176 76.229 13.5402 75.7794 10.5577 73.3003C8.67321 71.7338 6.83213 71.2284 5.05977 69.044C5.08963 68.8326 4.96674 68.3831 4.91626 68.1529C5.24953 67.7671 5.30521 67.418 5.3125 66.9323Z" fill="#888A9E"/>
<path d="M5.396 66.9904C5.6809 67.1679 5.89936 67.3126 6.20958 67.4454C7.07812 68.0864 8.04859 68.7813 9.03038 69.2373C9.59954 69.5582 10.6597 70.2754 11.2652 70.2432L11.5163 72.2033C12.7017 73.8025 16.161 74.9449 18.0879 75.6261L18.076 75.7561L18.2658 75.9483L18.0977 75.8464L17.9384 75.918C16.8577 75.8399 11.7347 73.895 11.2996 72.3948C11.1041 71.7211 11.2545 70.9929 10.5484 70.5628C9.30086 69.803 8.0033 69.1948 6.79861 68.3955C6.36211 68.1059 5.48166 67.4778 5.396 66.9904Z" fill="#C5C3CB"/>
<path d="M23.1294 78.9601C24.1488 78.8858 26.1449 80.0972 26.8065 79.6295L26.7907 79.5674C26.5408 79.4651 26.4682 79.4554 26.2 79.4151L26.1286 79.2914C26.7254 79.2977 30.5132 80.3114 30.9523 80.6052C30.3463 80.6184 29.3284 80.5634 28.8596 80.8352C27.9997 80.5925 27.0599 80.2312 26.1921 79.9567C25.2244 79.6506 24.0188 79.3976 23.1294 78.9601Z" fill="#757789"/>
<path d="M24.6309 82.9648C25.0694 82.9871 25.4697 83.0132 25.9103 82.9911L25.5983 83.3601L24.7068 83.2796L24.6309 82.9648Z" fill="#5C575C"/>
<path d="M4.91636 68.1529C4.96684 68.3831 5.08973 68.8326 5.05987 69.044C4.96201 69.7057 5.47249 70.0026 5.7363 70.6031C5.82172 70.7975 6.39692 71.9002 6.4906 71.9825C8.14615 73.4374 9.27204 74.5014 10.4125 76.431C11.2593 77.8638 13.2082 79.1155 14.8022 79.433C14.8445 79.4364 14.8867 79.4397 14.929 79.4429L14.634 79.7762C12.9769 79.3911 11.6954 78.5929 10.198 77.8622C6.78586 76.1972 4.31318 74.8513 1.50818 72.274L1.44263 71.3159C1.70553 69.3258 3.58174 69.171 4.91636 68.1529Z" fill="#66759E"/>
<path d="M25.9103 82.9911C27.5602 83.4784 30.1676 83.9957 31.9454 84.2116C32.087 84.2288 32.804 83.9168 33.0322 83.862C33.9154 83.6499 34.7768 83.6759 35.6769 83.6982C37.4318 83.8372 39.384 83.8316 41.1416 84.068C41.6109 84.1311 44.3796 85.1672 44.7335 85.1342L44.4644 85.3093L44.3648 85.2882C43.9453 85.2016 43.866 85.2061 43.4522 85.2974L43.273 85.397L43.3287 85.6058C43.7691 85.8607 45.2043 86.3145 45.7194 86.425C45.4051 86.5171 45.2412 86.532 45.0578 86.81C41.6735 87.2544 35.8261 85.7839 32.4464 85.0025C30.1545 84.4944 27.8714 83.9469 25.5984 83.3601L25.9103 82.9911Z" fill="#8C796E"/>
<path d="M14.929 79.4429C15.8784 79.7027 17.0266 80.2575 18.0046 80.623C19.7604 81.2609 21.5253 81.8737 23.2988 82.4608C23.5958 82.5614 24.4102 82.8092 24.631 82.9648L24.7069 83.2796C23.6872 82.9431 22.4476 82.6342 21.3632 82.2852C19.0843 81.5485 16.839 80.7114 14.634 79.7762L14.929 79.4429Z" fill="#66759E"/>
<path d="M50.6214 85.9326C51.5312 85.671 52.4424 85.4148 53.3552 85.1642C51.3506 86.6972 50.302 86.7256 47.8459 86.5945L48.4972 86.4243C48.9176 86.3739 50.1531 86.045 50.6214 85.9326Z" fill="#46424A"/>
<path d="M47.1651 86.1432C47.4828 86.1233 47.5419 86.1075 47.844 86.0049C48.1804 86.0857 48.4086 86.0441 48.4972 86.4243L47.846 86.5945C46.8278 86.7422 46.0776 86.7719 45.0579 86.81C45.2412 86.532 45.4051 86.5171 45.7194 86.425C46.1665 86.3623 46.7144 86.2349 47.1651 86.1432Z" fill="#D9C3AF"/>
<path d="M5.78052 79.3383C6.19401 79.345 6.93981 79.7039 7.19611 80.017L7.12443 80.201C6.68037 79.9074 6.23236 79.6199 5.78052 79.3383Z" fill="#292527"/>
<path d="M61.5407 78.228C62.3223 77.6287 63.1723 77.1243 64.0727 76.7253C66.193 75.7992 68.7527 75.4861 70.9495 76.3397C71.0179 76.327 71.0857 76.3124 71.1533 76.2959C71.4881 76.2109 71.7156 76.1684 71.8749 75.9075C72.4024 76.2048 72.589 76.3356 73.0556 76.7221C72.3513 77.388 73.4522 78.0442 73.6609 78.8154C73.9219 79.3171 74.0887 79.6233 74.4117 80.0997C74.4629 79.9492 74.491 79.8604 74.5647 79.7155C75.074 80.3333 74.6916 81.1447 75.2896 81.5572L75.3387 82.4129C75.738 83.7482 75.8098 83.9837 76.0484 85.3069C75.8268 85.7173 75.6348 86.3493 75.954 86.7647L75.6515 87.074L75.6701 87.3127C75.5582 87.436 75.4489 87.5606 75.3302 87.6772C75.2859 88.9173 74.9339 89.1217 74.5957 90.2092C74.5371 90.4504 74.4942 90.6068 74.4708 90.8575L74.0474 90.9174L73.7851 90.9301C73.5425 91.5506 73.5092 92.3368 73.348 92.9999C73.1002 94.0197 72.8497 95.0379 72.5588 96.047C71.7695 98.6974 69.8585 101.57 67.9422 103.573C67.4482 104.089 66.2805 104.705 65.6598 105.017C62.4466 106.673 59.1776 105.37 55.9958 104.307C54.0864 103.669 52.4357 102.01 51.4809 100.247C50.6232 98.6625 50.6182 96.5224 50.0494 95.0227C50.5662 94.5371 52.0971 93.7543 52.6293 93.2093C54.3586 91.4386 55.427 88.0595 56.3172 85.7062C56.6137 85.0867 56.9924 83.5428 57.0282 82.8656C56.6841 83.692 55.367 84.3986 54.5605 84.7296C54.1639 84.8882 53.7618 85.0332 53.3552 85.1642C52.4425 85.4148 51.5312 85.671 50.6215 85.9327C50.1531 86.045 48.9176 86.3739 48.4972 86.4243C48.4086 86.0441 48.1804 86.0857 47.844 86.0049C47.5419 86.1075 47.4828 86.1233 47.1651 86.1432C46.7144 86.2349 46.1665 86.3623 45.7194 86.425C45.2043 86.3145 43.7691 85.8607 43.3287 85.6058L43.273 85.397L43.4522 85.2974C43.866 85.2061 43.9453 85.2016 44.3648 85.2882L44.4644 85.3093L44.7335 85.1342C44.3796 85.1672 41.6109 84.1311 41.1416 84.068C39.384 83.8316 37.4318 83.8372 35.6769 83.6982C35.1917 83.3116 33.9261 83.8758 33.7162 83.0895C34.0454 83.2318 34.4427 83.3111 34.8014 83.2712L34.7937 83.1969C34.4173 82.7301 33.9574 82.7359 33.3463 82.6566L33.9153 82.5848C33.2149 82.39 32.0949 82.4916 31.2465 82.2377C30.2683 81.9449 29.8591 81.3692 29.0602 81.1264L29.0628 80.9773L28.8596 80.8352C29.3284 80.5634 30.3464 80.6184 30.9523 80.6052C31.3928 80.7279 33.2906 81.239 33.6487 81.2803C33.8985 81.5282 34.082 81.7059 34.3001 81.9844C35.7077 82.1671 38.7595 83.0417 39.7038 83.0153C44.6811 83.4528 48.4589 84.1582 53.4581 83.0923C54.1467 82.9456 56.595 82.7294 57.0989 82.2302C58.631 80.7128 59.82 79.5556 61.5407 78.228Z" fill="#282526"/>
<path d="M33.9152 82.5848C39.0815 83.0467 43.9669 84.5538 49.2599 84.2325C48.9325 84.4475 48.253 84.9339 47.9113 85.0288C48.9809 85.1681 49.3369 85.1607 50.3467 85.2013L50.3974 85.4015L50.5906 85.48C50.505 85.7516 50.5055 85.6338 50.6214 85.9326C50.153 86.045 48.9175 86.3739 48.4971 86.4243C48.4085 86.0441 48.1803 86.0857 47.8439 86.0049C47.5418 86.1075 47.4827 86.1233 47.165 86.1432C46.7143 86.2349 46.1664 86.3623 45.7193 86.425C45.2042 86.3145 43.769 85.8607 43.3286 85.6058L43.273 85.397L43.4521 85.2974C43.8659 85.2061 43.9452 85.2016 44.3647 85.2882L44.4643 85.3093L44.7334 85.1342C44.3795 85.1672 41.6108 84.1311 41.1415 84.068C39.3839 83.8316 37.4317 83.8372 35.6768 83.6982C35.1916 83.3116 33.926 83.8758 33.7161 83.0895C34.0453 83.2318 34.4426 83.3111 34.8013 83.2712L34.7936 83.1969C34.4172 82.7301 33.9573 82.7359 33.3462 82.6566L33.9152 82.5848Z" fill="#746158"/>
<path d="M45.7193 86.425C45.2042 86.3145 43.769 85.8607 43.3286 85.6058L43.2729 85.397L43.4521 85.2974C44.3354 85.5102 46.44 85.6837 47.0245 85.8989L47.165 86.1432C46.7143 86.2349 46.1664 86.3623 45.7193 86.425Z" fill="#977D6B"/>
<path d="M47.844 86.0049C48.3737 85.7922 49.8257 85.5142 50.3975 85.4015L50.5907 85.48C50.5051 85.7516 50.5056 85.6338 50.6215 85.9327C50.1531 86.045 48.9176 86.3739 48.4972 86.4243C48.4086 86.0441 48.1804 86.0857 47.844 86.0049Z" fill="#B1AEB3"/>
<path d="M72.9099 78.6826L72.9294 78.3233L73.0585 78.253C73.2017 78.3941 73.5077 78.7375 73.661 78.8154C73.922 79.3171 74.0887 79.6233 74.4117 80.0997C74.4629 79.9492 74.491 79.8604 74.5648 79.7155C75.0741 80.3333 74.6917 81.1447 75.2896 81.5572L75.3388 82.4129C75.738 83.7482 75.8099 83.9837 76.0485 85.3069C75.8268 85.7173 75.6348 86.3493 75.954 86.7647L75.6515 87.074L75.6702 87.3127C75.5582 87.436 75.4489 87.5606 75.3302 87.6772C75.286 88.9173 74.9339 89.1217 74.5957 90.2092C74.6151 85.7631 74.8436 82.6573 72.9099 78.6826Z" fill="#675A5A"/>
<path d="M75.3386 82.4129C75.7378 83.7482 75.8097 83.9837 76.0483 85.3069C75.8266 85.7173 75.6346 86.3493 75.9538 86.7647L75.6514 87.074L75.67 87.3127C75.5581 87.436 75.4487 87.5606 75.3301 87.6772C75.4066 87.1775 75.3386 83.1468 75.3386 82.4129Z" fill="#807C80"/>
<path d="M49.26 84.2326C51.8516 83.8995 54.4596 83.3559 57.0282 82.8656C56.6841 83.692 55.367 84.3986 54.5605 84.7296C54.1639 84.8882 53.7618 85.0332 53.3552 85.1642C52.4424 85.4148 51.5311 85.671 50.6214 85.9327C50.5055 85.6338 50.5051 85.7516 50.5906 85.48L50.3975 85.4015L50.3468 85.2013C49.337 85.1607 48.981 85.1681 47.9114 85.0288C48.2531 84.9339 48.9326 84.4475 49.26 84.2326Z" fill="#757683"/>
<path d="M30.9523 80.6052C31.3928 80.7279 33.2906 81.239 33.6487 81.2803C33.8985 81.5282 34.082 81.7059 34.3001 81.9844C32.567 82.1427 30.6737 81.5242 29.0628 80.9773L28.8596 80.8352C29.3284 80.5634 30.3464 80.6184 30.9523 80.6052Z" fill="#73727C"/>
<path d="M71.8748 75.9075C72.4023 76.2048 72.589 76.3356 73.0555 76.7221C72.3513 77.3879 73.4522 78.0442 73.6609 78.8154C73.5076 78.7375 73.2017 78.3941 73.0584 78.253L72.9293 78.3233L72.9098 78.6826C72.3644 77.4736 71.9919 77.0854 70.9495 76.3397C71.0178 76.327 71.0857 76.3124 71.1532 76.2959C71.4881 76.2109 71.7156 76.1684 71.8748 75.9075Z" fill="#766D6D"/>
<path d="M73.785 90.9301C73.6114 90.3964 73.5935 87.4852 73.7995 86.9416C74.0829 87.3806 74.0686 90.2845 74.0474 90.9175L73.785 90.9301Z" fill="#5C575C"/>
<path d="M69.7688 95.1716C68.9741 97.0286 68.3816 98.259 66.7629 99.529C62.0411 103.246 59.2013 96.8961 59.9095 92.9363C60.0553 91.5857 60.4185 90.63 60.8816 89.3494C61.8326 86.7198 64.0976 83.606 67.2413 83.8588C68.447 83.9557 69.2152 85.0438 69.8875 85.9774C71.2158 87.9829 71.145 93.2687 69.7688 95.1716Z" fill="#868082"/>
<path d="M69.7688 95.1716C68.9741 97.0286 68.3816 98.259 66.7629 99.529C62.0411 103.246 59.2013 96.8961 59.9095 92.9363C60.0553 91.5857 60.4185 90.63 60.8816 89.3494C61.8326 86.7198 64.0976 83.606 67.2413 83.8588C68.447 83.9557 69.2152 85.0438 69.8875 85.9774C69.555 85.7124 69.6268 85.6764 69.3082 85.7093C69.2347 85.8447 69.1422 85.9796 69.1283 86.1284C68.943 85.5078 69.2212 85.2133 68.5159 84.753C65.8861 83.0365 63.2927 85.6732 62.0249 87.8464C61.3418 89.0173 60.317 91.9967 60.2163 93.5065L60.4843 93.5427C60.439 94.05 60.8812 94.8451 61.1958 95.2306C61.9996 96.2156 63.3341 96.7713 64.5775 96.8805C65.2604 96.9395 66.2922 96.6146 66.9384 96.7044L66.9949 96.9077C66.822 97.0904 66.5748 97.3689 66.3915 97.526L66.5481 97.6221C67.4339 97.0844 67.6664 96.5887 68.6309 96.0592L69.0282 96.1845C69.0584 95.876 69.0463 95.6991 69.2514 95.4601C69.4724 95.3703 69.5278 95.3436 69.7235 95.2043L69.7688 95.1716Z" fill="#B1AEB3"/>
<path d="M60.2161 93.5065L60.4841 93.5427C60.4388 94.05 60.881 94.8451 61.1956 95.2306C61.9994 96.2156 63.3339 96.7713 64.5773 96.8805C65.2602 96.9395 66.292 96.6146 66.9382 96.7044L66.9947 96.9077C66.8219 97.0904 66.5746 97.3689 66.3914 97.526L66.5479 97.6221C66.075 98.0449 65.7971 98.3112 65.2514 98.6454C63.595 99.7434 62.9679 98.9471 62.0215 99.3393C61.3225 98.5808 60.7881 97.6859 60.4518 96.7107C60.1919 95.9605 59.8918 94.1809 60.2161 93.5065Z" fill="#52494A"/>
<path d="M66.3915 97.526L66.548 97.6221C66.0751 98.0449 65.7972 98.3112 65.2515 98.6454C65.2102 98.5524 65.168 98.5173 65.1013 98.4354C64.6459 98.6078 64.0525 98.9402 63.6138 98.6702C63.7821 98.3655 64.3153 98.4098 64.6486 98.2779C65.2376 98.0448 65.813 97.7842 66.3915 97.526Z" fill="#46424A"/>
<path d="M66.5479 97.6221C67.4337 97.0844 67.6662 96.5887 68.6307 96.0592L69.028 96.1845C68.5081 97.3405 66.1275 99.47 64.8703 99.9544C63.9227 100.319 62.7083 100.191 62.0215 99.3393C62.9679 98.9471 63.595 99.7434 65.2514 98.6455C65.7971 98.3112 66.075 98.0449 66.5479 97.6221Z" fill="#73727C"/>
<path d="M69.1281 86.1284C69.142 85.9796 69.2345 85.8447 69.308 85.7093C69.6266 85.6764 69.5549 85.7124 69.8873 85.9774C71.2156 87.9829 71.1448 93.2687 69.7686 95.1716L69.7233 95.2043C69.5276 95.3436 69.4722 95.3703 69.2512 95.4601C69.0461 95.6991 69.0582 95.876 69.028 96.1845L68.6307 96.0592C67.6662 96.5887 67.4337 97.0844 66.5479 97.6221L66.3914 97.526C66.5746 97.3689 66.8219 97.0904 66.9947 96.9077C67.2714 96.689 67.6569 95.978 67.8485 95.6492C69.139 93.4701 69.0536 91.9093 68.9359 89.4286L69.0968 89.4578C69.5227 88.6723 69.0202 87.2613 69.1281 86.1284Z" fill="#5A5354"/>
<path d="M60.2161 93.5065C60.3169 91.9967 61.3416 89.0173 62.0247 87.8464C63.2926 85.6732 65.886 83.0365 68.5157 84.753C69.221 85.2133 68.9428 85.5078 69.1281 86.1284C69.0202 87.2613 69.5227 88.6723 69.0968 89.4578L68.9359 89.4286C68.8053 87.6609 67.9473 85.9302 65.9924 85.5514C65.7021 85.4951 65.3796 85.637 65.1103 85.748C63.3059 86.6258 62.8494 86.8292 61.9078 88.6054C61.5833 89.7885 61.1281 90.8323 60.8246 92.0165C60.6169 92.6828 60.623 93.0506 60.4841 93.5427L60.2161 93.5065Z" fill="#46424A"/>
<path d="M65.1105 85.748C65.6588 85.9703 65.5619 86.4121 65.88 86.6798C66.2082 86.9562 66.1916 86.4883 66.4372 87.0053C66.3022 88.1307 65.0615 90.0232 63.7367 89.8512C62.9616 89.7506 62.4922 89.0685 61.908 88.6054C62.8496 86.8292 63.3061 86.6258 65.1105 85.748Z" fill="#C5C3CB"/>
<path d="M60.8246 92.0165C60.8096 92.6509 60.7941 93.0858 60.7136 93.7195C61.6126 94.9387 63.1005 96.0622 64.617 96.2443C66.1349 96.4265 66.5404 96.1884 67.8486 95.6492C67.6569 95.978 67.2714 96.689 66.9948 96.9077L66.9383 96.7044C66.2921 96.6146 65.2603 96.9395 64.5774 96.8805C63.334 96.7713 61.9994 96.2156 61.1957 95.2306C60.881 94.8451 60.4388 94.05 60.4842 93.5427C60.6231 93.0506 60.6169 92.6828 60.8246 92.0165Z" fill="#5C575C"/>
<path d="M66.3017 79.0601C67.0702 79.0489 67.8175 79.08 68.5851 79.1076C67.788 79.116 66.7303 79.0883 65.975 79.2524L65.995 79.3594L66.3222 79.4615C66.1326 79.6409 65.4554 79.6531 65.1525 79.7878C62.6457 80.9021 59.8278 84.2131 58.8508 86.6458C58.4394 87.1054 58.5835 87.9453 58.039 88.5156L57.9746 88.4736C58.5328 87.6287 58.3389 86.2309 59.194 84.9151C61.307 81.6636 62.5559 80.1793 66.3017 79.0601Z" fill="#807C80"/>
<path d="M74.1908 65.5918C74.4012 65.8513 74.4446 72.2813 74.5674 73.2213L74.292 73.3986C73.5895 73.6753 72.8816 73.9383 72.1688 74.1874C69.2603 72.9062 67.2568 72.6187 64.2521 73.8598C63.3255 74.2424 59.934 76.061 59.325 76.7079C56.5284 79.6786 54.7254 79.1057 50.9367 80.0079C50.7421 80.0554 50.4353 80.1196 50.2549 80.1786C48.6072 80.55 45.9991 81.0879 44.3613 80.3848L44.2502 80.3651C44.048 79.9157 44.2002 77.6383 44.1962 76.9084C44.1893 75.9221 44.171 75.1619 44.0808 74.1826C44.1083 73.932 44.165 73.6768 44.2139 73.4286L44.2973 73.2331C45.1927 73.3586 47.7592 73.1821 48.7392 73.1299L48.086 73.0199L48.0878 72.938L48.565 72.7937C49.2093 72.6918 49.9682 72.6935 50.6272 72.6744C54.6071 71.9707 57.8329 70.7233 61.6582 69.6121C65.8351 68.3988 69.7538 67.1543 73.8677 65.6794L73.9434 65.669L74.1908 65.5918Z" fill="#D32D28"/>
<path d="M48.565 72.7937C49.2093 72.6918 49.9682 72.6935 50.6272 72.6744C50.7699 72.9499 50.9175 73.256 51.0847 73.5144L50.7898 73.5507L50.8741 73.8335C50.9818 74.8133 50.8398 76.648 50.6177 77.6107C50.578 78.4236 50.5335 79.4135 50.2549 80.1786C48.6072 80.55 45.9991 81.0879 44.3613 80.3848L44.2502 80.3651C44.048 79.9157 44.2002 77.6383 44.1962 76.9084C44.1893 75.9221 44.171 75.1619 44.0808 74.1826C44.1083 73.932 44.165 73.6768 44.2139 73.4286L44.2973 73.2331C45.1927 73.3586 47.7592 73.1821 48.7392 73.1299L48.086 73.0199L48.0878 72.938L48.565 72.7937Z" fill="#F3790A"/>
<path d="M45.5366 79.5689C47.3162 79.5521 50.0806 79.8042 50.6177 77.6107C50.5781 78.4236 50.5336 79.4135 50.255 80.1786C48.6073 80.55 45.9992 81.0879 44.3613 80.3848C44.7551 80.1158 45.1469 79.8438 45.5366 79.5689Z" fill="#D32D28"/>
<path d="M48.565 72.7937C49.2093 72.6918 49.9681 72.6935 50.6271 72.6744C50.7699 72.9499 50.9175 73.256 51.0847 73.5144L50.7898 73.5507L50.874 73.8335C50.5105 73.9568 50.2161 73.7986 49.8511 73.727C48.3269 73.4284 46.6692 73.5459 45.12 73.5969C45.1002 74.1421 45.0441 75.0028 44.9638 75.5406C44.8911 74.837 44.7406 73.908 44.2139 73.4286L44.2973 73.2331C45.1927 73.3586 47.7592 73.1821 48.7391 73.1299L48.086 73.0199L48.0878 72.938L48.565 72.7937Z" fill="#E67B33"/>
<path d="M48.5652 72.7937C49.2095 72.6918 49.9683 72.6935 50.6273 72.6744C50.7701 72.9499 50.9177 73.256 51.0848 73.5144L50.7899 73.5507C50.2538 73.016 49.5178 73.1359 48.7393 73.1299L48.0862 73.0199L48.088 72.938L48.5652 72.7937Z" fill="#521415"/>
<path d="M51.0846 73.5144C52.242 75.0016 50.5643 79.0558 50.9366 80.0079C50.7421 80.0554 50.4352 80.1196 50.2549 80.1786C50.5335 79.4135 50.578 78.4236 50.6176 77.6107C50.8397 76.648 50.9817 74.8133 50.874 73.8335L50.7897 73.5507L51.0846 73.5144Z" fill="#960E0D"/>
<path d="M74.1908 65.5918C74.4012 65.8513 74.4446 72.2813 74.5673 73.2213L74.292 73.3986C74.0591 71.4014 74.2378 67.2398 73.9434 65.669L74.1908 65.5918Z" fill="#960E0D"/>
<path d="M98.7426 72.7448C100.726 73.3496 108.328 70.404 110.751 69.8218C111.7 69.5939 112.049 68.9382 113.396 68.9698C112.881 69.934 112.417 70.9245 112.006 71.9371C111.176 73.9953 110.573 76.1561 109.651 78.1936C109.013 79.6053 108.411 79.307 107.178 79.8611C104.574 80.6181 102.08 81.651 99.5178 82.505L88.9496 86.1148C87.4749 86.6063 85.981 86.9739 84.4965 87.489C81.1502 88.6503 77.9433 90.1041 74.4707 90.8575C74.4942 90.6068 74.537 90.4504 74.5956 90.2092C74.9338 89.1217 75.2858 88.9173 75.3301 87.6772C75.4488 87.5606 75.5581 87.436 75.67 87.3127L75.6514 87.074L75.9539 86.7647C78.1944 86.3872 83.0361 84.4247 85.453 83.6857C88.3528 82.7989 94.46 80.9899 96.9954 79.5844C97.4761 79.1157 97.53 79.093 97.4048 78.4414L97.4168 78.4241C98.1219 77.543 98.6409 73.9101 98.7426 72.7448Z" fill="#8F888D"/>
<path d="M96.9953 79.5844L97.0439 79.8257C95.863 81.0392 88.7195 83.0727 86.8031 83.6876C84.2936 84.4929 81.6457 85.6166 79.091 86.3678C78.1033 86.6581 76.9495 86.8804 75.9535 87.201C75.8121 87.1563 75.7732 87.1578 75.6514 87.074L75.9538 86.7647C78.1944 86.3872 83.0361 84.4246 85.4529 83.6857C88.3528 82.7989 94.4599 80.9899 96.9953 79.5844Z" fill="#C5C3CB"/>
<path d="M35.4622 72.5051C36.2054 72.115 36.8894 72.278 37.6889 72.4064C38.6573 72.4379 39.7324 72.744 40.6678 72.571L40.7666 72.5921C41.7502 72.7909 43.4495 73.0102 44.2974 73.2331L44.214 73.4286C44.165 73.6768 44.1083 73.932 44.0809 74.1826C44.171 75.1619 44.1893 75.9221 44.1963 76.9084C44.2003 77.6383 44.048 79.9157 44.2502 80.3651L43.7477 80.3084C42.934 79.9949 42.0924 80.1116 41.1671 79.8032C40.8192 79.8082 40.0099 79.6992 39.5829 79.6744C39.817 79.5884 39.8466 79.5756 40.0202 79.3974L39.9812 79.2291C39.7031 79.066 39.2945 79.0654 38.9637 79.0373L38.577 78.9267L37.2487 78.5764L37.1534 78.7395C36.8798 78.8163 36.6448 78.5945 36.1919 78.5103L36.1158 78.4966L36.4243 79.0801L36.3435 79.0396C35.9561 78.8423 35.861 78.745 35.7035 78.3155C35.6394 78.6723 35.6033 78.5739 35.7332 78.8509C35.9701 78.9981 36.1804 79.0836 36.2773 79.3302C36.1263 79.5264 36.2117 79.4694 35.9205 79.5127C35.2845 78.7709 35.1789 78.2396 34.3188 77.4589C34.3412 77.099 34.4474 76.502 34.502 76.1267L34.3679 75.9879C34.4171 75.0322 34.799 73.2263 35.4622 72.5051Z" fill="#FEFEDE"/>
<path d="M35.4622 72.5051C36.2054 72.115 36.8894 72.278 37.6889 72.4064C38.6573 72.4379 39.7324 72.744 40.6678 72.571L40.7666 72.5921C41.7502 72.7909 43.4495 73.0102 44.2974 73.2331L44.214 73.4286C44.165 73.6768 44.1083 73.932 44.0809 74.1826C43.2305 73.7726 42.3332 73.8021 41.3882 73.7479L40.6467 73.6395C40.1118 73.6469 39.5768 73.6453 39.0419 73.6348C38.2027 74.7141 36.9266 75.877 37.7731 77.3343C37.8338 77.8949 38.2519 78.452 38.577 78.9267L37.2487 78.5764L37.1534 78.7395C36.8798 78.8163 36.6448 78.5945 36.1919 78.5103L36.1158 78.4966L36.4243 79.0801L36.3435 79.0396C35.9561 78.8423 35.861 78.745 35.7035 78.3155C35.6394 78.6723 35.6033 78.5739 35.7332 78.8509C35.9701 78.9981 36.1804 79.0836 36.2773 79.3302C36.1263 79.5264 36.2117 79.4694 35.9205 79.5127C35.2845 78.7709 35.1789 78.2396 34.3188 77.4589C34.3412 77.099 34.4474 76.502 34.502 76.1267L34.3679 75.9879C34.4171 75.0322 34.799 73.2263 35.4622 72.5051Z" fill="#D5A775"/>
<path d="M37.6887 72.4064C38.6571 72.4379 39.7322 72.744 40.6677 72.571L40.7665 72.5921C41.7501 72.7909 43.4494 73.0102 44.2973 73.2331L44.2138 73.4286C44.1649 73.6768 44.1082 73.932 44.0808 74.1826C43.2304 73.7726 42.3331 73.8021 41.388 73.7479L40.6466 73.6395C40.1117 73.6469 39.5766 73.6453 39.0418 73.6348C38.2026 74.7141 36.9264 75.877 37.773 77.3343C37.8337 77.8949 38.2518 78.452 38.5769 78.9267L37.2486 78.5764L37.1532 78.7395C36.8797 78.8163 36.6447 78.5945 36.1918 78.5103L36.1157 78.4966C36.3381 77.4642 35.844 74.4985 36.6424 73.4645C37.4823 72.3765 42.5669 74.3294 43.2293 73.2952C42.9656 73.1236 42.9031 73.0663 42.5824 73.0544C41.9222 73.4578 41.6852 73.3318 40.9736 73.05L41.0334 72.9787L42.0254 73.0472C40.8244 72.6388 39.2431 72.9189 37.7492 72.5903L37.6887 72.4064Z" fill="#F5AE64"/>
<path d="M37.455 73.3033C38.1338 73.3059 39.9787 73.5173 40.6466 73.6395C40.1118 73.6469 39.5767 73.6453 39.0418 73.6348C38.2026 74.7141 36.9265 75.877 37.7731 77.3343C37.8338 77.8949 38.2518 78.452 38.5769 78.9267L37.2486 78.5764C36.1105 77.4552 37.0539 74.6312 37.455 73.3033Z" fill="#FDE68A"/>
<path d="M44.083 76.9338L44.1962 76.9084C44.2002 77.6383 44.0479 79.9157 44.2501 80.3651L43.7476 80.3084C42.9339 79.9949 42.0923 80.1116 41.167 79.8032C40.8191 79.8082 40.0098 79.6992 39.5828 79.6744C39.8169 79.5884 39.8465 79.5756 40.0201 79.3974L39.9811 79.2291C39.703 79.066 39.2944 79.0654 38.9636 79.0373C39.8232 78.8839 39.8894 78.8417 40.7651 78.999C41.8088 79.1639 41.967 78.829 43.0922 78.6115L43.2493 78.5428C43.4956 78.0438 43.782 77.8478 44.093 77.345L44.083 76.9338Z" fill="#FDE68A"/>
<path d="M44.0832 76.9338L44.1964 76.9084C44.2004 77.6383 44.0482 79.9157 44.2504 80.3651L43.7478 80.3084C42.9341 79.9949 42.0925 80.1116 41.1672 79.8032C43.1897 79.0494 44.1679 80.2734 44.0932 77.345L44.0832 76.9338Z" fill="#FBCF72"/>
<path d="M41.3882 73.7479C42.3332 73.8021 43.2305 73.7726 44.0809 74.1826C44.1711 75.1619 44.1894 75.9221 44.1963 76.9084L44.0831 76.9338L44.0342 76.0061C42.7901 74.9962 42.7674 74.026 41.3882 73.7479Z" fill="#FEF2A0"/>
<path d="M37.7732 77.3343C38.4923 77.8904 38.7541 77.8397 39.4696 78.2249C39.8688 78.5382 40.2791 78.8319 40.7653 78.999C39.8896 78.8417 39.8234 78.8839 38.9638 79.0373L38.5771 78.9267C38.252 78.452 37.8339 77.8949 37.7732 77.3343Z" fill="#FEF2A0"/>
<path d="M39.4695 78.2249C39.7058 78.285 42.7216 78.589 43.0922 78.6115C41.967 78.829 41.8088 79.1639 40.7652 78.999C40.2789 78.8319 39.8686 78.5382 39.4695 78.2249Z" fill="#FEFBCA"/>
<path d="M35.9204 79.5127C36.2116 79.4694 36.1262 79.5264 36.2773 79.3302C36.1804 79.0836 35.9701 78.9981 35.7332 78.8509C35.6032 78.5739 35.6393 78.6723 35.7035 78.3155C35.861 78.745 35.9561 78.8423 36.3434 79.0395L36.4242 79.0801L36.1158 78.4966L36.1918 78.5103C36.6447 78.5945 36.8798 78.8163 37.1533 78.7395L37.2486 78.5764L38.5769 78.9267L38.9637 79.0373C39.2944 79.0654 39.703 79.066 39.9811 79.2291L40.0201 79.3973C39.8465 79.5756 39.817 79.5884 39.5828 79.6744C40.0098 79.6992 40.8192 79.8082 41.1671 79.8032C42.0923 80.1116 42.934 79.9949 43.7476 80.3084C43.3273 80.4631 43.4437 80.3609 43.1723 80.6976C42.7352 80.744 42.1425 80.7033 41.8277 80.9042L41.8611 81.0888C41.4282 81.1006 41.0226 80.8574 40.5637 80.8394C39.5429 80.7993 38.6333 80.5553 37.6447 80.3751C36.7608 80.2518 36.5991 80.0744 35.9204 79.5127Z" fill="#D9C3AF"/>
<path d="M36.1157 78.4966L36.1918 78.5103C36.6447 78.5945 36.8797 78.8163 37.1532 78.7395L37.2486 78.5764L38.5769 78.9267L38.9636 79.0373C39.2944 79.0654 39.703 79.066 39.981 79.2291L40.0201 79.3974C39.8465 79.5756 39.8169 79.5884 39.5827 79.6744C38.747 79.7644 37.1784 79.4512 36.4242 79.0801L36.1157 78.4966Z" fill="#FBCF72"/>
<path d="M78.6782 85.6729C80.387 85.1137 82.0994 84.5384 83.7921 83.9711C88.1727 82.5028 92.7271 81.3912 96.8665 79.2924C97.3278 79.0585 96.9429 78.8502 97.405 78.4414C97.5302 79.093 97.4762 79.1157 96.9955 79.5844C94.4601 80.9899 88.353 82.7989 85.4531 83.6857C83.0363 84.4247 78.1945 86.3872 75.954 86.7647C75.6348 86.3493 75.8268 85.7173 76.0485 85.3069L76.0909 85.9692C76.0815 86.1355 76.1075 86.1579 76.1746 86.3089C76.6946 86.4749 78.0955 85.8828 78.6782 85.6729Z" fill="#46424A"/>
<path d="M33.6091 80.0393C33.9235 78.8642 34.0452 76.8779 34.3678 75.9879L34.5019 76.1267C34.4473 76.502 34.341 77.099 34.3187 77.4589C35.1788 78.2396 35.2844 78.7709 35.9204 79.5127C36.599 80.0744 36.7607 80.2518 37.6447 80.3751L37.9087 80.766C37.6749 80.8616 37.5226 80.9087 37.3196 81.0642L37.6496 81.132C36.9702 81.4087 36.2439 80.3226 34.9193 80.2794C34.7067 80.3758 34.6547 80.3801 34.5233 80.5617C34.2667 80.6817 33.9223 80.7918 33.8005 81.0187C33.7613 80.5714 33.7516 80.4619 33.6091 80.0393Z" fill="#BD9494"/>
<path d="M98.9353 65.4115L99.2648 65.3973C98.9541 67.1044 98.8813 70.8299 98.7427 72.7447C98.641 73.9101 98.122 77.543 97.417 78.4241C97.3756 77.5994 98.113 75.6319 98.254 74.4511C98.6172 71.4081 98.6841 68.5316 98.89 65.4993L98.9353 65.4115Z" fill="#292527"/>
<path d="M61.5408 78.228C62.2866 76.5821 66.3511 75.7623 67.9915 75.5674C68.675 75.4861 70.223 76.2968 70.9358 75.604L70.8212 75.4295C70.1019 75.1263 67.3992 74.9775 66.5843 75.2403C66.2304 75.3544 64.6347 75.9157 64.4442 75.9297C65.9294 74.5882 70.1949 74.7467 71.8749 75.9075C71.7156 76.1684 71.4882 76.2109 71.1533 76.2959C71.0858 76.3124 71.0179 76.327 70.9495 76.3397C68.7527 75.4861 66.193 75.7991 64.0727 76.7253C63.1723 77.1243 62.3223 77.6287 61.5408 78.228Z" fill="#807C80"/>
<path d="M34.5234 80.5617L34.2492 81.0054L34.3327 81.0864C34.5917 81.0361 34.8521 80.993 35.1135 80.957C35.1231 80.9696 35.3038 81.2656 35.193 81.2331C36.3352 81.5679 37.3083 82.25 38.385 82.66C38.7452 82.797 39.3423 82.604 39.7037 83.0153C38.7594 83.0417 35.7076 82.1671 34.3 81.9844C34.0819 81.7059 33.8984 81.5282 33.6487 81.2803L33.8006 81.0187C33.9224 80.7918 34.2668 80.6817 34.5234 80.5617Z" fill="#807C80"/>
<path d="M73.0554 76.7221C74.2923 77.8461 75.1576 79.9334 75.2895 81.5572C74.6915 81.1447 75.0739 80.3333 74.5646 79.7155C74.4909 79.8604 74.4628 79.9492 74.4115 80.0997C74.0886 79.6233 73.9218 79.3171 73.6608 78.8154C73.4521 78.0442 72.3512 77.388 73.0554 76.7221Z" fill="#81797C"/>
<path d="M74.292 73.3986L74.5673 73.2213C74.7051 74.0414 74.747 75.2642 74.9121 75.9522C75.4926 78.3721 76.3058 78.7189 76.0022 81.3097L75.9536 81.3554C75.9073 80.9423 75.7539 79.4124 75.6593 79.117C74.8974 76.7347 74.4773 75.9287 74.292 73.3986Z" fill="#46424A"/>
<path d="M43.1724 80.6976C43.5588 80.7006 44.2174 80.6358 44.4871 80.9223C44.2289 81.3274 42.3029 81.1314 41.8612 81.0888L41.8279 80.9042C42.1427 80.7033 42.7354 80.744 43.1724 80.6976Z" fill="#F0CECA"/>
<path d="M76.0907 85.9692C76.3148 86.1157 76.4267 86.1935 76.6789 86.1378C76.6803 85.8757 76.6582 85.8227 76.8082 85.6271C77.1212 85.6233 76.9949 85.5836 77.2907 85.8689C77.8992 86.0125 77.9736 85.3786 78.678 85.6729C78.0954 85.8828 76.6945 86.4749 76.1745 86.3089C76.1073 86.1579 76.0814 86.1355 76.0907 85.9692Z" fill="#807C80"/>
<path d="M70.0666 8.87339C72.2051 8.69776 75.2231 7.76943 77.3827 7.27119C80.9729 6.44292 84.478 5.43834 88.1283 4.81549C89.4001 4.58285 90.759 4.05833 92.0381 3.92758C92.7034 3.85958 94.0334 3.7889 94.6799 3.94882C100.329 5.3471 105.945 6.86792 111.547 8.44872C112.369 8.71019 113.272 8.66755 114.098 8.88241C118.708 10.0811 123.334 11.2776 127.902 12.6272C129.123 12.9877 129.636 13.6409 130.09 14.7584L129.938 14.8713C129.681 14.5006 129.754 14.476 129.404 14.3508C129.015 14.4818 128.545 14.7058 128.127 14.814C127.366 14.9601 126.321 15.3364 125.596 15.4724C124.728 15.6353 124.808 16.1757 124.648 16.216C123.352 16.5438 122.118 16.5658 120.857 17.0685C117.675 18.3367 114.276 18.9984 110.922 19.6281C109.374 19.9178 107.895 20.4696 106.381 20.8881C103.915 21.4556 101.533 22.2174 99.0997 22.8523C98.7535 23.0458 98.2677 22.9754 97.4431 23.4578C97.0008 22.8123 96.0065 21.6015 95.3588 21.1884C95.1598 21.1702 94.9952 21.1406 94.8084 21.0688C94.5953 21.6765 94.3516 22.0331 93.852 22.4446C93.4034 25.4253 94.6415 27.2366 95.3427 29.9309L95.035 30.2261C92.2463 31.1566 89.4455 32.0501 86.6332 32.9064C83.976 33.7325 82.0622 33.8715 80.171 36.1296L79.9782 36.4949L79.8369 36.0177C79.381 35.7801 78.5878 35.8483 78.0825 35.8968L77.2785 36.0135L77.0395 35.9381C76.9401 36.1996 76.8398 36.3964 76.8441 36.6739C75.2767 35.6267 73.7304 35.6765 71.9779 35.0808C70.9212 34.9288 69.4038 34.5135 68.345 34.2481C64.8028 33.7362 60.4835 32.1682 57.0487 31.0588C55.1502 30.4456 53.0868 29.9671 51.2646 29.2129C50.6829 28.7474 45.3348 26.6684 44.2586 26.2084C43.8701 25.9812 43.3461 25.6388 42.9255 25.5315C43.1635 25.2134 43.3613 24.8729 43.5668 24.5332C44.484 22.8464 46.2432 21.2705 47.7275 20.0831C48.5438 19.4301 50.5694 18.5932 51.5804 18.1965C52.0181 17.9257 52.5022 17.7186 52.9709 17.5036C53.7124 17.3023 54.7668 16.7684 55.5183 16.4384C55.8067 16.2108 56.3496 15.9932 56.7001 15.8353C55.2399 15.4514 51.4681 14.4162 50.6351 13.2272C49.4182 11.4905 51.7846 8.47912 53.2786 7.46524C58.561 4.30141 61.632 7.74569 66.8469 8.66465C67.5135 8.89631 69.3793 9.0643 70.0666 8.87339Z" fill="#F8F7F9"/>
<path d="M56.7001 15.8353C57.1998 16.0043 57.3859 16.045 57.9091 16.1183C58.357 16.1999 59.4337 16.4228 59.8428 16.6044C60.1827 16.6813 60.8223 16.8485 61.1444 16.8521C61.644 16.9742 62.8999 17.4064 63.3922 17.6319C66.1405 18.7563 69.2852 19.2637 72.1128 20.157C72.565 20.2998 73.0178 20.4325 73.4746 20.5594C74.2704 20.7444 75.044 20.9983 75.8232 21.2431L76.4035 21.5089C76.0965 21.5744 75.8253 21.6396 75.5111 21.6682C76.462 22.239 76.9125 22.4057 77.9689 22.7606C78.9078 22.9906 79.7382 23.2216 80.6456 23.552C81.1391 23.7508 82.9739 24.5319 83.384 24.5783C84.4877 25.1172 85.7164 25.7514 86.8637 26.1527C88.6802 26.1808 91.2194 24.3204 92.7483 23.3523C93.3981 22.9409 93.326 23.2336 93.7412 22.5511L93.852 22.4446C93.4034 25.4253 94.6415 27.2366 95.3427 29.9309L95.035 30.2261C92.2463 31.1566 89.4455 32.0501 86.6332 32.9064C83.976 33.7325 82.0622 33.8715 80.171 36.1296L79.9782 36.4949L79.8369 36.0177C79.381 35.7801 78.5878 35.8483 78.0825 35.8968L77.2785 36.0135L77.0395 35.9381C76.9401 36.1996 76.8398 36.3964 76.8441 36.6739C75.2767 35.6267 73.7304 35.6765 71.9779 35.0808C70.9212 34.9288 69.4038 34.5135 68.345 34.2481C64.8028 33.7362 60.4835 32.1683 57.0487 31.0588C55.1502 30.4456 53.0868 29.9671 51.2646 29.213C50.6829 28.7474 45.3348 26.6684 44.2586 26.2084C43.8701 25.9812 43.3461 25.6388 42.9255 25.5315C43.1635 25.2134 43.3613 24.873 43.5668 24.5333C44.484 22.8464 46.2432 21.2705 47.7275 20.0831C48.5438 19.4301 50.5694 18.5932 51.5804 18.1965C52.0181 17.9257 52.5022 17.7186 52.9709 17.5036C53.7124 17.3023 54.7668 16.7684 55.5183 16.4384C55.8067 16.2108 56.3496 15.9932 56.7001 15.8353Z" fill="#F8F7F9"/>
<path d="M56.7 15.8353C57.1997 16.0043 57.3858 16.045 57.909 16.1183C58.357 16.1999 59.4336 16.4228 59.8428 16.6044C60.1827 16.6813 60.8222 16.8485 61.1444 16.8521C61.644 16.9742 62.8998 17.4064 63.3922 17.6319C66.1404 18.7563 69.2852 19.2637 72.1128 20.157C72.5649 20.2998 73.0177 20.4325 73.4745 20.5594C74.2703 20.7444 75.044 20.9983 75.8231 21.2431L76.4034 21.5089C76.0964 21.5744 75.8252 21.6396 75.5111 21.6682C76.4619 22.239 76.9124 22.4057 77.9689 22.7606C78.9077 22.9906 79.7382 23.2216 80.6456 23.552C81.1391 23.7508 82.9739 24.5319 83.3839 24.5783C84.4876 25.1172 85.7163 25.7514 86.8637 26.1527C88.6801 26.1808 91.2194 24.3204 92.7483 23.3523C93.398 22.9409 93.326 23.2336 93.7411 22.5511L93.852 22.4446C93.4033 25.4253 94.6414 27.2366 95.3426 29.9309L95.0349 30.2261C92.2463 31.1566 89.4454 32.0501 86.6332 32.9064C83.9759 33.7325 82.0621 33.8715 80.1709 36.1296C80.1542 36.0407 80.1537 35.9101 80.1495 35.816C81.1269 33.9813 83.8515 33.5034 85.6208 32.954C88.0848 32.1889 90.5662 31.5212 92.9895 30.6293C93.4265 30.4685 94.4337 30.2794 94.7213 30.0407C94.7413 29.0574 93.9215 27.272 93.4697 26.3841C93.3953 26.4885 93.2171 26.7436 93.0846 26.7774C89.8267 27.6074 85.6248 28.6233 82.5812 26.4649C83.2881 26.1851 84.2988 27.4428 86.006 27.0043L85.9242 26.809C84.2549 26.596 83.8002 26.157 82.3711 25.5946C79.6251 24.5139 76.7928 23.5338 73.9291 22.7809C71.1287 22.0445 67.6874 20.4974 64.8935 20.001C61.9777 19.4829 57.9311 18.2955 55.0964 18.149L55.3061 18.2752L55.2795 18.442C54.7481 18.5264 54.3989 18.0168 54.1333 18.0789C52.9499 18.3559 52.7246 18.3367 51.5803 18.1965C52.0181 17.9257 52.5021 17.7186 52.9708 17.5036C53.7123 17.3023 54.7668 16.7684 55.5182 16.4384C55.8066 16.2108 56.3496 15.9932 56.7 15.8353Z" fill="#F0CECA"/>
<path d="M56.7001 15.8353C57.1998 16.0043 57.386 16.045 57.9091 16.1183C58.3571 16.1999 59.4338 16.4228 59.8429 16.6044C60.1828 16.6813 60.8224 16.8485 61.1445 16.8521C61.6441 16.9742 62.8999 17.4064 63.3923 17.6319C66.1405 18.7563 69.2853 19.2637 72.1129 20.157C72.5651 20.2998 73.0179 20.4325 73.4747 20.5594C74.2704 20.7444 75.0441 20.9983 75.8232 21.2431L76.4035 21.5089C76.0966 21.5744 75.8253 21.6396 75.5112 21.6682C76.462 22.239 76.9125 22.4057 77.969 22.7606C77.177 22.6822 76.8179 22.5856 76.0597 22.8436C76.0316 22.98 76.0422 23.0006 75.975 23.1137C72.7374 22.3605 69.5857 20.9743 66.385 20.1766C62.9826 19.3286 59.1997 18.5728 55.7368 17.9608C55.0461 17.9405 53.4915 17.8788 52.9709 17.5036C53.7124 17.3023 54.7669 16.7684 55.5184 16.4384C55.8067 16.2108 56.3497 15.9932 56.7001 15.8353Z" fill="#744C68"/>
<path d="M59.8428 16.6044C60.1827 16.6813 60.8222 16.8485 61.1444 16.8521C61.644 16.9742 62.8998 17.4064 63.3922 17.6319C66.1404 18.7563 69.2852 19.2637 72.1128 20.157C72.5649 20.2998 73.0177 20.4325 73.4745 20.5594C74.2703 20.7444 75.044 20.9983 75.8231 21.2431L76.4034 21.5089C76.0964 21.5744 75.8252 21.6396 75.5111 21.6682C73.1204 20.6956 69.3125 19.7755 66.7707 19.1341C65.4291 18.7956 64.269 18.3182 62.8739 18.1117C61.8299 17.68 60.8171 17.1764 59.8428 16.6044Z" fill="#521415"/>
<path d="M57.9089 16.1183C58.3569 16.1999 59.4336 16.4228 59.8427 16.6044C60.817 17.1764 61.8298 17.68 62.8738 18.1117C60.9505 18.2103 60.225 17.8618 58.4726 17.1822C58.2976 16.8023 58.1146 16.4825 57.9089 16.1183Z" fill="#592D45"/>
<path d="M52.9709 17.5036C53.7124 17.3023 54.7669 16.7684 55.5184 16.4384L55.4556 16.7073C54.9836 16.8721 54.7911 16.9291 54.3752 17.1965L54.4618 17.2167C55.046 17.3575 55.1722 17.5665 55.7086 17.7995L55.7368 17.9608C55.0461 17.9405 53.4915 17.8788 52.9709 17.5036Z" fill="#A4639A"/>
<path d="M93.8519 22.4446C93.4032 25.4253 94.6414 27.2366 95.3426 29.9309L95.0348 30.2261C95.0123 29.5233 93.8441 26.2553 93.2497 25.593C92.81 25.5027 91.8566 26.1691 91.3242 26.2554C89.2249 26.5963 87.7288 27.0381 85.6299 26.5046C86.291 26.4631 86.3003 26.4872 86.8636 26.1527C88.6801 26.1808 91.2193 24.3204 92.7482 23.3523C93.398 22.9409 93.3259 23.2336 93.741 22.5511L93.8519 22.4446Z" fill="#805F6A"/>
<path d="M75.9749 23.1137C76.042 23.0006 76.0315 22.98 76.0595 22.8436C76.8178 22.5856 77.1768 22.6822 77.9688 22.7606C78.9076 22.9906 79.7381 23.2216 80.6455 23.552C81.139 23.7508 82.9738 24.5319 83.3839 24.5783C84.4876 25.1172 85.7163 25.7514 86.8636 26.1527C86.3004 26.4872 86.291 26.4631 85.6299 26.5046C83.9121 26.2443 81.5061 24.9714 79.7836 24.3723C78.5337 23.9375 77.1884 23.5652 75.9749 23.1137Z" fill="#8B4959"/>
<path d="M43.5668 24.5332C43.6307 24.6944 43.6954 24.9083 43.8153 25.0209C44.6018 25.9487 51.5722 28.6138 53.1315 29.206C54.3185 29.6568 56.3348 30.1453 57.6087 30.5623C60.4761 31.501 63.3655 32.4283 66.2482 33.3177C67.0791 33.5741 69.8654 33.9584 70.4494 34.2696C71.0697 34.8544 71.8367 34.4244 71.9779 35.0808C70.9212 34.9288 69.4038 34.5135 68.345 34.2481C64.8028 33.7362 60.4835 32.1682 57.0487 31.0588C55.1502 30.4456 53.0868 29.9671 51.2646 29.213C50.6829 28.7474 45.3348 26.6684 44.2586 26.2084C43.8701 25.9812 43.3461 25.6388 42.9255 25.5315C43.1635 25.2134 43.3613 24.873 43.5668 24.5332Z" fill="#F8F7F9"/>
<path d="M43.8152 25.0209C46.4507 26.0814 49.0317 27.4789 51.7621 28.4277C53.9668 29.1938 56.0654 29.944 58.3362 30.5215C61.096 31.3491 63.8483 32.3384 66.6319 33.1091C68.0271 33.4954 69.4724 33.7288 70.8903 34.0432C73.3107 34.5678 75.71 35.186 78.0825 35.8968L77.2784 36.0135L77.0395 35.9381C76.9401 36.1996 76.8397 36.3964 76.844 36.6739C75.2767 35.6267 73.7304 35.6765 71.9779 35.0808C71.8366 34.4244 71.0697 34.8544 70.4494 34.2696C69.8654 33.9584 67.079 33.5741 66.2481 33.3177C63.3654 32.4283 60.476 31.501 57.6086 30.5623C56.3347 30.1453 54.3185 29.6568 53.1315 29.206C51.5721 28.6138 44.6017 25.9487 43.8152 25.0209Z" fill="#46424A"/>
<path d="M70.4495 34.2696C71.6445 34.4791 75.9824 35.5335 77.0396 35.9381C76.9402 36.1996 76.8398 36.3964 76.8441 36.6739C75.2768 35.6267 73.7305 35.6765 71.978 35.0808C71.8367 34.4244 71.0697 34.8544 70.4495 34.2696Z" fill="#D9C3AF"/>
<path d="M78.478 13.7169C79.1985 13.5308 81.3242 12.7728 81.8335 12.8329C83.2772 13.0034 89.2466 14.6675 90.3948 15.1777C90.911 15.2905 91.3124 15.4169 91.8119 15.5745C92.9688 16.0802 93.4045 16.4518 93.8971 17.7085C94.0958 18.221 94.2895 18.7353 94.478 19.2515L94.78 20.0656L94.6994 20.386L94.8031 20.5756L94.8082 21.0688C94.5952 21.6765 94.3514 22.0331 93.8519 22.4446L93.741 22.5511C93.3259 23.2336 93.3979 22.9409 92.7482 23.3523C91.2193 24.3204 88.6801 26.1808 86.8636 26.1527C85.7162 25.7514 84.4876 25.1172 83.3839 24.5783C82.9738 24.5319 81.139 23.7508 80.6455 23.552C79.7381 23.2216 78.9076 22.9906 77.9688 22.7606C76.9123 22.4057 76.4618 22.239 75.511 21.6682C75.8251 21.6396 76.0963 21.5744 76.4033 21.5089L75.823 21.2431C75.8834 20.8895 75.9268 20.5522 75.9715 20.1964L76.027 19.4848C76.1255 18.0342 76.1307 16.801 76.7753 15.4878L77.0787 14.9158C77.4214 14.4422 77.6369 14.2054 78.2 14.0403L78.478 13.7169Z" fill="#D32D28"/>
<path d="M78.4781 13.7169C79.1986 13.5308 81.3243 12.7728 81.8336 12.8329C83.2773 13.0034 89.2467 14.6675 90.3949 15.1777C90.9111 15.2905 91.3125 15.4169 91.812 15.5745C92.9689 16.0802 93.4046 16.4518 93.8973 17.7085C94.0959 18.221 94.2896 18.7353 94.4781 19.2515C94.018 19.1146 93.0051 18.7012 92.632 18.6493C91.4125 18.4794 89.1721 19.0422 88.0147 19.4212C87.9384 19.5717 87.9102 19.5947 87.9084 19.7649C87.8312 19.6175 87.466 17.7135 87.3816 17.3671C87.2559 17.1796 87.025 16.9188 86.8744 16.737L86.6554 17.0607C86.6464 17.0427 86.6397 17.0232 86.6282 17.0067C86.2851 16.5172 80.0155 15.2752 78.9683 15.1026C78.34 14.9991 77.6901 15.0594 77.0789 14.9158C77.4215 14.4422 77.637 14.2054 78.2001 14.0403L78.4781 13.7169Z" fill="#FB6D6F"/>
<path d="M78.478 13.7169C79.1986 13.5308 81.3242 12.7728 81.8335 12.8329C83.2773 13.0034 89.2467 14.6675 90.3949 15.1777L90.0701 15.2194C90.7528 15.4028 90.5104 15.4282 91.0231 15.7221L91.0734 15.7503C90.5671 15.8801 90.0302 15.5555 89.42 15.4664C88.7336 15.3663 85.5736 15.6776 85.1693 15.5626C82.8419 14.9003 80.3852 14.6445 78.1165 14.2968L78.3496 14.1119L78.2001 14.0403L78.478 13.7169Z" fill="#FB889F"/>
<path d="M91.2809 15.9325L91.7772 15.9288L91.9072 16.0739C91.6126 16.5497 88.0851 17.2953 87.3817 17.3671C87.256 17.1796 87.0251 16.9188 86.8745 16.737L86.9478 16.6103C88.255 16.5167 89.7378 16.0384 91.2809 15.9325Z" fill="#FA4845"/>
<path d="M87.9084 19.7649C87.9101 19.5947 87.9383 19.5717 88.0147 19.4212C89.1721 19.0422 91.4125 18.4794 92.6319 18.6493C93.0051 18.7012 94.018 19.1146 94.4781 19.2515L94.7801 20.0656L94.6995 20.386C93.1441 20.0013 89.8809 20.4777 88.2698 20.8435L88.0682 21.1024L87.903 21.0765L87.8285 20.7771L87.8171 20.6321C87.9991 20.3564 87.9382 20.0929 87.9084 19.7649Z" fill="#FA4845"/>
<path d="M87.3533 24.3699C88.7879 23.9953 90.1919 23.2793 91.6588 22.9942C92.3647 22.857 93.0409 22.7173 93.7412 22.5511C93.3261 23.2335 93.3981 22.9409 92.7484 23.3523C91.2194 24.3204 88.6802 26.1807 86.8638 26.1527C85.7164 25.7514 84.4877 25.1172 83.384 24.5783C84.2925 24.528 86.9612 25.6822 87.8371 24.8931C87.8978 24.3901 87.5629 24.8146 87.3533 24.3699Z" fill="#5C2C3C"/>
<path d="M80.9708 22.9031C82.9529 23.031 85.2649 24.1312 87.3531 24.3699C87.5627 24.8146 87.8977 24.3901 87.837 24.8932C86.961 25.6822 84.2923 24.528 83.3839 24.5783C82.9738 24.5319 81.139 23.7508 80.6455 23.552C81.023 23.5344 81.3072 23.4993 81.6822 23.4473L81.7381 23.3337C81.4237 23.2005 81.2424 23.1173 80.9708 22.9031Z" fill="#5B2637"/>
<path d="M76.4033 21.5089C77.3609 21.8028 80.2356 22.5408 80.9708 22.9031C81.2424 23.1173 81.4237 23.2005 81.738 23.3337L81.6822 23.4473C81.3072 23.4993 81.023 23.5344 80.6455 23.552C79.7381 23.2216 78.9076 22.9906 77.9688 22.7606C76.9123 22.4057 76.4618 22.239 75.511 21.6682C75.8251 21.6396 76.0963 21.5744 76.4033 21.5089Z" fill="#592D45"/>
<path d="M86.8746 16.737C87.0251 16.9188 87.256 17.1796 87.3817 17.3671C87.4661 17.7135 87.8313 19.6175 87.9085 19.7649C87.9384 20.0929 87.9993 20.3564 87.8173 20.6321C87.3743 19.4309 87.0282 18.2839 86.6555 17.0607L86.8746 16.737Z" fill="#F0CECA"/>
<path d="M53.2785 7.46524C58.5609 4.30141 61.6319 7.7457 66.8468 8.66466C65.273 9.10656 63.1433 9.21629 61.9894 10.1868L61.7509 10.8284C62.3386 11.3302 63.2503 11.3729 64.0493 11.7123C63.4744 13.6344 63.4566 15.6403 63.3921 17.6319C62.8998 17.4064 61.6439 16.9742 61.1443 16.8521C60.8222 16.8485 60.1826 16.6813 59.8427 16.6044C59.4336 16.4228 58.3569 16.1999 57.909 16.1183C57.3858 16.045 57.1997 16.0043 56.7 15.8353C55.2398 15.4514 51.468 14.4162 50.635 13.2272C49.4181 11.4905 51.7845 8.47912 53.2785 7.46524Z" fill="#D32D28"/>
<path d="M53.2786 7.46524C58.561 4.30141 61.632 7.7457 66.8469 8.66466C65.273 9.10656 63.1434 9.21629 61.9895 10.1868C60.3512 8.93553 57.1534 8.6236 55.1222 7.99102C54.5267 7.80556 53.8643 7.80181 53.2786 7.46524Z" fill="#FB889F"/>
<path d="M61.1445 16.8521C60.9897 14.5448 61.1289 13.0873 61.7511 10.8284C62.3387 11.3302 63.2504 11.3729 64.0495 11.7123C63.4745 13.6344 63.4568 15.6403 63.3923 17.6319C62.8999 17.4064 61.6441 16.9742 61.1445 16.8521Z" fill="#BD9494"/>
<path d="M64.6787 10.7812C65.5428 11.2824 68.2577 11.7552 69.335 12.1395C70.5582 12.5759 73.9836 12.9287 74.9097 13.6945C74.7322 13.9468 74.5089 14.239 74.3757 14.5114C74.929 15.1856 75.8952 14.982 76.7754 15.4878C76.1308 16.801 76.1255 18.0342 76.027 19.4848L75.9715 20.1964C75.9268 20.5522 75.8834 20.8895 75.823 21.2431C75.0439 20.9983 74.2702 20.7444 73.4745 20.5594C73.0177 20.4325 72.5649 20.2998 72.1127 20.157C69.2851 19.2637 66.1403 18.7563 63.3921 17.6319C63.4566 15.6403 63.4744 13.6344 64.0493 11.7123C64.2148 11.2837 64.3764 11.1314 64.6787 10.7812Z" fill="#DC2A29"/>
<path d="M73.481 18.5926C73.7009 17.0374 73.8655 16.022 74.3759 14.5114C74.9292 15.1856 75.8954 14.9819 76.7755 15.4878C76.1309 16.801 76.1257 18.0342 76.0272 19.4848L75.9716 20.1964C75.9269 20.5522 75.8836 20.8895 75.8232 21.2431C75.0441 20.9983 74.2704 20.7444 73.4746 20.5594C73.3787 19.9639 73.3006 19.6452 73.395 19.0381L73.481 18.5926Z" fill="#BD9494"/>
<path d="M73.395 19.0381L73.481 18.5926C73.6017 18.8846 73.6014 19.0245 73.9576 19.1575C74.2795 19.2776 75.7386 19.5185 76.0272 19.4848L75.9716 20.1964C75.9269 20.5522 75.8836 20.8895 75.8232 21.2431C75.0441 20.9983 74.2704 20.7444 73.4746 20.5594C73.3787 19.9639 73.3006 19.6452 73.395 19.0381Z" fill="#FB6D6F"/>
<path d="M73.395 19.0381L73.4811 18.5926C73.6017 18.8846 73.6014 19.0245 73.9577 19.1575C74.2796 19.2776 75.7387 19.5185 76.0272 19.4848L75.9717 20.1964C75.4196 20.2365 73.9713 20.1192 73.5516 19.7173C73.4066 19.5784 73.424 19.2816 73.395 19.0381Z" fill="#C37479"/>
<path d="M66.8469 8.66466C67.5134 8.89632 69.3792 9.06431 70.0666 8.87339L70.1496 9.41348C71.9744 9.88796 73.8126 10.5122 75.6163 11.0713C76.4884 11.3417 77.6169 11.7693 78.4737 11.9507L78.4213 12.5179C78.1395 12.5613 77.4677 12.6474 77.234 12.736C76.2614 12.882 75.7315 13.2 74.9097 13.6945C73.9837 12.9287 70.5583 12.5759 69.3351 12.1395C68.2578 11.7552 65.5429 11.2824 64.6788 10.7812C64.3765 11.1314 64.2149 11.2837 64.0494 11.7123C63.2504 11.3729 62.3386 11.3302 61.751 10.8284L61.9895 10.1868C63.1434 9.21629 65.273 9.10656 66.8469 8.66466Z" fill="#FB889F"/>
<path d="M66.8469 8.66466C67.5134 8.89632 69.3792 9.06431 70.0666 8.87339L70.1496 9.41348C68.6836 8.92685 65.8392 9.81126 64.6788 10.7812C64.3765 11.1314 64.2149 11.2837 64.0494 11.7123C63.2504 11.3729 62.3386 11.3302 61.751 10.8284L61.9895 10.1868C63.1434 9.21629 65.273 9.10656 66.8469 8.66466Z" fill="#E8D4E8"/>
<path d="M74.9099 13.6945C75.7316 13.2 76.2616 12.882 77.2342 12.736C77.0075 13.0364 75.795 13.3465 75.1672 13.711C76.387 13.7022 77.0259 14.2149 77.8405 13.8996C78.2069 13.7577 78.0022 13.6892 78.4782 13.7169L78.2003 14.0403C77.6371 14.2054 77.4216 14.4421 77.079 14.9158L76.7756 15.4878C75.8954 14.982 74.9292 15.1856 74.376 14.5114C74.5092 14.239 74.7324 13.9468 74.9099 13.6945Z" fill="#E8D4E8"/>
<path d="M94.8032 20.5756C95.1916 20.5352 95.3731 20.2375 95.3818 20.2385C97.2031 20.4251 97.317 22.7674 99.0998 22.8523C98.7535 23.0458 98.2677 22.9754 97.4431 23.4578C97.0008 22.8123 96.0066 21.6015 95.3588 21.1884C95.1599 21.1702 94.9952 21.1406 94.8084 21.0688L94.8032 20.5756Z" fill="#F0CECA"/>
<path d="M78.4739 11.9507C78.8334 12.0478 79.3372 12.1342 79.5773 12.3857C79.3286 12.5976 78.7577 12.5367 78.4214 12.5179L78.4739 11.9507Z" fill="#FDAEBD"/>
</svg>
