<svg width="107" height="122" viewBox="0 0 107 122" fill="none" xmlns="http://www.w3.org/2000/svg">
<g clip-path="url(#clip0_91_2734)">
<path d="M29.8616 31.6916C29.9101 31.3711 30.0175 31.0429 30.1261 30.7399C32.2141 24.9123 36.9723 21.4546 42.4326 18.9934C46.086 17.3466 53.6656 16.157 57.3946 17.5442C62.0757 18.3264 65.9935 23.3091 68.9862 26.6955C73.9302 32.207 78.5846 37.9715 82.9306 43.9659C83.6395 44.9595 84.2947 45.7192 84.6876 46.8637C84.8773 47.2377 85.287 48.5462 85.2814 48.9443C86.2693 59.0505 83.499 69.1955 81.7846 79.0949C81.6382 79.9405 81.4624 80.9399 81.2636 81.7663C82.0957 82.4332 82.9296 82.851 83.6867 83.4256C86.1627 84.8767 88.6301 86.5786 91.064 88.1142L104.421 96.4191C108.836 99.1556 113.335 101.832 117.73 104.607C118.202 104.905 118.564 105.37 118.683 105.921C119.047 107.813 119.11 110.141 119.193 112.075C119.465 119.193 119.474 126.318 119.22 133.436C119.199 134.267 119.172 139.166 118.73 139.556C118.283 139.374 116.607 138.064 116.127 137.703L109.842 132.906L81.4959 111.419C80.1851 110.441 76.0204 106.958 74.9019 106.493C72.9833 104.793 71.1613 103.463 69.116 101.911L61.9803 96.4999C60.4721 95.3623 58.9701 94.1049 57.4385 92.982C56.6862 92.4305 55.8772 91.7406 55.0826 91.269C54.5554 90.7629 53.9423 90.1591 53.3408 89.7426C49.6319 87.1736 46.0937 84.3919 42.5945 81.5465C41.956 81.0273 41.2774 80.4914 40.6988 79.9105C39.5951 78.982 37.091 76.8631 36.1571 75.8696C34.2537 74.0299 32.0811 71.4587 30.7116 69.1804C28.7737 66.6368 28.7496 60.809 28.6176 57.6385C28.3462 51.1212 28.4648 44.4318 29.003 37.933C29.0843 36.9516 29.1638 35.4817 29.3696 34.5468C29.5037 33.5853 29.5967 32.6228 29.8616 31.6916ZM42.2628 54.0511C43.8247 55.4024 45.5119 57.0247 47.1268 58.267C51.8578 61.906 56.8239 65.6667 61.8528 68.8557C63.6334 62.3503 65.0829 55.3362 66.2841 48.7033C66.4518 47.7776 66.4699 46.7059 66.678 45.8099C66.7783 43.5825 67.1177 43.8249 66.7955 41.2164C62.8602 39.3617 58.1301 37.8277 53.8553 38.6817C52.8804 38.8766 52.1042 38.8982 51.1362 39.2824C46.0279 41.31 43.002 45.2185 40.7736 50.0889C40.5621 50.5514 40.2186 51.2842 40.2372 51.7787C40.9024 52.4876 41.585 53.4223 42.2628 54.0511Z" fill="#FC2A2E"/>
<path d="M29.8614 31.6916C29.9098 31.3711 30.0173 31.0429 30.1259 30.7399C32.2139 24.9123 36.9721 21.4546 42.4323 18.9934C46.0858 17.3466 53.6654 16.157 57.3944 17.5442C62.0755 18.3264 65.9933 23.3091 68.986 26.6955C73.93 32.207 78.5844 37.9715 82.9303 43.9659C83.6392 44.9595 84.2945 45.7192 84.6874 46.8637C84.8771 47.2377 85.2868 48.5462 85.2812 48.9443C86.2691 59.0505 83.4988 69.1955 81.7844 79.0949C81.6379 79.9405 81.4622 80.9399 81.2634 81.7663C82.0954 82.4332 82.9294 82.8511 83.6865 83.4256C83.3443 83.4727 83.0128 83.2359 82.743 83.0348C80.1516 81.1034 77.4365 79.4133 74.7507 77.6335L67.2805 72.6326C66.1738 71.902 62.6443 69.6615 61.8526 68.8557C63.6332 62.3503 65.0826 55.3362 66.2839 48.7033C66.4516 47.7776 66.4697 46.7059 66.6778 45.8099C66.7781 43.5825 67.1175 43.8249 66.7953 41.2164C62.8599 39.3617 58.1299 37.8277 53.8551 38.6817C52.8802 38.8766 52.104 38.8982 51.136 39.2824C46.0276 41.31 43.0017 45.2186 40.7734 50.0889C40.5618 50.5514 40.2184 51.2842 40.237 51.7787C39.596 51.3086 36.944 48.2627 36.3909 47.5564C34.9755 45.2978 33.536 43.5122 32.4149 41.0285C32.0156 40.1436 30.8167 36.5129 30.4725 36.1046C30.5815 35.6357 30.444 34.3222 30.4044 33.7734C30.5156 33.5187 30.421 32.4864 30.333 32.2018C30.2165 31.8251 30.1672 31.8637 29.8614 31.6916Z" fill="#EB1617"/>
<path d="M29.8614 31.6916C29.9098 31.3711 30.0173 31.0429 30.1259 30.7399C32.2139 24.9123 36.9721 21.4546 42.4323 18.9934C46.0858 17.3466 53.6654 16.157 57.3944 17.5442C57.9369 18.1134 60.6094 18.4413 61.0858 19.441L61.0601 19.6L60.9159 19.6553L60.841 19.6063C60.3843 19.3132 58.1996 18.4106 57.6672 18.2825L57.5994 18.3426C57.7949 18.5879 58.4218 18.6622 58.7458 18.7641C61.0543 19.4898 61.9656 20.6688 63.1727 22.6771C63.885 24.6261 64.8881 26.7053 65.3483 28.7176C65.6477 30.0271 65.8433 31.5246 66.1459 32.856C66.2683 33.3939 66.3549 34.5352 66.5176 34.991C66.5972 36.0113 66.993 40.5412 66.7953 41.2164C62.8599 39.3617 58.1299 37.8277 53.8551 38.6817C52.8802 38.8766 52.104 38.8982 51.136 39.2824C46.0276 41.31 43.0017 45.2185 40.7734 50.0889C40.5618 50.5514 40.2184 51.2842 40.237 51.7787C39.596 51.3086 36.944 48.2627 36.3909 47.5564C34.9755 45.2978 33.536 43.5122 32.4149 41.0285C32.0156 40.1436 30.8167 36.5129 30.4725 36.1046C30.5815 35.6357 30.444 34.3222 30.4044 33.7734C30.5156 33.5187 30.421 32.4864 30.333 32.2018C30.2165 31.8251 30.1672 31.8637 29.8614 31.6916Z" fill="#E00C0C"/>
<path d="M66.5178 34.991C66.678 35.2652 66.7247 35.7294 66.7308 36.0479C67.2364 36.6768 68.598 38.4811 69.0887 38.9217L69.151 38.9106L69.2062 38.7856C69.9191 39.2256 69.7851 39.3733 70.0733 40.1098C70.1807 40.3845 70.6758 40.0759 70.9601 40.4216C72.1097 41.8194 73.4922 43.1923 74.6284 44.569C75.3974 45.5008 76.0632 46.6128 76.8751 47.5827C77.2969 48.0865 78.8058 49.7669 79.0288 50.1488C78.6723 50.0964 77.388 48.3162 76.7182 47.8207C76.7827 48.3403 78.1191 49.3567 77.3988 50.2238C77.1187 50.3368 76.3266 50.3359 76.0315 50.2786C73.0793 49.7054 71.1427 46.7806 68.3552 45.8226C68.1364 45.7474 67.6918 46.0808 67.2621 45.7342L67.3575 45.6478C67.1888 45.4132 67.2723 45.457 67.0376 45.3924C66.9589 45.6396 66.9251 45.7805 66.8731 46.0328C66.7444 45.9571 66.7484 45.9385 66.678 45.8099C66.7783 43.5825 67.1177 43.8249 66.7955 41.2164C66.9932 40.5412 66.5974 36.0113 66.5178 34.991Z" fill="#FE5959"/>
<path d="M57.3944 17.5442C62.0755 18.3264 65.9934 23.3091 68.986 26.6955C73.93 32.207 78.5844 37.9715 82.9304 43.9659C83.6393 44.9595 84.2945 45.7192 84.6874 46.8637C84.6065 47.2785 85.05 47.7741 84.6906 48.3459C84.241 48.3627 84.0029 48.0231 83.6661 47.7625C83.5126 47.4586 82.7163 46.4235 82.4743 46.0974C81.5158 44.8035 80.5455 43.5182 79.5638 42.2418C77.7202 39.8314 75.8754 37.4181 74.0094 35.0247C73.4044 34.2293 72.6271 33.5063 72.0321 32.7082C69.7436 29.6381 67.3829 26.6548 64.6071 24.0038C64.2616 23.6738 63.4181 22.9847 63.1727 22.6771C61.9656 20.6688 61.0543 19.4898 58.7458 18.7641C58.4218 18.6622 57.7949 18.5879 57.5994 18.3426L57.6672 18.2825C58.1996 18.4106 60.3844 19.3132 60.8411 19.6063L60.9159 19.6553L61.0602 19.6L61.0858 19.441C60.6094 18.4413 57.9369 18.1134 57.3944 17.5442Z" fill="#F55453"/>
<path d="M29.8616 31.6916C30.1674 31.8637 30.2167 31.8251 30.3332 32.2019C30.4212 32.4865 30.5158 33.5187 30.4046 33.7734C30.4442 34.3222 30.5817 35.6358 30.4727 36.1046C30.8169 36.5129 32.0158 40.1436 32.4151 41.0285C33.5362 43.5122 34.9757 45.2978 36.3911 47.5564C36.9442 48.2627 39.5962 51.3086 40.2372 51.7787C40.9024 52.4877 41.5849 53.4223 42.2627 54.0511C42.0908 54.0101 41.9184 53.9713 41.7454 53.9346C41.364 54.463 41.5934 55.9878 41.6958 56.622C41.8773 57.7453 42.3388 60.126 42.2882 61.1696C42.1984 63.024 41.761 64.7543 41.3855 66.5566C41.1922 67.4845 41.0633 68.4249 40.8944 69.3574C40.774 70.0218 40.5735 70.6953 40.5248 71.3687C40.417 72.8571 41.0065 77.7271 40.3538 78.6294C40.2754 78.7376 40.1869 78.8062 40.069 78.8658C39.9952 78.866 39.7614 78.8543 39.7157 78.8838C39.9908 79.0694 40.7703 79.5448 40.6987 79.9105C39.5951 78.982 37.0909 76.8631 36.1571 75.8697C34.2537 74.0299 32.0811 71.4587 30.7116 69.1804C28.7737 66.6369 28.7495 60.809 28.6176 57.6385C28.3462 51.1212 28.4647 44.4318 29.003 37.9331C29.0843 36.9516 29.1638 35.4817 29.3696 34.5468C29.5036 33.5853 29.5967 32.6228 29.8616 31.6916Z" fill="#F72525"/>
<path d="M36.157 75.8697C35.9652 75.2795 35.4556 74.9409 35.1282 74.4318C34.7709 73.8763 35.4541 68.7781 35.6691 67.865C35.75 67.5215 35.9704 66.9656 36.2746 66.7757C36.5326 67.0259 36.2411 67.9229 36.5285 68.2805C36.5468 67.2881 36.385 66.2553 36.3225 65.2609C36.1335 62.2568 36.0946 59.2429 35.9978 56.2363C35.9503 54.7619 35.2325 48.1167 36.3911 47.5564C36.9441 48.2627 39.5961 51.3086 40.2371 51.7787C40.9023 52.4877 41.5849 53.4223 42.2627 54.0511C42.0907 54.0101 41.9183 53.9713 41.7453 53.9346C41.364 54.463 41.5933 55.9878 41.6958 56.622C41.8772 57.7453 42.3387 60.126 42.2881 61.1696C42.1983 63.024 41.7609 64.7543 41.3854 66.5566C41.1921 67.4845 41.0632 68.4249 40.8943 69.3574C40.7739 70.0218 40.5734 70.6953 40.5247 71.3687C40.4169 72.8571 41.0065 77.7271 40.3537 78.6294C40.2753 78.7376 40.1868 78.8062 40.0689 78.8658C39.9951 78.866 39.7614 78.8543 39.7157 78.8838C39.9907 79.0694 40.7702 79.5448 40.6987 79.9105C39.595 78.982 37.0909 76.8631 36.157 75.8697Z" fill="#FE5959"/>
<path d="M29.8616 31.6916C30.1673 31.8637 30.2167 31.8251 30.3332 32.2019C30.4212 32.4865 30.5158 33.5187 30.4046 33.7734C30.4442 34.3222 30.5817 35.6358 30.4727 36.1046C29.6631 37.0433 29.9572 48.8473 29.985 50.8144C30.0364 53.7775 30.17 56.7386 30.3854 59.6943C30.5587 62.0399 30.8032 64.3362 31.3346 66.63C31.4057 66.9367 31.4673 67.2251 31.4797 67.5404L31.2014 67.5736C31.0843 68.1068 31.0424 68.4416 30.7241 68.8983L30.7116 69.1804C28.7737 66.6369 28.7495 60.809 28.6176 57.6385C28.3462 51.1212 28.4647 44.4318 29.003 37.9331C29.0843 36.9516 29.1638 35.4817 29.3696 34.5468C29.5036 33.5853 29.5967 32.6228 29.8616 31.6916Z" fill="#FA585D"/>
<path d="M29.8616 31.6916C30.1674 31.8637 30.2167 31.8251 30.3332 32.2018C30.4212 32.4864 30.5158 33.5187 30.4047 33.7734C30.0587 33.3882 30.446 33.4192 30.0738 32.9936L29.8878 32.9874C29.5405 33.4404 29.8166 33.9843 29.3696 34.5468C29.5037 33.5853 29.5967 32.6228 29.8616 31.6916Z" fill="#EB1617"/>
<path d="M55.0825 91.2691C55.8772 91.7406 56.6862 92.4305 57.4384 92.982C58.9701 94.105 60.4721 95.3623 61.9802 96.4999L69.1159 101.911C71.1612 103.463 72.9832 104.794 74.9018 106.493C74.4946 107.59 73.8732 109.557 73.7778 110.753L68.8092 133.032C68.5484 134.225 68.1555 135.285 67.9151 136.526C66.5336 143.657 64.9939 150.749 63.5235 157.861C63.4471 158.232 63.2975 159.026 63.0033 159.242C62.2719 159.108 59.5614 155.879 58.8175 155.075C56.6213 152.717 54.4525 150.334 52.3122 147.926C50.274 145.587 41.4699 135.09 41.3993 132.956C41.3151 130.425 42.7054 127.629 43.4545 125.247C45.652 118.365 47.9273 111.508 50.2803 104.678L52.7243 97.698C52.9964 96.9133 53.2994 96.2592 53.5435 95.4532C53.9073 94.2079 54.7378 92.6394 55.0825 91.2691Z" fill="#FD252E"/>
<path d="M55.0824 91.2691C55.8771 91.7406 56.686 92.4305 57.4383 92.982C58.9699 94.105 60.4719 95.3623 61.9801 96.4999L69.1158 101.911C71.1611 103.463 72.9831 104.794 74.9017 106.493C74.4945 107.59 73.873 109.557 73.7776 110.753L73.2658 109.729C70.3503 108.253 67.6468 105.845 64.9832 103.913C63.0344 102.5 61.0367 101.1 59.1518 99.6142C57.6264 98.412 56.1363 97.2638 54.5099 96.196C54.0773 95.912 53.9736 95.6994 53.5434 95.4532C53.9071 94.2079 54.7377 92.6394 55.0824 91.2691Z" fill="#DF1415"/>
</g>
<defs>
<clipPath id="clip0_91_2734">
<rect width="91" height="147.875" fill="white" transform="translate(0 31.1238) rotate(-20)"/>
</clipPath>
</defs>
</svg>
