<svg width="125" height="125" viewBox="0 0 125 125" fill="none" xmlns="http://www.w3.org/2000/svg">
<g clip-path="url(#clip0_91_3990)">
<path d="M111.098 57.7509C111.539 58.4592 113.856 60.7019 114.583 61.3843C125.717 71.8413 134.79 85.8033 134.27 101.613C134.12 106.184 133.21 108.544 131.589 112.65C130.797 114.656 130.675 117.36 129.559 119.888C126.662 126.46 121.517 132.127 115.624 136.19C109.863 139.988 103.024 142.354 96.1082 141.77C94.944 141.672 91.7574 141.599 90.8381 141.077C81.9302 139.268 74.8501 132.573 69.7919 125.391C69.248 124.803 68.1528 123.05 67.4595 122.232C66.3448 120.918 65.3872 120.148 64.2803 118.967C64.4863 118.772 64.5123 118.759 64.6734 118.54C65.0407 118.043 66.4425 117.633 66.9836 117.523C67.4507 117.427 69.1846 117.792 69.5002 118.088C70.7135 119.226 71.373 121.354 72.1439 122.733C72.851 123.997 73.7274 125.7 74.5151 126.829C76.0251 128.993 78.0673 130.744 80.0301 132.452C82.1388 133.923 84.2484 135.313 86.6336 136.316C88.3766 136.339 91.1226 138.388 93.0392 137.933C93.974 137.712 95.2717 137.356 96.0996 136.893C95.207 136.796 92.034 136.35 91.3782 135.918L91.3687 135.777C94.4393 136.646 97.6386 136.975 100.822 136.746C102.098 136.622 103.108 136.44 104.365 136.222C105.822 135.64 107.723 134.797 109.14 134.278C111.159 133.157 113.25 131.798 115.174 130.764C115.318 130.53 116.628 129.421 116.916 129.18C119.061 127.39 120.606 125.287 122.203 123.018C122.455 122.632 122.638 122.403 122.717 121.944C117.256 125.202 110.789 127.436 104.369 126.073C103.574 125.985 101.897 125.462 101.12 125.191C96.5407 123.617 92.3953 120.992 89.0149 117.525C85.5521 113.867 83.6552 109 83.7286 103.963C83.7038 103.83 83.7305 103.302 83.7617 103.168C83.9691 102.37 83.0756 101.61 82.6028 101.049C80.2481 98.2545 78.8456 95.6194 78.7785 91.9548C78.6366 84.1988 85.263 80.2917 92.3763 81.0023C93.8012 81.1447 95.2511 81.4492 96.6778 81.5713C97.6656 77.4083 103.275 70.6599 108.04 71.1303C115.568 70.4643 120.082 77.4341 120.902 84.036C121.008 84.8957 120.977 85.8105 121.111 86.668C122.169 87.5252 123.011 88.2811 123.929 89.3122C124.474 89.9246 124.944 90.6104 125.484 91.1875C127.336 93.9213 127.515 94.1016 128.827 97.2308C128.863 95.6089 128.292 93.6801 128.131 92.1076C127.937 91.6409 127.718 90.6334 127.583 90.0947C125.774 82.8763 122.039 77.2923 117.485 71.4898C116.427 70.1718 115.275 68.8468 114.179 67.5534C113.915 66.3862 113.297 66.1322 113.173 64.7885C113.316 64.6179 113.623 64.3749 113.803 64.2222C113.667 64.1378 113.687 64.0792 113.616 63.9488C113.431 63.6079 112.905 63.2892 112.545 62.9531C112.02 62.5264 111.189 61.5771 110.721 61.0564C110.592 60.9665 110.114 60.4492 109.976 60.3051L109.69 60.0716C109.5 59.9504 109.245 59.9952 109.031 60.029L109.258 59.6226C109.59 59.3362 110 58.9587 110.117 58.5337L111.098 57.7509ZM104.337 121.095C105.723 121.252 107.764 121.422 109.132 121.372C109.404 121.329 109.705 121.272 109.975 121.246C115.049 120.752 120.167 118.259 123.594 114.475C124.615 113.347 125.48 111.988 126.326 110.683C126.473 110.037 126.456 109.217 126.442 108.553C126.34 103.57 124.903 99.123 122.234 94.9548C121.85 94.3546 120.789 92.8315 120.286 92.3525C119.915 95.0059 116.598 104.174 114.969 105.939C114.602 107.006 112.429 110.632 111.669 111.435C109.261 111.697 106.619 111.07 104.207 110.784C99.9348 110.276 95.7049 109.045 91.7273 107.426C90.4802 106.918 89.207 106.393 88.0657 105.674C88.2465 106.344 88.405 107.057 88.5661 107.736C90.4306 114.019 95.5944 117.868 101.391 120.375C101.962 120.622 103.979 120.873 104.337 121.095Z" fill="#F66588"/>
<path d="M111.098 57.7509C111.539 58.4592 113.856 60.7019 114.583 61.3843C125.717 71.8413 134.79 85.8033 134.27 101.613C134.12 106.184 133.21 108.544 131.589 112.65C130.797 114.656 130.675 117.36 129.559 119.888C126.662 126.46 121.517 132.127 115.624 136.19C109.863 139.988 103.024 142.354 96.1082 141.77C94.944 141.672 91.7574 141.599 90.8381 141.077C81.9302 139.268 74.8501 132.573 69.7919 125.391C69.248 124.803 68.1528 123.05 67.4595 122.232C66.3448 120.918 65.3872 120.148 64.2803 118.967C64.4863 118.772 64.5123 118.759 64.6734 118.54C65.0407 118.043 66.4425 117.633 66.9836 117.523C67.4507 117.427 69.1846 117.792 69.5002 118.088C70.7135 119.226 71.373 121.354 72.1439 122.733C72.851 123.997 73.7274 125.7 74.5151 126.829C76.0251 128.993 78.0673 130.744 80.0301 132.452C82.1388 133.923 84.2484 135.313 86.6336 136.316C88.3766 136.339 91.1226 138.388 93.0392 137.933C93.974 137.712 95.2717 137.356 96.0996 136.893C95.207 136.796 92.034 136.35 91.3782 135.918L91.3687 135.777C94.4393 136.646 97.6386 136.975 100.822 136.746C102.098 136.622 103.108 136.44 104.365 136.222C105.822 135.64 107.723 134.797 109.14 134.278C111.159 133.157 113.25 131.798 115.174 130.764C115.318 130.53 116.628 129.421 116.916 129.18C119.061 127.39 120.606 125.287 122.203 123.018C122.455 122.632 122.638 122.403 122.717 121.944C117.256 125.202 110.789 127.436 104.369 126.073C103.574 125.985 101.897 125.462 101.12 125.191C96.5407 123.617 92.3953 120.992 89.0149 117.525C85.5521 113.867 83.6552 109 83.7286 103.963C84.193 104.346 83.8216 105.389 84.0596 105.959C84.4766 106.015 84.3188 106.041 84.6811 105.896L84.7146 105.737C84.4351 105.105 84.4464 104.053 84.5384 103.37C84.5558 103.241 84.6107 103.327 84.5812 103.067L84.6607 103.025C84.7457 103.08 84.8291 103.137 84.9108 103.196C85.131 103.357 85.821 103.886 85.8552 104.118C86.2694 104.485 87.3059 105.315 87.519 105.683C88.1116 106.704 87.6016 106.826 88.5661 107.736C90.4306 114.019 95.5944 117.868 101.391 120.375C101.962 120.622 103.979 120.873 104.337 121.095C105.723 121.252 107.764 121.422 109.132 121.372C109.404 121.329 109.705 121.272 109.975 121.246C115.049 120.752 120.167 118.259 123.594 114.475C124.615 113.347 125.48 111.988 126.326 110.683C126.473 110.037 126.456 109.217 126.442 108.553C126.34 103.57 124.903 99.123 122.234 94.9548C121.85 94.3546 120.789 92.8315 120.286 92.3525C120.456 92.1678 120.429 91.7536 120.525 91.4123C120.741 89.9571 121.031 88.1097 121.111 86.668C122.169 87.5252 123.011 88.2811 123.929 89.3122C124.474 89.9246 124.944 90.6104 125.484 91.1875C127.336 93.9213 127.515 94.1016 128.827 97.2308C128.863 95.6089 128.292 93.6801 128.131 92.1076C127.937 91.6409 127.718 90.6334 127.583 90.0947C125.774 82.8763 122.039 77.2923 117.485 71.4898C116.427 70.1718 115.275 68.8468 114.179 67.5534C113.915 66.3862 113.297 66.1322 113.173 64.7885C113.316 64.6179 113.623 64.3749 113.803 64.2222C113.667 64.1378 113.687 64.0792 113.616 63.9488C113.431 63.6079 112.905 63.2892 112.545 62.9531C112.02 62.5264 111.189 61.5771 110.721 61.0564C110.592 60.9665 110.114 60.4492 109.976 60.3051L109.69 60.0716C109.5 59.9504 109.245 59.9952 109.031 60.029L109.258 59.6226C109.59 59.3362 110 58.9587 110.117 58.5337L111.098 57.7509Z" fill="#F0648A"/>
<path d="M113.173 64.7885C113.316 64.6179 113.623 64.375 113.803 64.2223C114.515 64.7452 115.782 66.2582 116.394 66.9772C118 68.8622 119.662 70.7036 121.255 72.5986C121.741 73.1766 123.606 75.5392 124.033 75.9387C125.416 78.1877 127.422 81.5565 128.437 83.9309C132.32 90.756 133.194 99.4984 131.647 107.142C131.059 109.246 130.178 111.317 128.963 113.137C128.78 113.412 128.305 113.688 128.23 113.838C126.552 117.19 124.313 118.913 121.055 120.744C118.521 122.181 115.778 123.21 112.925 123.795C110.684 124.564 110.25 124.118 109.026 126.154C108.807 126.518 105.42 125.812 104.368 126.073C103.574 125.985 101.897 125.462 101.12 125.191C96.5407 123.617 92.3953 120.992 89.0148 117.525C85.5521 113.867 83.6552 109 83.7285 103.963C84.193 104.346 83.8215 105.389 84.0595 105.959C84.4765 106.015 84.3187 106.041 84.6811 105.896L84.7145 105.737C84.4351 105.106 84.4464 104.053 84.5383 103.37C84.5557 103.241 84.6106 103.327 84.5812 103.067L84.6607 103.025C84.7456 103.08 84.829 103.137 84.9108 103.196C85.131 103.357 85.8209 103.886 85.8551 104.118C86.2693 104.486 87.3058 105.315 87.5189 105.683C88.1115 106.704 87.6016 106.826 88.5661 107.736C90.4305 114.019 95.5944 117.868 101.391 120.375C101.962 120.622 103.979 120.873 104.336 121.095C105.723 121.253 107.764 121.422 109.132 121.372C109.404 121.329 109.705 121.272 109.975 121.246C115.049 120.752 120.167 118.259 123.594 114.475C124.615 113.347 125.48 111.988 126.326 110.683C126.473 110.037 126.456 109.217 126.442 108.553C126.34 103.57 124.903 99.1231 122.234 94.9549C121.85 94.3547 120.789 92.8316 120.286 92.3526C120.456 92.1679 120.429 91.7537 120.524 91.4124C120.741 89.9571 121.03 88.1098 121.111 86.6681C122.169 87.5253 123.011 88.2811 123.929 89.3122C124.474 89.9247 124.944 90.6105 125.484 91.1876C127.336 93.9214 127.515 94.1017 128.827 97.2309C128.863 95.6089 128.292 93.6802 128.131 92.1077C127.937 91.641 127.718 90.6335 127.583 90.0947C125.773 82.8764 122.039 77.2923 117.485 71.4899C116.427 70.1719 115.275 68.8469 114.179 67.5535C113.915 66.3863 113.297 66.1323 113.173 64.7885Z" fill="#FDAAC2"/>
<path d="M120.524 91.4123C120.741 89.9571 121.03 88.1097 121.11 86.668C122.169 87.5252 123.01 88.2811 123.928 89.3122C124.474 89.9246 124.944 90.6104 125.483 91.1875C127.336 93.9213 127.515 94.1016 128.826 97.2308C128.863 95.6089 128.292 93.6801 128.131 92.1076L128.244 91.9668C128.08 91.3606 128.431 90.6457 128.254 89.6263C129.517 93.3427 129.558 94.579 129.692 98.3329C129.847 102.698 129.567 104.86 127.684 109.008C127.285 109.887 127.08 110.113 126.325 110.683C126.472 110.037 126.456 109.217 126.442 108.553C126.34 103.57 124.903 99.123 122.234 94.9548C121.85 94.3546 120.789 92.8315 120.286 92.3525C120.455 92.1678 120.428 91.7536 120.524 91.4123Z" fill="#F989AA"/>
<path d="M120.524 91.4125C120.741 89.9573 121.03 88.1099 121.11 86.6682C122.169 87.5254 123.011 88.2812 123.929 89.3123C124.474 89.9248 124.944 90.6106 125.484 91.1877C125.308 91.221 125.172 91.3413 125.046 91.4619C124.614 91.8778 123.745 91.7839 123.182 91.9731C122.744 92.1202 122.341 92.2523 121.877 92.3718C121.422 91.699 121.393 91.4323 120.524 91.4125Z" fill="#F66588"/>
<path d="M122.748 93.7922C122.892 93.7257 123.1 93.6314 123.255 93.6074C123.575 93.5599 123.901 93.6401 124.162 93.8309C125.847 95.0519 127.269 101.082 127.64 103.177L127.521 103.174C127.414 102.333 127.203 101.366 126.81 100.614C126.881 101.026 126.822 101.209 126.526 101.485L126.3 101.465C125.748 101.011 122.945 94.8244 122.748 93.7922Z" fill="#F8B6CE"/>
<path d="M84.7148 105.737C84.4353 105.106 84.4466 104.053 84.5386 103.37C84.556 103.241 84.6109 103.327 84.5815 103.067L84.6609 103.025C84.7459 103.08 84.8293 103.137 84.9111 103.196C85.1313 103.357 85.8212 103.886 85.8554 104.118C86.2696 104.486 87.3061 105.315 87.5192 105.683C88.1118 106.704 87.6018 106.826 88.5664 107.736C90.4308 114.019 95.5946 117.868 101.391 120.375C101.962 120.622 103.979 120.873 104.337 121.095C105.723 121.252 107.764 121.422 109.132 121.372C107.336 122.146 106.404 120.805 104.65 122.047C103.969 122.529 102.141 122.103 101.219 122.033C101.298 122.139 101.345 122.23 101.409 122.344C101.065 122.607 100.755 122.578 100.287 122.65C99.614 122.396 96.2671 121.083 95.8579 120.787C94.1728 119.567 90.3993 116.692 89.446 114.995C87.7082 111.9 86.5121 108.817 84.7148 105.737Z" fill="#ED5F87"/>
<path d="M84.7148 105.737C84.4353 105.106 84.4466 104.053 84.5386 103.37C84.556 103.241 84.6109 103.327 84.5815 103.067L84.6609 103.025C84.7459 103.08 84.8293 103.137 84.9111 103.196C85.1313 103.357 85.8212 103.886 85.8554 104.118C85.5856 103.915 85.2275 103.601 84.9167 103.536C84.0662 104.348 87.7099 108.805 88.0693 109.553C89.6314 112.807 90.3575 114.892 92.9841 117.485C94.4557 119.548 98.6357 122.041 101.219 122.033C101.298 122.139 101.345 122.23 101.409 122.344C101.065 122.607 100.755 122.578 100.287 122.65C99.614 122.396 96.2672 121.083 95.858 120.787C94.1728 119.567 90.3993 116.692 89.446 114.995C87.7082 111.9 86.5121 108.817 84.7148 105.737Z" fill="#F989AA"/>
<path d="M92.9839 117.485C94.9457 119.163 97.2199 120.748 99.7076 121.509C100.254 121.676 101.211 121.602 101.79 121.702C102.399 121.808 104.215 122.094 104.513 121.4C104.367 121.235 104.338 121.261 104.336 121.095C105.723 121.253 107.764 121.422 109.132 121.372C107.335 122.146 106.403 120.805 104.65 122.047C103.969 122.529 102.141 122.103 101.219 122.033C98.6355 122.041 94.4555 119.548 92.9839 117.485Z" fill="#EC7292"/>
<path d="M112.925 123.795C112.568 123.819 111.896 123.614 111.764 123.265C112.039 122.855 113.872 122.757 114.46 122.598C124.52 119.874 130.982 112.59 131.397 102.034C131.614 96.5243 130.769 91.7493 129.217 86.4725C129.009 85.765 128.617 84.6967 128.457 84.0146L128.438 83.9309C132.32 90.7561 133.194 99.4985 131.647 107.142C131.059 109.246 130.178 111.317 128.963 113.137C128.78 113.412 128.305 113.688 128.23 113.838C126.552 117.19 124.313 118.913 121.055 120.745C118.521 122.181 115.778 123.21 112.925 123.795Z" fill="#F989AA"/>
<path d="M117.485 71.4898C118.637 71.8193 118.936 71.3812 119.604 72.4749C119.696 72.6261 120.458 72.9519 120.591 73.1553C122.912 75.7163 124.273 78.7464 125.791 81.7902C126.526 83.5369 128.27 87.8362 128.254 89.6263C128.431 90.6457 128.08 91.3606 128.244 91.9668L128.131 92.1076C127.936 91.6409 127.718 90.6334 127.583 90.0947C125.773 82.8764 122.039 77.2923 117.485 71.4898Z" fill="#EB739A"/>
<path d="M114.179 67.5535C113.915 66.3863 113.297 66.1322 113.173 64.7885C115.211 68.0916 116.293 69.573 119.5 71.5801C120.816 72.4036 126.108 80.4291 125.791 81.7902C124.274 78.7464 122.912 75.7164 120.591 73.1553C120.458 72.9519 119.696 72.6261 119.604 72.4749C118.936 71.3812 118.638 71.8193 117.485 71.4898C116.427 70.1718 115.275 68.8468 114.179 67.5535Z" fill="#FCAAC2"/>
<path d="M64.2804 118.967C64.4864 118.772 64.5124 118.759 64.6735 118.54C65.0408 118.043 66.4426 117.633 66.9837 117.523C67.4508 117.427 69.1847 117.792 69.5003 118.088C70.7136 119.226 71.3731 121.354 72.144 122.733C72.8511 123.997 73.7275 125.7 74.5152 126.829C76.0252 128.993 78.0674 130.744 80.0302 132.452C82.1389 133.923 84.2485 135.313 86.6337 136.316C88.3767 136.339 91.1227 138.388 93.0393 137.933C93.9741 137.712 95.2718 137.356 96.0997 136.893C95.2071 136.796 92.0341 136.35 91.3783 135.918L91.3688 135.777C94.4394 136.646 97.6387 136.975 100.822 136.746C102.098 136.622 103.108 136.44 104.365 136.222C105.822 135.64 107.723 134.797 109.14 134.278C111.16 133.157 113.25 131.798 115.174 130.764C115.318 130.53 116.628 129.421 116.916 129.18C119.061 127.39 120.607 125.287 122.204 123.018C123.483 122.473 123.609 121.39 124.874 120.636C124.557 121.057 124.336 121.266 123.962 121.629C125.071 121.416 124.937 122.05 125.714 121.469C125.068 122.706 124.14 124.024 123.345 125.152C121.447 127.841 118.764 131.269 116.212 133.295C110.512 137.821 103.729 140.27 96.4466 140.358C95.5165 140.37 94.3414 140.25 93.392 140.132C91.7981 139.712 90.2433 139.263 88.6094 140.161C89.2321 140.33 90.3045 140.701 90.9171 140.924L90.8382 141.077C81.9303 139.268 74.8502 132.573 69.792 125.391C69.2481 124.803 68.1529 123.05 67.4596 122.232C66.3449 120.918 65.3873 120.148 64.2804 118.967Z" fill="#FEB7CD"/>
<path d="M64.2804 118.967C64.4864 118.772 64.5124 118.759 64.6735 118.54C65.0408 118.043 66.4426 117.633 66.9837 117.523C67.4508 117.427 69.1847 117.792 69.5003 118.088C70.7136 119.226 71.3731 121.354 72.144 122.733C72.8511 123.997 73.7275 125.7 74.5152 126.829C76.0252 128.993 78.0674 130.744 80.0302 132.452C78.0739 132.034 73.815 127.184 72.5928 125.496C71.9571 124.618 70.8748 122.523 70.1572 121.523C69.9548 121.067 68.7224 119.895 68.567 119.566C67.4765 117.261 64.4966 117.479 66.3219 119.972C67.7411 121.91 68.8424 123.053 69.792 125.391C69.2481 124.803 68.1529 123.05 67.4596 122.232C66.3449 120.918 65.3873 120.148 64.2804 118.967Z" fill="#F989AA"/>
<path d="M122.203 123.018C123.483 122.473 123.608 121.39 124.874 120.636C124.557 121.057 124.336 121.266 123.962 121.629C122.494 124.34 120.934 126.359 118.768 128.567C118.2 129.147 117.298 129.631 116.717 130.224C115.931 131.069 114.246 132.73 113.247 133.249C111.661 134.074 109.414 135.056 107.729 135.753L107.661 135.714C107.779 135.616 107.895 135.517 108.02 135.427C106.886 135.683 105.924 136.58 104.365 136.222C105.822 135.64 107.723 134.797 109.14 134.278C111.159 133.157 113.25 131.798 115.174 130.764C115.318 130.53 116.628 129.421 116.916 129.18C119.061 127.39 120.606 125.287 122.203 123.018Z" fill="#F8B6CE"/>
<path d="M110.721 61.0565C111.169 61.1852 112.538 62.6059 113.449 63.1309C113.891 63.74 114.893 64.216 115.472 64.8469C118.064 67.6699 120.743 70.4066 122.663 73.7549C123.075 74.4737 123.746 75.1515 124.033 75.9387C123.606 75.5392 121.741 73.1766 121.255 72.5986C119.663 70.7036 118 68.8622 116.394 66.9772C115.782 66.2582 114.516 64.7452 113.803 64.2223C113.667 64.1379 113.687 64.0793 113.616 63.9489C113.431 63.608 112.905 63.2893 112.545 62.9532C112.02 62.5265 111.189 61.5772 110.721 61.0565Z" fill="#F989AA"/>
<path d="M122.718 121.944L122.689 121.814C123.291 120.823 124.096 120.654 124.984 120.039C125.462 119.708 126.711 118.091 127.189 118.114C126.586 118.771 125.244 119.921 124.874 120.636C123.609 121.39 123.483 122.473 122.204 123.018C122.455 122.632 122.638 122.404 122.718 121.944Z" fill="#F66588"/>
<path d="M109.976 60.3052C111.053 60.4503 112.569 61.9355 113.19 62.7513C113.284 62.8728 113.37 62.9996 113.449 63.131C112.537 62.6059 111.169 61.1853 110.721 61.0566C110.592 60.9667 110.114 60.4494 109.976 60.3052Z" fill="#EC7292"/>
<path d="M114.969 105.939L114.828 105.871C116.343 103.242 117.61 100.476 118.612 97.6109C119.032 96.4029 119.424 94.7836 119.874 93.5418C120.039 93.0881 119.564 91.5405 119.759 90.9942C119.83 90.7942 120.533 90.483 120.521 90.1624C120.953 88.2146 120.958 86.5982 120.712 84.642C120.634 84.0209 120.725 83.8225 120.525 83.0809C120.36 82.4706 119.492 80.7623 119.512 80.3517C119.566 80.2585 119.694 79.952 119.674 79.9104C119.196 78.9259 118.624 77.9443 118.003 77.0431C118.006 76.878 118.007 76.7404 118.009 76.63C117.77 76.13 117.274 75.6545 116.939 75.2123C115.099 72.7818 112.922 71.9354 110.003 71.3198C109.326 71.177 108.415 71.4446 107.984 71.2918L108.039 71.1305C115.568 70.4645 120.082 77.4343 120.902 84.0362C121.008 84.8959 120.977 85.8107 121.111 86.6682C121.03 88.1099 120.741 89.9573 120.524 91.4125C120.428 91.7538 120.456 92.168 120.286 92.3527C119.915 95.0061 116.598 104.174 114.969 105.939Z" fill="#FCAAC2"/>
<path d="M117.833 84.0597C118.201 84.4627 117.865 85.1929 117.911 85.6933C118.268 85.3711 118.819 84.7581 119.259 85.1265C119.319 85.7045 119.194 86.6677 119.176 87.2983C119.135 88.6353 119.171 89.9648 119.008 91.296C118.925 91.9698 118.706 92.6393 118.144 93.0729C117.521 93.1143 117.814 92.6543 117.479 92.3648C116.87 94.5348 116.383 96.2934 115.666 98.4597C115.454 99.1358 115.252 99.8607 114.944 100.493C115.122 99.526 115.618 98.274 115.894 97.3573C116.989 93.7166 118.155 90.3709 117.512 86.5287C117.35 85.5653 117.342 84.9479 117.833 84.0597Z" fill="#FCAAC2"/>
<path d="M88.4503 103.973C89.7623 103.277 92.5889 105.751 93.5092 105.334C93.0014 104.692 91.2584 104.4 91.1057 104.256L91.19 104.148C92.3173 104.086 93.9001 105.447 94.8739 105.912C95.3343 106.132 96.1407 106.315 96.6553 106.443C97.0526 106.545 98.2063 106.79 98.4051 107.057C97.8005 107.079 97.4957 106.446 96.8975 106.729C97.0254 107.074 97.1595 107.342 97.116 107.706C97.066 107.769 97.0024 107.885 96.9269 107.912C96.0171 108.243 92.476 106.573 91.4914 106.108C90.6529 105.713 88.755 104.824 88.4503 103.973Z" fill="#F8B6CE"/>
<path d="M104.583 76.5399L105.789 76.0357L105.88 76.0457C106.959 76.1699 107.207 76.6387 107.868 77.4705C106.709 77.9275 106.127 78.2492 105.038 78.8837L104.217 79.4399C103.896 79.6544 103.51 79.9789 103.154 79.9082C102.796 79.4641 102.446 79.0923 102.641 78.4902C102.95 77.5357 103.773 77.0026 104.583 76.5399Z" fill="#F9AAC7"/>
<path d="M86.2788 86.4183C86.8422 86.0783 88.7422 85.1536 89.3636 85.1673C89.3773 85.6194 87.5004 87.1448 87.1149 87.6884C86.7993 88.1333 86.4831 88.5712 86.1753 89.0482C85.6943 89.8091 85.3398 90.5389 84.4339 90.7855C84.2756 90.7541 84.0783 90.7485 84.0027 90.5906C83.3008 89.1254 85.3167 87.1656 86.2788 86.4183Z" fill="#F1EEF0"/>
<path d="M82.7549 94.4795C83.1458 94.2818 83.7771 94.5046 84.2112 94.6101C84.1029 95.3617 84.0876 96.082 84.0772 96.8389C83.8158 97.0296 83.84 96.9685 83.4568 96.9773C82.4352 96.4515 82.568 95.4198 82.7549 94.4795Z" fill="#F8B6CE"/>
<path d="M111.942 90.6414L112.172 90.5973L112.284 90.7616C112.199 92.1682 110.722 94.3407 109.901 95.435L109.641 95.5023L109.523 95.357C109.49 94.6579 110.988 92.844 111.338 92.0802C111.571 91.5717 111.739 91.1862 111.942 90.6414Z" fill="#F989AA"/>
<path d="M109.466 107.429C109.886 107.202 110.335 106.889 110.714 107.283C110.772 107.619 110.57 107.996 110.435 108.324C109.955 108.477 109.282 108.627 108.851 108.3L108.823 108.09C108.957 107.783 109.2 107.635 109.466 107.429Z" fill="#E42E58"/>
<path d="M97.6708 102.943C97.8442 102.837 98.0567 102.702 98.2596 102.722C98.8237 102.777 100.234 103.304 100.59 103.68C99.8193 103.932 98.0922 103.744 97.6708 102.943Z" fill="#EC7292"/>
<path d="M105.924 96.6661L106.132 96.6555C106.667 97.0085 106.466 97.6415 106.269 98.1457C105.832 98.0914 105.693 98.0913 105.524 97.707C105.594 97.3378 105.767 97.0079 105.924 96.6661Z" fill="#F989AA"/>
<path d="M67.2412 77.4188L67.7121 77.683C67.7933 78.5998 67.9673 79.4186 68.0731 80.3063C68.4831 80.3348 69.3577 80.1845 69.6991 79.9628C69.7558 79.8482 69.8499 79.5625 69.8985 79.4287L70.1215 78.9734C70.3437 79.8791 70.2454 79.7076 71.0648 80.0616C71.4403 80.2238 71.7101 80.8749 71.8443 81.2539C72.8224 84.0167 73.6515 86.8369 74.4564 89.6546C76.3352 96.0926 78.2688 103.364 75.4565 109.835C74.6786 111.625 73.4439 112.808 72.7655 114.113C72.6951 119.152 75.3021 124.723 78.8527 128.216C81.6687 130.986 85.2415 133.309 88.8618 134.91C89.5163 135.199 90.6576 135.531 91.3688 135.777L91.3783 135.918C92.034 136.35 95.2071 136.796 96.0997 136.893C95.2718 137.356 93.9741 137.712 93.0393 137.934C91.1227 138.389 88.3766 136.339 86.6336 136.316C84.2485 135.313 82.1389 133.923 80.0301 132.452C78.0674 130.744 76.0252 128.993 74.5152 126.829C73.7275 125.7 72.8511 123.997 72.144 122.733C71.3731 121.355 70.7136 119.226 69.5003 118.088C69.1847 117.792 67.4508 117.427 66.9837 117.523C66.4425 117.633 65.0407 118.043 64.6735 118.54C64.5124 118.759 64.4864 118.773 64.2804 118.967C64.0753 118.832 63.7441 118.624 63.5033 118.592C61.5048 118.332 59.9338 118.35 58.0197 117.671C56.0865 117.157 53.2395 115.444 51.6488 114.237C49.014 113.106 38.1555 101.066 36.6709 98.2592C36.6948 97.8375 36.7807 97.5798 36.894 97.1724L36.7663 96.6995C37.15 96.5434 37.6024 96.3731 37.9732 96.203C38.4321 96.0739 38.7248 95.7343 39.0283 95.3932C39.963 94.8537 40.3785 95.2863 41.024 96.0506C44.5653 100.244 48.2189 104.298 52.0995 108.183C53.4409 109.537 54.4157 109.933 55.8281 110.983C59.1344 112.274 60.3797 113.186 64.0824 112.553C64.8492 112.271 65.3717 112.071 66.1012 111.711C75.4987 106.643 70.6705 97.218 68.8406 89.2232C68.5547 87.9742 68.1957 86.3754 67.65 85.2422L67.0912 84.8143C66.8717 84.7391 66.5833 84.0141 66.4212 83.7124C65.8696 81.4069 64.8874 80.2145 66.5644 77.8831C66.9844 77.8723 66.9902 77.7889 67.2412 77.4188Z" fill="#F66588"/>
<path d="M39.0282 95.3932C39.9629 94.8537 40.3784 95.2863 41.0239 96.0506C44.5652 100.244 48.2188 104.298 52.0994 108.183C53.4408 109.537 54.4156 109.933 55.8279 110.983L55.7594 111.173C55.0562 110.532 53.4356 110.037 53.0591 109.284C53.6835 111.967 58.5487 114.634 60.9918 115.23C61.3704 115.322 61.6192 115.505 61.9222 115.609C61.8434 115.57 59.3026 114.874 59.0763 114.828C59.1384 115.897 59.763 117.668 58.0196 117.671C56.0864 117.157 53.2394 115.444 51.6487 114.237C49.0139 113.106 38.1554 101.066 36.6708 98.2592C36.6947 97.8375 36.7806 97.5798 36.8939 97.1724L36.7662 96.6995C37.1499 96.5434 37.6023 96.3731 37.9731 96.203C38.432 96.0739 38.7247 95.7343 39.0282 95.3932Z" fill="#FB9EB7"/>
<path d="M36.8939 97.1724C37.1912 97.0156 37.5928 96.8195 37.8556 96.6273C38.3149 96.855 38.6657 96.6908 38.8182 96.871C39.5567 97.7433 40.026 99.0223 40.8309 99.8294C43.1264 102.132 45.4343 104.252 47.6544 106.645C48.6187 108.138 50.169 109.247 51.0978 110.62C50.6569 110.763 50.0847 109.863 49.638 109.528C49.8895 110.204 53.1054 113.374 53.0697 114.687C52.6671 114.836 52.2716 114.252 51.6487 114.237C49.014 113.106 38.1554 101.066 36.6708 98.2592C36.6947 97.8375 36.7806 97.5798 36.8939 97.1724Z" fill="#FED7E2"/>
<path d="M37.8555 96.6274C38.2221 96.5062 38.4371 96.3952 38.8023 96.5108C39.3569 96.8562 39.7815 97.6451 40.1241 98.195C41.188 99.9023 47.6675 104.875 47.6542 106.645C45.4341 104.252 43.1262 102.132 40.8308 99.8296C40.0259 99.0224 39.5566 97.7434 38.8181 96.8711C38.6656 96.691 38.3147 96.8551 37.8555 96.6274Z" fill="#FCAAC2"/>
<path d="M67.2408 77.4189L67.7117 77.6831C67.7929 78.5999 67.967 79.4188 68.0727 80.3065C68.4827 80.3349 69.3573 80.1846 69.6987 79.9629C69.7555 79.8484 69.8495 79.5626 69.8982 79.4289L70.104 79.9042C69.9797 80.1752 70.0563 80.0847 69.8173 80.2534C69.4761 80.2749 69.3124 80.2956 68.9776 80.3635C68.972 80.6101 70.3001 82.1311 70.4804 83.1934C70.6779 84.3578 70.5808 85.4509 70.837 86.5756C70.9695 87.157 71.5365 87.8143 71.6777 88.377C72.192 90.4279 72.6212 92.7722 73.0964 94.7916C74.5689 101.049 74.7992 105.472 71.2484 111.028C70.693 111.897 69.9372 113.119 69.2208 113.862C68.4598 114.65 67.8159 114.598 66.8457 114.743C66.2241 114.405 65.5234 114.153 65.2917 113.512C65.5952 113.44 65.5513 113.689 65.7387 113.539C64.8467 111.533 64.8227 112.927 64.082 112.553C64.8489 112.272 65.3713 112.072 66.1008 111.711C75.4984 106.644 70.6702 97.2181 68.8402 89.2233C68.5544 87.9743 68.1954 86.3755 67.6497 85.2423L67.0908 84.8144C66.8713 84.7392 66.5829 84.0142 66.4208 83.7125C65.8692 81.407 64.887 80.2146 66.564 77.8833C66.984 77.8724 66.9898 77.789 67.2408 77.4189Z" fill="#FDC9D8"/>
<path d="M68.073 80.3064C68.4831 80.3349 69.3576 80.1846 69.6991 79.9629C69.7558 79.8483 69.8498 79.5626 69.8985 79.4288L70.1043 79.9042C69.98 80.1751 70.0566 80.0846 69.8176 80.2533C69.4765 80.2748 69.3127 80.2955 68.9779 80.3635C68.9723 80.6101 70.3005 82.1311 70.4807 83.1933C70.6782 84.3578 70.5811 85.4509 70.8374 86.5755C70.9699 87.1569 71.5368 87.8142 71.678 88.377C72.1923 90.4278 72.6216 92.7722 73.0968 94.7915C74.5692 101.049 74.7995 105.472 71.2487 111.028C70.6934 111.897 69.9375 113.119 69.2211 113.862C68.4601 114.65 67.8162 114.598 66.8461 114.743C66.2244 114.405 65.5238 114.153 65.292 113.512C65.5955 113.44 65.5517 113.689 65.739 113.539C64.847 111.533 64.823 112.927 64.0823 112.553C64.8492 112.272 65.3716 112.071 66.1011 111.711C65.9885 111.838 65.8793 111.969 65.774 112.102C65.2639 112.757 66.0829 113.353 66.5587 113.679L66.6194 113.622L66.5331 113.292C66.732 113.356 66.7794 113.578 66.9046 113.821C66.995 113.64 66.9089 113.533 66.8348 113.287C69.3309 114.51 70.3701 110.884 71.2315 109.479C73.919 105.094 72.3974 101.891 72.3516 97.8873C72.3246 95.5317 69.3073 84.4143 69.4249 83.7866C69.6883 83.9693 70.0952 84.8615 70.2835 85.2176C70.1998 83.6799 69.8478 82.5423 69.1498 81.2003C68.8056 81.0698 67.8528 80.8081 67.4968 80.8921L67.4594 80.657L68.073 80.3064Z" fill="#F989AA"/>
<path d="M67.2411 77.4187L67.7121 77.6829C67.7932 78.5997 67.9673 79.4186 68.0731 80.3063L67.4594 80.6569C67.2133 80.8585 67.0848 80.8922 67.0317 81.1945C66.8784 82.0656 68.2043 84.9402 67.9415 85.5037L67.65 85.2421L67.0911 84.8143C66.8717 84.7391 66.5833 84.014 66.4212 83.7124C65.8696 81.4069 64.8874 80.2144 66.5643 77.8831C66.9843 77.8723 66.9901 77.7889 67.2411 77.4187Z" fill="#F1EEF0"/>
<path d="M86.2981 54.0873C78.0101 47.904 80.491 35.672 90.3287 32.9532C93.8727 31.9739 97.657 33.0174 100.568 35.1815C104.869 37.8992 106.268 46.13 103.456 50.3202C103.414 50.3837 103.369 50.4451 103.321 50.5041C103.196 50.7087 102.849 51.2459 102.762 51.4398C104.137 52.3847 105.369 53.5236 106.583 54.6647C106.798 54.8671 107.013 55.0617 107.259 55.2264L107.343 55.2631C107.878 55.4933 107.995 55.4178 108.446 55.5573C109.409 55.8551 110.514 56.9163 111.098 57.7509L110.118 58.5337C110 58.9587 109.59 59.3362 109.258 59.6227L109.031 60.029C108.896 59.8167 108.634 59.4908 108.472 59.2789C109.153 60.5444 108.401 60.2945 108.023 61.3294C106.856 61.1306 105.767 59.8016 105.098 58.8927L105.039 58.1125C104.172 56.8439 102.073 54.625 100.979 53.3871C99.8408 54.4898 97.2074 55.6877 95.6481 55.9671C92.0375 56.6137 89.303 56.0319 86.2981 54.0873Z" fill="#F66588"/>
<path d="M84.0207 39.7464C84.2771 38.7686 85.6764 37.1784 86.494 36.5538L86.581 36.5813C87.7921 36.9728 88.2039 38.0012 88.4546 38.1771C89.1351 38.6546 91.8544 36.7894 92.6497 36.6012C94.4539 36.7688 97.0996 36.9989 98.2548 38.5965C99.3636 39.872 100.013 40.6714 100.477 42.3169L100.839 43.8808L100.459 43.8912C100.356 44.0676 100.304 44.1815 100.221 44.3681C100.223 45.5229 99.9374 46.66 99.3904 47.677C99.3183 48.1779 99.2441 48.1546 99.4112 48.5605L99.574 48.6729C99.2615 49.1428 99.0103 49.459 98.6579 49.8928C97.7026 50.6501 97.197 51.0811 96.1031 51.6015C93.6585 52.2857 92.2521 52.4952 89.8829 51.307C89.4006 51.0651 88.5605 50.5198 88.0979 50.4023C88.0605 48.6598 85.3304 47.3707 86.3064 44.2295C86.3332 42.9993 86.6859 41.7981 87.3282 40.7486C87.6438 39.4697 87.9971 39.7378 88.4169 38.6017L88.3713 38.5885C88.1166 38.8691 87.657 39.4385 87.3391 39.5925L87.2353 39.6831C86.4605 41.591 85.1069 40.4876 84.0207 39.7464Z" fill="#F66588"/>
<path d="M84.0209 39.7464C84.2774 38.7685 85.6767 37.1784 86.4942 36.5538L86.5813 36.5812C87.7924 36.9728 88.2042 38.0011 88.4548 38.177C89.1354 38.6545 91.8546 36.7894 92.65 36.6011C94.4542 36.7688 97.0998 36.9989 98.255 38.5964C98.1866 38.9068 98.1756 39.0072 98.0039 39.2884C96.4755 37.8656 94.389 37.2045 92.32 37.4874C90.2512 37.7703 88.4187 38.9676 87.3285 40.7485C87.6441 39.4697 87.9974 39.7378 88.4171 38.6017L88.3716 38.5885C88.1168 38.8691 87.6573 39.4384 87.3394 39.5924L87.2356 39.6831C86.4608 41.591 85.1071 40.4876 84.0209 39.7464Z" fill="#DDBEC7"/>
<path d="M87.2355 39.683C86.1497 40.2923 85.4253 38.379 86.1395 37.6457C86.9853 37.3734 87.618 37.9519 87.9893 38.67C87.8121 39.077 87.4732 39.2975 87.3393 39.5924L87.2355 39.683Z" fill="#989597"/>
<path d="M88.0981 50.4021C88.0607 48.6597 85.3306 47.3705 86.3066 44.2294C86.2365 47.4451 88.3796 50.2897 91.49 51.1093C94.6003 51.9288 97.867 50.5097 99.3906 47.6769C99.3185 48.1778 99.2443 48.1544 99.4113 48.5603L99.5742 48.6728C99.2616 49.1427 99.0105 49.4589 98.6581 49.8926C97.7028 50.6499 97.1972 51.0809 96.1033 51.6014C93.6587 52.2856 92.2523 52.4951 89.8831 51.3069C89.4008 51.065 88.5607 50.5196 88.0981 50.4021Z" fill="#F8B6CE"/>
<path d="M98.2545 38.5965C99.3634 39.872 100.013 40.6714 100.476 42.3169L100.839 43.8808L100.459 43.8912C100.356 44.0676 100.303 44.1815 100.22 44.3681C100.217 42.441 99.4139 40.6016 98.0034 39.2884C98.1751 39.0072 98.1861 38.9069 98.2545 38.5965Z" fill="#FCAAC2"/>
<path d="M87.5308 43.1103C87.6866 41.065 89.8823 39.5543 91.6493 38.9101C93.1085 38.3623 95.3339 38.3867 96.5437 39.478C97.0618 39.9099 97.4534 40.2032 97.8347 40.7735C99.793 43.093 99.3078 46.5381 97.2379 48.6143C96.5335 49.3615 95.2927 50.0181 94.2646 50.124C93.4118 50.1802 93.2399 50.2244 92.3633 50.128L91.9414 49.828C90.8097 50.1391 89.2887 48.7439 88.6814 47.8587C87.6129 46.3014 87.2155 44.9837 87.5308 43.1103Z" fill="#DBD7D8"/>
<path d="M93.7559 43.6972C93.6899 43.469 95.5714 42.636 95.9171 42.44C96.8373 41.918 97.4152 41.7433 96.9797 40.539L97.1232 40.4139C97.2799 40.3959 97.6407 40.6612 97.8349 40.7735C99.7931 43.093 99.3079 46.538 97.2381 48.6143C96.5337 49.3614 95.2928 50.0181 94.2647 50.1239C93.4119 50.1802 93.2401 50.2244 92.3635 50.128C92.1756 49.0089 93.0596 46.1938 92.8208 45.3522C92.4844 45.3298 91.0672 46.4205 90.2155 46.233C90.0521 46.0433 90.0867 46.1417 90.0988 45.8761C90.4373 45.3116 91.8138 44.3895 92.4474 44.5195C92.4452 44.1635 92.5037 43.9345 92.7647 43.6875C93.1076 43.5255 93.3796 43.6226 93.7559 43.6972Z" fill="#F1EEF0"/>
<path d="M94.2646 50.1239C94.2015 49.5421 93.9104 49.1073 93.7915 48.5449C93.6614 47.9299 93.4422 45.9775 93.7495 45.5075L93.9479 45.4746L94.1544 45.6487L94.7722 46.24C95.8989 46.9444 96.2972 47.2523 96.9518 48.4597C97.0083 48.4921 97.1885 48.6018 97.2379 48.6143C96.5335 49.3614 95.2927 50.0181 94.2646 50.1239Z" fill="#DBD7D8"/>
<path d="M94.7724 46.24C95.363 47.0301 97.3651 49.4294 94.8937 48.995C94.4124 48.9104 93.372 46.0006 94.1545 45.6487L94.7724 46.24Z" fill="#C5C3C6"/>
<path d="M92.4469 44.5195C92.4447 44.1635 92.5032 43.9345 92.7642 43.6876C93.1071 43.5256 93.3791 43.6226 93.7554 43.6973C93.9589 44.2243 94.0829 44.7503 93.4595 45.063C92.93 45.1362 92.7354 44.9027 92.4469 44.5195Z" fill="#4C4D50"/>
<path d="M91.6494 38.91C93.1086 38.3622 95.334 38.3866 96.5438 39.4779C96.5653 40.0173 96.6963 40.9455 96.2833 41.3398C95.7016 41.8952 94.5175 42.7228 93.6855 42.3329L93.5091 42.134C93.6675 41.383 93.742 40.6122 92.8919 40.3046C92.1077 40.5892 92.3406 41.268 92.4616 41.9164C91.7155 40.374 91.9483 40.32 91.6619 38.9667L91.6494 38.91Z" fill="#A8A6A6"/>
<path d="M91.9413 49.828C90.8096 50.1391 89.2886 48.7439 88.6814 47.8587C87.6129 46.3014 87.2155 44.9837 87.5308 43.1103C88.1364 43.3898 88.4908 43.6212 89.1678 43.5529C89.4596 43.4945 91.4003 43.9957 91.6887 44.1157C90.6005 44.7613 88.866 44.9593 88.2947 46.0359C88.2087 46.7885 89.1801 47.7289 89.9467 47.7906C90.7304 47.8539 91.6454 47.3049 92.1737 47.8054C92.366 48.4031 92.0864 49.1843 91.9413 49.828Z" fill="#4C4D50"/>
<path d="M87.5308 43.1103C87.6866 41.065 89.8823 39.5544 91.6493 38.9101L91.6618 38.9668C91.9482 40.3201 91.7154 40.3741 92.4615 41.9165C92.5226 42.1595 92.5548 42.3621 92.6841 42.5758L92.6581 42.8552C92.0768 42.9407 88.9155 40.681 88.4787 42.6571C88.5567 42.9916 88.9166 43.2963 89.1679 43.5529C88.4909 43.6213 88.1365 43.3898 87.5308 43.1103Z" fill="#5A5657"/>
<path d="M99.3126 50.1322C99.3879 49.9518 99.4273 49.91 99.5454 49.7518L99.7526 49.8486L99.6001 49.3411C100.1 50.0725 100.55 50.5318 101.254 51.0823L101.72 50.6405L102.143 51.0345L102.59 50.531C103.065 50.6379 102.92 50.6753 103.32 50.5041C103.196 50.7087 102.849 51.2458 102.762 51.4398C104.137 52.3847 105.369 53.5236 106.583 54.6647C106.798 54.8671 107.013 55.0617 107.259 55.2264L107.343 55.2631C107.878 55.4933 107.995 55.4178 108.446 55.5573C109.409 55.8551 110.513 56.9163 111.098 57.7509L110.117 58.5337C110 58.9587 109.59 59.3362 109.258 59.6227L109.03 60.029C108.895 59.8167 108.633 59.4908 108.472 59.2789C109.153 60.5444 108.401 60.2945 108.022 61.3294C106.856 61.1306 105.767 59.8016 105.097 58.8927L105.039 58.1125C104.172 56.8439 102.073 54.625 100.979 53.3871L100.54 52.8731L100.127 52.3757C99.5873 51.6777 98.6151 51.035 98.7523 50.1204L99.3126 50.1322Z" fill="#989597"/>
<path d="M98.7524 50.1205L99.3127 50.1323C101.328 52.0117 103.991 54.853 105.977 56.8838C106.419 57.4573 107.873 58.9239 108.472 59.279C109.153 60.5445 108.401 60.2946 108.022 61.3295C106.856 61.1307 105.767 59.8017 105.098 58.8928L105.039 58.1126C104.172 56.844 102.073 54.6251 100.979 53.3872L100.54 52.8732L100.127 52.3758C99.5874 51.6778 98.6152 51.0351 98.7524 50.1205Z" fill="#F1EEF0"/>
<path d="M107.259 55.2264L107.343 55.2631C107.878 55.4933 107.995 55.4178 108.446 55.5573C109.409 55.8551 110.513 56.9163 111.098 57.7509L110.117 58.5337C110 58.9587 109.59 59.3362 109.258 59.6226L109.03 60.029C108.895 59.8167 108.633 59.4907 108.472 59.2788C107.872 58.9238 106.419 57.4571 105.977 56.8837C106.584 57.0509 106.553 57.4142 107.012 57.576C106.913 57.3662 106.769 57.1188 106.759 56.8973L106.907 56.9795C106.964 56.5938 106.906 56.7427 107.155 56.4157C107.561 56.2721 107.761 56.4175 108.093 56.6371C107.892 56.3913 107.729 56.1227 107.422 56.0686C107.425 55.9147 107.299 55.4073 107.259 55.2264Z" fill="#4C4D50"/>
<path d="M107.259 55.2265L107.343 55.2632C107.878 55.4933 107.995 55.4179 108.446 55.5573C109.409 55.8552 110.513 56.9164 111.098 57.7509L110.117 58.5338C109.509 58.0229 108.645 57.2004 108.093 56.6372C107.892 56.3913 107.729 56.1228 107.422 56.0686C107.425 55.9148 107.299 55.4074 107.259 55.2265Z" fill="#C5C3C6"/>
<path d="M105.977 56.8837C106.584 57.0509 106.553 57.4142 107.012 57.576C106.913 57.3662 106.769 57.1189 106.759 56.8973L106.907 56.9795C108.566 58.0889 108.394 58.9563 109.258 59.6226L109.031 60.029C108.896 59.8167 108.633 59.4907 108.472 59.2788C107.872 58.9238 106.419 57.4572 105.977 56.8837Z" fill="#A2A2A7"/>
<path d="M101.72 50.6406L102.143 51.0345L102.59 50.531C103.065 50.6379 102.92 50.6753 103.32 50.5041C103.196 50.7087 102.849 51.2459 102.762 51.4398C104.137 52.3847 105.369 53.5236 106.583 54.6647C106.798 54.8671 107.013 55.0617 107.259 55.2264C107.299 55.4074 107.425 55.9148 107.422 56.0686L107.127 56.1369C106.586 55.7923 105.606 54.8709 105.082 54.4157L101.255 51.0823L101.72 50.6406Z" fill="#DBD7D8"/>
<path d="M102.59 50.5311C103.065 50.638 102.92 50.6754 103.32 50.5042C103.196 50.7088 102.849 51.246 102.762 51.4399C102.501 51.3804 102.351 51.2129 102.143 51.0346L102.59 50.5311Z" fill="#F8B6CE"/>
<path d="M84.0207 39.7464C85.107 40.4876 86.4606 41.591 87.2354 39.683L87.3392 39.5924C87.6571 39.4384 88.1167 38.8691 88.3714 38.5885L88.4169 38.6016C87.9972 39.7378 87.6439 39.4697 87.3283 40.7485C86.6859 41.798 86.3333 42.9992 86.3065 44.2295C85.3305 47.3706 88.0606 48.6598 88.098 50.4022C87.7796 50.2639 87.862 50.2382 87.6225 50.3295C87.6973 52.5068 88.1392 52.7505 89.8948 53.7805L89.7968 53.8503L89.4939 53.7595C89.6617 54.1232 89.8549 53.7606 89.7768 54.1685C89.6346 54.1648 89.2121 53.9994 89.0723 53.9365C86.5234 52.7909 84.5446 50.7051 83.5278 48.111C82.3623 45.1379 82.7906 42.5936 84.0207 39.7464Z" fill="#F2EFF0"/>
<path d="M86.2981 54.0873C78.0101 47.904 80.491 35.672 90.3287 32.9532C93.8727 31.9739 97.657 33.0174 100.568 35.1815L100.5 35.1746C100.345 35.158 100.25 35.167 100.129 35.0748C99.8414 35.1478 99.9475 35.0891 99.7317 35.3134C99.942 35.4408 100.063 35.5269 100.257 35.6776L100.3 35.9325C97.5767 34.087 94.749 32.8989 91.4402 33.5464C88.4087 34.1619 85.7409 35.9447 84.0124 38.5101C82.2173 41.1909 81.6024 44.7943 82.8031 47.8142C83.5492 49.6906 84.5623 51.5693 86.1309 52.8791C86.3625 53.3926 86.4323 53.5179 86.2981 54.0873Z" fill="#F8AFC8"/>
<path d="M100.477 42.3168C100.905 41.8999 100.742 41.8772 100.939 41.3821C101.142 40.8724 101.792 40.8897 102.361 40.6953L102.448 40.86L102.697 40.9247C103.59 42.7493 103.553 45.7051 102.945 47.6095C102.775 48.1434 101.969 49.9328 101.682 50.5641L101.721 50.6406L101.255 51.0823C100.55 50.5318 100.101 50.0725 99.6005 49.3411L99.753 49.8486L99.5458 49.7518C99.4277 49.91 99.3883 49.9518 99.313 50.1322L98.7527 50.1204L99.273 49.7094L98.6583 49.8927C99.0107 49.4589 99.2618 49.1427 99.5744 48.6728L99.4115 48.5603C99.2445 48.1545 99.3187 48.1778 99.3908 47.6769C99.9378 46.6599 100.223 45.5228 100.221 44.368C100.304 44.1814 100.357 44.0675 100.459 43.8911L100.839 43.8807L100.477 42.3168Z" fill="#7D7A7C"/>
<path d="M100.22 44.368C100.304 44.1814 100.356 44.0675 100.459 43.8911L100.839 43.8807C101.079 45.7404 100.638 47.1577 99.5739 48.6728L99.4111 48.5603C99.244 48.1545 99.3182 48.1778 99.3903 47.6769C99.9373 46.6599 100.223 45.5228 100.22 44.368Z" fill="#DDBEC7"/>
<path d="M99.6001 49.3412C100.35 49.1919 101.043 50.1111 101.682 50.5641L101.72 50.6406L101.254 51.0824C100.55 50.5319 100.1 50.0726 99.6001 49.3412Z" fill="#C5C3C6"/>
<path d="M92.65 36.6012C92.1614 35.1215 93.6267 35.0226 94.6674 34.8754L94.7356 34.6449C95.4644 34.3376 96.2596 35.1032 97.0761 35.2034L97.2063 35.1278L97.2231 35.0099C99.717 35.7702 102.057 38.4194 102.697 40.9248L102.448 40.8601L102.361 40.6954C101.792 40.8898 101.142 40.8725 100.939 41.3822C100.742 41.8773 100.905 41.9 100.477 42.3169C100.014 40.6714 99.3639 39.872 98.255 38.5965C97.0998 36.9989 94.4542 36.7688 92.65 36.6012Z" fill="#A7A3A5"/>
<path d="M86.494 36.5538C89.7219 34.0394 93.4359 33.2762 97.2228 35.0098L97.2061 35.1278L97.0759 35.2033C96.2594 35.1032 95.4642 34.3375 94.7354 34.6449L94.6672 34.8753C93.6265 35.0225 92.1611 35.1214 92.6498 36.6011C91.8544 36.7894 89.1351 38.6545 88.4546 38.177C88.204 38.0011 87.7922 36.9728 86.5811 36.5812L86.494 36.5538Z" fill="#DBD7D8"/>
<path d="M89.7771 54.1684C89.8552 53.7605 89.662 54.1231 89.4942 53.7595L89.797 53.8503L89.8951 53.7804C88.1395 52.7505 87.6976 52.5067 87.6228 50.3294C87.8623 50.2381 87.7799 50.2638 88.0983 50.4022C88.5608 50.5196 89.4009 51.065 89.8833 51.3069C92.2524 52.4951 93.6588 52.2856 96.1035 51.6014C95.6861 51.7972 95.211 51.9679 94.9664 52.3499L94.9322 52.4025C94.0972 53.7091 95.4021 54.3071 94.0795 54.5C93.836 54.5354 93.7223 54.5824 93.5218 54.722C92.7012 54.9212 90.5906 54.5206 89.7771 54.1684Z" fill="#BAB7B8"/>
<path d="M96.103 51.6015C97.1969 51.0811 97.7025 50.65 98.6578 49.8928L99.2725 49.7094L98.7523 50.1205C98.615 51.0351 99.5872 51.6778 100.127 52.3758C97.546 53.6038 96.8377 54.7173 93.5213 54.7221C93.7219 54.5825 93.8355 54.5355 94.079 54.5001C95.4016 54.3072 94.0967 53.7092 94.9317 52.4026L94.9659 52.35C95.2105 51.968 95.6857 51.7973 96.103 51.6015Z" fill="#A59FA3"/>
<path d="M100.3 35.9325L100.257 35.6776C100.063 35.5269 99.9419 35.4408 99.7316 35.3134C99.9473 35.089 99.8412 35.1478 100.129 35.0748C100.25 35.1669 100.345 35.158 100.5 35.1746L100.568 35.1815C104.869 37.8991 106.268 46.13 103.456 50.3201C103.414 50.3837 103.369 50.445 103.32 50.504C102.92 50.6753 103.065 50.6378 102.59 50.531C104.337 47.8602 104.447 43.633 103.456 40.6655C102.869 38.9054 101.662 37.1869 100.3 35.9325Z" fill="#F6ACBF"/>
<path d="M86.1305 52.8792C89.0978 55.0053 91.2517 55.7255 95.0776 55.291C96.5763 55.1209 99.471 53.9162 100.54 52.8732L100.979 53.3872C99.8404 54.4899 97.207 55.6879 95.6477 55.9672C92.037 56.6139 89.3025 56.032 86.2976 54.0874C86.4319 53.5181 86.362 53.3928 86.1305 52.8792Z" fill="#F989AA"/>
<path d="M28.4698 87.3389C28.2573 86.6129 24.8044 82.4881 23.9632 81.3651C18.2453 73.7314 11.9871 65.1358 9.7385 55.7299C8.97208 52.524 9.72965 49.1521 11.5108 46.4609C12.4689 45.0133 15.4354 42.612 17.1026 42.2992C17.7482 42.4293 18.8376 41.627 18.9808 41.7583C18.8055 41.9371 17.0364 43.4191 17.0916 43.3094C17.6322 43.0218 18.1802 42.7483 18.735 42.4893C19.0918 43.3105 19.2341 43.6368 19.8176 44.3505C17.6823 44.7486 14.3891 47.0558 13.1758 48.8966C12.1067 50.5186 11.7631 52.5518 11.9356 54.4726C11.9685 54.8392 12.1547 55.9347 12.1528 56.1491C12.654 57.3238 13.0046 58.578 13.5178 59.6974C15.3218 63.6318 17.5337 67.4743 19.8596 71.1165C21.9066 74.3219 24.5032 77.5302 26.5806 80.6603C27.522 81.5433 29.0355 83.8001 30.0995 85.0089C31.8398 86.6412 34.1003 89.7199 35.4404 91.7572C35.3666 92.1047 35.365 92.0166 35.0366 92.2953C35.0282 92.5633 35.0618 92.6191 35.1642 92.8696C35.8507 92.6749 36.405 92.8133 37.1032 92.9581L37.1747 93.027C37.068 93.6688 38.3264 95.2525 38.8393 95.4441L39.0281 95.3933C38.7246 95.7344 38.4319 96.074 37.973 96.2032C37.6022 96.3732 37.1498 96.5435 36.7661 96.6996C35.7112 95.26 34.0672 92.9925 32.4377 92.3445C32.3159 92.2993 32.196 92.2489 32.0785 92.1933C30.8499 91.6198 28.9589 89.4253 28.3701 88.1377C28.2401 87.8535 28.3356 87.5999 28.4698 87.3389Z" fill="#F1EEF0"/>
<path d="M17.092 43.3092C17.6325 43.0216 18.1805 42.7482 18.7353 42.4891C19.0921 43.3104 19.2344 43.6367 19.8179 44.3504C17.6827 44.7484 14.3894 47.0557 13.1761 48.8965C12.107 50.5184 11.7634 52.5517 11.9359 54.4725C11.9688 54.8391 12.155 55.9346 12.1531 56.149C12.6543 57.3237 13.0049 58.5778 13.5181 59.6972C15.3221 63.6316 17.534 67.4742 19.8599 71.1163C21.9069 74.3217 24.5035 77.5301 26.5809 80.6601C26.1244 80.4717 24.0846 78.059 23.5748 77.4823C23.3069 77.2196 22.7078 76.3992 22.4724 76.0801C21.9908 75.3814 21.4326 74.6501 20.9275 73.9616L20.2013 72.9025C19.9416 72.4425 19.3357 71.6404 19.0078 71.1822L19.0568 71.7041C18.8616 71.7258 18.9512 71.7419 18.7777 71.6608C16.1149 67.6102 11.3062 59.4456 10.7083 54.6142C10.5486 53.252 10.6604 51.8717 11.0372 50.5529C12.0184 47.0857 14.0043 45.0437 17.092 43.3092Z" fill="#777677"/>
<path d="M19.0074 71.1823C18.3263 69.875 17.1568 68.2799 16.4454 67.0345C15.5233 65.4203 11.5365 57.6012 12.1526 56.1491C12.6538 57.3238 13.0044 58.5779 13.5177 59.6973C15.3216 63.6317 17.5335 67.4743 19.8594 71.1164C21.9064 74.3218 24.503 77.5301 26.5804 80.6602C26.1239 80.4718 24.0841 78.0591 23.5743 77.4824C23.3064 77.2197 22.7073 76.3993 22.4719 76.0802C21.9904 75.3815 21.4322 74.6502 20.927 73.9616L20.2008 72.9026C19.9411 72.4426 19.3352 71.6404 19.0074 71.1823Z" fill="#DBD7D8"/>
<path d="M30.134 85.7031L30.0998 85.0088C31.8401 86.6412 34.1005 89.7199 35.4406 91.7571C35.3669 92.1047 35.3652 92.0165 35.0368 92.2952C35.0284 92.5632 35.0621 92.619 35.1645 92.8695L35.0337 92.913L34.2607 92.5912C33.6074 91.4569 29.545 86.709 29.514 86.1834C29.689 86.028 29.9425 85.848 30.134 85.7031Z" fill="#4C4D50"/>
<path d="M30.1336 85.7031L30.0994 85.0089C31.8397 86.6412 34.1001 89.7199 35.4402 91.7571C35.3664 92.1047 35.3648 92.0165 35.0364 92.2952C34.7911 91.8888 34.0363 90.914 33.7219 90.4791C32.5621 88.8602 31.3657 87.2678 30.1336 85.7031Z" fill="#A2A2A7"/>
<path d="M23.5746 77.4824C24.0844 78.0592 26.1242 80.4719 26.5807 80.6603C27.5221 81.5433 29.0356 83.8001 30.0996 85.0089L30.1339 85.7032C29.9424 85.848 29.6888 86.028 29.5139 86.1835C29.5089 86.1293 29.5039 86.0752 29.4989 86.0212C27.8228 84.0125 25.4376 81.1493 24.0096 79.0686C23.9479 78.3849 23.8322 78.1025 23.5746 77.4824Z" fill="#8C8D8D"/>
<path d="M32.4379 92.3444C32.3161 92.2992 32.1962 92.2488 32.0787 92.1932C30.8501 91.6197 28.9591 89.4252 28.3703 88.1376C28.2403 87.8534 28.3358 87.5998 28.47 87.3388C29.2518 87.9389 32.1543 91.498 32.4379 92.3444Z" fill="#7A7A7D"/>
<path d="M35.0337 92.913L35.1645 92.8696C35.851 92.6749 36.4052 92.8133 37.1035 92.9581L37.1749 93.027C37.0683 93.6688 38.3266 95.2525 38.8395 95.4441L39.0283 95.3933C38.7249 95.7344 38.4322 96.074 37.9733 96.2032C37.4777 95.2663 35.8427 93.636 35.0337 92.913Z" fill="#7A7A7D"/>
<path d="M20.9273 73.9616C21.4324 74.6502 21.9906 75.3815 22.4722 76.0802C22.4933 76.3963 22.5098 76.7128 22.5216 77.0294L20.8528 74.7342C20.9427 74.4278 20.9287 74.2731 20.9273 73.9616Z" fill="#6E6E6E"/>
<path d="M22.4722 76.0801C22.7076 76.3992 23.3066 77.2196 23.5746 77.4823C23.8322 78.1023 23.9479 78.3848 24.0095 79.0684C23.5098 78.405 23.0125 77.7026 22.5216 77.0293C22.5097 76.7127 22.4933 76.3962 22.4722 76.0801Z" fill="#7A7A7D"/>
<path d="M19.0077 71.1823C19.3355 71.6404 19.9415 72.4426 20.2011 72.9026L19.915 73.0498C19.9152 73.1377 19.9103 73.2813 19.9206 73.3631C19.6758 73.0894 18.9746 71.9952 18.7775 71.6609C18.951 71.742 18.8614 71.7258 19.0567 71.7042L19.0077 71.1823Z" fill="#6E6E6E"/>
<path d="M19.9205 73.3631C19.9101 73.2814 19.915 73.1378 19.9148 73.0499L20.2009 72.9027L20.9271 73.9617C20.9286 74.2731 20.9426 74.4278 20.8527 74.7342L19.9205 73.3631Z" fill="#7A7A7D"/>
<path d="M37.0872 32.2451C44.3822 27.3707 50.6624 29.6618 55.3745 36.7531C60.2266 44.0548 63.0149 52.4667 65.5389 60.7848C65.9118 62.0453 66.8942 66.6648 67.676 67.25C68.6907 68.1796 69.7339 71.847 69.4987 73.2161C69.0503 74.8421 69.7734 77.2277 70.1212 78.9734L69.8983 79.4288C69.8496 79.5625 69.7556 79.8483 69.6989 79.9628C69.3574 80.1845 68.4829 80.3348 68.0728 80.3064C67.9671 79.4187 67.793 78.5998 67.7119 77.683L67.2409 77.4188C66.9899 77.7889 66.9841 77.8723 66.5641 77.8832C66.8429 77.3706 67.2882 76.7194 67.154 76.1591C66.7375 74.3566 65.6292 71.8613 65.1815 69.8761C64.8653 68.8708 65.0278 67.6336 64.7412 66.649C63.6599 62.9338 62.4278 59.2986 61.4631 55.5474C61.1666 54.3946 60.2929 53.5113 59.9543 52.0346C59.8014 51.5667 59.6262 51.1556 59.4374 50.7035C59.1125 50.0476 58.9409 49.5436 58.6966 48.8636C57.3909 45.2289 55.4397 41.677 53.6013 38.3044C52.8401 37.426 52.0624 36.0887 51.0133 34.8955C47.3709 31.4124 42.7304 32.1847 38.6468 34.4519L37.9039 35.0083L37.7562 34.7467C37.5278 34.0918 36.9064 33.6187 37.1155 32.9579C37.0965 32.8617 37.0072 32.7107 36.9584 32.6156L37.0872 32.2451Z" fill="#F1EEF0"/>
<path d="M52.6581 36.089C52.466 35.6274 51.7711 34.3331 51.6813 33.9983C52.7458 34.9319 53.7598 36.547 54.5081 37.7615C58.9618 44.99 61.6483 53.2018 64.1734 61.2595C64.5223 62.3729 65.9259 66.5869 65.8964 67.4442C66.0389 67.5296 66.2076 67.6307 66.4021 67.7474C66.8956 69.825 67.8612 73.0572 68.3596 75.0207L68.3742 75.08C68.3026 75.4901 68.2344 75.9149 68.1489 76.3213L67.7163 76.3909C67.6399 76.5413 67.6347 76.4842 67.6438 76.62C67.5506 76.7907 67.2785 77.2624 67.2413 77.4188C66.9903 77.7889 66.9845 77.8723 66.5645 77.8831C66.8432 77.3706 67.2885 76.7194 67.1544 76.1591C66.7378 74.3565 65.6296 71.8613 65.1819 69.876C64.8657 68.8708 65.0281 67.6336 64.7415 66.6489C63.6603 62.9338 62.4282 59.2985 61.4635 55.5473C61.167 54.3946 60.2932 53.5113 59.9546 52.0345C59.8018 51.5667 59.6265 51.1556 59.4378 50.7035C59.1129 50.0476 58.9413 49.5436 58.697 48.8636C57.3913 45.2289 55.44 41.677 53.6016 38.3044C52.8405 37.426 52.0628 36.0886 51.0136 34.8954C51.5506 34.9971 52.2262 35.7052 52.6581 36.089Z" fill="#555658"/>
<path d="M59.9546 52.0346C60.4509 51.8117 60.1422 51.9867 60.5838 51.946C61.6741 54.9594 62.6227 58.1298 63.6842 61.167C64.3632 63.1092 64.657 65.8451 65.523 67.641C65.6296 67.5799 65.7863 67.4789 65.8964 67.4443C66.0389 67.5297 66.2075 67.6308 66.4021 67.7474C66.8955 69.8251 67.8612 73.0572 68.3596 75.0208L68.3742 75.08C68.3025 75.4901 68.2343 75.915 68.1488 76.3213L67.7163 76.391C67.6398 76.5414 67.6346 76.4843 67.6438 76.62C67.5506 76.7908 67.2785 77.2625 67.2412 77.4188C66.9902 77.789 66.9844 77.8724 66.5644 77.8832C66.8432 77.3706 67.2885 76.7195 67.1543 76.1591C66.7378 74.3566 65.6295 71.8614 65.1818 69.8761C64.8656 68.8708 65.0281 67.6336 64.7415 66.649C63.6603 62.9339 62.4282 59.2986 61.4634 55.5474C61.1669 54.3946 60.2932 53.5113 59.9546 52.0346Z" fill="#C5C3C6"/>
<path d="M65.5228 67.6409C65.6294 67.5797 65.7861 67.4788 65.8962 67.4441C66.0387 67.5296 66.2073 67.6307 66.4019 67.7473C66.8953 69.825 67.861 73.0571 68.3593 75.0207L68.374 75.0799C68.1697 74.6429 67.9009 73.9942 67.4238 73.8039C67.2085 73.718 67.2062 73.7056 67.0435 73.5316C66.5292 71.6468 65.8982 69.5303 65.5228 67.6409Z" fill="#1F1F25"/>
<path d="M67.0436 73.5317C67.2063 73.7056 67.2085 73.718 67.4239 73.804C67.9009 73.9943 68.1698 74.643 68.374 75.08C68.3024 75.4901 68.2342 75.9149 68.1487 76.3213L67.7161 76.3909C67.6397 76.5413 67.6345 76.4842 67.6436 76.62C67.5504 76.7908 67.2783 77.2624 67.2411 77.4188C66.9901 77.7889 66.9843 77.8723 66.5643 77.8832C66.843 77.3706 67.2883 76.7194 67.1542 76.1591C67.7581 75.3296 67.3099 74.4518 67.0436 73.5317Z" fill="#13181A"/>
<path d="M53.6015 38.3045L53.2586 37.5337L53.3213 37.464C55.0877 38.5007 59.5955 48.914 60.3269 51.2612L60.5837 51.9461C60.1421 51.9868 60.4508 51.8117 59.9544 52.0346C59.8016 51.5668 59.6264 51.1557 59.4376 50.7036C59.1127 50.0477 58.9411 49.5437 58.6968 48.8637C57.3911 45.229 55.4399 41.6771 53.6015 38.3045Z" fill="#F1EEF0"/>
<path d="M37.1154 32.9579L37.5512 32.8189C41.102 31.1416 44.0904 30.2874 48.0318 31.5483C49.0913 31.8873 51.0136 33.1935 51.6809 33.9983C51.7707 34.3331 52.4656 35.6274 52.6576 36.0891C52.2258 35.7052 51.5502 34.9971 51.0132 34.8954C47.3709 31.4124 42.7304 32.1847 38.6468 34.4519L37.9038 35.0083L37.7562 34.7466C37.5277 34.0918 36.9063 33.6186 37.1154 32.9579Z" fill="#838283"/>
<path d="M37.1154 32.9579L37.5512 32.8189C38.2036 32.7181 38.8184 32.672 39.1269 33.3157C39.1588 33.7445 38.8928 34.0883 38.6468 34.4519L37.9038 35.0083L37.7562 34.7466C37.5277 34.0918 36.9063 33.6186 37.1154 32.9579Z" fill="#4C4D50"/>
<path d="M67.6436 76.6199C67.6344 76.4842 67.6396 76.5413 67.716 76.3909L68.1486 76.3213C68.2226 77.2894 68.4306 79.1924 69.1327 79.8664C69.3877 79.9533 69.4294 79.958 69.6989 79.9628C69.3575 80.1845 68.4829 80.3348 68.0729 80.3063C67.9672 79.4186 67.7931 78.5998 67.7119 77.6829L67.241 77.4188C67.2782 77.2624 67.5504 76.7907 67.6436 76.6199Z" fill="#6A6B6C"/>
<path d="M67.6437 76.62C67.8518 76.8834 67.7398 77.2699 67.7121 77.683L67.2411 77.4188C67.2784 77.2624 67.5505 76.7907 67.6437 76.62Z" fill="#C5C3C6"/>
<path d="M67.6758 67.2499C68.6905 68.1796 69.7337 71.8469 69.4985 73.216C69.1752 72.6648 67.8462 68.0402 67.6758 67.2499Z" fill="#13181A"/>
<path d="M17.1026 42.2991C18.6414 41.6683 18.6144 41.4056 19.8874 40.4557C20.8834 39.7125 22.2907 39.1286 23.3006 38.3099C24.435 37.5516 25.9988 37.4139 27.0749 38.3112C27.6085 39.0192 28.3299 40.1581 28.1177 41.0822C27.3678 44.0955 24.447 43.42 22.2031 44.1579C21.526 44.4889 20.5475 44.5004 19.8176 44.3504C19.2341 43.6367 19.0918 43.3104 18.735 42.4891C18.1802 42.7482 17.6322 43.0216 17.0916 43.3092C17.0364 43.4189 18.8055 41.937 18.9808 41.7582C18.8376 41.6269 17.7482 42.4292 17.1026 42.2991Z" fill="#FCAAC2"/>
<path d="M27.075 38.3113C27.6086 39.0193 28.33 40.1582 28.1178 41.0824C27.3679 44.0956 24.4471 43.4201 22.2032 44.158C22.1891 42.6633 23.7978 42.9384 24.5411 42.4229C24.3359 42.2513 23.7115 42.2239 23.3911 42.1812C23.6194 41.9612 25.511 41.7482 25.943 41.4265C26.6506 40.8994 26.6643 40.1244 26.8051 39.3155C26.7981 38.9587 26.9476 38.6476 27.075 38.3113Z" fill="#E17794"/>
<path d="M27.0749 38.3112C27.6085 39.0192 28.3299 40.1581 28.1177 41.0823C26.881 41.3906 26.8624 40.1037 26.805 39.3154C26.798 38.9586 26.9474 38.6475 27.0749 38.3112Z" fill="#EC7292"/>
<path d="M23.2553 38.8533C24.0647 38.287 24.4297 38.3132 25.4224 38.1327C26.6057 38.62 26.7275 38.819 26.1433 40.0271C24.5967 41.5878 21.889 40.627 23.2553 38.8533Z" fill="#F1EEF0"/>
<path d="M19.6461 41.1546C21.0384 40.2754 21.8182 41.3278 20.9233 42.5786C20.8115 42.6138 20.6986 42.6459 20.585 42.6749C19.9492 42.8339 19.3355 42.6599 19.1986 41.9495C19.2837 41.5679 19.4008 41.4579 19.6461 41.1546Z" fill="#F1EEF0"/>
<path d="M28.9161 37.5307C28.2139 35.1475 31.2495 34.3219 32.8756 33.7572C33.473 33.5498 34.1101 32.953 34.7745 32.8013C35.7267 32.5838 36.2314 32.8341 37.0872 32.245L36.9584 32.6155C37.0072 32.7107 37.0964 32.8617 37.1154 32.9579C36.9064 33.6186 37.5277 34.0917 37.7562 34.7466L37.9038 35.0083C37.0247 37.0242 36.4077 36.5232 35.2298 37.7653C33.6995 39.3789 33.5185 40.5152 30.7278 40.1692C29.6846 39.3424 29.394 38.7086 28.9161 37.5307Z" fill="#FCAAC2"/>
<path d="M30.7277 40.1692C29.6846 39.3425 29.3939 38.7087 28.916 37.5308C29.8836 37.764 31.1071 39.2353 31.839 38.7286C32.8117 38.0552 33.7461 37.0241 34.5371 36.1325C35.6688 35.93 36.8931 35.5743 37.7562 34.7467L37.9038 35.0084C37.0247 37.0243 36.4076 36.5233 35.2298 37.7653C33.6995 39.3789 33.5184 40.5153 30.7277 40.1692Z" fill="#EC7292"/>
<path d="M30.9021 34.9989C32.4837 34.1284 33.6025 36.2297 31.242 37.6198C30.4701 37.8083 30.1701 37.6734 29.42 37.4516C29.5757 36.665 29.6433 36.4129 29.9357 35.6618C30.183 35.455 30.6193 35.1852 30.9021 34.9989Z" fill="#F1EEF0"/>
<path d="M34.4956 33.7006C34.6233 33.6115 34.7554 33.5291 34.8914 33.4537C35.814 32.937 36.8635 33.3086 36.284 34.567C36.2301 34.601 36.1755 34.634 36.1204 34.6657C35.1982 35.1951 34.0491 35.0902 34.4956 33.7006Z" fill="#F1EEF0"/>
<path d="M108.472 59.279C108.633 59.4908 108.896 59.8168 109.031 60.0291C109.245 59.9953 109.5 59.9505 109.69 60.0717L109.976 60.3052C110.114 60.4494 110.592 60.9667 110.721 61.0566C111.189 61.5772 112.02 62.5265 112.545 62.9533C112.716 63.4299 112.726 63.2625 112.624 63.7281C112.368 64.0204 112.501 63.9341 112.103 64.0371L111.855 63.9681C111.554 64.0247 111.461 63.9814 111.18 63.8854L111.093 63.8547L110.951 64.0431C110.364 63.3214 108.822 61.7042 108.022 61.3295C108.401 60.2946 109.153 60.5445 108.472 59.279Z" fill="#F8B6CE"/>
<path d="M108.472 59.279C108.633 59.4908 108.896 59.8168 109.031 60.0291C109.245 59.9953 109.5 59.9505 109.69 60.0717C109.254 60.1524 109.349 60.0759 109.035 60.3397C108.965 60.6093 108.935 60.7922 109.121 61.0551C109.603 61.735 111.244 63.5269 111.855 63.9681C111.554 64.0247 111.461 63.9814 111.18 63.8854L111.093 63.8547L110.951 64.0431C110.364 63.3214 108.822 61.7042 108.022 61.3295C108.401 60.2946 109.153 60.5445 108.472 59.279Z" fill="#F989AA"/>
<path d="M35.4402 91.7571C36.7632 93.2896 37.828 92.1969 39.4987 93.0709C40.8095 93.7567 41.4542 94.9358 42.3363 96.032C43.9781 98.0723 47.309 99.3954 49.8532 99.6164C50.9238 99.7094 54.1791 99.5235 55.1344 99.1122C54.8808 99.2898 54.7681 99.5817 54.5882 99.8609C50.6935 100.539 45.1889 99.6569 42.4097 96.6988C40.1446 94.2878 41.1852 93.5371 37.1745 93.027L37.1031 92.9581C36.4048 92.8133 35.8506 92.6749 35.1641 92.8696C35.0616 92.619 35.028 92.5633 35.0364 92.2952C35.3648 92.0166 35.3664 92.1047 35.4402 91.7571Z" fill="#4C4D50"/>
<path d="M61.4119 95.9536C65.2492 92.78 67.1362 88.658 66.4212 83.7125C66.5833 84.0142 66.8717 84.7392 67.0912 84.8144C66.9947 85.6718 67.0266 86.5237 66.9067 87.3885C66.5058 90.2789 64.5452 94.2438 62.2767 96.0695C61.9034 95.8157 61.8378 95.8555 61.4119 95.9536Z" fill="#4C4D50"/>
<path d="M54.5882 99.8609C54.7681 99.5817 54.8808 99.2897 55.1344 99.1122C57.5078 98.4002 59.4315 97.4507 61.4115 95.9536C61.8374 95.8555 61.903 95.8157 62.2763 96.0695C60.3723 97.806 57.1441 99.4034 54.5882 99.8609Z" fill="#77737B"/>
<path d="M112.545 62.9532C112.905 63.2893 113.431 63.6079 113.616 63.9488C113.687 64.0792 113.667 64.1378 113.803 64.2222C113.623 64.3749 113.316 64.6179 113.173 64.7885C113.297 66.1322 113.915 66.3863 114.18 67.5535C113.224 66.6638 111.772 65.061 110.951 64.043L111.093 63.8547L111.181 63.8853C111.461 63.9814 111.555 64.0246 111.855 63.968L112.103 64.037C112.501 63.934 112.368 64.0203 112.624 63.728C112.726 63.2624 112.717 63.4298 112.545 62.9532Z" fill="#F989AA"/>
</g>
<defs>
<clipPath id="clip0_91_3990">
<rect width="103.67" height="138.497" fill="white" transform="translate(0 47.0652) rotate(-27)"/>
</clipPath>
</defs>
</svg>
