<svg width="107" height="113" viewBox="0 0 107 113" fill="none" xmlns="http://www.w3.org/2000/svg">
<path d="M12.0091 14.9688C13.5748 10.6386 16.0431 8.59326 20.4557 7.06761C31.4344 3.27182 44.3935 3.15061 55.1656 7.70339C58.1981 8.98511 60.4817 10.8346 61.6456 13.9501C62.4371 17.7444 61.7034 24.6931 61.4346 28.6951C61.3509 29.9417 59.7183 32.1955 58.8959 33.1151C58.4186 33.6489 56.209 35.112 56.0285 35.468C58.28 38.2069 61.235 39.7265 63.6342 42.2432C66.1979 44.9322 68.5525 48.9337 68.556 52.7569C68.5611 58.1678 68.8639 64.4894 68.3888 69.8511C68.1401 70.7935 65.8467 73.1684 65.0669 73.8662C63.0707 76.1617 60.9929 78.3941 58.943 80.6398C58.2034 81.45 56.4028 82.9677 55.8465 83.7198L55.6391 84.0242C54.7291 85.1437 54.6352 85.9008 54.159 87.2042C54.0868 87.9023 54.0274 88.4279 54.2669 89.1035C54.6972 90.6933 55.4872 94.8917 56.2523 96.25C55.8887 96.5871 55.29 97.2778 54.9862 97.5333C56.5499 97.732 57.0073 97.9436 58.4193 98.657L58.4065 98.8256C58.7548 99.0497 59.101 99.2771 59.445 99.5076L59.6168 99.6924C62.1708 101.584 62.5422 102.944 63.1683 105.702C61.4487 107.89 60.4535 107.899 58.3455 109.388C55.9652 111.069 53.4376 116.586 49.7238 113.747C51.131 112.529 50.4269 110.416 48.9345 110.139C48.5002 110.306 47.9479 110.474 47.692 110.879L47.0272 111.473C46.5698 112.151 45.0192 114.036 44.3938 114.492C43.7186 114.221 38.4183 114.859 37.0629 114.875C26.5671 115.002 12.3616 113.137 6.41053 103.324C3.85161 99.1038 4.25945 93.4478 4.2601 88.6426L4.26255 74.9222C4.2586 70.8511 4.09566 66.7738 4.10446 62.6884C4.13943 58.3825 3.55748 53.9133 4.70745 49.7053C6.66485 42.5426 12.2964 39.4484 18.2172 36.1083C18.1252 35.8158 15.779 34.0417 15.0266 33.1237C14.8328 33.0243 14.5882 32.7342 14.4488 32.5602C11.7766 29.2247 11.9462 25.0857 11.8963 21.0603C11.8716 19.0634 11.8319 16.9279 12.0091 14.9688Z" fill="#88B8CF"/>
<path d="M12.0093 14.9688C13.575 10.6386 16.0434 8.59326 20.4559 7.06761C31.4346 3.27182 44.3937 3.15061 55.1658 7.70339C58.1983 8.98511 60.4819 10.8346 61.6458 13.9501C62.4373 17.7444 61.7036 24.6931 61.4349 28.6951C61.3511 29.9417 59.7185 32.1955 58.8961 33.1151C58.4189 33.6489 56.2092 35.112 56.0287 35.468C51.4488 37.7452 48.4891 39.011 43.2397 39.5556C42.7392 39.6075 41.2286 39.7863 40.8263 39.726C37.4399 39.9534 35.2779 39.8374 31.9168 39.5873C31.2183 39.666 28.3974 39.0814 27.1185 39.0764C26.5629 38.8153 26.1584 38.7039 25.5663 38.5852C23.2057 38.112 21.1935 37.3214 19.0118 36.3206L18.2174 36.1083C18.1254 35.8158 15.7792 34.0417 15.0268 33.1237C14.833 33.0243 14.5885 32.7342 14.449 32.5602C11.7768 29.2247 11.9465 25.0857 11.8966 21.0603C11.8718 19.0634 11.8321 16.9279 12.0093 14.9688Z" fill="#76BBE2"/>
<path d="M61.6458 13.9501C62.4373 17.7445 61.7036 24.6931 61.4349 28.6951C61.3511 29.9417 59.7185 32.1955 58.8961 33.1151C58.4189 33.6489 56.2092 35.112 56.0287 35.468C51.4488 37.7452 48.4891 39.011 43.2397 39.5556C42.7392 39.6075 41.2286 39.7863 40.8263 39.726C37.4399 39.9534 35.2779 39.8374 31.9168 39.5873C31.2183 39.666 28.3974 39.0814 27.1185 39.0764C26.5629 38.8153 26.1584 38.7039 25.5663 38.5852C23.2057 38.112 21.1935 37.3214 19.0118 36.3206L18.2174 36.1083C18.1254 35.8158 15.7792 34.0417 15.0268 33.1237C14.833 33.0243 14.5885 32.7342 14.449 32.5602C11.7768 29.2247 11.9465 25.0857 11.8966 21.0603C11.8718 19.0634 11.8321 16.9279 12.0093 14.9688C13.0064 17.73 15.0435 19.9917 17.6855 21.2714C18.0571 21.4476 18.6269 21.6303 19.0235 21.7288C22.3985 23.2292 24.3415 23.9164 28.1026 24.4702C28.6463 24.6319 30.4678 24.7561 31.0968 24.8013C34.2662 25.0551 37.4533 24.9872 40.609 24.5986C42.5201 24.3566 44.1671 23.9901 46.2075 23.7605C46.6328 23.7343 48.3511 23.2806 48.8153 23.1578C52.7087 22.1591 56.1841 20.3908 59.0152 17.5086C59.873 16.6354 60.5534 15.6781 61.1081 14.593C61.1658 14.4803 61.4361 14.4068 61.5544 14.3689L61.6458 13.9501Z" fill="#27649C"/>
<path d="M12.0093 14.9688C13.0064 17.73 15.0435 19.9917 17.6855 21.2714C18.0571 21.4476 18.6269 21.6303 19.0235 21.7288C22.3985 23.2292 24.3415 23.9164 28.1026 24.4702C28.6463 24.6319 30.4678 24.7561 31.0968 24.8013C34.2662 25.0551 37.4533 24.9872 40.609 24.5986C42.5201 24.3566 44.1671 23.9901 46.2075 23.7605C43.3176 24.9833 42.769 24.4981 39.9537 24.9598C38.5515 25.1898 36.7534 26.6165 34.6335 26.3829C32.3956 28.2428 32.5234 31.0039 31.5087 33.6889C31.1906 34.5309 30.479 36.1275 30.2845 36.7888C30.6565 37.4675 31.8968 37.4195 32.6106 37.4238C28.9362 37.4907 22.888 36.1238 19.4762 34.7254C18.6244 34.3763 16.2414 33.0998 15.837 33.0205C16.1894 33.2477 16.7376 33.542 16.9132 33.8984C16.7663 34.1967 16.8748 34.0904 16.585 34.2354C15.5384 33.7838 16.1125 33.2391 15.0268 33.1237C14.833 33.0243 14.5885 32.7342 14.449 32.5602C11.7768 29.2247 11.9465 25.0857 11.8966 21.0603C11.8718 19.0634 11.8321 16.9279 12.0093 14.9688Z" fill="#5F9EC8"/>
<path d="M19.0117 36.3206C19.452 36.2926 20.5178 36.5578 20.8738 36.7746C22.212 37.5896 26.7863 38.1045 27.7532 38.8782C27.5107 39.0591 27.4326 39.0418 27.1185 39.0764C26.5628 38.8153 26.1583 38.7039 25.5663 38.5852C23.2056 38.112 21.1935 37.3214 19.0117 36.3206Z" fill="#10427A"/>
<path d="M31.9165 39.5873C32.3231 39.0708 37.5879 39.6667 38.556 39.5883C38.9784 39.5541 40.4306 39.5921 40.826 39.726C37.4395 39.9534 35.2776 39.8374 31.9165 39.5873Z" fill="#10427A"/>
<path d="M19.0234 21.7288C17.9998 21.0488 16.6594 19.8124 15.9263 19.364C17.068 19.2766 17.2231 19.8187 17.9787 20.545L18.1115 20.5349L17.9017 20.0064L18.2836 19.626C17.8669 19.0509 16.3023 18.4773 16.2708 17.9385C18.5943 19.2966 20.1372 21.0391 22.9626 21.8109C23.7099 22.015 25.6853 22.5154 26.3659 22.7838C27.9254 23.3989 31.0458 23.3452 32.2469 23.807C31.0245 23.7019 28.2197 23.215 27.2693 23.664L27.1526 23.8579L27.2747 24.0636C28.9773 24.4139 30.358 24.2741 32.0454 24.5167C31.1475 24.5052 28.8394 24.4043 28.1025 24.4702C24.3414 23.9164 22.3984 23.2292 19.0234 21.7288Z" fill="#B5D9EA"/>
<path d="M40.6083 9.91356C41.9445 9.58351 45.9933 11.7198 46.1737 13.1126C46.1939 13.1567 46.214 13.2008 46.2342 13.2449C47.0733 11.286 43.8843 10.4932 42.6689 9.82346C42.2991 9.61964 41.8587 9.76349 41.5052 9.43904C41.6677 9.37691 42.8098 9.6505 43.0389 9.72481C44.4527 10.1909 45.7259 11.0066 46.7403 12.0962C46.7287 12.8668 46.7825 14.1235 46.5187 14.7755L46.2791 14.9962L45.9903 14.8463C45.4612 15.331 44.4426 16.2812 43.8022 16.5954C41.5006 17.7242 38.6709 18.1501 36.1501 18.0861C34.4665 18.0433 30.8705 17.2525 29.7445 16.0415C28.6441 15.4153 28.0637 14.6572 27.7896 13.4232L27.6123 12.0588C28.16 11.4937 28.6301 11.0948 29.3578 10.7959C30.2874 10.3249 31.0543 9.99456 32.0998 9.82596C33.9316 9.46358 36.7901 9.68538 38.7815 9.71701C39.3877 9.74983 40.182 9.89711 40.6083 9.91356Z" fill="#549BC7"/>
<path d="M29.3578 10.7959C30.2874 10.3249 31.0543 9.99457 32.0998 9.82596C33.1099 9.80821 33.3515 9.72188 34.197 10.2854C34.851 10.2886 34.9967 9.86516 35.2941 10.0914L35.2752 10.0359C35.0737 10.2371 35.0446 10.2586 34.9087 10.5052C35.0135 10.6345 35.039 10.6846 35.1722 10.7873C34.9424 10.84 34.7815 10.8997 34.5504 10.8565C32.3214 11.4612 29.2859 12.0679 29.5473 15.1097C29.575 15.4326 29.7183 15.7758 29.7445 16.0415C28.6441 15.4153 28.0637 14.6572 27.7896 13.4232L27.6123 12.0588C28.16 11.4937 28.6301 11.0948 29.3578 10.7959Z" fill="#0E4C8F"/>
<path d="M29.3578 10.7959C30.2874 10.3249 31.0543 9.99457 32.0998 9.82596C33.1099 9.80821 33.3515 9.72188 34.197 10.2854C34.851 10.2886 34.9967 9.86516 35.2941 10.0914L35.2752 10.0359C35.0737 10.2371 35.0446 10.2586 34.9087 10.5052C35.0135 10.6345 35.039 10.6846 35.1722 10.7873C34.9424 10.84 34.7815 10.8997 34.5504 10.8565C33.0879 10.1493 29.8535 11.5963 28.5726 12.4671C28.3857 12.9078 28.1374 13.0955 27.7896 13.4232L27.6123 12.0588C28.16 11.4937 28.6301 11.0948 29.3578 10.7959Z" fill="#2F7AB4"/>
<path d="M27.6123 12.0588C28.16 11.4937 28.6301 11.0948 29.3578 10.7959C29.1749 11.7287 29.1136 11.7184 28.5726 12.4671C28.3857 12.9078 28.1374 13.0955 27.7896 13.4232L27.6123 12.0588Z" fill="#549BC7"/>
<path d="M32.0996 9.82596C33.9314 9.46358 36.7898 9.68539 38.7812 9.71701C39.0088 10.264 39.028 10.1082 38.9651 10.6515C38.3395 11.1726 36.2375 10.7373 35.172 10.7873C35.0388 10.6846 35.0133 10.6345 34.9085 10.5052C35.0444 10.2586 35.0735 10.2371 35.275 10.0359L35.2939 10.0914C34.9965 9.86516 34.8508 10.2886 34.1968 10.2854C33.3513 9.72188 33.1097 9.80821 32.0996 9.82596Z" fill="#4785B1"/>
<path d="M40.6079 9.91356C41.9441 9.58351 45.993 11.7198 46.1733 13.1126C46.1935 13.1567 46.2136 13.2008 46.2338 13.2449C47.0729 11.286 43.8839 10.4932 42.6686 9.82346C42.2988 9.61964 41.8584 9.76349 41.5048 9.43904C41.6673 9.37691 42.8095 9.6505 43.0385 9.72481C44.4523 10.1909 45.7255 11.0066 46.7399 12.0962C46.7283 12.8668 46.7822 14.1235 46.5183 14.7755L46.2788 14.9962L45.9899 14.8463C47.1801 11.9973 42.5351 10.5277 40.6079 9.91356Z" fill="#86C0D9"/>
<path d="M23.9629 100.321C19.8481 98.9884 13.7278 97.8604 10.7363 94.2352C9.68415 92.9603 9.86027 88.9385 9.85943 87.2843L9.86133 79.9765L9.86019 72.1372C9.85537 70.0967 9.18203 63.0361 12.8208 63.9261L12.7863 64.0129C15.2695 64.9199 17.6888 66.1493 20.2281 66.8408C26.2173 68.472 32.8146 69.1907 39.0188 69.1407C39.8228 69.1342 41.706 69.1519 42.412 68.9993C44.5328 68.9642 46.5171 68.2966 48.117 69.5549C48.4722 69.9396 48.7949 70.3715 48.8077 70.9265C48.9952 79.1044 48.7724 87.3407 48.8642 95.5204C48.9316 101.527 36.5839 101.592 32.4206 101.352C30.6368 101.259 28.8583 101.083 27.0911 100.823C26.4153 100.723 24.4925 100.355 23.9629 100.321Z" fill="#D4D4D5"/>
<path d="M48.1173 69.5549C47.4443 70.5063 40.8893 70.4925 39.4772 70.5261C29.3194 70.7682 20.7964 69.6718 11.7053 64.8557L11.7128 64.405L11.665 64.4246C12.1411 64.0948 12.2098 64.0751 12.7867 64.0129C15.2698 64.9199 17.6891 66.1493 20.2284 66.8408C26.2177 68.472 32.8149 69.1907 39.0192 69.1407C39.8231 69.1342 41.7063 69.1519 42.4123 68.9993C44.5332 68.9642 46.5174 68.2966 48.1173 69.5549Z" fill="#ECEBEB"/>
<path d="M46.8357 61.8309C47.0464 61.6394 50.6845 61.1543 51.3157 60.9955C54.0271 60.3142 56.422 59.285 59.1301 58.5412L59.0549 58.5055L59.2448 58.4561C58.1935 58.6119 55.0794 59.4048 54.3148 59.9519L54.1293 59.8801C53.7113 59.0096 54.2052 57.9779 53.5257 56.5749C52.8215 55.1208 52.143 55.0505 51.2844 53.9161C50.7749 53.2428 50.3438 51.3149 50.0301 50.3992C51.1062 50.1333 53.6862 51.28 55.0773 51.2211C56.2107 51.4561 56.9949 51.8627 58.0233 52.2151C66.6068 55.1556 64.6666 62.8612 64.8279 70.0432C64.854 71.2034 64.7001 72.6821 65.0668 73.8662C63.0706 76.1617 60.9928 78.3941 58.9429 80.6398C58.2033 81.45 56.4027 82.9676 55.8464 83.7197L55.639 84.0242C54.729 85.1437 54.6351 85.9008 54.1589 87.2042C54.0867 87.9023 54.0273 88.4279 54.2668 89.1035C54.6971 90.6933 55.4871 94.8917 56.2522 96.25C55.8886 96.5871 55.2899 97.2778 54.9861 97.5332C56.5498 97.732 57.0072 97.9436 58.4192 98.657L58.4064 98.8256C58.7547 99.0497 59.1009 99.2771 59.4449 99.5076L59.6167 99.6924C62.1707 101.584 62.5421 102.944 63.1682 105.702C61.4486 107.89 60.4534 107.899 58.3454 109.388C55.9651 111.069 53.4375 116.586 49.7237 113.747C51.1309 112.529 50.4268 110.416 48.9344 110.139C48.5001 110.306 47.9478 110.474 47.6919 110.879L47.0271 111.473C46.7198 110.908 46.7013 110.143 46.6349 109.489C46.4218 109.409 37.5684 110.512 35.9522 110.468C30.0234 110.31 25.0996 109.898 19.5034 107.657C20.4356 107.627 20.5364 107.248 21.7064 106.877L21.5799 106.634C21.8903 106.502 23.6217 107.056 24.2923 106.979C25.8416 106.801 30.181 105.346 30.6528 103.813C30.3099 102.638 28.6287 102.854 27.7355 102.346C26.998 101.938 26.3508 101.227 25.5994 100.854C25.0082 100.561 24.5437 100.891 23.9628 100.321C24.4923 100.355 26.4151 100.723 27.091 100.823C28.8582 101.083 30.6367 101.259 32.4204 101.352C36.5838 101.592 48.9315 101.527 48.8641 95.5204C48.7723 87.3407 48.9951 79.1043 48.8076 70.9265C48.7948 70.3715 48.4721 69.9396 48.1169 69.5549C46.5169 68.2966 44.5327 68.9642 42.4119 68.9993C42.0216 68.9431 41.1896 69.0067 40.9474 68.8504C43.2215 67.6684 46.1299 64.3604 46.9531 61.9441L46.8357 61.8309Z" fill="#4992B6"/>
<path d="M54.9865 97.5332C56.5502 97.732 57.0076 97.9436 58.4196 98.657L58.4068 98.8256C58.7551 99.0497 59.1013 99.2771 59.4453 99.5076L59.6171 99.6924C62.1711 101.584 62.5425 102.944 63.1686 105.702C61.449 107.89 60.4538 107.899 58.3458 109.388C55.9655 111.069 53.4379 116.586 49.7241 113.747C51.1313 112.529 50.4272 110.416 48.9348 110.139C48.5005 110.306 47.9482 110.474 47.6923 110.879L47.0275 111.473C46.7202 110.908 46.7017 110.143 46.6353 109.489C46.736 108.938 46.791 108.632 46.9736 108.106C47.4146 106.353 49.2822 104.873 50.3058 103.448C50.5609 103.093 50.7927 102.237 51.0061 101.744C51.06 101.696 51.1193 101.649 51.1611 101.59C52.3468 99.9034 53.7577 99.8899 54.4336 97.6969L54.9865 97.5332Z" fill="#C38363"/>
<path d="M54.9861 97.5332C56.5498 97.732 57.0072 97.9436 58.4192 98.657L58.4064 98.8256C58.575 99.5353 58.8253 99.9038 59.1853 100.525C58.7397 102.522 58.4818 102.782 56.5603 103.671C56.0411 105.032 55.4046 106.199 54.2767 107.173L54.3125 107.083C52.9645 108.498 52.6114 108.971 50.9181 109.999C50.6434 109.942 50.4823 109.916 50.2029 109.892C50.1468 109.914 50.0903 109.935 50.0336 109.956C49.4963 110.152 49.2874 109.914 48.7121 109.645C48.1849 109.598 47.7346 109.871 47.254 110.1C46.6927 109.707 47.3258 108.713 46.9731 108.106C47.4142 106.353 49.2818 104.873 50.3054 103.448C50.5605 103.093 50.7923 102.237 51.0057 101.744C51.0596 101.696 51.1189 101.649 51.1606 101.59C52.3464 99.9034 53.7573 99.8899 54.4332 97.6969L54.9861 97.5332Z" fill="#F5CAAA"/>
<path d="M58.4068 98.8256C58.7551 99.0497 59.1012 99.2771 59.4452 99.5076L59.6171 99.6924C59.1262 102.231 59.3667 102.746 56.9002 103.914C56.327 105.832 52.2003 111.26 50.1513 110.76C49.9445 110.386 49.9693 110.288 50.2033 109.892C50.4827 109.916 50.6438 109.942 50.9184 109.999C52.6118 108.971 52.9649 108.498 54.3129 107.083L54.2771 107.173C55.405 106.199 56.0415 105.032 56.5607 103.671C58.4822 102.782 58.7401 102.522 59.1856 100.525C58.8257 99.9038 58.5754 99.5353 58.4068 98.8256Z" fill="#E1A782"/>
<path d="M54.4334 97.6969C53.7575 99.8899 52.3466 99.9034 51.1609 101.59C51.1191 101.649 51.0598 101.696 51.0059 101.744C51.612 99.8134 52.4338 98.4131 54.4334 97.6969Z" fill="#FBD7BB"/>
<path d="M12.534 51.5446C11.8004 50.4535 12.5782 49.013 13.6594 48.4843C15.9064 47.3856 18.223 46.3974 20.4853 45.3192C20.9827 45.0822 22.0578 45.564 22.7577 45.1133C22.7559 44.7168 21.2848 44.4012 20.5221 43.5152C20.7328 43.5122 21.4939 44.0011 21.7377 44.1438C25.1742 46.1572 29.3574 46.7084 33.2579 47.1656C33.7839 47.2272 36.0022 47.2568 36.2212 47.3938C35.1581 48.0878 28.506 46.3603 27.6149 46.8884C27.6037 47.2396 27.6017 48.4911 27.4155 48.7309C27.1422 49.0828 26.9127 48.9628 26.7938 49.5492C28.37 48.3317 28.062 48.4547 30.0738 48.299C32.2229 48.1976 34.9704 47.9536 37.078 48.3719C40.4387 49.1613 43.9158 49.0141 47.2767 49.4352C49.1894 49.6747 53.3533 50.503 55.0777 51.2211C53.6866 51.28 51.1066 50.1333 50.0305 50.3992C50.3442 51.3149 50.7753 53.2428 51.2848 53.9161C52.1434 55.0505 52.8219 55.1208 53.5261 56.5749C54.2057 57.9779 53.7117 59.0096 54.1298 59.8801L54.3152 59.9519C55.0798 59.4048 58.1939 58.6119 59.2452 58.4561L59.0553 58.5055L59.1305 58.5412C56.4224 59.285 54.0275 60.3142 51.3161 60.9955C50.6849 61.1543 47.0468 61.6394 46.8361 61.8309L46.9535 61.9441C46.1303 64.3604 43.222 67.6684 40.9478 68.8504C41.19 69.0067 42.022 68.9431 42.4123 68.9993C41.7063 69.1519 39.8231 69.1342 39.0192 69.1407C32.8149 69.1907 26.2176 68.472 20.2284 66.8408C17.6891 66.1493 15.2698 64.9198 12.7867 64.0129L12.8211 63.9261L13.1313 63.8483L12.819 63.7383C12.2101 62.8482 11.4924 63.1304 10.4543 62.2653C8.51808 60.6521 8.12762 59.7862 7.80029 57.4876C8.13136 57.3152 9.75383 55.2706 9.78522 54.9481C9.32426 55.1936 8.9368 56.2234 8.02858 56.7521C8.20866 56.2521 9.99523 54.5218 10.2906 53.7793C10.5776 53.0579 11.9192 52.3193 12.534 51.5446Z" fill="#A2D3E7"/>
<path d="M12.534 51.5446C13.0108 51.2059 14.7596 50.5695 15.3699 50.4308L15.4317 50.5108C15.1413 50.6592 14.8534 50.8125 14.5681 50.9706C15.0514 51.9279 17.0242 57.2534 17.2781 57.4041C21.8161 60.0979 28.028 60.618 33.0721 61.6349C37.1757 62.4622 39.3803 62.4869 43.4838 61.957C44.4232 61.8357 46.0582 62.0764 46.8361 61.8309L46.9535 61.9441C46.1303 64.3604 43.222 67.6684 40.9478 68.8504C41.19 69.0067 42.022 68.9431 42.4123 68.9993C41.7063 69.1519 39.8231 69.1342 39.0192 69.1407C32.8149 69.1907 26.2176 68.472 20.2284 66.8408C17.6891 66.1493 15.2698 64.9199 12.7867 64.0129L12.8211 63.9261L13.1313 63.8483L12.819 63.7383C12.2101 62.8482 11.4924 63.1304 10.4543 62.2653C8.51808 60.6521 8.12762 59.7862 7.80029 57.4876C8.13136 57.3152 9.75383 55.2706 9.78522 54.9481C9.32426 55.1936 8.9368 56.2234 8.02858 56.7521C8.20866 56.2521 9.99523 54.5218 10.2906 53.7793C10.5776 53.0579 11.9192 52.3193 12.534 51.5446Z" fill="#91CAE1"/>
<path d="M7.8002 57.4876C8.12752 59.7862 8.51799 60.6521 10.4542 62.2653C11.4923 63.1304 12.21 62.8482 12.8189 63.7383L13.1312 63.8483L12.821 63.9261C9.18225 63.0361 9.8556 70.0967 9.86041 72.1372L9.86156 79.9765L9.85966 87.2844C9.86049 88.9385 9.68438 92.9603 10.7365 94.2352C13.728 97.8604 19.8483 98.9884 23.9631 100.321C24.544 100.891 25.0086 100.561 25.5997 100.854C26.3511 101.227 26.9984 101.938 27.7359 102.346C28.629 102.854 30.3103 102.638 30.6531 103.813C30.1813 105.346 25.8419 106.801 24.2926 106.979C23.622 107.056 21.8906 106.502 21.5802 106.634L21.7068 106.877C20.5367 107.248 20.436 107.627 19.5038 107.657C16.9767 106.95 11.2538 103.027 9.37391 100.899C6.55032 97.7014 7.01878 94.0594 6.98225 89.9232L6.88607 79.6717C6.82064 75.3396 6.42038 70.9629 6.57302 66.6216C6.64523 64.5677 6.11962 58.8728 7.8002 57.4876Z" fill="#86C0D9"/>
<path d="M56.3701 39.561L56.5196 39.697C56.6724 41.4041 53.1881 43.5945 51.8244 44.2616C51.8017 44.1145 51.7769 43.9552 51.7505 43.7839C52.339 43.4469 52.7848 43.3717 53.3475 42.9277C54.6663 41.8873 55.4504 40.9307 56.3701 39.561Z" fill="#4785B1"/>
<path d="M89.4646 34.3284C93.6593 31.7004 100.376 35.8485 103.891 38.0843C104.495 38.4683 105.162 38.9632 105.823 39.2167C105.93 39.2892 106.158 39.4249 106.226 39.5154C106.552 39.8513 107.273 40.5099 107.688 40.7547L109.012 41.9305C109.518 42.2664 109.759 42.4261 110.197 42.8392C111.53 44.2083 113.317 46.1541 114.673 47.4067C117.405 50.7049 120.408 54.3372 121.442 58.5858C122.388 62.4742 118.733 67.2801 114.574 66.6656C112.721 66.3919 110.512 65.7892 108.84 64.9371C106.848 67.4828 104.139 70.3492 101.972 72.7904C97.1005 78.2564 92.186 83.6837 87.2286 89.0717L79.2508 97.8046C76.9857 100.25 74.0399 104.075 70.5887 104.48C69.0165 104.665 66.5116 104.33 65.0583 103.703C64.4052 104.478 63.9126 105.007 63.1682 105.702C62.5421 102.944 62.1707 101.584 59.6168 99.6924L59.4449 99.5076C59.1009 99.2771 58.7547 99.0497 58.4065 98.8256L58.4192 98.657C57.0072 97.9436 56.5498 97.732 54.9861 97.5332C55.2899 97.2778 55.8887 96.5871 56.2522 96.25C55.4871 94.8917 54.6971 90.6933 54.2668 89.1035C54.0273 88.4279 54.0867 87.9023 54.1589 87.2042C54.6351 85.9008 54.729 85.1437 55.639 84.0241L55.8464 83.7197C56.4027 82.9676 58.2033 81.45 58.9429 80.6398C60.9928 78.3941 63.0706 76.1617 65.0668 73.8662C65.8466 73.1684 68.14 70.7935 68.3887 69.8511L68.65 69.7449C69.243 69.2645 71.8508 66.1337 72.5501 65.3577C76.6402 60.7623 80.771 56.2033 84.942 51.6813C86.0248 50.5176 88.0888 48.0069 89.2185 47.0741C89.0993 46.5688 88.1758 45.1098 87.8361 44.5844C85.6555 41.2118 85.5359 36.5894 89.4646 34.3284Z" fill="#71A0BA"/>
<path d="M78.1334 64.0339C79.1209 64.5338 80.4982 65.2814 81.2435 66.092C81.9031 66.5852 82.5486 67.0968 83.1794 67.6263C84.2865 68.4322 85.7483 69.051 86.8738 69.7884C89.6612 71.6147 94.1786 76.0552 91.3329 79.5711C89.7877 81.4802 87.6143 83.545 85.8913 85.3836C84.1461 87.241 82.4105 89.1073 80.6844 90.9824C79.4128 92.3709 76.6197 95.6309 75.1858 96.5215C73.5007 94.9284 70.9166 90.24 69.0691 89.15C68.6048 88.6265 67.7587 87.9108 67.2096 87.4214C66.2078 86.7292 64.1214 84.853 63.0469 84.6362L62.9268 84.5157C62.5931 84.192 62.4206 84.0804 61.9696 84.0218C61.5701 83.5852 61.6791 83.7972 61.5562 83.219C61.7765 82.3755 64.9502 79.0594 65.6842 78.228L71.7529 71.264C73.9485 68.7683 75.5375 66.2542 78.1334 64.0339Z" fill="#3470A5"/>
<path d="M78.1334 64.0339C79.1209 64.5338 80.4982 65.2814 81.2435 66.092L81.0445 66.2212C80.135 65.5035 79.1844 64.8077 78.1251 64.3286C77.6819 64.7671 76.0816 66.2646 75.9379 66.7944L76.0278 66.9913C76.3717 67.0664 76.2269 67.0822 76.5632 66.9009L76.7405 67.0377C74.587 68.9195 74.2585 70.1792 72.909 71.5043C73.6952 72.3374 76.4438 74.1657 77.4795 74.6862C77.9659 75.0946 78.2386 75.353 78.6729 75.8164C78.637 76.2885 78.4786 76.4134 78.1726 76.7769C78.35 77.0397 78.4985 77.1437 78.4487 77.4041C77.9627 79.1244 75.8168 81.5703 74.3396 82.513C72.9912 83.3735 72.0386 84.2275 70.7888 85.0742C69.6664 85.8345 67.5678 85.6298 67.2096 87.4214C66.2078 86.7292 64.1214 84.853 63.0469 84.6362L62.9268 84.5157C62.5931 84.192 62.4206 84.0804 61.9696 84.0218C61.5701 83.5852 61.6791 83.7972 61.5562 83.219C61.7765 82.3755 64.9502 79.0594 65.6842 78.228L71.7529 71.264C73.9485 68.7683 75.5375 66.2542 78.1334 64.0339Z" fill="#69A4CB"/>
<path d="M78.1334 64.0339C79.1209 64.5338 80.4982 65.2814 81.2435 66.092L81.0445 66.2212C80.135 65.5035 79.1844 64.8077 78.1251 64.3286C77.6819 64.7671 76.0816 66.2646 75.9379 66.7944L76.0278 66.9913C76.3717 67.0664 76.2269 67.0822 76.5632 66.9009L76.7405 67.0377C74.587 68.9195 74.2585 70.1792 72.909 71.5043L72.8507 71.3075L72.8209 71.3665C72.3886 72.2054 71.9129 72.3391 71.5145 73.125C71.696 73.2436 72.374 73.666 72.4778 73.7912C72.6453 74.1269 72.8101 74.4637 72.9724 74.802C73.1653 75.2109 72.9964 75.8928 72.8343 76.2947C72.5634 76.9538 72.0369 77.4751 71.3749 77.7391C70.5788 78.056 70.1123 78.0198 69.3655 77.6852C69.9215 78.1806 70.4869 78.6653 71.0616 79.1387C71.8689 79.7693 72.6999 80.3209 73.0684 81.2936C72.2933 82.3413 69.7739 80.4682 69.0074 79.9046C68.5127 79.5838 67.5064 78.8559 66.9843 78.7593C66.0852 78.9581 63.796 81.4491 63.5414 82.2231L63.6651 82.5747L63.6126 82.6757L63.2643 82.6838L63.1081 82.8718L63.258 83.1591L63.694 83.476C63.6102 83.9687 63.2794 83.9469 62.9268 84.5157C62.5931 84.192 62.4206 84.0804 61.9696 84.0218C61.5701 83.5852 61.6791 83.7972 61.5562 83.219C61.7765 82.3755 64.9502 79.0594 65.6842 78.228L71.7529 71.264C73.9485 68.7683 75.5375 66.2542 78.1334 64.0339Z" fill="#549BC7"/>
<path d="M71.5149 73.125C71.6965 73.2435 72.3744 73.666 72.4782 73.7912C72.6457 74.1269 72.8105 74.4637 72.9728 74.802C73.1657 75.2109 72.9968 75.8928 72.8347 76.2946C72.5638 76.9538 72.0373 77.4751 71.3753 77.739C70.5792 78.0559 70.1128 78.0198 69.366 77.6852L67.8984 76.963C68.9734 75.9085 70.6126 73.9041 71.5149 73.125Z" fill="#86C0D9"/>
<path d="M71.0619 79.1386C71.8692 79.7693 72.7003 80.3209 73.0688 81.2935C72.8648 81.3241 72.6601 81.3971 72.5079 81.2578C72.0766 80.8626 70.7574 79.7938 70.6055 79.3188C70.8408 79.3039 70.885 79.2753 71.0619 79.1386Z" fill="#2F7AB4"/>
<path d="M61.9697 84.0218C62.1742 83.6505 62.0782 83.6117 62.4254 83.1156C62.8625 82.9945 62.7721 83.043 63.2582 83.1591L63.6942 83.476C63.6103 83.9687 63.2796 83.9469 62.9269 84.5157C62.5933 84.192 62.4208 84.0804 61.9697 84.0218Z" fill="#86C0D9"/>
<path d="M63.6651 82.5747L63.5415 82.2231C63.7961 81.4491 66.0852 78.9581 66.9843 78.7593C67.5065 78.8559 68.5128 79.5838 69.0075 79.9046C69.5174 80.9567 68.8691 81.2627 68.3033 82.0838C67.8766 82.703 68.0778 83.1443 67.3434 83.592C66.056 83.7723 65.0494 82.6902 63.6651 82.5747Z" fill="#86C0D9"/>
<path d="M71.5146 73.125C71.913 72.3391 72.3888 72.2054 72.8211 71.3665L72.8508 71.3074L72.9092 71.5043C73.6953 72.3374 76.444 74.1657 77.4797 74.6862C77.9661 75.0946 78.2388 75.353 78.6731 75.8164C78.6372 76.2885 78.4788 76.4134 78.1728 76.7769C77.7928 77.1461 77.5522 77.2699 77.0702 77.4533C76.0173 77.2892 75.9595 76.1761 75.3153 75.684C74.4974 75.0591 73.358 74.3406 72.478 73.7912C72.3742 73.666 71.6962 73.2436 71.5146 73.125Z" fill="#4B8AB9"/>
<path d="M76.7407 67.0377C77.4164 67.4176 78.0871 67.8061 78.7531 68.203C79.211 68.3445 79.041 68.246 79.3909 68.6178C79.774 69.011 79.8959 69.1402 80.3492 69.4419C80.7426 70.5139 78.3326 74.3885 77.4796 74.6862C76.444 74.1657 73.6953 72.3374 72.9092 71.5043C74.2587 70.1792 74.5871 68.9195 76.7407 67.0377Z" fill="#8DBFDB"/>
<path d="M79.3907 68.6178C80.4238 69.0251 80.9411 69.4999 81.7094 70.2589C81.57 71.9948 80.762 73.5683 79.603 74.8459C79.5429 74.9121 78.7827 75.2941 78.6571 75.3631C78.6447 75.5658 78.6314 75.6138 78.6729 75.8164C78.2386 75.353 77.9659 75.0946 77.4795 74.6862C78.3325 74.3885 80.7425 70.5139 80.349 69.4419C79.8957 69.1402 79.7738 69.011 79.3907 68.6178Z" fill="#549BC7"/>
<path d="M76.5635 66.9009C78.0896 65.4169 78.831 66.4861 78.7532 68.203C78.0872 67.8061 77.4165 67.4176 76.7408 67.0377L76.5635 66.9009Z" fill="#549BC7"/>
<path d="M89.2188 47.0741C90.2934 46.8614 91.9112 44.2612 92.6974 44.0903C94.293 43.7432 99.7283 46.6647 100.983 47.504C101.147 47.6141 101.31 47.7255 101.472 47.8383C99.6171 50.3792 98.1802 52.7609 95.7249 54.7805C95.2357 55.1829 94.5923 55.963 94.0898 56.3025C94.0756 56.5183 94.0602 56.7339 94.0433 56.9495C93.359 57.1579 89.7042 55.562 88.9403 55.1601C88.2991 54.2674 87.5139 54.6013 86.9428 54.0564C86.6197 54.3167 86.2876 54.5566 86.0337 54.8834C85.0401 55.7711 81.622 59.7022 80.7556 60.8267C81.3616 61.2819 81.9786 61.7225 82.6058 62.148C83.2329 63.3303 84.6963 62.7269 84.6151 64.3836C84.5707 65.2889 83.9605 67.1407 83.1798 67.6263C82.5489 67.0968 81.9034 66.5852 81.2438 66.092C80.4985 65.2814 79.1212 64.5338 78.1337 64.0339C75.5379 66.2542 73.9488 68.7683 71.7533 71.264L65.6846 78.228C64.9505 79.0594 61.7769 82.3754 61.5565 83.219L61.4624 82.7095L61.3748 83.5305C60.4211 83.4159 57.8227 82.8197 57.6173 84.3524C57.5724 84.6885 57.6168 85.2916 57.7626 85.6053L58.0441 86.3539C57.201 86.3634 56.513 85.7644 56.4701 84.9149C56.6541 84.3497 57.3727 83.7245 57.8192 83.2649C57.6637 82.7475 57.7655 83.4449 56.9873 82.8585L56.9162 82.9219C56.585 83.2217 56.4201 83.4205 56.1351 83.7637L55.8467 83.7197C56.403 82.9676 58.2036 81.45 58.9432 80.6398C60.9931 78.3941 63.0709 76.1617 65.0671 73.8662C65.8469 73.1684 68.1403 70.7935 68.389 69.8511L68.6503 69.7449C69.2433 69.2645 71.8511 66.1338 72.5504 65.3577C76.6405 60.7623 80.7712 56.2034 84.9423 51.6813C86.0251 50.5176 88.0891 48.0069 89.2188 47.0741Z" fill="#B5D9EA"/>
<path d="M68.6503 69.7449L68.662 69.8369C68.7156 70.2341 68.747 70.3387 68.8816 70.7186C68.8534 71.8673 60.3644 80.4286 59.2556 82.1472C58.9563 82.6114 57.6108 82.8645 56.9873 82.8585L56.9162 82.9219C56.585 83.2217 56.4201 83.4205 56.1351 83.7638L55.8467 83.7198C56.403 82.9676 58.2036 81.45 58.9432 80.6398C60.9931 78.3941 63.0709 76.1617 65.0671 73.8662C65.8469 73.1684 68.1403 70.7936 68.389 69.8511L68.6503 69.7449Z" fill="#86C0D9"/>
<path d="M88.1487 52.8669C89.8779 53.6849 92.9034 54.8415 94.0899 56.3025C94.0757 56.5183 94.0602 56.7339 94.0434 56.9495C93.359 57.1579 89.7042 55.562 88.9404 55.1601C88.2991 54.2674 87.5139 54.6013 86.9429 54.0564L88.1487 52.8669Z" fill="#549BC7"/>
<path d="M89.4649 34.3284C93.6595 31.7004 100.376 35.8485 103.891 38.0843C104.495 38.4683 105.162 38.9632 105.823 39.2167C105.931 39.2892 106.159 39.4249 106.226 39.5154C106.552 39.8513 107.273 40.5099 107.688 40.7547L109.013 41.9305L108.902 42.0622L108.596 41.9206C107.989 42.8429 107.29 44.1057 106.288 44.5767C106.093 44.7275 104.864 44.9263 104.726 44.8263C100.527 41.7824 95.7299 38.1712 90.352 37.9305C90.0216 37.9158 87.0664 38.3672 86.8853 38.4719C86.976 36.3218 88.7011 35.8964 89.4649 34.3284Z" fill="#B5D9EA"/>
<path d="M86.9426 54.0564C87.5137 54.6013 88.2989 54.2674 88.9402 55.1601C88.5454 55.457 88.6642 55.2947 88.5083 55.7873L88.5989 55.87C89.4584 56.6395 91.643 57.8805 92.7403 58.2138L92.8564 58.4271L92.7076 58.5635C92.397 58.4201 92.0903 58.2683 91.788 58.1082C91.518 58.3787 91.7218 58.8497 91.4464 59.3245C90.8509 60.3515 88.7428 61.4682 87.7135 62.0763C87.7276 62.2391 88.2836 63.046 88.4721 63.4937C88.2949 63.2727 88.2025 63.1707 87.996 62.977C85.8255 65.5381 85.1498 63.1398 82.7171 62.1908L82.6056 62.148C81.9784 61.7225 81.3614 61.2819 80.7554 60.8267C81.6218 59.7022 85.0399 55.7711 86.0335 54.8834C86.2874 54.5566 86.6195 54.3167 86.9426 54.0564Z" fill="#B0D6E8"/>
<path d="M86.0335 54.8834L86.6933 54.5807L86.8117 54.6325C86.6002 54.8636 86.3259 55.1421 86.1523 55.3949C85.3163 56.3686 83.6573 58.4445 82.7885 59.2244C83.9153 59.858 87.5043 61.9154 87.996 62.977C85.8255 65.5381 85.1498 63.1398 82.7171 62.1908L82.6056 62.148C81.9784 61.7225 81.3614 61.2819 80.7554 60.8267C81.6218 59.7022 85.0399 55.7711 86.0335 54.8834Z" fill="#549BC7"/>
<path d="M86.9428 54.0564C87.5138 54.6013 88.2991 54.2674 88.9403 55.1601C88.5455 55.457 88.6643 55.2947 88.5084 55.7873C87.6122 55.1429 87.1617 54.8228 86.1524 55.3949C86.326 55.1421 86.6004 54.8636 86.8119 54.6325L86.6934 54.5807L86.0337 54.8834C86.2876 54.5566 86.6196 54.3167 86.9428 54.0564Z" fill="#86C0D9"/>
<path d="M57.7626 85.6053C57.6168 85.2916 57.5724 84.6885 57.6173 84.3524C57.8227 82.8197 60.4212 83.4159 61.3748 83.5305L61.4624 82.7095L61.5565 83.219C61.6795 83.7972 61.5705 83.5852 61.9699 84.0218C62.421 84.0804 62.5935 84.192 62.9272 84.5157L63.0473 84.6362C64.1218 84.853 66.2082 86.7292 67.21 87.4214C67.7591 87.9108 68.6052 88.6265 69.0695 89.15L68.8286 89.2466C68.5949 89.0486 68.2911 88.6598 68.131 88.6111C68.109 88.9688 68.2636 89.4531 68.2317 89.5461C67.5489 91.5389 66.3114 90.3844 67.5576 92.2961C66.6808 91.6246 65.791 90.9703 64.8885 90.3336C63.7203 89.4012 59.3906 86.7263 58.0442 86.3539L57.7626 85.6053Z" fill="#C2DCE8"/>
<path d="M57.7626 85.6053C57.6168 85.2916 57.5724 84.6885 57.6173 84.3524C57.8227 82.8197 60.4212 83.4159 61.3748 83.5305L61.4624 82.7095L61.5565 83.219C61.6795 83.7972 61.5705 83.5852 61.9699 84.0218C62.421 84.0804 62.5935 84.192 62.9272 84.5157L63.0473 84.6362C63.3362 85.7445 63.8376 85.5858 63.9887 86.3055C62.7266 86.2976 61.0464 86.1336 59.8307 85.816C59.0078 85.6011 59.0853 84.7923 57.9542 85.2289L57.7626 85.6053Z" fill="#E4F0F4"/>
<path d="M56.9871 82.8585C57.7652 83.4449 57.6634 82.7475 57.8189 83.2649C57.3724 83.7245 56.6538 84.3497 56.4698 84.9149C56.5128 85.7645 57.2007 86.3634 58.0438 86.3539C59.3903 86.7263 63.72 89.4012 64.8882 90.3336C64.2846 90.2362 63.9909 89.9731 63.422 89.6874C62.9694 89.9851 63.4539 92.0779 62.1909 92.6582C58.0335 94.5687 55.7366 88.2226 55.2773 85.1858C55.2901 85.2696 55.6264 84.0732 55.639 84.0242L55.8464 83.7198L56.1349 83.7638C56.4199 83.4205 56.5847 83.2217 56.9159 82.9219L56.9871 82.8585Z" fill="#86C0D9"/>
<path d="M56.2525 96.25C56.4964 96.1729 58.238 94.9208 58.7326 94.6217L60.8555 95.4794C60.7267 96.4424 60.3015 97.0184 59.783 97.8287C59.2931 98.0802 58.8323 98.2881 58.4195 98.657C57.0075 97.9436 56.5501 97.732 54.9863 97.5332C55.2902 97.2778 55.8889 96.5871 56.2525 96.25Z" fill="#B5D9EA"/>
<path d="M60.8555 95.4794C62.8411 96.9896 60.785 98.5093 59.4452 99.5076C59.1012 99.2771 58.755 99.0497 58.4067 98.8256L58.4195 98.657C58.8324 98.2881 59.2931 98.0803 59.7831 97.8288C60.3015 97.0184 60.7267 96.4424 60.8555 95.4794Z" fill="#86C0D9"/>
<path d="M54.1589 87.2042C54.7677 87.7281 54.9277 88.5429 54.2668 89.1035C54.0273 88.4279 54.0867 87.9023 54.1589 87.2042Z" fill="#86C0D9"/>
<path d="M106.814 20.342C107.115 19.5165 108.644 18.2292 109.464 17.8366C111.375 16.921 113.35 17.4789 115.224 18.1576C116.754 18.712 120.459 20.426 121.608 21.4789C123.653 22.517 129.619 27.7737 130.456 29.6633C130.914 30.2991 131.742 31.1851 132.092 31.8282C133.472 34.3613 136.158 38.0334 134.878 40.9537C134.12 42.6142 132.496 44.525 130.752 45.2194C129.255 45.8157 126.227 45.1496 124.945 44.1916C123.499 43.7141 120.838 41.9973 119.906 40.7737C118.839 42.4713 117.402 43.9718 116.151 45.5373C115.773 46.011 114.913 46.9367 114.674 47.4067C113.317 46.1541 111.53 44.2083 110.198 42.8392C109.759 42.4262 109.518 42.2664 109.013 41.9305L107.688 40.7547C107.273 40.5099 106.552 39.8513 106.226 39.5154C106.158 39.4249 105.93 39.2892 105.823 39.2167C107.252 37.2203 109.695 34.8252 111.418 32.9263C109.007 30.2154 103.667 24.1153 106.814 20.342Z" fill="#CB8E70"/>
<path d="M111.418 32.9263C112.322 32.3699 113.03 31.0387 114.183 30.844C114.797 30.7403 115.642 30.8863 116.274 30.9657C116.984 31.1045 118.583 31.6796 119.104 32.1458C120.782 33.4002 120.827 32.0757 122.839 33.5352C122.892 33.9346 123.064 34.7607 122.905 35.0699C122.361 34.1511 123.174 33.8023 121.932 33.1989L121.687 33.2429C121.67 34.0523 122.273 34.2299 122.608 34.8675C122.92 35.4615 122.933 36.342 123.387 36.8549C122.938 37.2087 122.695 37.3085 122.271 37.7293C121.768 38.2281 120.328 40.4675 119.906 40.7737C118.839 42.4713 117.402 43.9718 116.151 45.5373C115.773 46.011 114.913 46.9367 114.674 47.4067C113.317 46.1541 111.53 44.2083 110.198 42.8392C109.759 42.4262 109.518 42.2664 109.013 41.9305L107.688 40.7547C107.273 40.5099 106.552 39.8513 106.226 39.5154C106.158 39.4249 105.93 39.2892 105.823 39.2167C107.252 37.2203 109.695 34.8252 111.418 32.9263Z" fill="#B9785C"/>
<path d="M111.418 32.9263C112.322 32.3699 113.03 31.0387 114.183 30.844C114.797 30.7403 115.642 30.8863 116.274 30.9657C116.984 31.1045 118.583 31.6796 119.104 32.1458C119.081 32.6886 117.633 35.5487 117.264 35.7375C115.715 36.5295 115.502 36.6726 114.298 38.2061C113.857 38.854 113.471 39.3829 112.954 39.9686C112.26 40.7571 110.613 41.9412 110.198 42.8392C109.759 42.4262 109.518 42.2664 109.013 41.9305L107.688 40.7547C107.273 40.5099 106.552 39.8513 106.226 39.5154C106.158 39.4249 105.93 39.2892 105.823 39.2167C107.252 37.2203 109.695 34.8252 111.418 32.9263Z" fill="#FBD7BB"/>
<path d="M116.274 30.9657C116.984 31.1045 118.584 31.6796 119.105 32.1457C119.081 32.6886 117.634 35.5487 117.265 35.7375C115.716 36.5295 115.502 36.6726 114.298 38.2061C113.857 38.854 113.471 39.3829 112.955 39.9686C112.26 40.7571 110.614 41.9412 110.198 42.8392C109.76 42.4261 109.518 42.2664 109.013 41.9305L107.689 40.7547C107.274 40.5099 106.552 39.8513 106.227 39.5154C106.821 39.8096 109.398 40.7043 110.049 40.7334C110.967 40.4955 111.958 38.9428 112.692 38.3641C114.148 37.2152 115.134 35.8106 116.218 34.3405C116.21 34.3518 116.222 33.4814 116.259 33.4257C116.554 32.978 117.415 32.1468 117.385 31.6309C116.983 31.4067 116.659 31.2176 116.274 30.9657Z" fill="#E9B391"/>
<path d="M106.814 20.342C107.115 19.5165 108.644 18.2292 109.464 17.8366C111.375 16.921 113.35 17.4789 115.224 18.1576C116.755 18.712 120.459 20.426 121.608 21.4789C121.397 21.6103 121.338 21.566 121.127 21.4772C121.085 21.5805 121.961 23.5537 121.76 24.2571C121.47 25.2691 121.687 25.2778 120.684 25.7398C121.178 26.1484 121.297 26.0638 121.975 26.1868L121.963 26.3123C120.764 26.7999 119.737 25.787 118.714 25.1455C115.437 23.0896 111.733 21.8489 107.941 21.1572C107.665 21.1069 107.153 21.6531 106.621 21.5418C106.522 21.2672 106.79 20.7626 106.814 20.342Z" fill="#FBD7BB"/>
<path d="M48.9347 110.139C50.427 110.416 51.1312 112.529 49.724 113.747C49.0685 114.219 47.2151 116.377 46.5648 117.09L37.9948 126.595C36.5423 128.213 33.4352 132.043 31.5942 132.79C30.5887 132.278 30.1778 132.189 30.3117 130.938C30.7675 129.891 33.2929 126.947 34.1767 126.113C34.7819 125.26 36.6768 123.229 37.4509 122.347C39.7456 119.712 42.06 117.093 44.394 114.492C45.0194 114.036 46.57 112.151 47.0274 111.473L47.6922 110.879C47.9481 110.474 48.5004 110.306 48.9347 110.139Z" fill="#70818D"/>
<path d="M47.692 110.879C47.9479 110.474 48.5002 110.306 48.9345 110.139C49.3403 111.355 48.1468 112.119 47.2967 112.904C44.1119 115.944 41.1886 119.627 38.1958 122.872C37.8163 123.283 36.6289 124.851 36.2614 125.104C34.757 126.898 32.3691 129.654 30.711 131.3L30.5071 131.288L30.3115 130.938C30.7673 129.891 33.2927 126.947 34.1765 126.113C34.7818 125.26 36.6767 123.229 37.4507 122.347C39.7454 119.712 42.0598 117.093 44.3938 114.492C45.0192 114.036 46.5698 112.151 47.0272 111.473L47.692 110.879Z" fill="#B5D9EA"/>
</svg>
